<svg viewBox="0 0 313.4 119.67" version="1.1" xmlns="http://www.w3.org/2000/svg" xmlns:svg="http://www.w3.org/2000/svg">
    <path d="M-426,18.84h11.78V61.37H-426Z" transform="translate(490.77 -11.4)" fill="currentColor" />
    <path d="M-408,61.37V18.84h32.45v8.23h-20.64v8.79h19v8.26h-19v9h20.64v8.23Z" transform="translate(490.77 -11.4)"
        fill="currentColor" />
    <path d="M-369,61.37V18.84h32.38v8.23h-20.61v8.79h19v8.26h-19v9h20.61v8.23Z" transform="translate(490.77 -11.4)"
        fill="currentColor" />
    <path d="M-330,61.37V18.84h32.39v8.23h-20.61v8.79h19v8.26h-19v9h20.61v8.23Z" transform="translate(490.77 -11.4)"
        fill="currentColor" />
    <path
        d="M-463.79,19.31c1.88-1.48,4.24-.25,5.81,1.1a52.28,52.28,0,0,1,4.9,4.18l.28.15A82.17,82.17,0,0,1-441.49,37.5a3.42,3.42,0,0,1,.65,2.76c-1.06,2.67-3.23,4.81-5.11,7.13a86.6,86.6,0,0,1-13.29,12.09c-1,.69-2.32,1.32-3.49.79-3.55-1.89-6.59-4.93-9.67-7.73a66.55,66.55,0,0,1-10-11.34,3.34,3.34,0,0,1-.53-2,10.9,10.9,0,0,1,2.26-3.77,92.31,92.31,0,0,1,11.18-11.62l.44-.34a64.43,64.43,0,0,1,5.21-4.12m5.5-4.3-2.07-3c-.29-.15-.6-.37-.88-.5a1.88,1.88,0,0,0-1.82.47l-3.84,5a103.46,103.46,0,0,1-21.51,20.22c-.63.5-1.57,1-1.76,1.79a1.81,1.81,0,0,0,.63,1.79,105,105,0,0,1,17.9,15.58c1,1,1.76,2,2.7,3,1.6,2.11,3.46,4.25,4.93,6.51.48.5.54,1.25,1.26,1.5a2.19,2.19,0,0,0,1.79,0l.53-.53a106.5,106.5,0,0,1,24.35-24.56c.94-.85,2.73-1.13,2.76-2.7a2.41,2.41,0,0,0-1.1-1.82h-.16A94.39,94.39,0,0,1-448.15,26.5l-4.65-4.83c-1.89-2.11-3.74-4.43-5.5-6.66m-4.8,5.46c1.91-1.32,3.64.51,5.12,1.57A77.4,77.4,0,0,1-442.66,38a2.9,2.9,0,0,1,.32,2.82,43,43,0,0,1-3.9,5.09V46a103.19,103.19,0,0,1-11,10.46c-1.88,1.16-3.64,3.7-6.09,2.13A88.91,88.91,0,0,1-478.78,44c-.75-1.23-1.94-2.2-2.51-3.55-.72-1.82.94-3.14,1.89-4.56a80.55,80.55,0,0,1,16.3-15.39m1.22,3.77-.53,1.64-2.61,7.5c.63.06,1.48,0,2.1.06v.07l-.37,8.48.06.06a11.33,11.33,0,0,0,2.73,0v-.16l-.34-8.19.06-.29,2.29,0c-1.16-3-2.26-6.09-3.33-9.17Zm-8.89,11.65c-1.47.76-3.61,1.89-3.39,3.87A4.23,4.23,0,0,0-471.71,42c5.18,2.29,12.09,2.35,17.59.66,1.32-.54,3.14-1.26,3.39-3,0-1.35-1.44-2.2-2.51-2.74v-.06a3.14,3.14,0,0,1,1.16-.31v-.07c-1.82-.31-3.61-.78-5.37-1.25.31.78.57,1.57.85,2.42a7.65,7.65,0,0,1,1.66-.38c.94.34,2.3.88,2.42,2s-1.1,1.63-1.85,2.07a21.5,21.5,0,0,1-12.75.51c-1.13-.38-2.83-.85-3-2.33.82-1.91,3-2.32,4.71-2.82-.91-.57-1.82-1.1-2.73-1.76a8.15,8.15,0,0,0-2.67.84m7.42,8.45c-.16,3-.19,5.78-.41,8.8a16.94,16.94,0,0,0,3.77,0l-.35-8.39-.06-.41a20.86,20.86,0,0,1-3,0"
        transform="translate(490.77 -11.4)" fill="currentColor" />
    <path
        d="M-452.27,61.55a1.92,1.92,0,0,0-2,2,1.92,1.92,0,0,0,2,2,1.87,1.87,0,0,0,2-1.78v-.2a1.89,1.89,0,0,0-1.78-2h-.2m0,3.49a1.42,1.42,0,0,1-1.41-1.51,1.41,1.41,0,0,1,1.41-1.5,1.43,1.43,0,0,1,1.42,1.5A1.42,1.42,0,0,1-452.27,65m.88-1.91c0-.51-.31-.63-.85-.63H-453v2.1h.47v-.91h.22l.47.91h.53l-.53-.94c.31,0,.5-.16.5-.53m-.78.22h-.41v-.54h.31c.16,0,.41,0,.41.25s-.13.29-.31.29"
        transform="translate(490.77 -11.4)" fill="currentColor" />
    <path
        d="M 0.13835937,-10.731498 H 4.1421336 V 0 h 2.2137499 v -10.731498 h 4.0210695 v -1.911089 H 0.13835937 Z M 11.847021,0 h 2.21375 v -4.2459031 l 1.798672,-1.7900243 v 0 L 20.010224,0 h 2.75854 l -5.396016,-7.6011178 5.04147,-5.0414692 h -2.72395 l -5.629497,5.750561 v 0 -5.750561 h -2.21375 z m 12.097798,0 h 2.101333 v -9.7543354 h 0.03459 L 29.591611,0 h 1.824614 l 3.502222,-9.7543354 h 0.03459 V 0 h 2.10998 v -12.642587 h -3.078496 l -3.407099,9.901342 h -0.03459 l -3.484927,-9.901342 h -3.113086 z m 31.450815,-8.6215181 q -0.233482,-2.0580959 -1.70355,-3.1909129 -1.470068,-1.132817 -3.666523,-1.132817 -2.853662,0.03459 -4.444795,1.945678 -1.608428,1.8764992 -1.608428,4.6782764 0,2.7758348 1.608428,4.6609812 1.591133,1.91108875 4.444795,1.96297352 2.360756,-0.0172949 3.787587,-1.43547842 1.435479,-1.4008886 1.59978,-3.6838182 h -2.161865 q -0.121064,1.4008886 -0.925278,2.3348143 -0.812861,0.9598682 -2.300224,0.9771631 -1.997564,-0.03459 -2.922842,-1.5046582 -0.933926,-1.4354784 -0.916631,-3.3119773 -0.01729,-1.9110888 0.916631,-3.3292723 0.925278,-1.4527731 2.922842,-1.4873631 1.383593,0.01729 2.14457,0.709092 0.760976,0.6917965 1.011753,1.8073189 z m 5.949451,7.2725143 q -1.340356,-0.017295 -1.962974,-1.0376953 -0.639912,-0.9598681 -0.639912,-2.196455 0,-1.2625292 0.639912,-2.2137498 0.622618,-0.9771631 1.962974,-1.0117529 1.349004,0.03459 1.988916,1.0117529 0.61397,0.9512206 0.61397,2.2137498 0,1.2365869 -0.61397,2.196455 -0.639912,1.0204003 -1.988916,1.0376953 z m 0,1.59978015 q 2.231045,-0.0172949 3.433042,-1.38359365 1.193349,-1.314414 1.193349,-3.4503368 0,-2.1445702 -1.193349,-3.4762791 -1.201997,-1.3230614 -3.433042,-1.3403564 -2.21375,0.017295 -3.398452,1.3403564 -1.219292,1.3317089 -1.219292,3.4762791 0,2.1359228 1.219292,3.4503368 1.184702,1.36629873 3.398452,1.38359365 z M 67.700972,0 h 2.014858 v -12.642587 h -2.014858 z m 4.271843,0 h 2.014858 v -12.642587 h -2.014858 z m 12.52152,-4.055659 q 0.233481,-2.1618651 -0.933926,-3.718408 -1.167407,-1.5911327 -3.381157,-1.6257226 -2.058096,0.03459 -3.225503,1.426831 -1.201997,1.3835937 -1.201997,3.4070995 0,2.1359227 1.167407,3.4503367 1.150113,1.33170891 3.311978,1.36629875 1.539248,-0.0172949 2.672065,-0.82150874 1.115523,-0.81286131 1.470068,-2.30022451 h -1.911088 q -0.501553,1.5219531 -2.231045,1.5219531 -1.245234,-0.017295 -1.859204,-0.8301562 -0.605322,-0.7782715 -0.605322,-1.876499 z m -6.727724,-1.3317089 q 0.06918,-1.0549902 0.709091,-1.7294921 0.657207,-0.6745019 1.70355,-0.6917968 1.037695,0.017295 1.643018,0.7263867 0.605322,0.7090917 0.657207,1.6949022 z m 12.262098,3.7962352 q -1.245234,-0.017295 -1.824614,-0.9598681 -0.588028,-0.8993359 -0.588028,-2.0667431 -0.0173,-1.2106445 0.553438,-2.17916 0.54479,-0.9771631 1.859204,-1.0117529 1.323061,0.017295 1.893794,0.8993359 0.562085,0.8906884 0.562085,2.1272752 0,1.219292 -0.54479,2.1791601 -0.570733,0.9944579 -1.911089,1.0117529 z m 4.479384,-7.566528 h -2.023505 v 1.2625293 h -0.03459 q -0.389136,-0.7782715 -1.098228,-1.1501123 -0.726386,-0.3545459 -1.608427,-0.3545459 -1.945679,0.03459 -3.026612,1.3576513 -1.115522,1.314414 -1.115522,3.2255028 -0.0173,2.0148583 0.968516,3.3811571 Q 87.546888,-0.01729492 89.708753,0 q 1.807319,-0.01729492 2.741245,-1.6084277 h 0.03459 v 1.39224119 q 0.0173,2.32616691 -2.35211,2.34346181 -0.778271,0 -1.383593,-0.2507764 Q 88.15221,1.6084277 87.936023,0.77827144 h -2.014858 q 0.190244,1.57383786 1.426831,2.21374986 1.210645,0.6399121 2.663418,0.6399121 4.444795,0 4.496679,-4.10754373 z m 10.333717,5.1020017 q 0.23348,-2.1618651 -0.93393,-3.718408 -1.1674,-1.5911327 -3.38115,-1.6257226 -2.0581,0.03459 -3.225508,1.426831 -1.201997,1.3835937 -1.201997,3.4070995 0,2.1359227 1.167408,3.4503367 1.150112,1.33170891 3.311977,1.36629875 1.53925,-0.0172949 2.67207,-0.82150874 1.11552,-0.81286131 1.47006,-2.30022451 h -1.91109 q -0.50155,1.5219531 -2.23104,1.5219531 -1.245234,-0.017295 -1.859204,-0.8301562 -0.605322,-0.7782715 -0.605322,-1.876499 z m -6.727726,-1.3317089 q 0.06918,-1.0549902 0.709091,-1.7294921 0.657207,-0.6745019 1.703555,-0.6917968 1.03769,0.017295 1.64301,0.7263867 0.60532,0.7090917 0.65721,1.6949022 z m 17.390046,4.0383641 q -1.34036,-0.017295 -1.96297,-1.0376953 -0.63991,-0.9598681 -0.63991,-2.196455 0,-1.2625292 0.63991,-2.2137498 0.62261,-0.9771631 1.96297,-1.0117529 1.34901,0.03459 1.98892,1.0117529 0.61397,0.9512206 0.61397,2.2137498 0,1.2365869 -0.61397,2.196455 -0.63991,1.0204003 -1.98892,1.0376953 z m 0,1.59978015 q 2.23105,-0.0172949 3.43304,-1.38359365 1.19335,-1.314414 1.19335,-3.4503368 0,-2.1445702 -1.19335,-3.4762791 -1.20199,-1.3230614 -3.43304,-1.3403564 -2.21375,0.017295 -3.39845,1.3403564 -1.21929,1.3317089 -1.21929,3.4762791 0,2.1359228 1.21929,3.4503368 1.1847,1.36629873 3.39845,1.38359365 z m 5.39602,-7.90377885 h 1.50465 V 0 h 2.02351 v -7.6530025 h 1.72084 v -1.5046582 h -1.72084 v -0.9339253 q 0,-0.588028 0.30266,-0.778272 0.28537,-0.181597 0.6918,-0.181597 0.57938,0 0.93392,0.10377 v -1.573838 q -0.45831,-0.121064 -1.41818,-0.121064 -0.47561,0 -0.91663,0.08647 -0.45832,0.10377 -0.81286,0.389136 -0.35455,0.285366 -0.57073,0.812861 -0.23349,0.553438 -0.23349,1.4354788 v 0.7609765 h -1.50465 z M 132.59151,0 h 9.22684 v -1.9110888 h -7.01309 v -3.7011131 h 6.37318 v -1.8073192 h -6.37318 v -3.3119769 h 6.88338 v -1.911089 h -9.09713 z m 10.86986,0 h 2.01486 v -5.4046628 q 0,-1.0204003 0.62262,-1.7121972 0.57073,-0.6745019 1.59113,-0.6917968 1.75544,-0.017295 1.79003,2.0494481 V 0 h 2.0235 v -6.2867038 q -0.0778,-3.0957908 -3.2428,-3.1130858 -1.8765,0.03459 -2.85366,1.6257226 l -0.0346,-0.03459 v -1.3490039 h -1.91109 z m 14.14725,-1.5911327 q -1.24524,-0.017295 -1.82462,-0.9598681 -0.58802,-0.8993359 -0.58802,-2.0667431 -0.0173,-1.2106445 0.55344,-2.17916 0.54479,-0.9771631 1.8592,-1.0117529 1.32306,0.017295 1.89379,0.8993359 0.56209,0.8906884 0.56209,2.1272752 0,1.219292 -0.54479,2.1791601 -0.57073,0.9944579 -1.91109,1.0117529 z m 4.47938,-7.566528 h -2.0235 v 1.2625293 h -0.0346 q -0.38914,-0.7782715 -1.09823,-1.1501123 -0.72639,-0.3545459 -1.60843,-0.3545459 -1.94568,0.03459 -3.02661,1.3576513 -1.11552,1.314414 -1.11552,3.2255028 -0.0173,2.0148583 0.96851,3.3811571 0.97717,1.41818348 3.13903,1.4354784 1.80732,-0.01729492 2.74125,-1.6084277 h 0.0346 v 1.39224119 q 0.0173,2.32616691 -2.35211,2.34346181 -0.77827,0 -1.3836,-0.2507764 -0.59667,-0.2680712 -0.81286,-1.09822746 h -2.01485 q 0.19024,1.57383786 1.42683,2.21374986 1.21064,0.6399121 2.66341,0.6399121 4.4448,0 4.49668,-4.10754373 z M 164.17204,0 h 2.01486 v -9.1576607 h -2.01486 z m 0,-10.731498 h 2.01486 v -1.911089 h -2.01486 z M 168.39199,0 h 2.01486 v -5.4046628 q 0,-1.0204003 0.62262,-1.7121972 0.57073,-0.6745019 1.59113,-0.6917968 1.75543,-0.017295 1.79002,2.0494481 V 0 h 2.02351 v -6.2867038 q -0.0778,-3.0957908 -3.2428,-3.1130858 -1.8765,0.03459 -2.85366,1.6257226 l -0.0346,-0.03459 v -1.3490039 h -1.91109 z m 18.46233,-4.055659 q 0.23348,-2.1618651 -0.93393,-3.718408 -1.1674,-1.5911327 -3.38115,-1.6257226 -2.0581,0.03459 -3.22551,1.426831 -1.20199,1.3835937 -1.20199,3.4070995 0,2.1359227 1.1674,3.4503367 1.15012,1.33170891 3.31198,1.36629875 1.53925,-0.0172949 2.67207,-0.82150874 1.11552,-0.81286131 1.47007,-2.30022451 h -1.91109 q -0.50156,1.5219531 -2.23105,1.5219531 -1.24523,-0.017295 -1.8592,-0.8301562 -0.60532,-0.7782715 -0.60532,-1.876499 z m -6.72772,-1.3317089 q 0.0692,-1.0549902 0.70909,-1.7294921 0.6572,-0.6745019 1.70355,-0.6917968 1.03769,0.017295 1.64301,0.7263867 0.60533,0.7090917 0.65721,1.6949022 z m 16.57718,1.3317089 q 0.23348,-2.1618651 -0.93393,-3.718408 -1.16741,-1.5911327 -3.38116,-1.6257226 -2.05809,0.03459 -3.2255,1.426831 -1.202,1.3835937 -1.202,3.4070995 0,2.1359227 1.16741,3.4503367 1.15011,1.33170891 3.31198,1.36629875 1.53925,-0.0172949 2.67206,-0.82150874 1.11553,-0.81286131 1.47007,-2.30022451 h -1.91109 q -0.50155,1.5219531 -2.23104,1.5219531 -1.24524,-0.017295 -1.85921,-0.8301562 -0.60532,-0.7782715 -0.60532,-1.876499 z m -6.72773,-1.3317089 q 0.0692,-1.0549902 0.70909,-1.7294921 0.65721,-0.6745019 1.70355,-0.6917968 1.0377,0.017295 1.64302,0.7263867 0.60532,0.7090917 0.65721,1.6949022 z M 198.25169,0 h 2.01486 v -4.3583201 q 0.0173,-1.521953 0.72638,-2.3348143 0.6918,-0.7955664 1.75544,-0.7955664 0.23348,0 0.44102,0.017295 0.21618,0.03459 0.42372,0.06918 v -1.9456786 q -0.15565,-0.03459 -0.76097,-0.051885 -0.95122,0.017295 -1.69491,0.6139697 -0.76097,0.6226172 -0.97716,1.4008886 h -0.0346 v -1.7727294 h -1.89379 z m 6.2867,0 h 2.01486 v -9.1576607 h -2.01486 z m 0,-10.731498 h 2.01486 v -1.911089 h -2.01486 z M 208.75834,0 h 2.01486 v -5.4046628 q 0,-1.0204003 0.62262,-1.7121972 0.57073,-0.6745019 1.59113,-0.6917968 1.75543,-0.017295 1.79002,2.0494481 V 0 h 2.02351 v -6.2867038 q -0.0778,-3.0957908 -3.2428,-3.1130858 -1.8765,0.03459 -2.85366,1.6257226 l -0.0346,-0.03459 v -1.3490039 h -1.91109 z m 14.14725,-1.5911327 q -1.24524,-0.017295 -1.82462,-0.9598681 -0.58803,-0.8993359 -0.58803,-2.0667431 -0.0173,-1.2106445 0.55344,-2.17916 0.54479,-0.9771631 1.85921,-1.0117529 1.32306,0.017295 1.89379,0.8993359 0.56208,0.8906884 0.56208,2.1272752 0,1.219292 -0.54479,2.1791601 -0.57073,0.9944579 -1.91108,1.0117529 z m 4.47938,-7.566528 h -2.02351 v 1.2625293 h -0.0346 q -0.38913,-0.7782715 -1.09822,-1.1501123 -0.72639,-0.3545459 -1.60843,-0.3545459 -1.94568,0.03459 -3.02661,1.3576513 -1.11552,1.314414 -1.11552,3.2255028 -0.0173,2.0148583 0.96851,3.3811571 0.97716,1.41818348 3.13903,1.4354784 1.80732,-0.01729492 2.74124,-1.6084277 h 0.0346 v 1.39224119 q 0.0173,2.32616691 -2.3521,2.34346181 -0.77828,0 -1.3836,-0.2507764 -0.59667,-0.2680712 -0.81286,-1.09822746 h -2.01486 q 0.19025,1.57383786 1.42683,2.21374986 1.21065,0.6399121 2.66342,0.6399121 4.4448,0 4.49668,-4.10754373 z"
        fill="currentColor" transform="translate(0 92.8)" />
    <path
        d="M 1.3490038,0 H 3.5627537 V -12.642587 H 1.3490038 Z M 6.2694087,0 H 15.496249 V -1.9110888 H 8.4831586 V -5.6122019 H 14.856337 V -7.4195211 H 8.4831586 v -3.3119769 h 6.8833784 v -1.911089 H 6.2694087 Z M 17.424632,0 h 9.22684 v -1.9110888 h -7.01309 v -3.7011131 h 6.373178 v -1.8073192 h -6.373178 v -3.3119769 h 6.883379 v -1.911089 h -9.097129 z m 11.155224,0 h 9.22684 v -1.9110888 h -7.01309 v -3.7011131 h 6.373178 v -1.8073192 h -6.373178 v -3.3119769 h 6.883378 v -1.911089 h -9.097128 z m 15.314652,-4.2113133 q 0.103769,2.3348144 1.591132,3.41574693 1.470069,1.09822749 3.683819,1.09822749 1.962973,0 3.467631,-0.92527828 1.521953,-0.93392574 1.556543,-3.04390604 0,-1.0290478 -0.596675,-1.9283837 -0.605322,-0.8906885 -1.859204,-1.2971191 -2.161865,-0.5966748 -3.649228,-0.9685156 -0.674502,-0.1988916 -1.080933,-0.5880273 -0.423725,-0.3891357 -0.423725,-1.0463427 0,-0.4756103 0.224834,-0.8128614 0.216186,-0.319956 0.570732,-0.492905 0.354546,-0.198892 0.743682,-0.268071 0.406431,-0.06918 0.778271,-0.06918 1.167408,0 1.893794,0.492905 0.743682,0.518848 0.830156,1.7381397 h 2.21375 q -0.03459,-1.9975637 -1.409536,-3.0266107 -1.383593,-1.011753 -3.441689,-1.011753 -1.764082,0 -3.147676,0.882041 -1.435478,0.925278 -1.470068,2.8363667 -0.01729,1.0117528 0.596675,1.859204 0.605322,0.864746 2.196455,1.3490038 2.533706,0.6139697 3.77894,1.0463427 0.423726,0.1210645 0.726387,0.4756103 0.294013,0.3545459 0.311308,1.0809326 0,0.7436816 -0.596674,1.3057665 -0.622618,0.5880274 -2.075391,0.6053223 -1.357651,0.017295 -2.24834,-0.6399121 -0.933925,-0.6139697 -0.95122,-2.0667431 z m 11.025513,-3.4416892 h 1.521953 v 5.4046628 q -0.0173,1.1501122 0.501553,1.73813953 0.5102,0.57937985 2.032153,0.59667477 0.657207,-0.01729492 1.314414,-0.10376952 V -1.5738378 q -0.423725,0.086475 -0.847451,0.06918 -0.639912,0 -0.821509,-0.3199561 -0.172949,-0.319956 -0.155654,-0.9339257 v -4.8944626 h 1.824614 V -9.1576607 H 58.46548 v -2.7412453 h -2.023506 v 2.7412453 H 54.920021 Z M 69.785006,-9.1576607 H 67.7615 v 5.3181882 q 0,1.0809326 -0.47561,1.764082 -0.518848,0.7090917 -1.77273,0.7263867 -0.812861,0 -1.271177,-0.5102002 -0.484257,-0.4929053 -0.484257,-1.6862548 v -5.6122019 h -2.014859 v 5.8110935 q -0.05188,3.59734355 3.415747,3.59734355 0.795567,-0.0172949 1.504658,-0.42372556 0.709092,-0.4150781 1.098228,-1.09822749 h 0.03459 V 0 h 1.988916 z m 3.692466,4.6782762 q -0.0173,-1.2971191 0.588027,-2.3002245 0.596675,-0.994458 1.980269,-1.0290478 2.481821,0.051885 2.533705,3.2255027 0,1.2365869 -0.588027,2.196455 -0.631264,1.0204003 -1.980268,1.0376953 -1.297119,-0.017295 -1.911089,-0.9858105 -0.622617,-0.9252783 -0.622617,-2.1445702 z m 7.04768,-8.1632025 h -2.014858 v 4.6696284 h -0.03459 q -0.484258,-0.7609765 -1.314414,-1.0982275 -0.830156,-0.3286035 -1.73814,-0.3286035 -1.539248,0 -2.72395,1.1328174 -1.201997,1.1501122 -1.236587,3.6232859 0,2.0926855 1.080933,3.4589842 1.05499,1.40088861 3.19956,1.43547845 0.907984,0 1.66896,-0.3718408 0.760977,-0.35454588 1.167407,-1.11552245 h 0.03459 V 0 h 1.911089 z m 10.498014,8.586928 q 0.233482,-2.1618651 -0.933925,-3.718408 -1.167408,-1.5911327 -3.381157,-1.6257226 -2.058096,0.03459 -3.225503,1.426831 -1.201997,1.3835937 -1.201997,3.4070995 0,2.1359227 1.167407,3.4503367 1.150112,1.33170891 3.311977,1.36629875 1.539248,-0.0172949 2.672066,-0.82150874 1.115522,-0.81286131 1.470068,-2.30022451 h -1.911089 q -0.501553,1.5219531 -2.231045,1.5219531 -1.245234,-0.017295 -1.859204,-0.8301562 -0.605322,-0.7782715 -0.605322,-1.876499 z m -6.727724,-1.3317089 q 0.06918,-1.0549902 0.709092,-1.7294921 0.657207,-0.6745019 1.70355,-0.6917968 1.037695,0.017295 1.643017,0.7263867 0.605322,0.7090917 0.657207,1.6949022 z M 92.571061,0 h 2.014858 v -5.4046628 q 0,-1.0204003 0.622617,-1.7121972 0.570733,-0.6745019 1.591133,-0.6917968 1.755435,-0.017295 1.790025,2.0494481 V 0 h 2.023506 v -6.2867038 q -0.0778,-3.0957908 -3.242798,-3.1130858 -1.876499,0.03459 -2.853662,1.6257226 l -0.03459,-0.03459 v -1.3490039 h -1.911089 z m 9.235489,-7.6530025 h 1.52195 v 5.4046628 q -0.0173,1.1501122 0.50156,1.73813953 0.5102,0.57937985 2.03215,0.59667477 0.65721,-0.01729492 1.31441,-0.10376952 V -1.5738378 q -0.42372,0.086475 -0.84745,0.06918 -0.63991,0 -0.82151,-0.3199561 -0.17295,-0.319956 -0.15565,-0.9339257 v -4.8944626 h 1.82461 v -1.5046582 h -1.82461 v -2.7412453 h -2.02351 v 2.7412453 h -1.52195 z m 14.24237,1.8937938 h 3.90865 q 2.09269,0.017295 2.12728,1.9543261 -0.0346,1.9802684 -2.12728,1.9975634 h -3.90865 z M 113.83517,0 h 5.80245 q 2.46452,-0.01729492 3.58005,-1.0290478 1.08093,-0.9858105 1.08093,-2.4991161 -0.0173,-2.6720653 -2.36941,-3.2514451 v -0.03459 q 1.78138,-0.7609765 1.79868,-2.6980076 -0.0173,-1.5911325 -1.0204,-2.3694045 -1.01176,-0.760976 -2.7326,-0.760976 h -6.1397 z m 2.21375,-10.835268 h 3.60599 q 1.84191,-0.03459 1.85921,1.7294921 -0.0173,0.8560986 -0.5102,1.2971191 -0.5275,0.4583154 -1.34901,0.4583154 h -3.60599 z M 126.01944,0 h 2.01486 v -4.3583201 q 0.0173,-1.521953 0.72639,-2.3348143 0.69179,-0.7955664 1.75543,-0.7955664 0.23348,0 0.44102,0.017295 0.21619,0.03459 0.42373,0.06918 v -1.9456786 q -0.15566,-0.03459 -0.76098,-0.051885 -0.95122,0.017295 -1.6949,0.6139697 -0.76098,0.6226172 -0.97717,1.4008886 h -0.0346 v -1.7727294 h -1.89379 z m 11.88162,-4.5831541 v 1.5046582 q 0,0.4756103 -0.20754,0.7955663 -0.23348,0.3199561 -0.58803,0.5274951 -0.35454,0.1988916 -0.72639,0.3026611 -0.38913,0.1037696 -0.74368,0.1037696 -0.58802,0.017295 -1.1847,-0.2594239 -0.65721,-0.2507763 -0.6745,-0.9079833 0,-0.7782714 0.5102,-1.1155224 0.48426,-0.319956 1.13282,-0.4064306 0.69179,-0.1037696 1.36629,-0.1902442 0.65721,-0.095122 1.11553,-0.3545459 z m 2.0235,-2.1618651 q -0.0432,-1.4527733 -1.15876,-2.0753905 -1.08958,-0.5793799 -2.50776,-0.5793799 -1.56519,-0.017295 -2.76719,0.6139697 -0.57938,0.337251 -0.95122,0.9252783 -0.37184,0.5966748 -0.44967,1.5046581 h 2.02351 q 0.0865,-0.7436816 0.63991,-1.1155224 0.5102,-0.3372509 1.37495,-0.3372509 0.6572,-0.017295 1.26253,0.207539 0.61397,0.2507764 0.63126,1.0290478 -0.0173,0.8128613 -0.81286,0.9771631 -0.37184,0.086475 -0.86475,0.1383593 -0.4929,0.06918 -1.06363,0.1815967 -0.63992,0.051885 -1.25388,0.1729492 -0.62262,0.1643018 -1.13282,0.4410205 -0.51885,0.2853662 -0.82151,0.8215087 -0.31131,0.5447901 -0.31131,1.4095361 0.0173,1.3317089 0.95122,2.00621084 0.92528,0.67450191 2.17916,0.67450191 0.84745,0 1.72085,-0.28536619 0.84745,-0.26807128 1.45277,-0.83015621 v 0 Q 138.20372,-0.26807128 138.61015,0 q 0.40643,0.25077635 1.01175,0.25077635 0.6745,-0.0172949 1.27118,-0.23348143 V -1.3835937 q -0.31996,0.03459 -0.49291,0.03459 -0.4929,0.017295 -0.47561,-0.6917969 z M 142.10372,0 h 2.01486 v -5.4046628 q 0,-1.0204003 0.62262,-1.7121972 0.57073,-0.6745019 1.59113,-0.6917968 1.75544,-0.017295 1.79002,2.0494481 V 0 h 2.02351 v -6.2867038 q -0.0778,-3.0957908 -3.2428,-3.1130858 -1.8765,0.03459 -2.85366,1.6257226 l -0.0346,-0.03459 v -1.3490039 h -1.91109 z m 18.35856,-6.0878122 q -0.17295,-1.7035497 -1.33171,-2.516411 -1.15011,-0.7955664 -2.79313,-0.7955664 -2.24834,0.017295 -3.36386,1.4095361 -1.15011,1.3835937 -1.15011,3.510869 0,2.0494481 1.16741,3.3638621 1.11552,1.33170891 3.27738,1.36629875 3.5887,-0.0345898 4.19402,-3.68381815 h -2.01486 q -0.35454,2.0494481 -2.17916,2.084038 -1.29712,-0.017295 -1.8592,-1.0031055 -0.57073,-0.9425731 -0.57073,-2.1272752 0,-1.0636377 0.26807,-1.7208447 0.25077,-0.657207 0.62262,-1.0031054 0.38913,-0.3718408 0.81286,-0.5015527 0.44102,-0.1037695 0.81286,-0.1037695 1.77273,0.017295 2.09268,1.7208446 z M 162.11395,0 h 2.01485 v -5.4046628 q 0,-1.0204003 0.62262,-1.7121972 0.57073,-0.6745019 1.59113,-0.6917968 1.75544,-0.017295 1.79003,2.0494481 V 0 h 2.0235 v -6.2867038 q -0.0778,-3.0957908 -3.24279,-3.1130858 -0.90799,0 -1.63437,0.3891358 -0.72639,0.4064306 -1.11553,1.0636376 h -0.0346 v -4.6955708 h -2.01485 z"
        fill="currentColor" transform="translate(0 115.53)" />
    <polygon points="286.93 67.02 0.32 67.02 0.32 66.09 286.52 66.09 312.69 37.24 313.4 37.91 286.93 67.02"
        fill="currentColor" />
</svg>