<?xml version="1.0" encoding="UTF-8" standalone="no"?>
<!-- Created with Inkscape (http://www.inkscape.org/) -->

<svg
   width="100"
   height="100"
   viewBox="0 0 26.458334 26.458334"
   version="1.1"
   id="svg1"
   xmlns="http://www.w3.org/2000/svg"
   xmlns:svg="http://www.w3.org/2000/svg">
  <defs
     id="defs1">
    <linearGradient
       x1="0"
       y1="0"
       x2="1"
       y2="0"
       gradientUnits="userSpaceOnUse"
       gradientTransform="matrix(44.736458,0,0,44.736458,-8.2363761,11.036999)"
       spreadMethod="pad"
       id="linearGradient3">
      <stop
         style="stop-opacity:1;stop-color:#6ec72e"
         offset="0"
         id="stop2" />
      <stop
         style="stop-opacity:1;stop-color:#008350"
         offset="1"
         id="stop3" />
    </linearGradient>
  </defs>
  <g
     id="layer1">
    <g
       id="g1"
       transform="matrix(0.31264052,0,0,0.31264052,8.8109321,7.1138771)">
      <path
         id="path2"
         d="m -8.2362702,12.644961 2.6435051,8.948208 C -2.6800199,31.458213 30.189099,31.657885 36.499941,9.8177993 L 31.207216,-5.9270267 C 31.001194,-5.1544433 30.73273,-4.3867988 30.414524,-3.6304432 25.670368,10.561455 0.90014562,21.365275 -8.2362702,12.644961"
         style="fill:url(#linearGradient3);fill-opacity:1;fill-rule:evenodd;stroke:none;stroke-width:0.0352778" />
      <path
         id="path3"
         d="M 29.839144,-8.766888 26.959066,-22.126936 C 27.652274,-22.639875 11.005395,-19.514969 -2.8927802,-7.8570741 -7.7105255,-0.20532358 -11.210081,9.030752 1.3631665,11.958102 9.3957406,13.828883 20.721601,7.6242269 26.571363,-1.565282 25.446002,-0.79340417 24.365443,-0.06209579 23.752668,0.76199315 13.164043,14.997988 -9.7786853,11.154474 6.5117821,-3.218046 11.751167,-7.8419046 23.059107,-10.516313 29.839144,-8.766888"
         style="fill:#565353;fill-opacity:1;fill-rule:evenodd;stroke:none;stroke-width:0.0352778" />
      <path
         id="path4"
         d="M 28.884174,-9.6537714 25.94871,-22.754175 C 10.064643,-19.710408 -8.3186791,-7.3709463 -8.4800397,1.5127043 -8.6030886,8.0133408 -5.0002042,11.654713 0.39507365,12.864036 9.9593737,15.013863 26.966474,5.4278323 29.901232,-6.555324 L 27.299849,-6.7391212 C 20.951965,15.890869 -12.904649,12.638611 5.5966412,-3.929246 10.80149,-8.5926158 22.090732,-11.352749 28.884174,-9.6537714"
         style="fill:#231f20;fill-opacity:1;fill-rule:evenodd;stroke:none;stroke-width:0.0352778" />
      <path
         id="path5"
         d="m -4.4394992,38.150796 h -2.2973243 v 0.0074 l -6.2168625,0.01161 c -5.699583,-0.01161 -8.542609,2.254603 -8.542609,6.804061 0,4.549034 2.843026,6.820606 8.523983,6.820606 h 11.9440331 v 3.415595 l -11.9254071,0.01517 c -7.948542,0.0095 -11.917148,-3.390547 -11.917148,-10.220361 0,-6.819936 3.942994,-10.241457 11.836257,-10.262694 h 12.0062981 v 2.551994 0.856616 z m 14.3843737,8.372793 h 8.3460875 l -3.30588,-6.63247 c -0.331612,-0.646324 -0.609601,-0.971656 -0.837848,-0.971656 -0.230716,0 -0.508705,0.325332 -0.837141,0.971656 z m 10.0390685,3.40046 H 8.2205672 L 7.2709599,51.794477 5.7235354,55.210072 H 5.5676781 2.1942404 L 10.71647,38.184944 c 0.591256,-1.158769 1.072797,-1.949767 1.434747,-2.370631 0.530931,-0.601522 1.196976,-0.949607 1.977673,-1.04207 0.796925,0.09246 1.458383,0.434234 1.9812,1.025525 0.350308,0.39758 0.831144,1.190625 1.430867,2.387176 l 8.529814,17.025128 H 22.76489 l -1.993194,-3.711611 z m 12.661195,-6.618852 h 17.046223 v -0.0063 h 3.411715 v 5.053542 l 0.03175,1.739653 c 0,3.409103 -1.993548,5.11803 -5.968295,5.11803 H 41.193297 29.257413 l -0.03775,-3.375378 h 15.897226 2.319161 c 1.506008,0 2.255308,-0.870374 2.255308,-2.59581 V 46.679199 H 32.632085 v 0 h -3.374672 v -5.04818 l -0.03775,-1.7399 c 0,-3.40928 1.98755,-5.118876 5.968295,-5.118876 h 5.967589 11.947526 l 0.03175,3.378553 H 37.237247 34.918438 c -1.504597,0 -2.260953,0.859754 -2.268008,2.574572 l -0.0053,2.579829"
         style="fill:#231f20;fill-opacity:1;fill-rule:evenodd;stroke:none;stroke-width:0.0352778" />
      <path
         id="path6"
         d="m -24.870834,58.922638 h 0.381441 v 2.902701 h -0.381441 v -2.902701"
         style="fill:#231f20;fill-opacity:1;fill-rule:nonzero;stroke:none;stroke-width:0.0352778" />
      <path
         id="path7"
         d="m -23.80258,61.825339 v -2.906144 h 2.099857 v 0.343542 h -1.715382 v 0.887596 h 1.603072 v 0.343958 h -1.603072 v 0.98709 h 1.781115 v 0.343958 h -2.16559"
         style="fill:#231f20;fill-opacity:1;fill-rule:nonzero;stroke:none;stroke-width:0.0352778" />
      <path
         id="path8"
         d="m -21.096538,61.825339 v -2.906144 h 2.100157 v 0.343542 h -1.719122 v 0.887596 h 1.606233 v 0.343958 h -1.606233 v 0.98709 h 1.781105 v 0.343958 h -2.16214"
         style="fill:#231f20;fill-opacity:1;fill-rule:nonzero;stroke:none;stroke-width:0.0352778" />
      <path
         id="path9"
         d="m -18.390344,61.825339 v -2.906144 h 2.093524 v 0.343542 h -1.712207 v 0.887596 h 1.605951 v 0.343958 h -1.605951 v 0.98709 h 1.780964 v 0.343958 h -2.162281"
         style="fill:#231f20;fill-opacity:1;fill-rule:nonzero;stroke:none;stroke-width:0.0352778" />
      <path
         id="path10"
         d="m -12.498108,60.805452 0.384316,0.100873 c -0.07772,0.311161 -0.225178,0.552454 -0.433388,0.717958 -0.212478,0.165089 -0.465913,0.250114 -0.768949,0.250114 -0.312385,0 -0.569243,-0.06215 -0.762177,-0.193614 -0.197767,-0.124988 -0.349462,-0.312954 -0.449792,-0.550112 -0.100047,-0.243639 -0.150495,-0.502709 -0.150495,-0.780659 0,-0.300139 0.05623,-0.565411 0.168946,-0.790857 0.118392,-0.224758 0.280705,-0.396187 0.496393,-0.512632 0.212761,-0.114236 0.447005,-0.173492 0.703898,-0.173492 0.289913,0 0.533435,0.07152 0.730638,0.220486 0.198967,0.150205 0.337326,0.356221 0.414761,0.626043 l -0.376873,0.08543 c -0.06989,-0.21125 -0.162736,-0.362973 -0.294499,-0.460678 -0.12513,-0.09384 -0.287055,-0.144692 -0.4808,-0.144692 -0.224755,0 -0.412856,0.05361 -0.562081,0.16261 -0.150213,0.103349 -0.256752,0.2508 -0.312561,0.42788 -0.06241,0.181762 -0.09437,0.366558 -0.09437,0.559897 0,0.244878 0.03817,0.462467 0.109678,0.643128 0.07151,0.188793 0.184503,0.325219 0.334292,0.415894 0.150072,0.08971 0.319017,0.133807 0.493501,0.133807 0.215794,0 0.396734,-0.06146 0.550087,-0.187412 0.144145,-0.121267 0.24324,-0.3051 0.299473,-0.549977"
         style="fill:#231f20;fill-opacity:1;fill-rule:nonzero;stroke:none;stroke-width:0.0352778" />
      <path
         id="path11"
         d="m -11.572913,58.922638 h 0.380894 v 2.902701 h -0.380894 v -2.902701"
         style="fill:#231f20;fill-opacity:1;fill-rule:nonzero;stroke:none;stroke-width:0.0352778" />
      <path
         id="path12"
         d="m -10.12349,60.19939 h 0.8254644 c 0.1745898,0 0.3122437,-0.01199 0.4124326,-0.04906 0.099236,-0.03845 0.1754364,-0.10046 0.2253191,-0.176389 0.049177,-0.08006 0.077153,-0.168949 0.077153,-0.260311 0,-0.137943 -0.04699,-0.250804 -0.1501775,-0.337619 -0.098813,-0.08819 -0.2584097,-0.132292 -0.4707467,-0.132292 H -10.12349 Z m -0.384175,1.625949 v -2.906144 h 1.2881678 c 0.2583744,0 0.4526844,0.03238 0.5893858,0.08048 0.1324328,0.05112 0.237737,0.144557 0.3219098,0.276158 0.079093,0.130503 0.1192036,0.27795 0.1192036,0.437804 0,0.204639 -0.065581,0.380337 -0.1964972,0.516763 -0.1350434,0.144695 -0.3445228,0.232202 -0.6183137,0.272027 0.098778,0.04699 0.1781528,0.09839 0.2309284,0.146071 0.1126066,0.101286 0.2187222,0.231373 0.3179233,0.385988 l 0.5061656,0.790857 H -8.4323441 L -8.8168367,61.21749 c -0.1122891,-0.171429 -0.2062691,-0.305096 -0.2779536,-0.398254 -0.072319,-0.09067 -0.1349022,-0.157646 -0.1908528,-0.194028 -0.063253,-0.03803 -0.1192036,-0.06215 -0.17526,-0.07579 -0.049918,-0.0079 -0.1186744,-0.01516 -0.2187222,-0.01516 H -10.12349 v 1.291085 h -0.384175"
         style="fill:#231f20;fill-opacity:1;fill-rule:nonzero;stroke:none;stroke-width:0.0352778" />
      <path
         id="path13"
         d="m -5.5139545,60.805452 0.3833989,0.100873 c -0.080892,0.311161 -0.2248958,0.552454 -0.4347986,0.717958 -0.2079273,0.165089 -0.465067,0.250114 -0.7674329,0.250114 -0.312808,0 -0.5646914,-0.06215 -0.7657747,-0.193614 -0.1940278,-0.124988 -0.3429706,-0.312954 -0.4431595,-0.550112 -0.1067858,-0.243639 -0.1564217,-0.502709 -0.1564217,-0.780659 0,-0.300139 0.061736,-0.565411 0.1745898,-0.790857 0.114935,-0.224758 0.2809875,-0.396187 0.4935008,-0.512632 0.2126192,-0.114236 0.4441473,-0.173492 0.7002992,-0.173492 0.2935464,0 0.5367515,0.07152 0.7369881,0.220486 0.1976262,0.150205 0.3376084,0.356221 0.4122915,0.626043 l -0.3739798,0.08543 c -0.072778,-0.21125 -0.1690864,-0.362973 -0.29464,-0.460678 -0.1309159,-0.09384 -0.2907595,-0.144692 -0.4836937,-0.144692 -0.2277886,0 -0.4101041,0.05361 -0.5589058,0.16261 -0.150495,0.103349 -0.2568928,0.2508 -0.3191581,0.42788 -0.058984,0.181762 -0.088194,0.366558 -0.088194,0.559897 0,0.244878 0.034572,0.462467 0.107068,0.643128 0.075106,0.188793 0.1838325,0.325219 0.3372203,0.415894 0.1501775,0.08971 0.3159831,0.133807 0.4902906,0.133807 0.2162175,0 0.3965928,-0.06146 0.5466645,-0.187412 0.1503539,-0.121267 0.2509308,-0.3051 0.3038475,-0.549977"
         style="fill:#231f20;fill-opacity:1;fill-rule:nonzero;stroke:none;stroke-width:0.0352778" />
      <path
         id="path14"
         d="m -2.7526216,58.922638 h 0.3843162 v 1.678175 c 0,0.286219 -0.03362,0.517592 -0.098778,0.692601 -0.0641,0.171016 -0.1824567,0.312128 -0.3569406,0.419753 -0.175013,0.106522 -0.3999089,0.16123 -0.6806142,0.16123 -0.26924,0 -0.4909961,-0.04906 -0.6626931,-0.144005 -0.1752953,-0.09095 -0.3006725,-0.227516 -0.3723217,-0.40666 -0.071543,-0.173634 -0.1092905,-0.417407 -0.1092905,-0.722919 v -1.678175 h 0.3811764 v 1.672252 c 0,0.254659 0.0248,0.439592 0.071649,0.562239 0.046849,0.117546 0.1286934,0.207807 0.2416881,0.272712 0.11176,0.06353 0.2553759,0.09384 0.4175478,0.09384 0.2808464,0 0.4816476,-0.06132 0.6063545,-0.189755 0.118357,-0.128711 0.1779058,-0.371796 0.1779058,-0.739041 v -1.672252"
         style="fill:#231f20;fill-opacity:1;fill-rule:nonzero;stroke:none;stroke-width:0.0352778" />
      <path
         id="path15"
         d="m -1.6647959,58.922638 h 0.384175 v 2.902701 h -0.384175 v -2.902701"
         style="fill:#231f20;fill-opacity:1;fill-rule:nonzero;stroke:none;stroke-width:0.0352778" />
      <path
         id="path16"
         d="M 0.13740474,61.825339 V 59.262737 H -0.81827032 V 58.919195 H 1.4813823 v 0.343542 H 0.51815782 v 2.562602 H 0.13740474"
         style="fill:#231f20;fill-opacity:1;fill-rule:nonzero;stroke:none;stroke-width:0.0352778" />
      <path
         id="path17"
         d="m 1.7442018,60.891166 0.3621264,-0.02825 c 0.018486,0.144007 0.055809,0.262516 0.1183922,0.353191 0.062124,0.09247 0.1624542,0.171153 0.2943225,0.226137 0.1306337,0.0565 0.2804584,0.08144 0.4440062,0.08144 0.1491192,0 0.2776714,-0.01791 0.3904192,-0.06132 0.112148,-0.0441 0.1960739,-0.100598 0.2492728,-0.177768 0.053481,-0.07938 0.083503,-0.159163 0.083503,-0.245978 0,-0.09385 -0.02727,-0.173909 -0.080045,-0.241296 C 3.552435,60.731037 3.4690736,60.67206 3.3435199,60.625204 3.2683077,60.59489 3.0967166,60.549413 2.8248307,60.48368 2.5620466,60.419189 2.3748979,60.359245 2.2688177,60.302056 2.1279535,60.230396 2.0243426,60.140826 1.9561154,60.031133 c -0.068615,-0.106938 -0.099201,-0.226138 -0.099201,-0.362977 0,-0.143316 0.039688,-0.279742 0.1245658,-0.405419 0.08061,-0.130775 0.2024239,-0.225033 0.3615973,-0.293522 0.1627364,-0.06174 0.3377494,-0.09977 0.5349522,-0.09977 0.2156531,0 0.403084,0.03803 0.5714648,0.105421 0.1620661,0.06959 0.2881489,0.169361 0.3748264,0.307301 0.088194,0.133671 0.1382183,0.28677 0.144145,0.456131 l -0.3683353,0.02756 c -0.018874,-0.184517 -0.088195,-0.32246 -0.2008012,-0.416302 -0.1150408,-0.09343 -0.2809522,-0.139044 -0.5056012,-0.139044 -0.2313516,0 -0.4002969,0.04272 -0.5097286,0.12664 -0.1061156,0.08433 -0.1592792,0.187688 -0.1592792,0.305925 0,0.106934 0.038312,0.194441 0.1125714,0.260036 0.075918,0.06518 0.2655359,0.133671 0.5816601,0.206016 0.3115733,0.07152 0.5244747,0.133671 0.6430081,0.18452 0.1653469,0.08144 0.289948,0.181211 0.3713691,0.301241 0.082268,0.118508 0.1226609,0.254659 0.1226609,0.412033 0,0.151995 -0.044238,0.298757 -0.1311981,0.433942 -0.090805,0.133671 -0.2186869,0.239918 -0.3845983,0.319568 -0.1649589,0.07662 -0.3522487,0.113964 -0.555484,0.113964 -0.2661003,0 -0.4850694,-0.03735 -0.6595533,-0.115066 C 2.1440754,61.680783 2.0057512,61.568886 1.9060915,61.411926 1.8064671,61.262963 1.7503754,61.086574 1.7442018,60.891166"
         style="fill:#231f20;fill-opacity:1;fill-rule:nonzero;stroke:none;stroke-width:0.0352778" />
      <path
         id="path18"
         d="M 5.9991607,60.631268 H 6.9863741 L 6.683479,59.832145 C 6.5902046,59.581341 6.5245879,59.384146 6.4774568,59.224291 6.4366757,59.413084 6.3863696,59.5965 6.3210704,59.780329 Z M 5.1647353,61.825339 6.2800071,58.922638 H 6.693004 l 1.1868857,2.902701 H 7.4420924 L 7.1051543,60.944771 H 5.892904 L 5.5718409,61.825339 H 5.1647353"
         style="fill:#231f20;fill-opacity:1;fill-rule:nonzero;stroke:none;stroke-width:0.0352778" />
      <path
         id="path19"
         d="m 8.1868064,61.825339 v -2.906144 h 0.3902428 l 1.5274218,2.279964 v -2.279964 h 0.369288 v 2.906144 H 10.077166 L 8.5516844,59.543171 v 2.282168 h -0.364878"
         style="fill:#231f20;fill-opacity:1;fill-rule:nonzero;stroke:none;stroke-width:0.0352778" />
      <path
         id="path20"
         d="m 11.501754,61.481381 h 0.618772 c 0.189794,0 0.343605,-0.01902 0.449791,-0.05292 0.109362,-0.03528 0.195792,-0.0853 0.262467,-0.151035 0.08996,-0.09026 0.158397,-0.215526 0.21202,-0.368625 0.05292,-0.152685 0.07796,-0.340099 0.07796,-0.558793 0,-0.30372 -0.05256,-0.537298 -0.149578,-0.699907 -0.103364,-0.161918 -0.225073,-0.268856 -0.366184,-0.325216 -0.102305,-0.04272 -0.268111,-0.06215 -0.496005,-0.06215 H 11.50175 Z m -0.384528,0.343958 v -2.906144 h 1.000478 c 0.224719,0 0.396169,0.01833 0.514702,0.04341 0.168628,0.03707 0.309739,0.106108 0.42545,0.206706 0.152753,0.130913 0.271639,0.293522 0.343253,0.498849 0.07761,0.200368 0.115711,0.431053 0.115711,0.688192 0,0.219111 -0.02434,0.417686 -0.07796,0.588423 -0.05292,0.166882 -0.116416,0.311577 -0.19685,0.420165 -0.08079,0.109002 -0.16898,0.20078 -0.265994,0.262103 -0.09666,0.06601 -0.209903,0.116444 -0.346781,0.146761 -0.134408,0.03073 -0.286808,0.05154 -0.466019,0.05154 H 11.11723"
         style="fill:#231f20;fill-opacity:1;fill-rule:nonzero;stroke:none;stroke-width:0.0352778" />
      <path
         id="path21"
         d="m 15.041526,60.891166 0.358422,-0.02825 c 0.02223,0.144007 0.05997,0.262516 0.122767,0.353191 0.06209,0.09247 0.161925,0.171153 0.293864,0.226137 0.13088,0.0565 0.280458,0.08144 0.444147,0.08144 0.143228,0 0.274108,-0.01791 0.385586,-0.06132 0.113242,-0.0441 0.194381,-0.100598 0.250825,-0.177768 0.05574,-0.07938 0.08079,-0.159163 0.08079,-0.245978 0,-0.09385 -0.02505,-0.173909 -0.07444,-0.241296 -0.05644,-0.06628 -0.143933,-0.125261 -0.262466,-0.172117 -0.08149,-0.03031 -0.249414,-0.07579 -0.518584,-0.141524 -0.268817,-0.06449 -0.450144,-0.124435 -0.55633,-0.181624 -0.143934,-0.07166 -0.243417,-0.16123 -0.312209,-0.270923 -0.06879,-0.106938 -0.103364,-0.226138 -0.103364,-0.362977 0,-0.143316 0.04127,-0.279742 0.125589,-0.405419 0.08396,-0.130775 0.202495,-0.225033 0.36442,-0.293522 0.156633,-0.06174 0.337961,-0.09977 0.532341,-0.09977 0.2159,0 0.406048,0.03803 0.5715,0.105421 0.162631,0.06959 0.290689,0.169361 0.377473,0.307301 0.08819,0.133671 0.137936,0.28677 0.144991,0.456131 l -0.369711,0.02756 c -0.02611,-0.184521 -0.08819,-0.322464 -0.2032,-0.416306 -0.115005,-0.09343 -0.284692,-0.139044 -0.505883,-0.139044 -0.23107,0 -0.399697,0.04272 -0.509764,0.12664 -0.106186,0.08433 -0.155575,0.187688 -0.155575,0.305925 0,0.106934 0.03704,0.194441 0.111478,0.260036 0.07161,0.06518 0.269875,0.133671 0.579614,0.206016 0.311502,0.07152 0.52705,0.133671 0.639233,0.18452 0.172156,0.08144 0.296333,0.181211 0.375708,0.301241 0.08079,0.118508 0.124884,0.254659 0.124884,0.412033 0,0.151995 -0.0441,0.298757 -0.137231,0.433942 -0.08784,0.133671 -0.213078,0.239918 -0.381353,0.319568 -0.16263,0.07662 -0.349955,0.113964 -0.555272,0.113964 -0.263525,0 -0.485422,-0.03735 -0.663575,-0.115066 -0.174978,-0.07855 -0.315383,-0.190445 -0.418747,-0.347405 -0.09984,-0.148963 -0.148872,-0.325352 -0.155928,-0.52076"
         style="fill:#231f20;fill-opacity:1;fill-rule:nonzero;stroke:none;stroke-width:0.0352778" />
      <path
         id="path22"
         d="M 18.697715,61.825339 V 60.59489 l -1.122186,-1.675695 h 0.466019 l 0.574675,0.874226 c 0.101953,0.165364 0.200378,0.332246 0.292453,0.493476 0.08819,-0.14883 0.194381,-0.321084 0.320322,-0.512632 l 0.560564,-0.85507 h 0.447323 l -1.158523,1.675695 v 1.230449 h -0.380647"
         style="fill:#231f20;fill-opacity:1;fill-rule:nonzero;stroke:none;stroke-width:0.0352778" />
      <path
         id="path23"
         d="m 20.452785,60.891166 0.363008,-0.02825 c 0.01235,0.144007 0.04939,0.262516 0.118533,0.353191 0.06174,0.09247 0.156281,0.171153 0.293511,0.226137 0.132292,0.0565 0.278342,0.08144 0.443442,0.08144 0.146756,0 0.27552,-0.01791 0.384175,-0.06132 0.115711,-0.0441 0.198261,-0.100598 0.254,-0.177768 0.05574,-0.07938 0.08079,-0.159163 0.08079,-0.245978 0,-0.09385 -0.02505,-0.173909 -0.08079,-0.241296 -0.05045,-0.06628 -0.138289,-0.125261 -0.256822,-0.172117 -0.08043,-0.03031 -0.253647,-0.07579 -0.517525,-0.141524 -0.2667,-0.06449 -0.45332,-0.124435 -0.563739,-0.181624 -0.137231,-0.07166 -0.239889,-0.16123 -0.309033,-0.270923 -0.06491,-0.106938 -0.09631,-0.226138 -0.09631,-0.362977 0,-0.143316 0.03704,-0.279742 0.118534,-0.405419 0.08431,-0.130775 0.205669,-0.225033 0.3683,-0.293522 0.156986,-0.06174 0.337608,-0.09977 0.53093,-0.09977 0.211667,0 0.403578,0.03803 0.569031,0.105421 0.162983,0.06959 0.293864,0.169361 0.381353,0.307301 0.08749,0.133671 0.134408,0.28677 0.143227,0.456131 l -0.367947,0.02756 c -0.0254,-0.184521 -0.09137,-0.322464 -0.203553,-0.416306 -0.115711,-0.09343 -0.283986,-0.139044 -0.502708,-0.139044 -0.237772,0 -0.405694,0.04272 -0.512586,0.12664 -0.106186,0.08433 -0.156281,0.187688 -0.156281,0.305925 0,0.106934 0.03704,0.194441 0.112889,0.260036 0.07444,0.06518 0.262467,0.133671 0.57397,0.206016 0.313266,0.07152 0.528814,0.133671 0.644878,0.18452 0.174272,0.08144 0.292805,0.181211 0.374297,0.301241 0.08114,0.118508 0.118886,0.254659 0.118886,0.412033 0,0.151995 -0.04057,0.298757 -0.132292,0.433942 -0.08678,0.133671 -0.214136,0.239918 -0.380647,0.319568 -0.161925,0.07662 -0.349956,0.113964 -0.555625,0.113964 -0.262467,0 -0.487186,-0.03735 -0.662164,-0.115066 -0.178506,-0.07855 -0.315736,-0.190445 -0.4191,-0.347405 -0.100189,-0.148963 -0.150283,-0.325352 -0.156633,-0.52076"
         style="fill:#231f20;fill-opacity:1;fill-rule:nonzero;stroke:none;stroke-width:0.0352778" />
      <path
         id="path24"
         d="m 24.027835,61.825339 v -2.562602 h -0.957086 v -0.343542 h 2.300111 v 0.343542 h -0.962025 v 2.562602 h -0.381"
         style="fill:#231f20;fill-opacity:1;fill-rule:nonzero;stroke:none;stroke-width:0.0352778" />
      <path
         id="path25"
         d="m 25.770557,61.825339 v -2.906144 h 2.100086 v 0.343542 h -1.715911 v 0.887596 h 1.60267 v 0.343958 h -1.60267 v 0.98709 h 1.78435 v 0.343958 h -2.168525"
         style="fill:#231f20;fill-opacity:1;fill-rule:nonzero;stroke:none;stroke-width:0.0352778" />
      <path
         id="path26"
         d="m 28.455549,61.825339 v -2.906144 h 0.577497 l 0.686506,2.056031 c 0.0635,0.192927 0.112889,0.336106 0.137936,0.431328 0.03457,-0.106109 0.08502,-0.263483 0.156633,-0.469498 l 0.693209,-2.017861 h 0.518936 v 2.906144 h -0.371475 v -2.430998 l -0.84067,2.430998 h -0.350308 l -0.837495,-2.472891 v 2.472891 h -0.370769"
         style="fill:#231f20;fill-opacity:1;fill-rule:nonzero;stroke:none;stroke-width:0.0352778" />
      <path
         id="path27"
         d="m 31.713099,60.891166 0.363361,-0.02825 c 0.01764,0.144007 0.05574,0.262516 0.121003,0.353191 0.0628,0.09247 0.159808,0.171153 0.290689,0.226137 0.132292,0.0565 0.282222,0.08144 0.4445,0.08144 0.149578,0 0.276931,-0.01791 0.386645,-0.06132 0.115005,-0.0441 0.197202,-0.100598 0.252941,-0.177768 0.05362,-0.07938 0.08467,-0.159163 0.08467,-0.245978 0,-0.09385 -0.02822,-0.173909 -0.08114,-0.241296 -0.04974,-0.06628 -0.141464,-0.125261 -0.262819,-0.172117 -0.07444,-0.03031 -0.249414,-0.07579 -0.515056,-0.141524 -0.265642,-0.06449 -0.453672,-0.124435 -0.559153,-0.181624 -0.137583,-0.07166 -0.243769,-0.16123 -0.313267,-0.270923 -0.06844,-0.106938 -0.09984,-0.226138 -0.09984,-0.362977 0,-0.143316 0.04057,-0.279742 0.125236,-0.405419 0.08149,-0.130775 0.206023,-0.225033 0.362303,-0.293522 0.159809,-0.06174 0.337256,-0.09977 0.531636,-0.09977 0.218723,0 0.405695,0.03803 0.574323,0.105421 0.16263,0.06959 0.287514,0.169361 0.375002,0.307301 0.09102,0.133671 0.137231,0.28677 0.144287,0.456131 l -0.3683,0.02756 c -0.0194,-0.184521 -0.08819,-0.322464 -0.200378,-0.416306 -0.116064,-0.09343 -0.28187,-0.139044 -0.506236,-0.139044 -0.231423,0 -0.399698,0.04272 -0.509412,0.12664 -0.106891,0.08433 -0.159455,0.187688 -0.159455,0.305925 0,0.106934 0.03739,0.194441 0.11183,0.260036 0.07585,0.06518 0.269876,0.133671 0.582084,0.206016 0.30868,0.07152 0.525286,0.133671 0.643114,0.18452 0.168628,0.08144 0.293158,0.181211 0.375708,0.301241 0.07796,0.118508 0.118533,0.254659 0.118533,0.412033 0,0.151995 -0.0441,0.298757 -0.131586,0.433942 -0.09384,0.133671 -0.218722,0.239918 -0.383469,0.319568 -0.162631,0.07662 -0.349956,0.113964 -0.5588,0.113964 -0.264231,0 -0.485422,-0.03735 -0.660753,-0.115066 -0.1778,-0.07855 -0.315736,-0.190445 -0.418394,-0.347405 -0.09631,-0.148963 -0.152753,-0.325352 -0.159809,-0.52076"
         style="fill:#231f20;fill-opacity:1;fill-rule:nonzero;stroke:none;stroke-width:0.0352778" />
      <path
         id="path28"
         d="m 35.544619,60.891166 0.361597,-0.02825 c 0.0187,0.144007 0.05715,0.262516 0.122061,0.353191 0.05927,0.09247 0.159456,0.171153 0.291748,0.226137 0.130175,0.0565 0.281163,0.08144 0.446263,0.08144 0.146756,0 0.278342,-0.01791 0.382764,-0.06132 0.117123,-0.0441 0.201436,-0.100598 0.25647,-0.177768 0.05045,-0.07938 0.08184,-0.159163 0.08184,-0.245978 0,-0.09385 -0.02469,-0.173909 -0.08184,-0.241296 -0.04974,-0.06628 -0.136525,-0.125261 -0.257528,-0.172117 -0.07937,-0.03031 -0.253647,-0.07579 -0.519994,-0.141524 -0.265289,-0.06449 -0.452614,-0.124435 -0.559153,-0.181624 -0.137231,-0.07166 -0.242711,-0.16123 -0.312914,-0.270923 -0.06456,-0.106938 -0.09842,-0.226138 -0.09842,-0.362977 0,-0.143316 0.04269,-0.279742 0.123825,-0.405419 0.08079,-0.130775 0.206728,-0.225033 0.363008,-0.293522 0.161925,-0.06174 0.340431,-0.09977 0.531284,-0.09977 0.218722,0 0.408163,0.03803 0.574322,0.105421 0.16263,0.06959 0.287866,0.169361 0.37853,0.307301 0.08396,0.133671 0.134409,0.28677 0.141112,0.456131 l -0.369712,0.02756 c -0.01834,-0.184521 -0.08467,-0.322464 -0.198966,-0.416306 -0.113595,-0.09343 -0.28187,-0.139044 -0.507648,-0.139044 -0.231422,0 -0.399344,0.04272 -0.50553,0.12664 -0.107245,0.08433 -0.162983,0.187688 -0.162983,0.305925 0,0.106934 0.03845,0.194441 0.113241,0.260036 0.07867,0.06518 0.268111,0.133671 0.581025,0.206016 0.311856,0.07152 0.527403,0.133671 0.640292,0.18452 0.172155,0.08144 0.297392,0.181211 0.375355,0.301241 0.08467,0.118508 0.121003,0.254659 0.121003,0.412033 0,0.151995 -0.04269,0.298757 -0.130175,0.433942 -0.08819,0.133671 -0.216605,0.239918 -0.381353,0.319568 -0.168627,0.07662 -0.353483,0.113964 -0.559152,0.113964 -0.265995,0 -0.484364,-0.03735 -0.660048,-0.115066 -0.180975,-0.07855 -0.318558,-0.190445 -0.418394,-0.347405 -0.102658,-0.148963 -0.155928,-0.325352 -0.161925,-0.52076"
         style="fill:#231f20;fill-opacity:1;fill-rule:nonzero;stroke:none;stroke-width:0.0352778" />
      <path
         id="path29"
         d="m 38.662469,60.419189 c 0,0.346438 0.09349,0.624801 0.280811,0.824067 0.187678,0.198988 0.42545,0.299585 0.706614,0.299585 0.293159,0 0.524934,-0.100597 0.711553,-0.301652 0.188031,-0.202572 0.284692,-0.494993 0.284692,-0.866098 0,-0.237024 -0.04092,-0.443727 -0.121356,-0.619428 -0.0822,-0.174322 -0.196497,-0.312265 -0.349955,-0.411346 -0.157339,-0.09384 -0.328437,-0.144692 -0.518584,-0.144692 -0.268817,0 -0.505883,0.09495 -0.700264,0.281118 -0.195791,0.187413 -0.293511,0.500229 -0.293511,0.938446 m -0.399344,-0.0063 c 0,-0.485069 0.130527,-0.863201 0.390877,-1.130681 0.258234,-0.27547 0.589492,-0.412722 1.002242,-0.412722 0.266347,0 0.508706,0.06284 0.724606,0.193615 0.212725,0.124573 0.377825,0.304546 0.491419,0.533439 0.112536,0.228618 0.168275,0.489617 0.168275,0.778591 0,0.292834 -0.05997,0.558793 -0.1778,0.793062 -0.119944,0.231373 -0.289278,0.406383 -0.507647,0.524894 -0.214136,0.1192 -0.452614,0.18135 -0.701675,0.18135 -0.271992,0 -0.516114,-0.06987 -0.735542,-0.200091 -0.211314,-0.131465 -0.373944,-0.312541 -0.48648,-0.540054 -0.112536,-0.227927 -0.168275,-0.472666 -0.168275,-0.721403"
         style="fill:#231f20;fill-opacity:1;fill-rule:nonzero;stroke:none;stroke-width:0.0352778" />
      <path
         id="path30"
         d="m 43.605239,60.805452 0.387703,0.100873 c -0.08079,0.311161 -0.22472,0.552454 -0.437092,0.717958 -0.206728,0.165089 -0.463197,0.250114 -0.765881,0.250114 -0.31503,0 -0.571852,-0.06215 -0.766586,-0.193614 -0.192264,-0.124988 -0.342547,-0.312954 -0.445205,-0.550112 -0.09984,-0.243639 -0.153459,-0.502709 -0.153459,-0.780659 0,-0.300139 0.05997,-0.565411 0.174978,-0.790857 0.112183,-0.224758 0.277636,-0.396187 0.493889,-0.512632 0.212725,-0.114236 0.444147,-0.173492 0.6985,-0.173492 0.294922,0 0.538339,0.07152 0.738717,0.220486 0.194028,0.150205 0.330553,0.356221 0.412397,0.626043 l -0.382058,0.08543 c -0.06279,-0.21125 -0.162631,-0.362973 -0.289984,-0.460678 -0.128058,-0.09384 -0.290689,-0.144692 -0.484716,-0.144692 -0.221898,0 -0.409223,0.05361 -0.555273,0.16261 -0.154164,0.103349 -0.256116,0.2508 -0.320322,0.42788 -0.05891,0.181762 -0.09278,0.366558 -0.09278,0.559897 0,0.244878 0.03775,0.462467 0.112183,0.643128 0.06879,0.188793 0.182033,0.325219 0.331964,0.415894 0.15628,0.08971 0.318911,0.133807 0.497416,0.133807 0.215195,0 0.395817,-0.06146 0.546101,-0.187412 0.148519,-0.121267 0.250119,-0.3051 0.299508,-0.549977"
         style="fill:#231f20;fill-opacity:1;fill-rule:nonzero;stroke:none;stroke-width:0.0352778" />
      <path
         id="path31"
         d="m 44.530575,58.922638 h 0.381 v 2.902701 h -0.381 v -2.902701"
         style="fill:#231f20;fill-opacity:1;fill-rule:nonzero;stroke:none;stroke-width:0.0352778" />
      <path
         id="path32"
         d="m 45.599139,61.825339 v -2.906144 h 2.099028 v 0.343542 h -1.715206 v 0.887596 h 1.603375 v 0.343958 h -1.603375 v 0.98709 h 1.783998 v 0.343958 h -2.16782"
         style="fill:#231f20;fill-opacity:1;fill-rule:nonzero;stroke:none;stroke-width:0.0352778" />
      <path
         id="path33"
         d="m 49.036253,61.825339 v -2.562602 h -0.956381 v -0.343542 h 2.298701 v 0.343542 h -0.96132 v 2.562602 h -0.381"
         style="fill:#231f20;fill-opacity:1;fill-rule:nonzero;stroke:none;stroke-width:0.0352778" />
      <path
         id="path34"
         d="M 51.5886,61.825339 V 60.59489 l -1.115483,-1.675695 h 0.464608 l 0.572912,0.874226 c 0.10548,0.165364 0.206727,0.332246 0.292805,0.493476 0.0882,-0.14883 0.194028,-0.321084 0.320322,-0.512632 l 0.560917,-0.85507 h 0.450145 l -1.162403,1.675695 v 1.230449 H 51.5886"
         style="fill:#231f20;fill-opacity:1;fill-rule:nonzero;stroke:none;stroke-width:0.0352778" />
    </g>
  </g>
</svg>
