<?xml version="1.0" encoding="UTF-8" standalone="no"?>
<!-- Created with Inkscape (http://www.inkscape.org/) -->

<svg
   width="100"
   height="100"
   viewBox="0 0 26.458332 26.458333"
   version="1.1"
   id="svg1"
   xmlns="http://www.w3.org/2000/svg"
   xmlns:svg="http://www.w3.org/2000/svg">
  <defs
     id="defs1" />
  <g
     id="layer1">
    <g
       id="g1"
       transform="matrix(0.26540875,0,0,0.26540875,9.4098461,8.2371235)"
       style="fill:#ffffff">
      <g
         id="group-R5"
         transform="matrix(0.26458333,0,0,0.26458333,-35.454165,-10.846835)"
         style="fill:#ffffff">
        <path
           id="path2"
           d="m 2133.69,1103.66 c 5.47,12.16 17.5,14.58 22.92,-3.75 3.89,-13.18 37.08,-182.086 37.08,-182.086 0,0 1.4,-8.172 7.79,-18.332 h -115.62 c 25.27,111.868 45.24,198.408 47.83,204.168 z M 1879.16,388.32 c -15.83,-35 -60.83,-27.5 -70.47,16.18 0,0 -40.77,217.969 -87.49,464.992 h 268.45 C 1943.86,659.07 1889.33,410.82 1879.16,388.32 Z m -654.61,511.172 121.64,518.328 c 11.25,52.5 41.25,33.75 44.16,0 0.95,-10.97 49.08,-259.01 99.73,-518.328 z m 1187.47,0 h -137.87 c -28.72,17.875 -28.28,20.074 -35.46,51.66 -8.33,36.672 -28.33,173.338 -48.33,228.338 -20,55 -119.17,53.33 -136.67,-18.33 -6.73,-27.57 -29.99,-135.12 -57.51,-261.668 h -280.67 c -53.08,280.508 -111.94,588.228 -126.82,653.328 -39.53,173 -285.36,171.33 -315,-5 0,0 -88.34,-448.33 -113.34,-486.66 -25,-38.34 -23.33,-43.34 -80,-48.34 l -211.662,-1.66 -68.336,-290.008 h 264.998 c 121.67,10 138.34,81.661 146.68,125 l 5.48,23.34 h 278.43 c 55.07,-281.801 111.09,-566.672 111.09,-566.672 53.32,-186.66 309.63,-181.172 359.99,63.34 0,0 63.41,287.289 112.07,503.332 h 322.93 l 10,30"
           style="fill:#ffffff;fill-opacity:1;fill-rule:nonzero;stroke:none"
           transform="matrix(0.13333333,0,0,-0.13333333,0,224.17333)" />
        <path
           id="path3"
           d="m 2176.57,740.352 v 16.015 h 10.68 c 5.45,0 11.27,-1.179 11.27,-7.578 0,-7.961 -5.95,-8.437 -12.58,-8.437 z m 0,-6.641 h 9 l 13.65,-22.422 h 8.77 l -14.7,22.785 c 7.59,0.946 13.4,4.969 13.4,14.215 0,10.219 -6.05,14.719 -18.27,14.719 h -19.68 v -51.719 h 7.83 z m 9.48,-41.402 c 24.44,0 45.32,18.98 45.32,44.957 0,25.742 -20.88,44.726 -45.32,44.726 -24.66,0 -45.54,-18.984 -45.54,-44.726 0,-25.977 20.88,-44.957 45.54,-44.957 z m -36.53,44.957 c 0,21.242 16.01,37.257 36.53,37.257 20.28,0 36.3,-16.015 36.3,-37.257 0,-21.582 -16.02,-37.496 -36.3,-37.496 -20.52,0 -36.53,15.914 -36.53,37.496"
           style="fill:#ffffff;fill-opacity:1;fill-rule:nonzero;stroke:none"
           transform="matrix(0.13333333,0,0,-0.13333333,0,224.17333)" />
        <path
           id="path4"
           d="m 141.93,1001.58 c 0,0 0,8.62 3.316,9.94 h 105.43 c 18.566,0 21.879,-3.3 16.578,-29.165 -5.305,-25.871 -51.723,-237.382 -51.723,-237.382 0,-8.625 11.274,-13.262 11.938,-15.254 0.664,-1.992 2.652,-9.223 -5.309,-9.223 H 114.742 c -13.258,0 -17.242,7.895 -15.9139,22.484 0,0 53.7109,237.383 53.7109,244.012 0,6.629 -7.965,9.278 -9.285,11.934 -1.324,2.654 -1.324,2.654 -1.324,2.654"
           style="fill:#ffffff;fill-opacity:1;fill-rule:nonzero;stroke:none"
           transform="matrix(0.13333333,0,0,-0.13333333,0,224.17333)" />
        <path
           id="path5"
           d="m 553.043,720.84 c -12.637,0 -15.906,14.18 -15.25,21.476 0.66,7.293 11.145,56.77 13.922,59.012 5.566,4.488 8.617,2.649 10.609,-1.328 1.992,-3.973 -1.625,1.453 1.992,-3.973 5.305,-7.961 45.735,-10.461 77.579,-5.304 16.011,2.593 27.261,12.593 9.449,28.218 0,0 -59.688,36.25 -67.797,42.731 -7.473,5.969 -13.262,19.226 -10.609,33.816 0.945,5.215 19.738,77.676 24.535,88.86 5.965,13.918 20.55,25.852 42.433,27.182 h 138.586 c 5.305,-5.3 -7.387,-52.311 -11.937,-57.69 -7.289,-8.613 -11.129,-6.867 -22.399,-8.86 -11.269,-1.992 -49.215,3.567 -59.16,-6.386 -9.945,-9.949 3.317,-19.891 6.633,-21.223 3.312,-1.324 43.266,-28.683 48.363,-33.219 7.5,-6.672 30,-12.5 20.594,-63.593 -4.441,-24.149 -8.094,-99.743 -83.93,-99.719 H 553.043"
           style="fill:#ffffff;fill-opacity:1;fill-rule:nonzero;stroke:none"
           transform="matrix(0.13333333,0,0,-0.13333333,0,224.17333)" />
        <path
           id="path6"
           d="m 397.219,888.859 -25.196,-49.726 h 29.172 z M 250.016,721.094 c -14.586,0 -12.602,10.617 -9.946,15.254 2.657,4.64 125.985,246.007 125.985,251.308 0,5.305 -3.317,7.297 -5.965,10.61 -2.652,3.314 -5.969,11.934 0.664,13.264 h 116.703 c 18.559,0 23.871,-3.99 23.207,-33.163 0,0 15.25,-224.109 15.25,-232.73 0,-8.625 9.281,-8.633 11.934,-12.61 2.652,-3.972 3.316,-9.949 -1.989,-12.597 H 423.746 c -19.226,0 -18.562,9.289 -19.226,15.254 -0.665,5.968 -2.661,41.777 -2.661,41.777 -0.656,5.305 -6.629,3.312 -6.629,3.312 h -43.757 c -3.981,-1.992 -4.645,-5.968 -7.297,-11.269 -2.653,-5.305 -13.922,-26.516 -11.934,-31.164 1.988,-4.649 5.297,-5.313 6.625,-9.285 1.328,-3.977 1.992,-3.313 -1.984,-7.961 h -86.867"
           style="fill:#ffffff;fill-opacity:1;fill-rule:nonzero;stroke:none"
           transform="matrix(0.13333333,0,0,-0.13333333,0,224.17333)" />
        <path
           id="path7"
           d="m 2135.24,641.09 h 18.91 l -30.46,-160.192 h 48.57 l -3.14,-16.796 h -67.49 l 33.61,176.988"
           style="fill:#ffffff;fill-opacity:1;fill-rule:nonzero;stroke:none"
           transform="matrix(0.13333333,0,0,-0.13333333,0,224.17333)" />
        <path
           id="path8"
           d="m 2212.96,623.5 c 0.26,6.828 5.51,13.391 12.6,13.391 7.36,0 10.77,-5.512 10.25,-12.34 -0.53,-8.672 -6.3,-13.391 -13.14,-13.391 -6.82,0 -10.5,4.981 -9.71,12.34 z m -28.63,-159.398 24.16,127.097 h 18.92 l -24.43,-127.097 h -18.65"
           style="fill:#ffffff;fill-opacity:1;fill-rule:nonzero;stroke:none"
           transform="matrix(0.13333333,0,0,-0.13333333,0,224.17333)" />
        <path
           id="path9"
           d="m 2231.33,464.102 15.5,83.5 c 3.67,18.386 5.52,33.359 6.83,43.597 h 16.54 l -2.1,-20.219 h 0.53 c 10.24,15.489 21.27,22.321 34.14,22.321 15.75,0 21.8,-12.34 21.8,-25.742 0,-7.348 -1.06,-13.387 -2.37,-20.739 l -15.49,-82.718 h -18.91 l 15.49,82.449 c 1.05,5.777 1.84,11.027 1.84,17.597 0,7.614 -3.15,12.872 -11.03,12.872 -11.82,0 -26,-18.122 -30.72,-42.282 l -13.39,-70.636 h -18.66"
           style="fill:#ffffff;fill-opacity:1;fill-rule:nonzero;stroke:none"
           transform="matrix(0.13333333,0,0,-0.13333333,0,224.17333)" />
        <path
           id="path10"
           d="m 2334.53,464.102 34.4,181.718 h 18.64 l -20.74,-109.511 h 0.53 c 2.89,3.941 6.3,8.929 8.4,12.082 l 32.57,42.808 h 21.79 l -43.33,-53.57 24.68,-73.527 h -19.42 l -19.7,62.757 -9.72,-12.078 -9.71,-50.679 h -18.39"
           style="fill:#ffffff;fill-opacity:1;fill-rule:nonzero;stroke:none"
           transform="matrix(0.13333333,0,0,-0.13333333,0,224.17333)" />
        <path
           id="path11"
           d="m 2453.75,623.5 c 0.25,6.828 5.5,13.391 12.59,13.391 7.36,0 10.78,-5.512 10.25,-12.34 -0.53,-8.672 -6.3,-13.391 -13.14,-13.391 -6.82,0 -10.49,4.981 -9.7,12.34 z m -28.64,-159.398 24.16,127.097 h 18.92 l -24.42,-127.097 h -18.66"
           style="fill:#ffffff;fill-opacity:1;fill-rule:nonzero;stroke:none"
           transform="matrix(0.13333333,0,0,-0.13333333,0,224.17333)" />
        <path
           id="path12"
           d="m 2472.11,464.102 15.49,83.5 c 3.68,18.386 5.52,33.359 6.83,43.597 h 16.54 l -2.1,-20.219 h 0.53 c 10.24,15.489 21.27,22.321 34.14,22.321 15.75,0 21.8,-12.34 21.8,-25.742 0,-7.348 -1.06,-13.387 -2.37,-20.739 l -15.49,-82.718 h -18.91 l 15.49,82.449 c 1.05,5.777 1.84,11.027 1.84,17.597 0,7.614 -3.15,12.872 -11.03,12.872 -11.82,0 -26,-18.122 -30.72,-42.282 l -13.39,-70.636 h -18.65"
           style="fill:#ffffff;fill-opacity:1;fill-rule:nonzero;stroke:none"
           transform="matrix(0.13333333,0,0,-0.13333333,0,224.17333)" />
        <path
           id="path13"
           d="m 2650.14,575.441 c -2.62,1.309 -5.77,2.098 -11.02,2.098 -26,0 -40.44,-44.898 -40.97,-71.16 -0.26,-14.969 1.84,-27.578 12.87,-27.578 13.65,0 24.94,23.898 28.36,40.437 z m -73,-142.589 c 5.26,-2.891 13.39,-5.524 20.48,-5.524 19.17,0 27.05,13.922 32.04,37.293 l 4.47,19.957 h -0.53 c -10.76,-17.59 -21.27,-21.527 -30.46,-21.527 -14.71,0 -23.9,12.859 -24.16,36.758 -0.26,37.55 19.7,93.492 65.13,93.492 9.98,0 20.21,-2.891 27.05,-6.301 l -20.75,-110.039 c -4.99,-26.52 -11.03,-43.063 -19.96,-51.992 -8.67,-9.188 -20.22,-13.391 -33.87,-13.391 -9.72,0 -19.7,2.621 -24.95,6.043 l 5.51,15.231"
           style="fill:#ffffff;fill-opacity:1;fill-rule:nonzero;stroke:none"
           transform="matrix(0.13333333,0,0,-0.13333333,0,224.17333)" />
        <path
           id="path14"
           d="m 2099.27,327.32 h 9.19 c 21.27,0 37.55,19.43 37.55,44.641 0,13.66 -6.03,24.43 -23.1,24.43 -3.95,0 -7.88,-0.27 -10.78,-1.321 z m -3.15,81.93 c 8.93,1.578 18.64,2.629 27.83,2.629 13.93,0 25.22,-3.938 32.04,-11.027 6.56,-7.09 9.98,-16.543 9.98,-27.571 0,-24.691 -15.5,-47.011 -37.03,-54.101 v -0.52 c 10.77,-4.211 16.03,-16.551 16.28,-39.66 0.53,-24.422 1.58,-39.391 2.89,-44.898 h -19.17 c -1.31,5.25 -1.57,22.058 -1.83,43.847 -0.8,24.692 -6.57,34.141 -22.59,34.141 h -8.4 l -14.44,-77.988 h -18.65 l 33.09,175.148"
           style="fill:#ffffff;fill-opacity:1;fill-rule:nonzero;stroke:none"
           transform="matrix(0.13333333,0,0,-0.13333333,0,224.17333)" />
        <path
           id="path15"
           d="m 2221.9,347.02 c -11.3,0 -23.38,-13.918 -30.2,-41.5 20.22,0.269 41.49,7.101 41.49,27.582 0,8.929 -3.67,13.918 -11.29,13.918 z m 12.86,-106.622 c -9.19,-4.988 -18.9,-7.878 -29.93,-7.878 -26.79,0 -35.45,20.48 -35.45,44.91 0,34.398 19.17,85.871 55.41,85.871 18.64,0 26.26,-14.18 26.26,-28.891 0,-30.719 -27.31,-43.851 -61.98,-44.121 -0.52,-3.668 -1.31,-17.848 0.79,-25.469 2.89,-10.769 9.45,-16.539 19.43,-16.539 9.98,0 16.81,3.41 22.59,6.821 l 2.88,-14.704"
           style="fill:#ffffff;fill-opacity:1;fill-rule:nonzero;stroke:none"
           transform="matrix(0.13333333,0,0,-0.13333333,0,224.17333)" />
        <path
           id="path16"
           d="m 2254.19,253.789 c 3.94,-2.617 10.24,-6.039 19.69,-6.039 12.87,0.262 20.49,9.461 20.49,21.539 0,11.289 -5.52,18.121 -12.87,24.68 -8.67,7.883 -16.54,18.91 -16.54,30.992 0,21.527 15.75,38.34 39.65,38.34 8.4,0 15.76,-2.102 19.69,-4.992 l -5.25,-14.438 c -3.67,2.098 -9.45,3.93 -14.71,3.93 -13.12,0 -20.48,-8.66 -20.48,-19.692 0,-9.98 5.77,-15.757 11.82,-21.269 9.98,-8.668 17.86,-20.488 17.86,-33.352 0,-27.308 -17.86,-40.968 -41.49,-40.968 -9.98,0 -19.96,3.941 -23.64,6.832 l 5.78,14.437"
           style="fill:#ffffff;fill-opacity:1;fill-rule:nonzero;stroke:none"
           transform="matrix(0.13333333,0,0,-0.13333333,0,224.17333)" />
        <path
           id="path17"
           d="m 2384.7,347.02 c -11.3,0 -23.38,-13.918 -30.2,-41.5 20.22,0.269 41.49,7.101 41.49,27.582 0,8.929 -3.67,13.918 -11.29,13.918 z m 12.86,-106.622 c -9.18,-4.988 -18.9,-7.878 -29.93,-7.878 -26.78,0 -35.45,20.48 -35.45,44.91 0,34.398 19.17,85.871 55.41,85.871 18.65,0 26.26,-14.18 26.26,-28.891 0,-30.719 -27.31,-43.851 -61.98,-44.121 -0.52,-3.668 -1.31,-17.848 0.79,-25.469 2.89,-10.769 9.46,-16.539 19.44,-16.539 9.98,0 16.8,3.41 22.58,6.821 l 2.88,-14.704"
           style="fill:#ffffff;fill-opacity:1;fill-rule:nonzero;stroke:none"
           transform="matrix(0.13333333,0,0,-0.13333333,0,224.17333)" />
        <path
           id="path18"
           d="m 2491.57,347.02 c -2.36,0.519 -4.99,0.781 -7.88,0.781 -28.36,0 -44.11,-46.481 -44.9,-74.313 -0.27,-16.019 2.89,-25.207 11.81,-25.207 12.87,0 26.53,25.207 31.52,50.418 z m -16.02,-112.918 c 0.27,7.089 1.05,14.179 1.84,24.16 h -0.53 C 2464.26,236.719 2452.96,232 2443.51,232 c -14.71,0 -23.63,12.859 -23.63,35.711 0,38.598 20.49,95.59 69.59,95.59 8.92,0 18.12,-1.84 23.37,-4.199 l -14.71,-72.75 c -3.41,-17.063 -5.77,-38.071 -5.51,-52.25 h -17.07"
           style="fill:#ffffff;fill-opacity:1;fill-rule:nonzero;stroke:none"
           transform="matrix(0.13333333,0,0,-0.13333333,0,224.17333)" />
        <path
           id="path19"
           d="m 2516.24,234.102 16.02,85.339 c 3.15,17.071 4.73,32.297 5.51,41.758 h 16.55 c -0.26,-6.828 -0.79,-13.66 -2.11,-23.898 h 0.79 c 7.89,15.758 18.91,26 31.78,26 1.31,0 2.36,-0.262 3.41,-0.262 l -3.67,-19.961 c -0.53,0 -1.57,0.262 -2.37,0.262 -16.8,0 -30.98,-23.629 -34.66,-42.539 l -12.6,-66.699 h -18.65"
           style="fill:#ffffff;fill-opacity:1;fill-rule:nonzero;stroke:none"
           transform="matrix(0.13333333,0,0,-0.13333333,0,224.17333)" />
        <path
           id="path20"
           d="m 2635.73,236.199 c -4.74,-2.097 -12.08,-3.679 -20.75,-3.679 -25.47,0 -34.66,20.75 -34.66,45.429 0,37.031 21.8,85.09 63.28,85.09 5.52,0 9.98,-0.789 12.61,-2.109 l -4.99,-16.282 c -2.63,0.793 -5.52,1.84 -9.46,1.84 -26.52,0 -42.02,-37.808 -42.02,-66.437 0,-18.641 5.52,-31.25 20.23,-31.25 4.99,0 10.5,1.32 15.5,3.148 l 0.26,-15.75"
           style="fill:#ffffff;fill-opacity:1;fill-rule:nonzero;stroke:none"
           transform="matrix(0.13333333,0,0,-0.13333333,0,224.17333)" />
        <path
           id="path21"
           d="m 2651.46,234.102 34.14,181.718 h 19.17 l -13.65,-72.48 h 0.53 c 8.92,13.129 19.17,19.961 31.51,19.961 15.23,0 21.53,-11.821 21.53,-25.742 0,-6.821 -0.79,-12.598 -2.36,-21.27 l -15.5,-82.187 h -18.9 l 15.75,82.976 c 1.05,5.512 1.58,10.774 1.58,17.07 0,7.883 -3.42,12.872 -11.04,12.872 -12.59,0 -26.25,-18.911 -30.19,-40.18 l -13.92,-72.738 h -18.65"
           style="fill:#ffffff;fill-opacity:1;fill-rule:nonzero;stroke:none"
           transform="matrix(0.13333333,0,0,-0.13333333,0,224.17333)" />
        <path
           id="path22"
           d="m 2075.12,164.551 -6.83,-33.352 h 24.16 l -2.88,-14.711 h -23.9 l -13.66,-72.4763 c -1.31,-6.832 -1.84,-12.6015 -1.84,-16.0234 0,-6.2969 2.37,-9.707 8.66,-9.707 3.42,0 5.52,0 7.88,0.5195 l -1.57,-14.69924 c -4.46,-1.32031 -9.45,-1.83984 -13.66,-1.83984 -13.39,0 -21.27,7.87888 -21.27,20.47658 0,4.9922 0.53,10.2422 2.63,20.4805 l 13.91,73.2692 h -15.22 l 2.63,14.711 h 15.48 l 5.26,27.571 20.22,5.781"
           style="fill:#ffffff;fill-opacity:1;fill-rule:nonzero;stroke:none"
           transform="matrix(0.13333333,0,0,-0.13333333,0,224.17333)" />
        <path
           id="path23"
           d="m 2105.85,46.8984 c 0,-14.4375 1.04,-29.4101 14.44,-29.4101 23.1,0 32.82,54.1015 32.82,75.6328 0,13.1289 -2.36,24.4179 -13.39,24.4179 -21.01,0 -33.87,-45.6874 -33.87,-70.6406 z m 66.43,44.9102 C 2172.28,59.7695 2156.53,2 2117.66,2 c -23.63,0 -30.98,20.4805 -30.98,43.0586 0,34.1406 18.37,88.2424 56.19,88.2424 25.48,0 29.41,-24.422 29.41,-41.4924"
           style="fill:#ffffff;fill-opacity:1;fill-rule:nonzero;stroke:none"
           transform="matrix(0.13333333,0,0,-0.13333333,0,224.17333)" />
        <path
           id="path24"
           d="m 2255.5,93.1211 c 3.16,-0.793 6.04,-1.0508 10.25,-1.0508 27.04,0 38.86,26.7817 38.86,46.7387 0,16.019 -6.3,27.05 -25.47,27.05 -3.42,0 -7.09,-0.519 -9.98,-1.05 z m -2.36,86.1289 c 8.4,1.578 18.91,2.629 27.83,2.629 11.04,0 25.48,-3.149 33.35,-12.34 6.84,-7.617 9.72,-18.379 9.72,-28.629 0,-19.43 -8.14,-36.762 -17.85,-47.2694 -11.04,-12.082 -27.58,-17.8515 -42.02,-17.8515 -4.47,0 -8.4,0.5195 -11.82,1.0507 L 2238.7,4.10156 h -18.65 L 2253.14,179.25"
           style="fill:#ffffff;fill-opacity:1;fill-rule:nonzero;stroke:none"
           transform="matrix(0.13333333,0,0,-0.13333333,0,224.17333)" />
        <path
           id="path25"
           d="m 2319.83,4.10156 16.03,85.33984 c 3.14,17.0706 4.72,32.2966 5.5,41.7576 h 16.56 c -0.27,-6.828 -0.79,-13.66 -2.11,-23.898 h 0.79 c 7.88,15.758 18.9,26 31.78,26 1.3,0 2.36,-0.262 3.4,-0.262 l -3.67,-19.961 c -0.53,0 -1.57,0.262 -2.36,0.262 -16.81,0 -30.99,-23.6291 -34.67,-42.5392 l -12.6,-66.69924 h -18.65"
           style="fill:#ffffff;fill-opacity:1;fill-rule:nonzero;stroke:none"
           transform="matrix(0.13333333,0,0,-0.13333333,0,224.17333)" />
        <path
           id="path26"
           d="m 2454.55,117.02 c -2.37,0.519 -4.99,0.781 -7.88,0.781 -28.36,0 -44.12,-46.4807 -44.91,-74.3127 -0.26,-16.0195 2.89,-25.207 11.82,-25.207 12.87,0 26.52,25.207 31.51,50.4179 z M 2438.53,4.10156 c 0.27,7.08984 1.05,14.17974 1.84,24.16014 h -0.53 C 2427.24,6.71875 2415.94,2 2406.49,2 c -14.71,0 -23.63,12.8594 -23.63,35.7109 0,38.5977 20.48,95.5901 69.59,95.5901 8.92,0 18.11,-1.84 23.37,-4.199 l -14.71,-72.7504 c -3.41,-17.0625 -5.77,-38.0703 -5.51,-52.25004 h -17.07"
           style="fill:#ffffff;fill-opacity:1;fill-rule:nonzero;stroke:none"
           transform="matrix(0.13333333,0,0,-0.13333333,0,224.17333)" />
        <path
           id="path27"
           d="m 2539.1,6.19922 c -4.74,-2.09766 -12.08,-3.67969 -20.75,-3.67969 -25.47,0 -34.66,20.74997 -34.66,45.42967 0,37.0313 21.79,85.0898 63.28,85.0898 5.52,0 9.98,-0.789 12.61,-2.109 l -4.99,-16.282 c -2.63,0.793 -5.52,1.84 -9.46,1.84 -26.52,0 -42.01,-37.8083 -42.01,-66.4372 0,-18.6406 5.51,-31.25 20.22,-31.25 4.99,0 10.5,1.3203 15.49,3.1484 l 0.27,-15.74998"
           style="fill:#ffffff;fill-opacity:1;fill-rule:nonzero;stroke:none"
           transform="matrix(0.13333333,0,0,-0.13333333,0,224.17333)" />
        <path
           id="path28"
           d="m 2610.51,164.551 -6.83,-33.352 h 24.16 l -2.88,-14.711 h -23.9 L 2587.4,44.0117 c -1.31,-6.832 -1.84,-12.6015 -1.84,-16.0234 0,-6.2969 2.37,-9.707 8.66,-9.707 3.42,0 5.52,0 7.89,0.5195 l -1.58,-14.69924 c -4.46,-1.32031 -9.45,-1.83984 -13.66,-1.83984 -13.39,0 -21.27,7.87888 -21.27,20.47658 0,4.9922 0.53,10.2422 2.63,20.4805 l 13.91,73.2692 h -15.22 l 2.63,14.711 h 15.49 l 5.25,27.571 20.22,5.781"
           style="fill:#ffffff;fill-opacity:1;fill-rule:nonzero;stroke:none"
           transform="matrix(0.13333333,0,0,-0.13333333,0,224.17333)" />
        <path
           id="path29"
           d="m 2649.64,163.5 c 0.25,6.828 5.5,13.391 12.59,13.391 7.36,0 10.77,-5.512 10.25,-12.34 -0.53,-8.672 -6.3,-13.391 -13.14,-13.391 -6.82,0 -10.5,4.981 -9.7,12.34 z M 2621,4.10156 2645.16,131.199 h 18.92 L 2639.65,4.10156 H 2621"
           style="fill:#ffffff;fill-opacity:1;fill-rule:nonzero;stroke:none"
           transform="matrix(0.13333333,0,0,-0.13333333,0,224.17333)" />
        <path
           id="path30"
           d="m 2727.89,6.19922 c -4.74,-2.09766 -12.08,-3.67969 -20.75,-3.67969 -25.47,0 -34.66,20.74997 -34.66,45.42967 0,37.0313 21.79,85.0898 63.28,85.0898 5.52,0 9.98,-0.789 12.61,-2.109 l -4.99,-16.282 c -2.63,0.793 -5.52,1.84 -9.46,1.84 -26.52,0 -42.01,-37.8083 -42.01,-66.4372 0,-18.6406 5.51,-31.25 20.22,-31.25 4.99,0 10.5,1.3203 15.49,3.1484 l 0.27,-15.74998"
           style="fill:#ffffff;fill-opacity:1;fill-rule:nonzero;stroke:none"
           transform="matrix(0.13333333,0,0,-0.13333333,0,224.17333)" />
        <path
           id="path31"
           d="m 2796.68,117.02 c -11.3,0 -23.38,-13.918 -30.21,-41.5005 20.23,0.2696 41.5,7.1016 41.5,27.5825 0,8.929 -3.68,13.918 -11.29,13.918 z m 12.86,-106.6216 c -9.19,-4.98824 -18.91,-7.87887 -29.93,-7.87887 -26.79,0 -35.45,20.48047 -35.45,44.91017 0,34.3984 19.17,85.8713 55.41,85.8713 18.64,0 26.26,-14.18 26.26,-28.891 0,-30.7186 -27.32,-43.8514 -61.99,-44.1209 -0.51,-3.668 -1.3,-17.8477 0.8,-25.4688 2.89,-10.7695 9.45,-16.539 19.43,-16.539 9.98,0 16.81,3.4101 22.59,6.8203 l 2.88,-14.7032"
           style="fill:#ffffff;fill-opacity:1;fill-rule:nonzero;stroke:none"
           transform="matrix(0.13333333,0,0,-0.13333333,0,224.17333)" />
        <path
           id="path32"
           d="M 81.8516,464.09 115.918,647 H 161.73 L 127.66,464.09 H 81.8516"
           style="fill:#ffffff;fill-opacity:1;fill-rule:nonzero;stroke:none"
           transform="matrix(0.13333333,0,0,-0.13333333,0,224.17333)" />
        <path
           id="path33"
           d="M 142.254,464.09 176.32,647 h 85.243 l -4.735,-25.41 h -39.433 l -7.852,-42.168 h 38.504 l -4.914,-26.41 h -38.508 l -11.41,-61.262 h 39.433 l -5.152,-27.66 h -85.242"
           style="fill:#ffffff;fill-opacity:1;fill-rule:nonzero;stroke:none"
           transform="matrix(0.13333333,0,0,-0.13333333,0,224.17333)" />
        <path
           id="path34"
           d="M 239.918,464.09 273.984,647 h 85.246 l -4.738,-25.41 h -39.433 l -7.852,-42.168 h 38.508 l -4.918,-26.41 h -38.508 l -11.41,-61.262 h 39.434 l -5.153,-27.66 h -85.242"
           style="fill:#ffffff;fill-opacity:1;fill-rule:nonzero;stroke:none"
           transform="matrix(0.13333333,0,0,-0.13333333,0,224.17333)" />
        <path
           id="path35"
           d="M 337.574,464.09 371.641,647 h 85.246 l -4.739,-25.41 h -39.433 l -7.852,-42.168 h 38.508 l -4.918,-26.41 h -38.508 l -11.41,-61.262 h 39.434 l -5.149,-27.66 h -85.246"
           style="fill:#ffffff;fill-opacity:1;fill-rule:nonzero;stroke:none"
           transform="matrix(0.13333333,0,0,-0.13333333,0,224.17333)" />
        <path
           id="path36"
           d="M 495.328,464.09 529.395,647 h 45.812 L 541.141,464.09 h -45.813"
           style="fill:#ffffff;fill-opacity:1;fill-rule:nonzero;stroke:none"
           transform="matrix(0.13333333,0,0,-0.13333333,0,224.17333)" />
        <path
           id="path37"
           d="M 555.418,464.09 589.484,647 h 62.735 l 1.703,-77.5 c 0.168,-6.941 -0.043,-14.711 -0.609,-23.309 -0.567,-8.601 -1.52,-18.441 -2.86,-29.519 h 1.867 c 1.676,12.898 3.227,24.156 4.66,33.789 1.434,9.629 2.54,16.559 3.325,20.777 L 674.113,647 h 35.86 L 675.902,464.09 h -53.718 l -4.946,99.34 c -0.207,3.879 -0.273,9.75 -0.211,17.609 0.071,7.852 0.246,16.449 0.528,25.789 h -1.239 c -0.793,-7.609 -1.543,-14.269 -2.242,-19.969 -0.703,-5.699 -1.386,-10.371 -2.066,-14.007 L 591.754,464.09 h -36.336"
           style="fill:#ffffff;fill-opacity:1;fill-rule:nonzero;stroke:none"
           transform="matrix(0.13333333,0,0,-0.13333333,0,224.17333)" />
        <path
           id="path38"
           d="M 765.465,622.328 740.816,490.012 h 2.481 c 4.766,0 8.273,0.789 10.539,2.359 2.254,1.57 3.73,4.168 4.402,7.809 l 20.766,111.492 c 0.789,4.207 0.301,7.039 -1.445,8.488 -1.75,1.449 -5.786,2.168 -12.094,2.168 z M 690.492,464.09 724.563,647 h 53.417 c 19.454,0 32.59,-3.371 39.415,-10.102 6.82,-6.738 8.683,-18.378 5.609,-34.91 L 805.746,509.359 C 802.688,492.91 796.168,481.25 786.188,474.391 776.219,467.52 761.09,464.09 740.809,464.09 h -50.317"
           style="fill:#ffffff;fill-opacity:1;fill-rule:nonzero;stroke:none"
           transform="matrix(0.13333333,0,0,-0.13333333,0,224.17333)" />
        <path
           id="path39"
           d="M 951.563,647 925.484,507 c -3.168,-17.031 -9.531,-29.121 -19.097,-36.27 -9.555,-7.152 -23.91,-10.73 -43.063,-10.73 -19.148,0 -32.176,3.578 -39.074,10.73 -6.891,7.149 -8.762,19.239 -5.594,36.27 l 26.082,140 h 45.496 L 862.219,496.578 c -0.586,-3.137 -0.387,-5.406 0.594,-6.808 0.976,-1.418 2.867,-2.122 5.66,-2.122 2.793,0 4.882,0.692 6.285,2.051 1.394,1.36 2.387,3.66 2.988,6.879 L 905.762,647 h 45.801"
           style="fill:#ffffff;fill-opacity:1;fill-rule:nonzero;stroke:none"
           transform="matrix(0.13333333,0,0,-0.13333333,0,224.17333)" />
        <path
           id="path40"
           d="m 957.566,614.148 c 2.168,11.653 8.528,20.704 19.106,27.153 10.566,6.449 24.278,9.668 41.158,9.668 16.97,0 29.46,-3.239 37.47,-9.731 8,-6.488 10.88,-15.769 8.64,-27.84 l -5.57,-29.878 h -45.5 l 6.05,32.48 c 0.62,3.309 0.48,5.609 -0.42,6.891 -0.91,1.281 -2.75,1.918 -5.54,1.918 -2.91,0 -5.07,-0.68 -6.52,-2.047 -1.44,-1.364 -2.46,-3.621 -3.05,-6.762 l -3.02,-16.238 c -0.511,-2.731 -0.511,-5.114 -0.01,-7.133 0.5,-2.027 1.56,-3.988 3.18,-5.899 l 36.75,-38.558 c 3.48,-3.563 5.73,-7.32 6.75,-11.281 1.02,-3.969 0.73,-10.301 -0.89,-18.969 l -3.97,-21.344 C 1040,484.84 1033.67,475.809 1023.24,469.488 1012.79,463.16 999.027,460 981.949,460 c -17.488,0 -30.097,3.309 -37.82,9.922 -7.727,6.617 -10.383,16.367 -7.981,29.269 l 6.379,34.219 h 45.489 l -6.864,-36.832 c -0.586,-3.137 -0.414,-5.406 0.52,-6.808 0.926,-1.418 2.836,-2.122 5.734,-2.122 2.699,0 4.758,0.692 6.207,2.051 1.446,1.36 2.465,3.66 3.067,6.879 l 3.6,19.352 c 0.5,2.64 0.36,5.109 -0.413,7.379 -0.765,2.269 -2.347,4.73 -4.754,7.382 l -34.343,37.321 c -3.543,3.797 -5.864,7.629 -6.95,11.468 -1.097,3.848 -1.043,8.989 0.16,15.442 l 0.508,2.726 3.078,16.5"
           style="fill:#ffffff;fill-opacity:1;fill-rule:nonzero;stroke:none"
           transform="matrix(0.13333333,0,0,-0.13333333,0,224.17333)" />
        <path
           id="path41"
           d="m 1071.99,464.09 29.24,156.988 h -29.19 l 4.83,25.922 h 103.72 l -4.83,-25.922 h -29.19 L 1117.33,464.09 h -45.34"
           style="fill:#ffffff;fill-opacity:1;fill-rule:nonzero;stroke:none"
           transform="matrix(0.13333333,0,0,-0.13333333,0,224.17333)" />
        <path
           id="path42"
           d="m 1239.09,584.262 5.42,29.136 c 0.77,4.133 0.27,6.903 -1.48,8.301 -1.75,1.41 -5.69,2.121 -11.79,2.121 l -9.31,-49.98 h 2.48 c 4.76,0 8.22,0.762 10.37,2.301 2.14,1.519 3.59,4.23 4.31,8.121 z M 1155.68,464.09 1189.75,647 h 53.41 c 18.63,0 31.65,-2.621 39.05,-7.871 7.42,-5.25 10.04,-13.66 7.88,-25.231 l -3.58,-19.226 c -1.79,-9.594 -6.1,-16.953 -12.96,-22.07 -6.84,-5.133 -16.17,-7.942 -27.96,-8.43 l -0.18,-1 c 12.92,-0.66 21.57,-3.242 25.95,-7.742 4.39,-4.508 5.58,-12.18 3.56,-23.008 l -8.66,-46.5 c -0.7,-3.723 -1.03,-7.461 -1.01,-11.223 0.03,-3.769 0.41,-7.301 1.13,-10.609 h -45.17 c -0.87,3.14 -1.33,6.64 -1.39,10.48 -0.07,3.852 0.31,7.95 1.13,12.34 l 1.25,6.692 7.42,39.808 c 0.95,5.129 0.45,9 -1.5,11.602 -1.94,2.597 -5.35,3.91 -10.21,3.91 h -0.62 l -15.8,-84.832 h -45.81"
           style="fill:#ffffff;fill-opacity:1;fill-rule:nonzero;stroke:none"
           transform="matrix(0.13333333,0,0,-0.13333333,0,224.17333)" />
        <path
           id="path43"
           d="m 1300.7,464.09 12.91,69.32 -13.47,113.59 h 47.04 l 0.48,-41.66 c 0.08,-5.129 -0.02,-10.11 -0.3,-14.942 -0.27,-4.839 -0.72,-9.699 -1.32,-14.57 h 1.87 c 2.13,6.442 4.04,12.102 5.72,16.981 1.69,4.882 3.2,8.972 4.54,12.281 l 16.96,41.91 h 40.69 l -56.71,-113.59 -12.91,-69.32 h -45.5"
           style="fill:#ffffff;fill-opacity:1;fill-rule:nonzero;stroke:none"
           transform="matrix(0.13333333,0,0,-0.13333333,0,224.17333)" />
        <path
           id="path44"
           d="m 99.2266,309.73 h 16.9214 l 5.262,55.801 c 0.278,3.149 1.074,8.809 2.387,17 0.562,3.547 1.031,6.321 1.402,8.309 h -1.707 c -1.734,-7.039 -3.133,-12.629 -4.226,-16.809 -1.082,-4.179 -1.86,-6.929 -2.305,-8.242 z M 33.8945,234.09 104.605,417 h 58.536 L 156.09,234.09 h -47.363 l 4.582,48.73 H 90.6406 L 75.6602,234.09 H 33.8945"
           style="fill:#ffffff;fill-opacity:1;fill-rule:nonzero;stroke:none"
           transform="matrix(0.13333333,0,0,-0.13333333,0,224.17333)" />
        <path
           id="path45"
           d="m 246.18,340.98 7.898,42.418 c 0.766,4.122 0.375,6.891 -1.18,8.301 -1.543,1.41 -4.957,2.11 -10.242,2.11 h -1.855 L 229.07,330.82 h 2.789 c 4.758,0 8.157,0.739 10.192,2.231 2.047,1.488 3.418,4.129 4.129,7.929 z M 165.238,234.09 199.313,417 h 53.417 c 18.321,0 31.25,-2.66 38.79,-8 7.554,-5.328 10.261,-13.699 8.132,-25.109 l -7.273,-39.071 c -2.645,-14.211 -8.75,-24.34 -18.309,-30.379 -9.566,-6.031 -24.328,-9.05 -44.308,-9.05 h -5.43 L 211.051,234.09 h -45.813"
           style="fill:#ffffff;fill-opacity:1;fill-rule:nonzero;stroke:none"
           transform="matrix(0.13333333,0,0,-0.13333333,0,224.17333)" />
        <path
           id="path46"
           d="m 363.871,340.98 7.902,42.418 c 0.766,4.122 0.375,6.891 -1.179,8.301 -1.543,1.41 -4.957,2.11 -10.242,2.11 h -1.856 l -11.73,-62.989 h 2.793 c 4.754,0 8.152,0.739 10.187,2.231 2.047,1.488 3.418,4.129 4.125,7.929 z M 282.938,234.09 317.008,417 h 53.418 c 18.32,0 31.25,-2.66 38.789,-8 7.555,-5.328 10.265,-13.699 8.137,-25.109 l -7.278,-39.071 c -2.644,-14.211 -8.75,-24.34 -18.308,-30.379 -9.567,-6.031 -24.328,-9.05 -44.309,-9.05 h -5.43 L 328.746,234.09 h -45.808"
           style="fill:#ffffff;fill-opacity:1;fill-rule:nonzero;stroke:none"
           transform="matrix(0.13333333,0,0,-0.13333333,0,224.17333)" />
        <path
           id="path47"
           d="M 400.633,234.09 434.703,417 h 45.813 L 451.594,261.738 h 39.433 l -5.152,-27.648 h -85.242"
           style="fill:#ffffff;fill-opacity:1;fill-rule:nonzero;stroke:none"
           transform="matrix(0.13333333,0,0,-0.13333333,0,224.17333)" />
        <path
           id="path48"
           d="M 497.672,234.09 531.742,417 h 45.813 L 543.484,234.09 h -45.812"
           style="fill:#ffffff;fill-opacity:1;fill-rule:nonzero;stroke:none"
           transform="matrix(0.13333333,0,0,-0.13333333,0,224.17333)" />
        <path
           id="path49"
           d="m 583.152,373.719 c 3.192,17.121 9.563,29.269 19.141,36.461 9.566,7.191 23.82,10.789 42.758,10.789 19.051,0 32.047,-3.578 39,-10.731 6.945,-7.148 8.816,-19.328 5.613,-36.519 l -3.762,-20.207 H 640.406 L 646.457,386 c 0.602,3.219 0.43,5.488 -0.519,6.82 -0.942,1.321 -2.86,1.981 -5.762,1.981 -2.793,0 -4.875,-0.66 -6.27,-1.981 -1.386,-1.332 -2.379,-3.601 -2.976,-6.82 L 608.688,266.578 c -0.602,-3.226 -0.434,-5.519 0.503,-6.887 0.938,-1.363 2.754,-2.043 5.438,-2.043 2.902,0 5.074,0.704 6.527,2.114 1.453,1.398 2.473,3.679 3.059,6.816 l 6.855,36.82 h 45.5 l -4.918,-26.41 C 668.484,259.961 662.105,247.879 652.555,240.719 642.988,233.57 628.629,230 609.48,230 c -19.042,0 -32,3.531 -38.855,10.602 -6.867,7.07 -8.691,19.199 -5.488,36.386 l 18.015,96.731"
           style="fill:#ffffff;fill-opacity:1;fill-rule:nonzero;stroke:none"
           transform="matrix(0.13333333,0,0,-0.13333333,0,224.17333)" />
        <path
           id="path50"
           d="m 735.66,309.73 h 16.926 l 5.262,55.801 c 0.273,3.149 1.074,8.809 2.382,17 0.567,3.547 1.036,6.321 1.407,8.309 h -1.707 c -1.735,-7.039 -3.137,-12.629 -4.231,-16.809 -1.078,-4.179 -1.855,-6.929 -2.304,-8.242 z M 670.328,234.09 741.043,417 h 58.531 L 792.527,234.09 H 745.16 l 4.582,48.73 h -22.668 l -14.976,-48.73 h -41.77"
           style="fill:#ffffff;fill-opacity:1;fill-rule:nonzero;stroke:none"
           transform="matrix(0.13333333,0,0,-0.13333333,0,224.17333)" />
        <path
           id="path51"
           d="M 816.277,234.09 845.52,391.078 H 816.328 L 821.156,417 h 103.723 l -4.828,-25.922 H 890.859 L 861.617,234.09 h -45.34"
           style="fill:#ffffff;fill-opacity:1;fill-rule:nonzero;stroke:none"
           transform="matrix(0.13333333,0,0,-0.13333333,0,224.17333)" />
        <path
           id="path52"
           d="M 899.652,234.09 933.727,417 h 45.808 l -34.07,-182.91 h -45.813"
           style="fill:#ffffff;fill-opacity:1;fill-rule:nonzero;stroke:none"
           transform="matrix(0.13333333,0,0,-0.13333333,0,224.17333)" />
        <path
           id="path53"
           d="m 1032.91,386 -22.24,-119.422 c -0.6,-3.226 -0.43,-5.519 0.5,-6.887 0.94,-1.363 2.76,-2.043 5.44,-2.043 2.9,0 5.08,0.704 6.53,2.114 1.45,1.398 2.47,3.679 3.06,6.816 L 1048.44,386 c 0.6,3.219 0.43,5.488 -0.52,6.82 -0.94,1.321 -2.86,1.981 -5.76,1.981 -2.69,0 -4.76,-0.699 -6.22,-2.102 -1.45,-1.41 -2.46,-3.64 -3.03,-6.699 z m -48.09,-12.281 c 3.172,17.031 9.575,29.16 19.2,36.402 9.63,7.231 23.97,10.848 43.01,10.848 19.06,0 32.05,-3.578 39,-10.731 6.95,-7.148 8.82,-19.328 5.62,-36.519 l -17.97,-96.481 c -3.19,-17.097 -9.57,-29.258 -19.13,-36.449 -9.57,-7.199 -23.94,-10.789 -43.09,-10.789 -19.147,0 -32.155,3.59 -39.054,10.789 -6.89,7.191 -8.738,19.352 -5.551,36.449 l 17.965,96.481"
           style="fill:#ffffff;fill-opacity:1;fill-rule:nonzero;stroke:none"
           transform="matrix(0.13333333,0,0,-0.13333333,0,224.17333)" />
        <path
           id="path54"
           d="M 1078.99,234.09 1113.06,417 h 62.74 l 1.7,-77.512 c 0.16,-6.937 -0.04,-14.707 -0.61,-23.308 -0.57,-8.602 -1.52,-18.43 -2.86,-29.508 h 1.86 c 1.68,12.898 3.24,24.156 4.67,33.789 1.43,9.629 2.54,16.559 3.32,20.769 l 13.81,75.77 h 35.86 l -34.07,-182.91 h -53.72 l -4.94,99.332 c -0.21,3.887 -0.28,9.75 -0.21,17.609 0.06,7.848 0.24,16.449 0.52,25.789 h -1.24 c -0.79,-7.601 -1.54,-14.261 -2.24,-19.961 -0.7,-5.711 -1.38,-10.379 -2.06,-14.019 l -20.26,-108.75 h -36.34"
           style="fill:#ffffff;fill-opacity:1;fill-rule:nonzero;stroke:none"
           transform="matrix(0.13333333,0,0,-0.13333333,0,224.17333)" />
        <path
           id="path55"
           d="m 1239.85,384.141 c 2.17,11.66 8.53,20.711 19.11,27.148 10.57,6.449 24.28,9.68 41.15,9.68 16.98,0 29.48,-3.25 37.48,-9.731 8,-6.5 10.88,-15.777 8.64,-27.84 l -5.57,-29.886 h -45.5 l 6.05,32.488 c 0.62,3.309 0.48,5.602 -0.42,6.879 -0.91,1.293 -2.76,1.922 -5.55,1.922 -2.9,0 -5.07,-0.68 -6.51,-2.039 -1.45,-1.371 -2.46,-3.621 -3.05,-6.762 l -3.02,-16.238 c -0.51,-2.742 -0.52,-5.114 -0.01,-7.141 0.5,-2.019 1.56,-3.992 3.18,-5.891 l 36.75,-38.558 c 3.48,-3.563 5.73,-7.32 6.75,-11.293 1.02,-3.957 0.72,-10.289 -0.89,-18.969 l -3.97,-21.332 c -2.19,-11.75 -8.51,-20.769 -18.95,-27.098 -10.45,-6.32 -24.21,-9.48 -41.29,-9.48 -17.49,0 -30.09,3.301 -37.82,9.922 -7.71,6.609 -10.37,16.359 -7.98,29.258 l 6.38,34.218 h 45.49 l -6.86,-36.82 c -0.58,-3.137 -0.41,-5.418 0.52,-6.816 0.93,-1.41 2.84,-2.114 5.74,-2.114 2.7,0 4.76,0.68 6.2,2.043 1.45,1.368 2.47,3.661 3.07,6.887 l 3.6,19.344 c 0.49,2.648 0.36,5.109 -0.41,7.387 -0.77,2.261 -2.35,4.73 -4.76,7.371 L 1243.05,338 c -3.53,3.809 -5.85,7.641 -6.94,11.48 -1.1,3.84 -1.04,8.989 0.16,15.442 l 0.5,2.726 3.08,16.493"
           style="fill:#ffffff;fill-opacity:1;fill-rule:nonzero;stroke:none"
           transform="matrix(0.13333333,0,0,-0.13333333,0,224.17333)" />
        <path
           id="path56"
           d="m 22.2656,154.141 c 2.1758,11.648 8.5352,20.699 19.1133,27.148 10.5664,6.461 24.2813,9.68 41.1563,9.68 16.9726,0 29.4608,-3.25 37.4768,-9.731 7.996,-6.5 10.879,-15.777 8.633,-27.84 l -5.567,-29.886 H 77.5781 L 83.6289,156 c 0.6172,3.301 0.4805,5.602 -0.4297,6.879 -0.9023,1.281 -2.7422,1.922 -5.5351,1.922 -2.9024,0 -5.0703,-0.68 -6.5157,-2.039 -1.4453,-1.371 -2.4609,-3.621 -3.0468,-6.762 l -3.0274,-16.238 c -0.5078,-2.731 -0.5078,-5.114 -0.0078,-7.141 0.5,-2.019 1.5625,-3.98 3.1836,-5.883 L 105,88.1719 c 3.477,-3.5625 5.723,-7.3203 6.742,-11.293 1.024,-3.957 0.735,-10.2891 -0.887,-18.9687 L 106.887,36.5781 C 104.699,24.8281 98.375,15.8086 87.9414,9.48047 77.4961,3.16016 63.7383,0 46.6563,0 29.168,0 16.5586,3.30078 8.83594,9.92188 1.10938,16.5313 -1.54688,26.2813 0.855469,39.1797 L 7.23438,73.3984 H 52.7227 L 45.8594,36.5781 c -0.586,-3.1367 -0.4141,-5.4179 0.5195,-6.8164 0.9258,-1.4101 2.8359,-2.1133 5.7383,-2.1133 2.6953,0 4.7539,0.6797 6.1992,2.043 1.4453,1.3672 2.4727,3.6602 3.0703,6.8867 l 3.6016,19.3438 c 0.4961,2.6484 0.3594,5.1094 -0.4102,7.3867 -0.7734,2.2617 -2.3515,4.7305 -4.7578,7.3711 L 25.4688,108 c -3.5391,3.809 -5.8516,7.641 -6.9415,11.48 -1.1054,3.84 -1.039,8.981 0.1602,15.442 l 0.5078,2.719 3.0703,16.5"
           style="fill:#ffffff;fill-opacity:1;fill-rule:nonzero;stroke:none"
           transform="matrix(0.13333333,0,0,-0.13333333,0,224.17333)" />
        <path
           id="path57"
           d="M 186.41,156 164.172,36.5781 c -0.602,-3.2265 -0.438,-5.5195 0.504,-6.8867 0.933,-1.3633 2.754,-2.043 5.437,-2.043 2.903,0 5.075,0.7032 6.528,2.1133 1.453,1.3985 2.472,3.6797 3.058,6.8164 L 201.941,156 c 0.598,3.219 0.426,5.5 -0.519,6.809 -0.945,1.332 -2.859,1.992 -5.762,1.992 -2.683,0 -4.762,-0.699 -6.211,-2.102 -1.457,-1.41 -2.469,-3.648 -3.039,-6.699 z m -48.086,-12.281 c 3.172,17.031 9.574,29.172 19.203,36.402 9.625,7.231 23.961,10.848 43.004,10.848 19.055,0 32.047,-3.578 38.996,-10.731 6.953,-7.148 8.828,-19.328 5.625,-36.519 L 227.184,47.2383 C 223.996,30.1406 217.609,17.9805 208.047,10.7891 198.473,3.58984 184.117,0 164.969,0 145.816,0 132.801,3.58984 125.91,10.7891 c -6.894,7.1914 -8.742,19.3515 -5.551,36.4492 l 17.965,96.4807"
           style="fill:#ffffff;fill-opacity:1;fill-rule:nonzero;stroke:none"
           transform="matrix(0.13333333,0,0,-0.13333333,0,224.17333)" />
        <path
           id="path58"
           d="m 257.887,143.719 c 3.183,17.121 9.558,29.269 19.133,36.461 9.574,7.191 23.828,10.789 42.761,10.789 19.055,0 32.047,-3.578 38.996,-10.731 6.953,-7.148 8.828,-19.328 5.625,-36.519 l -3.765,-20.207 h -45.5 L 321.188,156 c 0.601,3.219 0.429,5.5 -0.516,6.809 -0.949,1.332 -2.863,1.992 -5.766,1.992 -2.793,0 -4.879,-0.66 -6.265,-1.992 -1.387,-1.309 -2.379,-3.59 -2.981,-6.809 L 283.418,36.5781 c -0.598,-3.2265 -0.434,-5.5195 0.504,-6.8867 0.937,-1.3633 2.754,-2.043 5.437,-2.043 2.903,0 5.075,0.7032 6.532,2.1133 1.449,1.3985 2.468,3.6797 3.054,6.8164 l 6.864,36.8203 h 45.496 L 346.383,46.9883 C 343.211,29.9609 336.836,17.8789 327.281,10.7188 317.723,3.57031 303.363,0 284.215,0 c -19.043,0 -32,3.53125 -38.856,10.6016 -6.871,7.0703 -8.695,19.1992 -5.492,36.3867 l 18.02,96.7307"
           style="fill:#ffffff;fill-opacity:1;fill-rule:nonzero;stroke:none"
           transform="matrix(0.13333333,0,0,-0.13333333,0,224.17333)" />
        <path
           id="path59"
           d="M 350.184,4.08984 384.242,187 h 45.813 L 395.992,4.08984 h -45.808"
           style="fill:#ffffff;fill-opacity:1;fill-rule:nonzero;stroke:none"
           transform="matrix(0.13333333,0,0,-0.13333333,0,224.17333)" />
        <path
           id="path60"
           d="M 410.582,4.08984 444.645,187 h 85.246 l -4.735,-25.422 h -39.433 l -7.852,-42.156 h 38.508 L 511.457,93 h -38.508 l -11.41,-61.2617 h 39.434 L 495.824,4.08984 h -85.242"
           style="fill:#ffffff;fill-opacity:1;fill-rule:nonzero;stroke:none"
           transform="matrix(0.13333333,0,0,-0.13333333,0,224.17333)" />
        <path
           id="path61"
           d="M 531.383,4.08984 560.621,161.09 h -29.187 l 4.824,25.91 h 103.719 l -4.825,-25.91 H 605.965 L 576.727,4.08984 h -45.344"
           style="fill:#ffffff;fill-opacity:1;fill-rule:nonzero;stroke:none"
           transform="matrix(0.13333333,0,0,-0.13333333,0,224.17333)" />
        <path
           id="path62"
           d="M 641.473,4.08984 654.383,73.3984 640.914,187 h 47.039 l 0.477,-41.672 c 0.082,-5.117 -0.016,-10.109 -0.305,-14.93 -0.273,-4.839 -0.723,-9.699 -1.316,-14.578 h 1.863 c 2.137,6.45 4.043,12.11 5.73,16.989 1.688,4.882 3.203,8.972 4.539,12.269 L 715.902,187 H 756.59 L 699.879,73.3984 686.969,4.08984 h -45.496"
           style="fill:#ffffff;fill-opacity:1;fill-rule:nonzero;stroke:none"
           transform="matrix(0.13333333,0,0,-0.13333333,0,224.17333)" />
      </g>
    </g>
  </g>
</svg>
