<?xml version="1.0" encoding="UTF-8" standalone="no"?>
<!-- Created with Inkscape (http://www.inkscape.org/) -->

<svg
   width="100"
   height="100"
   viewBox="0 0 26.458332 26.458333"
   version="1.1"
   id="svg1"
   xmlns="http://www.w3.org/2000/svg"
   xmlns:svg="http://www.w3.org/2000/svg">
  <defs
     id="defs1" />
  <g
     id="layer1">
    <g
       id="group-R5"
       transform="matrix(0.02910827,0,0,0.02910827,1.6367691e-6,8.7786284)">
      <path
         id="path2"
         d="m 2414.81,87.5508 c 25.1,0 46.27,3.7773 63.51,11.3398 17.23,7.5504 30,17.6874 38.32,30.3904 8.31,12.699 12.48,26.758 12.48,42.18 0,18.75 -4.92,33.629 -14.75,44.687 -9.83,11.024 -21.69,19.274 -35.6,24.711 -13.91,5.45 -32.51,11.039 -55.79,16.789 -20.87,5.141 -37.35,9.981 -49.44,14.512 -12.1,4.539 -22.23,11.039 -30.39,19.508 -8.17,8.473 -12.25,19.801 -12.25,34.023 0,18.75 7.56,34.02 22.68,45.809 15.12,11.789 37.34,17.691 66.68,17.691 14.81,0 29.85,-2.269 45.12,-6.8 15.27,-4.539 29.27,-11.192 41.97,-19.961 l 8.61,18.59 c -12.39,8.769 -27.06,15.73 -44,20.871 -16.93,5.14 -34.17,7.711 -51.7,7.711 -25.1,0 -46.05,-3.782 -62.84,-11.34 -16.78,-7.563 -29.24,-17.774 -37.41,-30.602 -8.16,-12.879 -12.24,-27.012 -12.24,-42.43 0,-19.05 4.9,-34.23 14.73,-45.57 9.82,-11.34 21.77,-19.738 35.83,-25.191 14.06,-5.438 32.75,-11.039 56.03,-16.778 20.56,-4.839 36.89,-9.531 48.99,-14.062 12.1,-4.539 22.22,-11.039 30.39,-19.508 8.17,-8.473 12.25,-19.801 12.25,-34.019 0,-18.454 -7.72,-33.411 -23.14,-44.911 -15.42,-11.48 -38.25,-17.23 -68.49,-17.23 -20.87,0 -40.76,3.687 -59.66,11.117 -18.9,7.391 -33.93,17 -45.12,28.793 l -10.43,-17.23 c 11.79,-12.7 28.18,-23.071 49.2,-31.0629 21.02,-8.039 43.18,-12.0273 66.46,-12.0273 M 2679.26,88 c 22.38,0 42.55,5.1406 60.55,15.422 17.99,10.289 32.13,24.558 42.42,42.879 10.28,18.269 15.42,38.918 15.42,61.898 0,22.992 -5.14,43.621 -15.42,61.93 -10.29,18.281 -24.43,32.57 -42.42,42.859 -18,10.282 -38.17,15.422 -60.55,15.422 -22.37,0 -42.57,-5.14 -60.57,-15.422 -17.99,-10.289 -32.12,-24.578 -42.39,-42.859 -10.29,-18.309 -15.43,-38.938 -15.43,-61.93 0,-22.98 5.14,-43.629 15.43,-61.898 10.27,-18.321 24.4,-32.59 42.39,-42.879 18,-10.2814 38.2,-15.422 60.57,-15.422 m 0,20.41 c -18.14,0 -34.4,4.238 -48.77,12.699 -14.37,8.469 -25.7,20.27 -34.02,35.379 -8.32,15.133 -12.46,32.364 -12.46,51.711 0,19.36 4.14,36.59 12.46,51.723 8.32,15.109 19.65,26.906 34.02,35.379 14.37,8.461 30.63,12.699 48.77,12.699 18.14,0 34.39,-4.238 48.75,-12.699 14.36,-8.473 25.71,-20.27 34.02,-35.379 8.32,-15.133 12.49,-32.363 12.49,-51.723 0,-19.347 -4.17,-36.578 -12.49,-51.711 -8.31,-15.109 -19.66,-26.91 -34.02,-35.379 -14.36,-8.461 -30.61,-12.699 -48.75,-12.699 M 2948.25,88 c 19.05,0 36.35,3.6914 51.92,11.1211 15.58,7.3909 28.21,18.2069 37.89,32.4299 l -16.78,12.238 c -8.47,-11.789 -18.99,-20.629 -31.54,-26.519 -12.55,-5.899 -26.37,-8.86 -41.49,-8.86 -18.45,0 -35.02,4.149 -49.68,12.488 -14.67,8.293 -26.16,20.024 -34.48,35.141 -8.31,15.121 -12.46,32.512 -12.46,52.16 0,19.66 4.15,37.051 12.46,52.172 8.32,15.117 19.81,26.828 34.48,35.16 14.66,8.297 31.23,12.469 49.68,12.469 15.12,0 28.94,-2.941 41.49,-8.84 12.55,-5.89 23.07,-14.75 31.54,-26.539 l 16.78,12.238 c -9.68,14.219 -22.31,25.02 -37.89,32.442 -15.57,7.39 -32.87,11.109 -51.92,11.109 -22.98,0 -43.55,-5.082 -61.69,-15.191 -18.15,-10.149 -32.36,-24.36 -42.64,-42.641 -10.28,-18.308 -15.42,-39.09 -15.42,-62.379 0,-22.98 5.14,-43.629 15.42,-61.898 10.28,-18.321 24.49,-32.59 42.64,-42.879 C 2904.7,93.1406 2925.27,88 2948.25,88 m 144.24,1.8086 h 22.68 V 326.602 h -22.68 z m 11.34,294.3904 c 5.12,0 9.53,1.813 13.16,5.442 3.62,3.629 5.44,8.019 5.44,13.16 0,5.14 -1.82,9.437 -5.44,12.937 -3.63,3.453 -8.04,5.203 -13.16,5.203 -5.16,0 -9.52,-1.812 -13.15,-5.441 -3.63,-3.629 -5.44,-8.02 -5.44,-13.16 0,-5.129 1.81,-9.461 5.44,-12.91 3.63,-3.5 7.99,-5.231 13.15,-5.231 m 293.91,-175.09 c 0,22.981 -4.9,43.551 -14.73,61.692 -9.83,18.14 -23.29,32.269 -40.37,42.418 -17.09,10.109 -36.37,15.191 -57.85,15.191 -21.46,0 -40.82,-5.14 -58.06,-15.422 -17.23,-10.289 -30.76,-24.578 -40.58,-42.859 -9.83,-18.309 -14.76,-38.938 -14.76,-61.93 0,-23.277 5.24,-44 15.67,-62.14 10.43,-18.137 24.86,-32.348 43.31,-42.637 C 3248.82,93.1406 3269.83,88 3293.41,88 c 18.15,0 35.01,3.3281 50.59,9.9805 15.58,6.6485 28.5,16.1795 38.77,28.5785 l -13.15,14.972 c -8.77,-10.89 -19.72,-19.14 -32.88,-24.711 -13.15,-5.621 -27.45,-8.41 -42.88,-8.41 -18.74,0 -35.59,3.93 -50.55,11.789 -14.97,7.871 -26.86,18.973 -35.63,33.352 -8.77,14.347 -13.45,30.769 -14.06,49.211 h 203.67 z m -112.95,99.34 c 16.64,0 31.6,-3.781 44.91,-11.34 13.3,-7.558 24.05,-17.988 32.21,-31.3 8.16,-13.309 12.7,-28.418 13.6,-45.36 h -181.43 c 1.21,16.942 5.83,32.121 13.85,45.602 8,13.437 18.66,23.871 31.96,31.301 13.31,7.386 28.27,11.097 44.9,11.097 M 3562.4,120.66 c -9.68,-8.769 -21.92,-13.16 -36.74,-13.16 -14.52,0 -25.49,4 -32.88,12.039 -7.43,7.992 -11.12,19.723 -11.12,35.141 v 152.41 h 75.3 v 19.512 h -75.3 v 51.699 h -22.68 v -51.699 h -43.54 V 307.09 h 43.54 V 152.41 c 0,-20.262 5.6,-36.051 16.78,-47.39 11.19,-11.3403 27.07,-17.02 47.63,-17.02 9.37,0 18.38,1.4492 26.98,4.3203 8.64,2.8516 15.81,7.0195 21.55,12.4607 z m 221.36,205.942 -94.81,-211.84 -94.8,211.84 h -24.04 l 106.6,-235.8832 -12.7,-28.5782 c -6.96,-15.4218 -14.52,-26.3125 -22.69,-32.6523 -8.16,-6.3594 -17.98,-9.5274 -29.48,-9.5274 -17.23,0 -31.9,6.1993 -44,18.5977 L 3556.5,21.3203 c 6.65,-6.9609 14.74,-12.24999 24.28,-15.87889 C 3590.31,1.82031 3600.5,0 3611.38,0 c 16.34,0 30.46,4.39063 42.44,13.1602 11.91,8.7695 22.44,23.5781 31.51,44.4492 l 121.56,268.9926 h -23.13"
         style="fill:#2b65a5;fill-opacity:1;fill-rule:nonzero;stroke:none"
         transform="matrix(0.13333333,0,0,-0.13333333,0,305.78667)" />
      <path
         id="path3"
         d="m 127.008,685.762 v 82.937 h 201.527 v 95.91 H 127.008 v 76.461 h 228.746 v 99.14 H 0 V 586.621 h 364.176 v 99.141 z M 429.625,586.621 H 552.746 V 1067.43 H 429.625 Z m 561.816,174.957 c 0,37.582 -8.339,70.082 -24.949,97.524 -16.652,27.429 -39.207,48.378 -67.715,62.847 -28.511,14.473 -60.265,21.711 -95.254,21.711 -36.746,0 -69.793,-7.769 -99.148,-23.32 -29.398,-15.559 -52.402,-37.051 -69.012,-64.481 -16.652,-27.429 -24.945,-58.429 -24.945,-92.988 0,-34.992 8.508,-66.312 25.594,-93.961 17.043,-27.648 41.148,-49.25 72.25,-64.801 31.105,-15.55 67.156,-23.328 108.218,-23.328 65.641,0 115.54,19.008 149.688,57.028 l -64.801,67.39 c -12.547,-10.801 -24.949,-18.578 -37.258,-23.328 -12.312,-4.75 -26.89,-7.133 -43.742,-7.133 -22.484,0 -41.148,4.864 -56.051,14.582 -14.906,9.719 -24.949,23.649 -30.128,41.801 h 255.304 c 1.301,19.438 1.949,29.59 1.949,30.457 M 804.168,856.18 c 18.988,0 34.863,-5.399 47.629,-16.2 12.723,-10.8 20.82,-25.48 24.297,-44.062 H 732.238 c 3.438,18.582 11.539,33.262 24.301,44.062 12.727,10.801 28.598,16.2 47.629,16.2 M 1227.96,580.781 c 39.72,0 74.07,8.539 103.03,25.598 28.92,17.062 49.45,40.711 61.56,70.949 l -95.25,48.613 c -16.01,-31.543 -39.34,-47.312 -69.99,-47.312 -22.03,0 -40.3,7.449 -54.75,22.359 -14.5,14.903 -21.71,35.532 -21.71,61.883 0,25.918 7.21,46.231 21.71,60.91 14.45,14.688 32.72,22.028 54.75,22.028 30.65,0 53.98,-15.758 69.99,-47.297 l 95.25,48.597 c -12.11,30.243 -32.64,53.891 -61.56,70.961 -28.96,17.059 -63.31,25.59 -103.03,25.59 -38.88,0 -73.68,-7.66 -104.33,-23 -30.69,-15.34 -54.56,-36.719 -71.6,-64.148 -17.09,-27.434 -25.6,-58.653 -25.6,-93.641 0,-34.992 8.51,-66.312 25.6,-93.961 17.04,-27.648 40.91,-49.25 71.6,-64.801 30.65,-15.55 65.45,-23.328 104.33,-23.328 m 428.96,106.27 c -10.81,-7.34 -23.33,-11.012 -37.59,-11.012 -11.23,0 -20.2,3.563 -26.89,10.691 -6.7,7.129 -10.05,16.961 -10.05,29.481 v 116.648 h 80.36 v 92.012 h -80.36 v 91.369 h -123.12 v -91.369 h -51.19 v -92.012 h 51.19 V 714.922 c 0,-44.504 12.32,-77.981 36.94,-100.442 24.63,-22.46 59.83,-33.699 105.62,-33.699 16.85,0 32.73,1.731 47.63,5.188 14.91,3.453 27.54,8.422 37.91,14.902 z m 195.04,208.66 v 42.117 H 1734.67 V 586.621 h 123.12 v 161.348 c 0,29.371 7.46,51.191 22.36,65.441 14.91,14.262 35.53,21.391 61.88,21.391 7.35,0 16.61,-0.653 27.87,-1.942 V 943.66 c -25.92,0 -48.93,-3.992 -69.01,-11.992 -20.09,-7.988 -36.4,-19.977 -48.93,-35.957 m 341.5,-314.93 c 38.02,0 72.14,7.778 102.38,23.328 30.24,15.551 53.79,37.153 70.64,64.801 16.84,27.649 25.26,58.969 25.26,93.961 0,34.988 -8.42,66.207 -25.26,93.641 -16.85,27.429 -40.4,48.808 -70.64,64.148 -30.24,15.34 -64.36,23 -102.38,23 -38.02,0 -72.04,-7.66 -102.06,-23 -30.03,-15.34 -53.57,-36.832 -70.63,-64.48 -17.07,-27.649 -25.6,-58.75 -25.6,-93.309 0,-34.992 8.53,-66.312 25.6,-93.961 17.06,-27.648 40.71,-49.25 70.95,-64.801 30.24,-15.55 64.16,-23.328 101.74,-23.328 m 0,97.848 c -21.6,0 -39.31,7.449 -53.14,22.359 -13.82,14.903 -20.73,35.532 -20.73,61.883 0,25.918 6.91,46.231 20.73,60.91 13.83,14.688 31.54,22.028 53.14,22.028 21.6,0 39.31,-7.34 53.13,-22.028 13.83,-14.679 20.74,-34.992 20.74,-60.91 0,-26.351 -6.91,-46.98 -20.74,-61.883 -13.82,-14.91 -31.53,-22.359 -53.13,-22.359 m 484.03,265.031 c -22.46,0 -43.2,-3.781 -62.21,-11.34 -19,-7.558 -35.42,-18.461 -49.24,-32.718 v 38.226 H 2448.75 V 586.621 h 123.12 v 169.77 c 0,27.648 6.37,48.379 19.11,62.211 12.75,13.82 29.71,20.726 50.87,20.726 38.45,0 57.67,-23.969 57.67,-71.918 V 586.621 h 123.12 v 200.867 c 0,52.274 -13.28,91.371 -39.85,117.293 -26.56,25.918 -61.67,38.879 -105.3,38.879 m 222.27,-357.039 h 123.12 v 351.207 h -123.12 z m 61.56,390.09 c 22.46,0 40.61,6.367 54.43,19.109 13.82,12.75 20.74,28.84 20.74,48.28 0,18.58 -6.92,33.8 -20.74,45.68 -13.82,11.88 -31.97,17.83 -54.43,17.83 -22.47,0 -40.61,-6.27 -54.43,-18.8 -13.83,-12.52 -20.74,-28.07 -20.74,-46.65 0,-18.58 6.91,-34.13 20.74,-46.66 13.82,-12.531 31.96,-18.789 54.43,-18.789 m 320.76,-395.93 c 39.74,0 74.09,8.539 103.02,25.598 28.95,17.062 49.48,40.711 61.57,70.949 l -95.26,48.613 c -15.98,-31.543 -39.31,-47.312 -69.98,-47.312 -22.03,0 -40.28,7.449 -54.75,22.359 -14.48,14.903 -21.71,35.532 -21.71,61.883 0,25.918 7.23,46.231 21.71,60.91 14.47,14.688 32.72,22.028 54.75,22.028 30.67,0 54,-15.758 69.98,-47.297 l 95.26,48.597 c -12.09,30.243 -32.62,53.891 -61.57,70.961 -28.93,17.059 -63.28,25.59 -103.02,25.59 -38.88,0 -73.66,-7.66 -104.33,-23 -30.67,-15.34 -54.54,-36.719 -71.61,-64.148 -17.06,-27.434 -25.59,-58.653 -25.59,-93.641 0,-34.992 8.53,-66.312 25.59,-93.961 17.07,-27.648 40.94,-49.25 71.61,-64.801 30.67,-15.55 65.45,-23.328 104.33,-23.328 m 338.9,0 c 36.72,0 68.15,4.969 94.28,14.91 26.14,9.93 45.91,23.649 59.3,41.137 13.39,17.5 20.09,37.274 20.09,59.301 0,26.781 -7.03,47.621 -21.07,62.531 -14.03,14.899 -30.56,25.16 -49.57,30.781 -19,5.61 -42.98,10.579 -71.92,14.899 -22.9,3.461 -39.32,6.808 -49.25,10.051 -9.94,3.238 -14.9,8.961 -14.9,17.168 0,7.339 4.53,13.281 13.6,17.82 9.07,4.531 23.33,6.801 42.77,6.801 36.28,0 69.98,-8.641 101.09,-25.918 l 36.93,83.597 c -16.85,9.5 -37.8,16.84 -62.85,22.032 -25.06,5.179 -50.33,7.769 -75.82,7.769 -35.85,0 -66.63,-5.07 -92.34,-15.219 -25.71,-10.16 -45.25,-23.98 -58.65,-41.48 -13.39,-17.492 -20.09,-37.473 -20.09,-59.941 0,-27.211 7.13,-48.379 21.39,-63.5 14.26,-15.122 31.21,-25.489 50.87,-31.098 19.66,-5.621 43.53,-10.16 71.6,-13.613 22.03,-3.028 38.13,-6.161 48.28,-9.399 10.15,-3.238 15.23,-8.75 15.23,-16.531 0,-7.77 -4.21,-13.711 -12.64,-17.809 -8.42,-4.109 -22.57,-6.16 -42.44,-6.16 -21.6,0 -43.42,2.918 -65.45,8.75 -22.03,5.828 -41.03,13.719 -57.02,23.649 l -36.93,-84.239 c 17.27,-10.8 40.17,-19.55 68.68,-26.25 28.51,-6.691 57.46,-10.039 86.83,-10.039"
         style="fill:#2b65a5;fill-opacity:1;fill-rule:nonzero;stroke:none"
         transform="matrix(0.13333333,0,0,-0.13333333,0,305.78667)" />
      <path
         id="path4"
         d="m 534.602,1256.21 h 128.3 v 453.6 h -128.3 z m 442.582,357.05 c -22.465,0 -43.2,-3.78 -62.207,-11.34 -19.008,-7.56 -35.426,-18.46 -49.247,-32.72 v 38.23 H 748.438 v -351.22 h 123.121 v 169.78 c 0,27.65 6.371,48.39 19.117,62.21 12.742,13.82 29.703,20.73 50.867,20.73 38.449,0 57.672,-23.97 57.672,-71.92 v -180.8 h 123.125 v 200.88 c 0,52.27 -13.29,91.37 -39.86,117.29 -26.57,25.92 -61.66,38.88 -105.296,38.88 m 477.576,123.77 v -160.05 c -22.9,24.18 -55.3,36.28 -97.2,36.28 -31.97,0 -61.13,-7.34 -87.48,-22.03 -26.35,-14.69 -47.2,-35.75 -62.53,-63.18 -15.34,-27.43 -23.01,-59.29 -23.01,-95.58 0,-36.29 7.67,-68.26 23.01,-95.9 15.33,-27.65 36.18,-48.93 62.53,-63.83 26.35,-14.9 55.51,-22.36 87.48,-22.36 45.79,0 80.14,13.61 103.03,40.83 v -35 h 117.29 v 480.82 z m -71.28,-388.8 c -21.6,0 -39.31,7.45 -53.14,22.36 -13.82,14.9 -20.73,35.53 -20.73,61.88 0,25.92 6.91,46.23 20.73,60.91 13.83,14.69 31.54,22.03 53.14,22.03 21.6,0 39.2,-7.34 52.81,-22.03 13.61,-14.68 20.42,-34.99 20.42,-60.91 0,-26.35 -6.92,-46.98 -20.74,-61.88 -13.82,-14.91 -31.32,-22.36 -52.49,-22.36 m 519.7,259.2 V 1438.3 c 0,-28.08 -6.16,-48.92 -18.47,-62.53 -12.32,-13.61 -28.19,-20.41 -47.63,-20.41 -19.01,0 -33.48,6.05 -43.42,18.14 -9.93,12.1 -14.9,31.32 -14.9,57.68 v 176.25 h -123.12 v -196.34 c 0,-53.57 13.5,-93.75 40.5,-120.53 27,-26.79 63.18,-40.18 108.54,-40.18 20.3,0 39.53,3.68 57.67,11.02 18.14,7.34 33.7,18.14 46.66,32.4 v -37.59 h 117.29 v 351.22 z m 329.8,-357.05 c 36.73,0 68.15,4.97 94.29,14.91 26.13,9.93 45.9,23.65 59.29,41.14 13.39,17.5 20.09,37.27 20.09,59.3 0,26.78 -7.02,47.63 -21.06,62.53 -14.04,14.9 -30.56,25.16 -49.57,30.78 -19.01,5.61 -42.99,10.58 -71.93,14.91 -22.9,3.44 -39.31,6.8 -49.25,10.04 -9.93,3.24 -14.9,8.96 -14.9,17.17 0,7.34 4.53,13.28 13.61,17.82 9.07,4.54 23.33,6.8 42.77,6.8 36.28,0 69.98,-8.64 101.08,-25.92 l 36.94,83.6 c -16.85,9.5 -37.8,16.84 -62.86,22.03 -25.05,5.18 -50.33,7.77 -75.81,7.77 -35.86,0 -66.64,-5.07 -92.34,-15.22 -25.71,-10.15 -45.26,-23.98 -58.65,-41.48 -13.39,-17.49 -20.08,-37.47 -20.08,-59.93 0,-27.22 7.12,-48.4 21.38,-63.51 14.26,-15.12 31.21,-25.49 50.87,-31.1 19.65,-5.62 43.52,-10.16 71.6,-13.61 22.03,-3.02 38.12,-6.16 48.28,-9.4 10.15,-3.24 15.22,-8.75 15.22,-16.53 0,-7.77 -4.21,-13.71 -12.63,-17.81 -8.42,-4.11 -22.58,-6.16 -42.44,-6.16 -21.61,0 -43.42,2.92 -65.45,8.75 -22.03,5.83 -41.04,13.72 -57.03,23.65 l -36.93,-84.24 c 17.28,-10.8 40.17,-19.55 68.68,-26.24 28.51,-6.7 57.46,-10.05 86.83,-10.05 m 438.7,106.27 c -10.8,-7.34 -23.32,-11.01 -37.58,-11.01 -11.23,0 -20.2,3.56 -26.89,10.69 -6.7,7.13 -10.05,16.96 -10.05,29.48 v 116.64 h 80.36 v 92.02 h -80.36 v 91.37 h -123.12 v -91.37 h -51.19 v -92.02 h 51.19 v -117.93 c 0,-44.5 12.31,-77.98 36.94,-100.44 24.62,-22.46 59.83,-33.7 105.62,-33.7 16.85,0 32.73,1.73 47.63,5.19 14.9,3.45 27.54,8.42 37.91,14.9 z m 195.05,208.66 v 42.12 h -117.29 v -351.22 h 123.12 v 161.36 c 0,29.37 7.46,51.19 22.36,65.45 14.9,14.25 35.53,21.38 61.88,21.38 7.35,0 16.63,-0.65 27.86,-1.95 v 110.81 c -25.91,0 -48.92,-3.99 -69,-11.99 -20.09,-7.99 -36.4,-19.98 -48.93,-35.96 m 168.48,-309.1 h 123.12 v 351.22 h -123.12 z m 61.56,390.1 c 22.46,0 40.61,6.37 54.43,19.12 13.83,12.74 20.74,28.83 20.74,48.27 0,18.58 -6.91,33.81 -20.74,45.69 -13.82,11.88 -31.97,17.82 -54.43,17.82 -22.46,0 -40.61,-6.27 -54.43,-18.8 -13.83,-12.52 -20.74,-28.07 -20.74,-46.65 0,-18.58 6.91,-34.13 20.74,-46.66 13.82,-12.53 31.97,-18.79 54.43,-18.79 m 290.95,-33.05 c -28.09,0 -56.05,-3.56 -83.91,-10.69 -27.87,-7.13 -51.52,-17.17 -70.96,-30.13 l 41.47,-83.59 c 12.07,9.5 26.76,16.95 44.07,22.35 17.25,5.4 34.34,8.1 51.19,8.1 47.5,0 72.34,-18.57 74.52,-55.73 h -69.98 c -53.14,0 -92.47,-9.18 -117.94,-27.53 -25.51,-18.36 -38.23,-44.18 -38.23,-77.44 0,-20.74 5.05,-39.21 15.22,-55.41 10.14,-16.19 25.15,-29.05 45.04,-38.55 19.85,-9.5 43.42,-14.26 70.63,-14.26 51.39,0 85.95,17.07 103.69,51.19 v -45.36 h 114.69 v 195.06 c 0,54.86 -15.36,95.57 -46.01,122.14 -30.7,26.57 -75.17,39.85 -133.49,39.85 m -4.53,-285.12 c -14.26,0 -25.52,3.24 -33.7,9.72 -8.23,6.48 -12.32,15.12 -12.32,25.92 0,23.76 17.91,35.64 53.79,35.64 h 53.14 v -30.45 c -4.78,-13.4 -12.55,-23.54 -23.33,-30.46 -10.82,-6.91 -23.33,-10.37 -37.58,-10.37 m 261.77,-71.93 h 123.11 v 480.82 h -123.11 v -480.82"
         style="fill:#2b65a5;fill-opacity:1;fill-rule:nonzero;stroke:none"
         transform="matrix(0.13333333,0,0,-0.13333333,0,305.78667)" />
      <path
         id="path5"
         d="m 3059.19,1924.78 c 10.88,1.03 21.25,1.03 31.62,1.03 l 3.63,3.12 c -4.15,68.94 -4.67,175.21 -4.67,248.31 v 38.88 c 0,25.4 0,50.29 0.52,73.61 l -3.11,3.11 c -10.37,-0.52 -20.74,-1.04 -31.63,-1.04 l -3.11,-2.59 c 4.15,-33.69 5.19,-248.83 5.19,-279.42 0,-27.47 -0.52,-54.43 -1.04,-81.9 z m 150.85,27.99 c -1.04,50.28 -1.56,100.57 -2.07,150.86 0,0 22.81,0.51 42.51,0.51 26.43,0 52.35,0 78.79,-1.03 l 4.14,3.11 c 0,7.26 0.52,14.51 1.57,21.77 l -3.64,3.11 c -26.95,-1.04 -52.88,-1.04 -79.83,-1.04 h -43.54 c -1.04,45.1 -1.04,90.73 -1.56,135.82 h 31.62 c 33.18,0 66.36,-0.52 99.02,-1.55 l 3.63,3.11 c 0.52,7.26 1.55,15.03 1.55,22.81 l -2.59,3.11 c -24.89,-1.04 -49.77,-1.04 -75.17,-1.04 -30.07,0 -75.68,0.52 -90.72,0.52 l -2.59,-3.11 c 3.1,-110.94 4.67,-217.73 4.67,-282.01 0,-26.95 0,-53.4 -1.04,-79.83 l 3.11,-3.11 c 15.04,0 61.17,1.55 91.75,1.55 23.85,0 64.28,-0.52 71.55,-0.52 l 3.1,3.12 c 0,7.77 1.04,15.55 1.56,23.32 l -3.11,3.11 c -30.07,-1.04 -62.72,-2.59 -92.79,-2.59 z m 227.04,0 c -1.04,50.28 -1.56,100.57 -2.07,150.86 0,0 22.8,0.51 42.51,0.51 26.43,0 52.35,0 78.79,-1.03 l 4.15,3.11 c 0,7.26 0.51,14.51 1.55,21.77 l -3.62,3.11 c -26.97,-1.04 -52.89,-1.04 -79.84,-1.04 h -43.54 c -1.05,45.1 -1.05,90.73 -1.57,135.82 h 31.63 c 33.18,0 66.35,-0.52 99.02,-1.55 l 3.62,3.11 c 0.52,7.26 1.55,15.03 1.55,22.81 l -2.58,3.11 c -24.89,-1.04 -49.77,-1.04 -75.17,-1.04 -30.07,0 -75.69,0.52 -90.72,0.52 l -2.59,-3.11 c 3.11,-110.94 4.66,-217.73 4.66,-282.01 0,-26.95 0,-53.4 -1.04,-79.83 l 3.12,-3.11 c 15.03,0 61.17,1.55 91.76,1.55 23.84,0 64.27,-0.52 71.53,-0.52 l 3.11,3.12 c 0,7.77 1.04,15.55 1.56,23.32 l -3.12,3.11 c -30.06,-1.04 -62.72,-2.59 -92.79,-2.59 z m 227.06,0 c -1.04,50.28 -1.56,100.57 -2.08,150.86 0,0 22.81,0.51 42.51,0.51 26.44,0 52.36,0 78.8,-1.03 l 4.15,3.11 c 0,7.26 0.51,14.51 1.55,21.77 l -3.62,3.11 c -26.97,-1.04 -52.88,-1.04 -79.84,-1.04 h -43.55 c -1.04,45.1 -1.04,90.73 -1.56,135.82 h 31.63 c 33.18,0 66.35,-0.52 99.01,-1.55 l 3.63,3.11 c 0.52,7.26 1.55,15.03 1.55,22.81 l -2.58,3.11 c -24.89,-1.04 -49.77,-1.04 -75.17,-1.04 -30.07,0 -75.69,0.52 -90.72,0.52 l -2.59,-3.11 c 3.11,-110.94 4.66,-217.73 4.66,-282.01 0,-26.95 0,-53.4 -1.04,-79.83 l 3.12,-3.11 c 15.03,0 61.17,1.55 91.76,1.55 23.83,0 64.27,-0.52 71.53,-0.52 l 3.11,3.12 c 0,7.77 1.04,15.55 1.56,23.32 l -3.12,3.11 c -30.07,-1.04 -62.72,-2.59 -92.79,-2.59 h -39.91"
         style="fill:#2b65a5;fill-opacity:1;fill-rule:nonzero;stroke:none"
         transform="matrix(0.13333333,0,0,-0.13333333,0,305.78667)" />
      <path
         id="path6"
         d="m 4722.22,1752.31 c 72.75,-72.75 72.75,-190.69 0,-263.43 -72.74,-72.75 -190.69,-72.75 -263.43,0 -72.75,72.74 -72.75,190.68 0,263.43 72.74,72.75 190.69,72.75 263.43,0 v 0"
         style="fill:#ec6b24;fill-opacity:1;fill-rule:nonzero;stroke:none"
         transform="matrix(0.13333333,0,0,-0.13333333,0,305.78667)" />
      <path
         id="path7"
         d="m 4590.5,1363.35 c -9.15,0 -16.57,7.42 -16.57,16.56 v 598.68 c 0,9.14 7.42,16.57 16.57,16.57 9.15,0 16.58,-7.43 16.58,-16.57 v -598.68 c 0,-9.14 -7.43,-16.56 -16.58,-16.56"
         style="fill:#ec6b24;fill-opacity:1;fill-rule:nonzero;stroke:none"
         transform="matrix(0.13333333,0,0,-0.13333333,0,305.78667)" />
      <path
         id="path8"
         d="m 4659.8,1363.2 c -7.09,0 -13.6,4.7 -15.57,11.89 l -135.3,491.82 c -2.36,8.61 2.7,17.51 11.31,19.88 8.56,2.35 17.51,-2.68 19.87,-11.31 l 135.3,-491.82 c 2.36,-8.62 -2.7,-17.52 -11.31,-19.88 -1.44,-0.39 -2.87,-0.58 -4.3,-0.58"
         style="fill:#ec6b24;fill-opacity:1;fill-rule:nonzero;stroke:none"
         transform="matrix(0.13333333,0,0,-0.13333333,0,305.78667)" />
      <path
         id="path9"
         d="m 4341.09,1539.69 c -7.2,0 -13.76,4.83 -15.64,12.11 -2.25,8.65 2.95,17.47 11.6,19.71 l 495.87,128.51 c 8.68,2.17 17.47,-2.97 19.7,-11.61 2.24,-8.64 -2.96,-17.46 -11.6,-19.71 l -495.87,-128.49 c -1.35,-0.35 -2.72,-0.52 -4.06,-0.52"
         style="fill:#ec6b24;fill-opacity:1;fill-rule:nonzero;stroke:none"
         transform="matrix(0.13333333,0,0,-0.13333333,0,305.78667)" />
      <path
         id="path10"
         d="m 4834.09,1540.02 c -1.38,0 -2.77,0.18 -4.17,0.55 l -493.16,131.57 c -8.63,2.3 -13.76,11.16 -11.45,19.79 2.29,8.63 11.15,13.72 19.78,11.45 l 493.16,-131.57 c 8.63,-2.3 13.76,-11.16 11.45,-19.79 -1.92,-7.23 -8.46,-12 -15.61,-12"
         style="fill:#ec6b24;fill-opacity:1;fill-rule:nonzero;stroke:none"
         transform="matrix(0.13333333,0,0,-0.13333333,0,305.78667)" />
      <path
         id="path11"
         d="m 4522.51,1361 c -1.46,0 -2.93,0.19 -4.4,0.61 -8.59,2.42 -13.59,11.35 -11.18,19.94 l 138.68,492.32 c 2.42,8.6 11.38,13.65 19.94,11.18 8.6,-2.42 13.6,-11.35 11.18,-19.94 l -138.68,-492.32 c -2,-7.14 -8.49,-11.79 -15.54,-11.79"
         style="fill:#ec6b24;fill-opacity:1;fill-rule:nonzero;stroke:none"
         transform="matrix(0.13333333,0,0,-0.13333333,0,305.78667)" />
      <path
         id="path12"
         d="m 4403.14,1430.51 c -4.28,0 -8.56,1.7 -11.75,5.06 -6.13,6.49 -5.85,16.72 0.65,22.86 l 371.78,351.43 c 6.47,6.14 16.71,5.87 22.85,-0.64 6.14,-6.48 5.85,-16.72 -0.65,-22.85 l -371.77,-351.43 c -3.12,-2.96 -7.11,-4.43 -11.11,-4.43"
         style="fill:#ec6b24;fill-opacity:1;fill-rule:nonzero;stroke:none"
         transform="matrix(0.13333333,0,0,-0.13333333,0,305.78667)" />
      <path
         id="path13"
         d="m 4770.51,1428.97 c -4.1,0 -8.21,1.56 -11.36,4.68 l -362.29,358.57 c -6.35,6.28 -6.4,16.53 -0.13,22.88 6.29,6.35 16.52,6.4 22.87,0.11 l 362.29,-358.57 c 6.35,-6.28 6.4,-16.53 0.13,-22.87 -3.18,-3.2 -7.34,-4.8 -11.51,-4.8"
         style="fill:#ec6b24;fill-opacity:1;fill-rule:nonzero;stroke:none"
         transform="matrix(0.13333333,0,0,-0.13333333,0,305.78667)" />
      <path
         id="path14"
         d="m 4892.15,1434.09 c -2.68,0 -5.4,0.66 -7.9,2.05 l -615.78,344.43 c -7.79,4.37 -10.58,14.21 -6.22,22.01 4.38,7.79 14.24,10.54 22.01,6.22 l 615.79,-344.42 c 7.79,-4.37 10.58,-14.22 6.22,-22.01 -2.97,-5.3 -8.46,-8.28 -14.12,-8.28"
         style="fill:#ec6b24;fill-opacity:1;fill-rule:nonzero;stroke:none"
         transform="matrix(0.13333333,0,0,-0.13333333,0,305.78667)" />
      <path
         id="path15"
         d="m 4443.82,1356.56 c -2.8,0 -5.63,0.73 -8.21,2.25 -7.69,4.54 -10.24,14.46 -5.69,22.14 l 328.93,556.81 c 4.55,7.67 14.5,10.23 22.14,5.7 7.7,-4.54 10.25,-14.46 5.7,-22.14 l -328.94,-556.81 c -3.01,-5.11 -8.4,-7.95 -13.93,-7.95"
         style="fill:#ec6b24;fill-opacity:1;fill-rule:nonzero;stroke:none"
         transform="matrix(0.13333333,0,0,-0.13333333,0,305.78667)" />
      <path
         id="path16"
         d="m 4738.99,1357.58 c -5.54,0 -10.95,2.85 -13.96,7.97 l -328.49,559.54 c -4.52,7.7 -1.94,17.61 5.75,22.14 7.72,4.48 17.62,1.95 22.14,-5.76 l 328.5,-559.53 c 4.52,-7.71 1.93,-17.62 -5.77,-22.14 -2.57,-1.5 -5.38,-2.22 -8.17,-2.22"
         style="fill:#ec6b24;fill-opacity:1;fill-rule:nonzero;stroke:none"
         transform="matrix(0.13333333,0,0,-0.13333333,0,305.78667)" />
      <path
         id="path17"
         d="m 4280.11,1432.27 c 2.67,0 5.39,0.66 7.88,2.05 l 615.8,344.43 c 7.78,4.36 10.57,14.21 6.22,22.01 -4.39,7.79 -14.25,10.54 -22.02,6.22 L 4272.2,1462.56 c -7.79,-4.37 -10.57,-14.22 -6.22,-22.01 2.97,-5.3 8.47,-8.28 14.13,-8.28"
         style="fill:#ec6b24;fill-opacity:1;fill-rule:nonzero;stroke:none"
         transform="matrix(0.13333333,0,0,-0.13333333,0,305.78667)" />
      <path
         id="path18"
         d="m 5422.94,935.078 c -1.87,0.024 -43.79,-55.539 -108.67,-77.609 -44.76,-15.231 -99.79,-9.489 -139.7,31.043 -40.68,41.316 -61.97,86.66 -62.09,139.708 -0.2,79.86 102.45,164.87 201.79,124.19 2.64,-1.08 -139.55,-91.42 -139.7,-93.14 -0.45,-5.13 77.07,-137.782 77.61,-139.711 0.96,-3.387 387.94,218.161 500.57,281.661 -24.91,57.37 -60.38,111.27 -107.28,158.18 -200.06,200.05 -524.41,200.05 -724.47,0 -200.05,-200.06 -200.05,-524.412 0,-724.451 200.06,-200.058 524.41,-200.058 724.47,0 84.17,84.18 132.48,190.43 145.81,300.102 -126.79,-0.153 -262.1,-0.992 -368.34,0.027"
         style="fill:#ec6b24;fill-opacity:1;fill-rule:nonzero;stroke:none"
         transform="matrix(0.13333333,0,0,-0.13333333,0,305.78667)" />
      <path
         id="path19"
         d="m 6127.05,1062.19 c 0,-0.01 -0.01,-0.02 -0.01,-0.02 -3.05,0.02 -5.45,0.02 0.01,0.02 50.72,210.06 263.25,208.73 310.46,31.02 h 357.14 c -17.89,99.23 -64.91,194.24 -141.61,270.93 -200.05,200.06 -524.39,200.06 -724.45,0 -116.86,-116.85 -164.92,-276.06 -145.25,-428.179 537.07,1.777 652.67,1.93 669.67,1.98 0.01,0.008 0.01,0.02 0.02,0.039 2.59,-0.019 3.91,-0.031 -0.02,-0.039 -50.72,-210.043 -263.25,-208.711 -310.45,-31.011 -14.33,-0.571 -322.96,-0.051 -355.04,-0.008 18.38,-97.891 65.32,-191.481 141.07,-267.231 200.06,-200.05 524.4,-200.05 724.45,0 115.39,115.387 163.81,272.079 146.09,422.469 -535.08,-0.13 -652.81,0.01 -672.08,0.03"
         style="fill:#ec6b24;fill-opacity:1;fill-rule:nonzero;stroke:none"
         transform="matrix(0.13333333,0,0,-0.13333333,0,305.78667)" />
      <path
         id="path20"
         d="m 4779.69,1396.02 c -91.35,-0.77 -379.46,0 -379.46,0 0,0 0.44,-523.141 -0.38,-579.668 -0.98,-22.852 144.89,-335.172 381.19,-335.172 l -1.35,914.84"
         style="fill:#ec6b24;fill-opacity:1;fill-rule:nonzero;stroke:none"
         transform="matrix(0.13333333,0,0,-0.13333333,0,305.78667)" />
      <path
         id="path21"
         d="M 6802.22,336.469 H 4400.55 c -8.28,0 -15,6.711 -15,15 0,8.281 6.72,15 15,15 h 2401.67 c 8.28,0 15,-6.719 15,-15 0,-8.289 -6.72,-15 -15,-15"
         style="fill:#ec6b24;fill-opacity:1;fill-rule:nonzero;stroke:none"
         transform="matrix(0.13333333,0,0,-0.13333333,0,305.78667)" />
      <path
         id="path22"
         d="M 6801.16,1605.59 H 4230.31 c -8.87,0 -16.06,6.72 -16.06,15 0,8.29 7.19,15 16.06,15 h 2570.85 c 8.87,0 16.06,-6.71 16.06,-15 0,-8.28 -7.19,-15 -16.06,-15"
         style="fill:#ec6b24;fill-opacity:1;fill-rule:nonzero;stroke:none"
         transform="matrix(0.13333333,0,0,-0.13333333,0,305.78667)" />
    </g>
  </g>
</svg>
