<?xml version="1.0" encoding="UTF-8" standalone="no"?>
<!-- Created with Inkscape (http://www.inkscape.org/) -->

<svg
   width="100"
   height="100"
   viewBox="0 0 26.458332 26.458333"
   version="1.1"
   id="svg1"
   xmlns="http://www.w3.org/2000/svg"
   xmlns:svg="http://www.w3.org/2000/svg">
  <defs
     id="defs1" />
  <g
     id="layer1">
    <g
       id="group-R5"
       transform="matrix(0.06489807,0,0,0.06489807,-4.1549274e-6,8.3629353)">
      <path
         id="path2"
         d="m 1276.54,966.773 c 21.06,-56.07 19.11,-133.335 3.35,-195.82 -15.21,-59.695 -40.31,-111.719 -66.95,-158.164 C 1102.61,420.734 929.391,291.16 756.859,166.754 c -11.437,14.363 -18.55,30.684 -28.453,49.371 -3.902,7.254 -9.203,15.762 -14.226,25.105 -3.907,7.114 -12.274,18.969 -12.551,25.942 -0.418,9.066 12.691,28.312 18.41,38.496 99.723,180.48 200.703,371 300.421,548.133 23.44,1.394 52.59,1.394 76.16,0 4.74,-17.016 6.27,-35.707 8.37,-54.395 4.04,-37.101 7.53,-75.875 11.71,-113.812 1.95,-18.551 0.56,-37.797 8.37,-53.559 19.53,4.324 31.94,23.153 43.52,38.496 35.14,46.864 63.18,106.696 71.13,179.082 11.71,107.817 -47.98,175.877 -135.57,193.317 -52.3,10.46 -105.166,3.34 -149.795,-7.54 C 863,1013.22 792.844,978.629 720.875,935.809 694.793,920.328 669.41,905.125 643.887,887.273 c -7.949,-5.578 -17.856,-15.48 -25.106,-15.898 -7.113,-0.422 -17.156,5.719 -25.941,9.203 -24.688,9.625 -53.699,16.18 -87.871,16.738 -46.864,0.696 -83.403,-12.136 -117.992,-20.086 5.019,11.997 17.851,17.715 27.613,25.106 68.621,51.746 147.285,98.614 230.969,136.404 97.074,43.8 202.515,79.22 334.738,85.36 148.543,6.97 256.213,-51.47 296.243,-157.327"
         style="fill:#591462;fill-opacity:1;fill-rule:nonzero;stroke:none"
         transform="matrix(0.13333333,0,0,-0.13333333,0,149.96)" />
      <path
         id="path3"
         d="m 1166.91,169.262 c 2.79,-31.379 8.51,-63.043 5.86,-91.2112 -7.25,-3.9102 -20.5,-2.5117 -35.15,-2.5117 -12.27,0 -28.59,-1.8203 -35.14,2.5117 -4.75,3.0586 -11.16,18.8281 -15.07,26.7772 -28.31,56.344 -53.28,107.531 -82.85,163.184 -4.876,8.926 -13.384,22.176 -12.548,28.449 1.117,8.508 13.808,11.301 17.578,17.574 43.51,38.219 83.12,80.34 122.17,123.016 9.77,8.508 10.05,-8.645 10.88,-15.899 8.37,-84.519 16.6,-168.066 24.27,-251.89"
         style="fill:#591462;fill-opacity:1;fill-rule:nonzero;stroke:none"
         transform="matrix(0.13333333,0,0,-0.13333333,0,149.96)" />
      <path
         id="path4-0"
         d="m 750.164,105.66 c 4.047,-6.9686 9.625,-14.7811 9.207,-23.4295 -6.137,-8.7891 -23.016,-5.8594 -35.984,-5.8594 -13.949,0 -29.848,-2.0898 -41.004,0.8398 -7.117,1.8086 -17.856,11.7188 -25.945,18.4102 C 568.152,167.867 479.863,239.977 391.16,310.688 c -32.777,26.082 -66.109,50.492 -96.238,78.664 -1.535,15.203 -1.395,35.843 0,51.046 71.133,18.969 127.062,51.465 174.902,96.239 22.594,21.199 42.676,45.468 60.25,75.316 16.321,27.895 34.031,61.367 30.965,104.606 -4.601,62.621 -53.84,93.726 -120.508,93.726 -51.742,0 -88.98,-18.133 -127.199,-33.476 -11.855,-4.743 -25.66,-14.782 -40.168,-8.368 3.207,8.368 11.996,13.95 19.246,19.247 48.539,35.425 114.649,71.55 192.477,76.156 127.34,7.531 200.004,-72.387 211.718,-182.434 C 710.273,551.84 646.395,465.363 566.895,421.152 627.148,314.875 688.379,210.965 750.164,105.66"
         style="fill:#960a2c;fill-opacity:1;fill-rule:nonzero;stroke:none"
         transform="matrix(0.13333333,0,0,-0.13333333,0,149.96)" />
      <path
         id="path5"
         d="M 576.102,109.012 C 583.91,102.59 591.305,97.4297 596.188,89.7617 543.324,66.8906 486.422,51.2695 423.797,40.3906 359.918,29.3711 287.391,25.8789 221.281,37.8789 100.914,59.6406 12.0703,129.512 1.19141,261.316 -4.52734,329.52 11.0938,395.488 32.1523,448.77 c 21.3399,54.394 49.0977,100 80.3397,141.425 62.762,83.403 138.637,159 269.461,174.063 37.938,4.324 71.828,-4.184 94.563,-21.758 5.023,-3.906 18.414,-13.531 17.574,-20.086 -0.836,-5.996 -20.918,-14.922 -27.613,-19.246 C 401.48,660.906 337.742,610.418 284.879,560.066 237.879,513.762 193.941,466.34 158.516,407.762 126.02,354.203 89.8945,265.082 125.043,193.531 169.395,103.012 304.965,81.9492 437.188,101.48 c 28.449,4.18 58.996,9.481 87.867,16.731 9.625,2.379 20.363,7.394 27.617,6.699 7.808,-0.84 17.152,-10.738 23.43,-15.898"
         style="fill:#591462;fill-opacity:1;fill-rule:nonzero;stroke:none"
         transform="matrix(0.13333333,0,0,-0.13333333,0,149.96)" />
      <path
         id="path6"
         d="m 1229.24,115.82 h 9.32 c 4.45,0 7.49,0.66 9.11,1.989 1.62,1.332 2.43,3.082 2.43,5.273 0,1.406 -0.39,2.668 -1.17,3.781 -0.78,1.114 -1.87,1.942 -3.25,2.489 -1.39,0.546 -3.96,0.82 -7.71,0.82 h -8.73 z m -7.68,-26.7809 v 47.5779 h 16.35 c 5.59,0 9.63,-0.437 12.13,-1.316 2.5,-0.879 4.49,-2.414 5.98,-4.602 1.48,-2.187 2.22,-4.511 2.22,-6.969 0,-3.48 -1.24,-6.511 -3.72,-9.089 -2.48,-2.571 -5.77,-4.02 -9.87,-4.332 1.68,-0.7 3.03,-1.539 4.04,-2.52 1.92,-1.879 4.26,-5.019 7.03,-9.4296 l 5.8,-9.3203 h -9.37 l -4.22,7.5 c -3.32,5.9019 -5.99,9.5899 -8.03,11.0699 -1.4,1.102 -3.45,1.641 -6.15,1.641 h -4.51 V 89.0391 Z m 19.4,61.3479 c -6.21,0 -12.26,-1.59 -18.14,-4.774 -5.88,-3.183 -10.47,-7.734 -13.8,-13.652 -3.32,-5.918 -4.98,-12.082 -4.98,-18.492 0,-6.36 1.64,-12.469 4.9,-18.3088 3.26,-5.8399 7.82,-10.3907 13.68,-13.6485 5.86,-3.2617 11.97,-4.8906 18.34,-4.8906 6.37,0 12.48,1.6289 18.34,4.8906 5.86,3.2578 10.41,7.8086 13.65,13.6485 3.24,5.8398 4.86,11.9488 4.86,18.3088 0,6.41 -1.65,12.574 -4.95,18.492 -3.3,5.918 -7.9,10.469 -13.8,13.652 -5.89,3.184 -11.93,4.774 -18.1,4.774 z m 0,7.324 c 7.42,0 14.67,-1.902 21.74,-5.711 7.07,-3.809 12.57,-9.258 16.52,-16.348 3.94,-7.089 5.92,-14.48 5.92,-22.183 0,-7.61 -1.95,-14.9377 -5.83,-21.969 -3.89,-7.0312 -9.34,-12.4883 -16.35,-16.3789 -7.01,-3.8828 -14.35,-5.832 -22,-5.832 -7.66,0 -14.99,1.9492 -22,5.832 -7.02,3.8906 -12.47,9.3477 -16.38,16.3789 -3.91,7.0313 -5.86,14.359 -5.86,21.969 0,7.703 1.98,15.094 5.95,22.183 3.96,7.09 9.48,12.539 16.55,16.348 7.07,3.809 14.32,5.711 21.74,5.711"
         style="fill:#591462;fill-opacity:1;fill-rule:nonzero;stroke:none"
         transform="matrix(0.13333333,0,0,-0.13333333,0,149.96)" />
      <path
         id="path7-9"
         d="m 1522.9,736.328 c 24.9,0 46.8,11.102 46.8,37.5 0,19.5 -15.6,21.902 -31.2,21.902 -1.79,0 -4.5,-0.304 -13.49,-0.304 -1.51,-5.996 -3.3,-11.996 -14.11,-59.098 z M 1600,620.234 c -17.4,-0.3 -34.8,-0.902 -52.2,-2.097 l -2.1,1.797 c -11.4,34.5 -18,55.199 -27.6,82.199 -5.1,-0.301 -10.19,-0.301 -15.3,-0.301 -6.59,-26.402 -11.99,-54.297 -16.79,-80.996 l -2.1,-1.504 c -13.21,0 -50.4,-0.898 -50.4,-0.898 l -1.5,1.8 c 8.7,35.996 39.3,156.297 46.5,209.094 l 1.79,1.5 c 14.71,0 53.7,0.598 77.4,0.598 34.5,0 64.5,-11.098 64.5,-52.5 0,-32.996 -19.8,-59.395 -56.7,-68.094 25.81,-63.898 30.9,-75.598 36,-88.199 l -1.5,-2.399"
         style="fill:#960a2c;fill-opacity:1;fill-rule:nonzero;stroke:none"
         transform="matrix(0.13333333,0,0,-0.13333333,0,149.96)" />
      <path
         id="path8"
         d="m 1699.31,647.234 c 31.8,0 41.1,54.899 41.1,76.496 0,10.204 -3,26.102 -22.5,26.102 -36,0 -41.1,-66.598 -41.1,-75.898 0,-20.403 11.1,-26.7 22.5,-26.7 z m 22.2,134.395 c 18.9,0 68.69,-7.801 68.69,-64.496 0,-59.699 -33.29,-101.695 -91.8,-101.695 -60.29,0 -71.68,37.492 -71.68,65.394 0,19.801 8.09,100.797 94.79,100.797"
         style="fill:#960a2c;fill-opacity:1;fill-rule:nonzero;stroke:none"
         transform="matrix(0.13333333,0,0,-0.13333333,0,149.96)" />
      <path
         id="path9"
         d="m 1854.69,651.734 c 8.7,0 24.01,0.899 37.21,13.801 12.6,12.301 21.3,33.895 21.3,51.598 0,22.797 -12.61,29.094 -23.41,29.094 -11.09,0 -18.9,-5.997 -22.2,-8.094 l -19.79,-86.399 z m -63.89,-30.898 c 4.5,18.898 8.7,34.199 12.59,51.598 l 14.41,62.398 c 8.7,37.5 17.69,74.395 23.4,112.492 l 2.4,2.102 c 17.1,2.699 34.2,5.699 51.3,8.703 l 1.49,-2.102 c -2.39,-10.8 -5.09,-21 -7.79,-31.5 l -14.1,-56.097 c 5.4,3.597 20.1,13.199 39.6,13.199 39.6,0 50.39,-35.098 50.39,-58.801 0,-29.695 -13.8,-62.996 -37.2,-81.894 -26.4,-21.297 -57.6,-21.899 -89.39,-21.899 h -21 c -8.1,0 -16.2,0 -24.3,-0.297 l -1.8,2.098"
         style="fill:#960a2c;fill-opacity:1;fill-rule:nonzero;stroke:none"
         transform="matrix(0.13333333,0,0,-0.13333333,0,149.96)" />
      <path
         id="path10-3"
         d="m 2049.7,647.234 c 31.8,0 41.1,54.899 41.1,76.496 0,10.204 -3,26.102 -22.5,26.102 -36,0 -41.1,-66.598 -41.1,-75.898 0,-20.403 11.1,-26.7 22.5,-26.7 z m 22.2,134.395 c 18.9,0 68.69,-7.801 68.69,-64.496 0,-59.699 -33.29,-101.695 -91.79,-101.695 -60.3,0 -71.69,37.492 -71.69,65.394 0,19.801 8.09,100.797 94.79,100.797"
         style="fill:#960a2c;fill-opacity:1;fill-rule:nonzero;stroke:none"
         transform="matrix(0.13333333,0,0,-0.13333333,0,149.96)" />
      <path
         id="path11"
         d="m 2233.89,619.332 c -12.59,-2.996 -23.4,-3.297 -27.59,-3.297 -34.2,0 -45,14.699 -45,35.098 0,11.398 3.3,25.5 9.9,51.902 l 10.19,41.395 h -3.3 c -6.6,0 -11.4,-0.301 -17.69,-0.602 l -1.81,2.102 c 3.3,11.097 5.4,19.199 8.41,30.297 l 2.1,1.8 h 20.09 c 3.31,14.098 5.7,24 8.4,38.399 l 2.1,2.101 c 18.3,4.2 31.2,7.5 49.2,12.899 l 1.8,-2.098 c -2.4,-8.402 -3.9,-15.902 -13.2,-52.195 11.4,0.297 19.5,0.297 30.9,0.894 l 1.2,-2.398 c -3.9,-10.797 -6.6,-18.602 -9.3,-29.996 l -2.7,-1.805 c -10.2,0.301 -17.4,0.301 -27.6,0.301 l -12.6,-52.496 c -3,-12.602 -5.7,-24 -5.7,-28.5 0,-5.403 3.31,-12.301 15,-12.301 7.8,0 13.2,2.402 16.5,3.602 l 1.8,-1.504 c -3.6,-11.7 -5.7,-19.793 -9,-31.196 l -2.1,-2.402"
         style="fill:#960a2c;fill-opacity:1;fill-rule:nonzero;stroke:none"
         transform="matrix(0.13333333,0,0,-0.13333333,0,149.96)" />
      <path
         id="path12"
         d="m 2362.59,850.324 c -2.7,-13.496 -6.31,-26.699 -9.6,-39.898 l -2.4,-2.399 c -16.2,-2.097 -32.4,-4.5 -48.9,-6.898 l -1.8,2.398 c 3.01,13.2 6,26.7 8.7,40.2 l 2.71,2.101 c 16.19,2.098 34.79,4.801 49.49,6.598 z m -34.8,-154.789 -4.8,-22.203 c -3.6,-17.398 -6.6,-34.801 -9.6,-52.496 l -2.09,-1.504 c -17.41,0 -34.81,-0.297 -51.91,-1.195 l -1.49,2.097 c 6.89,26.399 13.49,53.399 19.49,80.399 l 3.3,14.695 c 4.2,18.606 8.11,37.5 10.2,56.098 l 2.1,2.101 c 17.7,2.403 35.4,5.102 52.8,8.403 l 1.8,-2.403 c -6.9,-26.996 -13.79,-55.797 -19.8,-83.992"
         style="fill:#960a2c;fill-opacity:1;fill-rule:nonzero;stroke:none"
         transform="matrix(0.13333333,0,0,-0.13333333,0,149.96)" />
      <path
         id="path13-6"
         d="m 2462.79,622.938 c -7.8,-3.301 -19.81,-7.5 -37.8,-7.5 -44.7,0 -71.4,27.894 -71.4,69.898 0,41.996 22.5,70.492 44.4,83.695 21,12.598 44.4,12.598 50.1,12.598 13.5,0 32.1,-3 45.3,-12.301 l 0.6,-2.398 c -4.2,-12.297 -6.9,-21.297 -10.21,-34.2 l -2.99,-0.597 c -10.2,14.398 -26.7,14.398 -28.8,14.398 -33.3,0 -46.8,-34.199 -46.8,-57.301 0,-20.097 10.2,-38.097 34.2,-38.097 15.9,0 24.89,6.597 32.1,12 l 2.7,-1.5 c -3.9,-13.5 -6.3,-23.102 -9.6,-36.598 l -1.8,-2.097"
         style="fill:#960a2c;fill-opacity:1;fill-rule:nonzero;stroke:none"
         transform="matrix(0.13333333,0,0,-0.13333333,0,149.96)" />
      <path
         id="path14"
         d="m 2497.28,665.832 c 12.9,-14.699 28.51,-19.496 42,-19.496 15.9,0 25.5,7.195 25.5,17.394 0,8.403 -5.1,12.004 -20.4,19.801 l -6.6,3.301 c -10.8,5.402 -31.19,15.301 -31.19,40.797 0,26.098 18.59,54 68.69,54 24.9,0 39.9,-6.301 51,-11.996 l 1.5,-2.703 c -3.9,-11.7 -6.3,-20.102 -9.3,-32.098 l -2.7,-0.602 c -14.4,17.098 -30.9,17.399 -35.7,17.399 -14.4,0 -23.7,-6.301 -23.7,-15.301 0,-6.898 5.71,-11.398 18.3,-17.394 l 6.9,-3.301 c 11.7,-5.699 34.5,-16.5 34.5,-44.699 0,-28.5 -21.9,-55.801 -72.6,-55.801 -27.59,0 -45.3,7.5 -57.29,15 l -0.9,2.703 c 3.9,11.695 5.99,20.094 9.3,32.098 l 2.69,0.898"
         style="fill:#960a2c;fill-opacity:1;fill-rule:nonzero;stroke:none"
         transform="matrix(0.13333333,0,0,-0.13333333,0,149.96)" />
      <path
         id="path15"
         d="m 2812.57,796.926 c -9.29,0 -17.09,-7.797 -17.09,-17.399 0,-6.898 1.8,-11.996 8.4,-25.199 18.6,11.699 24.3,17.699 24.3,27.602 0,8.699 -6.6,14.996 -15.61,14.996 z m -32.39,-95.696 c -19.8,-10.496 -26.1,-17.699 -26.1,-29.398 0,-11.402 8.4,-19.801 20.7,-19.801 8.4,0 15.9,3.004 27.3,10.805 -6.9,12.898 -14.7,25.496 -21.9,38.394 z m 115.5,-1.8 c -10.51,-13.496 -23.41,-25.797 -37.5,-39.297 8.1,-12.899 16.2,-25.801 24.6,-38.699 l -0.9,-2.696 h -17.4 c -18,0 -23.7,0 -35.7,-0.601 l -2.4,1.797 c -2.1,4.8 -4.8,9 -7.5,13.203 -18.3,-12.004 -35.4,-18.004 -55.8,-18.004 -35.1,0 -59.1,21.301 -59.1,52.5 0,14.699 6.3,29.699 16.81,40.195 8.39,8.402 17.39,13.805 41.99,25.504 -8.7,15.898 -11.7,26.699 -11.7,40.496 0,30.899 24,51.895 60,51.895 33.3,0 54.89,-16.797 54.89,-42.895 0,-24 -15.9,-38.101 -47.09,-56.098 6.9,-12.597 13.8,-24.898 21.3,-36.597 23.1,24.601 24.6,26.699 33.6,43.199 h 2.99 c 5.71,-10.801 12.6,-21 19.2,-31.5 l -0.29,-2.402"
         style="fill:#960a2c;fill-opacity:1;fill-rule:nonzero;stroke:none"
         transform="matrix(0.13333333,0,0,-0.13333333,0,149.96)" />
      <path
         id="path16-0"
         d="m 1534.28,895.375 h -7.8 c -9,0 -15.6,-0.301 -24.6,-0.598 l -1.5,2.102 c 9.3,37.797 40.5,173.091 46.5,208.491 l 1.8,1.79 h 8.7 c 8.99,0 15.6,0 24.6,0.61 l 1.2,-1.8 c -9.9,-39.6 -33.6,-138.9 -46.5,-209.091 l -2.4,-1.504"
         style="fill:#960a2c;fill-opacity:1;fill-rule:nonzero;stroke:none"
         transform="matrix(0.13333333,0,0,-0.13333333,0,149.96)" />
      <path
         id="path17"
         d="m 1709.78,895.074 h -62.4 c -20.1,0 -33.9,0 -53.99,-0.601 l -4.2,-0.297 -1.51,2.101 c 20.4,79.793 37.5,165.293 46.8,209.093 l 2.1,2.09 h 2.7 c 8.7,0 22.8,-0.3 36,-0.3 h 34.79 c 16.51,0 33,0.61 44.11,0.61 l 1.79,-1.8 c -2.69,-8.1 -4.2,-13.81 -6.3,-22.2 l -2.4,-1.8 c -18.29,0 -43.49,0.9 -68.99,0.9 -5.1,0 -14.7,-0.3 -14.7,-0.3 l -14.7,-65.4 c 59.99,0.3 69,0.9 81.9,0.9 l 1.2,-2.1 c -2.4,-7.8 -3.91,-13.2 -6.01,-20.997 l -2.69,-2.098 c -10.5,0.297 -56.4,0.297 -79.5,0.297 -4.8,-21 -9.6,-42.301 -16.2,-72.598 12.6,0 81.9,1.199 89.99,1.199 l 1.51,-1.5 c -2.71,-8.699 -4.81,-14.699 -7.2,-23.394 l -2.1,-1.805"
         style="fill:#960a2c;fill-opacity:1;fill-rule:nonzero;stroke:none"
         transform="matrix(0.13333333,0,0,-0.13333333,0,149.96)" />
      <path
         id="path18"
         d="m 1872.38,895.074 h -62.4 c -20.1,0 -33.9,0 -54,-0.601 l -4.2,-0.297 -1.5,2.101 c 20.4,79.793 37.5,165.293 46.8,209.093 l 2.1,2.09 h 2.7 c 8.69,0 22.79,-0.3 36,-0.3 h 34.79 c 16.51,0 33,0.61 44.1,0.61 l 1.8,-1.8 c -2.69,-8.1 -4.2,-13.81 -6.3,-22.2 l -2.4,-1.8 c -18.29,0 -43.5,0.9 -68.99,0.9 -5.1,0 -14.7,-0.3 -14.7,-0.3 l -14.7,-65.4 c 59.99,0.3 69,0.9 81.9,0.9 l 1.2,-2.1 c -2.41,-7.8 -3.91,-13.2 -6.01,-20.997 l -2.69,-2.098 c -10.5,0.297 -56.4,0.297 -79.51,0.297 -4.79,-21 -9.6,-42.301 -16.19,-72.598 12.6,0 81.9,1.199 89.99,1.199 l 1.51,-1.5 c -2.71,-8.699 -4.81,-14.699 -7.2,-23.394 l -2.1,-1.805"
         style="fill:#960a2c;fill-opacity:1;fill-rule:nonzero;stroke:none"
         transform="matrix(0.13333333,0,0,-0.13333333,0,149.96)" />
      <path
         id="path19-6"
         d="m 2034.98,895.074 h -62.41 c -20.09,0 -33.89,0 -53.99,-0.601 l -4.2,-0.297 -1.5,2.101 c 20.4,79.793 37.5,165.293 46.79,209.093 l 2.1,2.09 h 2.71 c 8.69,0 22.79,-0.3 36,-0.3 h 34.79 c 16.5,0 33,0.61 44.1,0.61 l 1.8,-1.8 c -2.7,-8.1 -4.2,-13.81 -6.3,-22.2 l -2.4,-1.8 c -18.29,0 -43.5,0.9 -69,0.9 -5.09,0 -14.69,-0.3 -14.69,-0.3 l -14.7,-65.4 c 59.99,0.3 68.99,0.9 81.89,0.9 l 1.2,-2.1 c -2.4,-7.8 -3.9,-13.2 -6,-20.997 l -2.7,-2.098 c -10.49,0.297 -56.39,0.297 -79.5,0.297 -4.79,-21 -9.6,-42.301 -16.19,-72.598 12.6,0 81.89,1.199 89.99,1.199 l 1.5,-1.5 c -2.7,-8.699 -4.8,-14.699 -7.19,-23.394 l -2.1,-1.805"
         style="fill:#960a2c;fill-opacity:1;fill-rule:nonzero;stroke:none"
         transform="matrix(0.13333333,0,0,-0.13333333,0,149.96)" />
      <path
         id="path20"
         d="m 1369.94,116.379 c 3.3,-6.301 21.3,-23.0899 50.1,-23.0899 35.1,0 50.1,20.0899 50.1,38.3989 0,18.894 -11.7,27.304 -33.9,38.699 l -9.9,5.097 c -19.5,9.903 -38.7,21.301 -38.7,51.602 0,29.094 20.7,63 76.8,63 27.9,0 45.9,-8.398 57.9,-16.504 l 0.9,-2.402 c -3.01,-8.996 -5.4,-15.598 -8.1,-24.895 l -2.7,-0.605 c -11.4,14.707 -33,19.804 -45.9,19.804 -31.2,0 -45,-17.402 -45,-35.097 0,-16.199 9.6,-22.801 33.9,-35.399 l 8.7,-4.504 c 19.5,-10.195 40.5,-24.597 40.5,-54.902 0,-29.992 -23.1,-67.4922 -81,-67.4922 -29.1,0 -52.8,9 -62.7,18.6016 l -0.89,2.6992 c 2.99,9.5977 4.49,16.4884 6.89,26.3984 l 3,0.59"
         style="fill:#960a2c;fill-opacity:1;fill-rule:nonzero;stroke:none"
         transform="matrix(0.13333333,0,0,-0.13333333,0,149.96)" />
      <path
         id="path21"
         d="m 1594.94,91.7891 c 45.3,0 52.8,73.1989 52.8,83.3949 0,29.101 -17.7,35.398 -31.2,35.398 -41.4,0 -52.8,-61.492 -52.8,-83.094 0,-19.199 9,-35.6989 31.2,-35.6989 z m 20.4,140.6989 c 37.2,0 64.2,-18.906 64.2,-58.8 0,-31.504 -14.41,-104.0982 -85.2,-104.0982 -18.9,0 -62.4,4.5 -62.4,59.9962 0,48.605 26.4,102.902 83.4,102.902"
         style="fill:#960a2c;fill-opacity:1;fill-rule:nonzero;stroke:none"
         transform="matrix(0.13333333,0,0,-0.13333333,0,149.96)" />
      <path
         id="path22-2"
         d="m 1802.23,77.9805 c -10.5,-5.9922 -28.2,-8.3907 -38.7,-8.3907 -38.69,0 -65.39,29.1016 -65.39,67.1952 0,24.903 10.8,63.602 43.8,83.699 17.39,10.5 35.69,12.004 43.8,12.004 20.99,0 37.49,-5.109 46.49,-12.004 l 0.9,-2.097 c -3.3,-8.703 -5.1,-15 -7.5,-23.703 l -3,-0.899 c -4.8,8.098 -17.99,15 -33.89,15 -37.5,0 -57.9,-39.597 -57.9,-69.597 0,-35.098 27.29,-45.2974 41.7,-45.2974 5.09,0 20.69,0.5977 36.6,14.3984 l 2.39,-1.199 c -3.3,-9.9103 -5.1,-16.8009 -7.5,-27.0002 l -1.8,-2.1093"
         style="fill:#960a2c;fill-opacity:1;fill-rule:nonzero;stroke:none"
         transform="matrix(0.13333333,0,0,-0.13333333,0,149.96)" />
      <path
         id="path23"
         d="m 1903.34,271.18 c -11.7,-1.496 -19.8,-2.395 -31.5,-4.2 l -1.8,2.403 c 2.4,10.203 4.19,17.402 6.29,27.597 l 2.71,2.098 c 11.7,1.504 19.79,2.402 31.2,4.199 l 2.39,-2.097 c -2.69,-9.895 -4.49,-17.395 -6.89,-27.598 z m -42.9,-197.6917 c -11.7,0 -20.1,-0.2969 -31.8,-0.8985 l -1.5,1.8008 c 9.6,34.8004 30.9,133.7894 32.4,149.9924 l 2.1,2.097 c 12.3,1.504 20.7,2.708 32.7,4.805 l 1.5,-2.097 c -1.5,0.292 -26.4,-113.997 -33.3,-154.1997 l -2.1,-1.5"
         style="fill:#960a2c;fill-opacity:1;fill-rule:nonzero;stroke:none"
         transform="matrix(0.13333333,0,0,-0.13333333,0,149.96)" />
      <path
         id="path24"
         d="m 2025.74,168.883 c 1.2,6.906 1.49,9.902 1.49,13.203 -0.59,27.297 -23.09,29.394 -30.9,29.394 -34.49,0 -46.19,-31.796 -49.49,-42.89 0,0 59.7,0.293 78.9,0.293 z m 3.9,-87.2932 c -10.2,-6 -25.81,-12 -48.9,-12 -51.3,0 -69.6,30.6012 -69.6,65.0942 0,52.5 32.1,97.804 83.99,97.804 35.4,0 60.61,-16.203 60.61,-56.105 0,-12.293 -2.71,-22.793 -3.6,-27.293 l -2.1,-1.504 c -15.6,0 -44.11,0.301 -70.2,0.301 -13.51,0 -23.4,0 -36.9,-0.594 -0.3,-1.809 -0.9,-7.207 -0.9,-12.902 0,-39.309 34.2,-40.1996 45,-40.1996 24.9,0 37.79,9.5976 49.5,17.9886 l 2.39,-1.489 c -3.3,-9.902 -5.4,-16.8004 -7.79,-26.9996 l -1.5,-2.1016"
         style="fill:#960a2c;fill-opacity:1;fill-rule:nonzero;stroke:none"
         transform="matrix(0.13333333,0,0,-0.13333333,0,149.96)" />
      <path
         id="path25-6"
         d="m 2131.03,73.7891 c -9.89,-2.3985 -17.69,-2.6993 -21.59,-2.6993 -28.51,0 -35.7,14.6993 -35.7,29.6992 0,11.391 6.3,37.801 15,74.102 l 7.5,31.191 h -6 c -5.7,0 -9.9,0 -15.6,-0.293 l -1.5,2.098 c 2.1,6.894 3.59,12.297 5.4,19.797 l 2.1,1.504 c 7.79,-0.305 12.9,-0.305 20.69,-0.305 3.61,13.801 5.4,23.703 8.11,37.5 l 2.1,2.101 c 11.7,2.403 19.79,4.5 31.19,7.5 l 1.5,-1.796 c -2.4,-8.106 -3.89,-14.102 -5.99,-22.208 l -5.7,-23.097 c 12.29,0 20.7,0 32.69,0.597 l 1.5,-2.101 c -2.7,-7.195 -4.19,-12.598 -6.29,-19.793 l -2.1,-1.797 c -11.41,0.293 -19.51,0.293 -30.9,0.293 l -16.2,-67.793 c -1.51,-5.996 -5.71,-24.598 -5.71,-30.598 0,-9.6012 6.91,-12.9019 14.71,-12.9019 7.79,0 14.99,3 17.7,3.9023 l 1.5,-1.5117 c -2.4,-7.7891 -4.21,-13.1914 -6.31,-20.9883 l -2.1,-2.4023"
         style="fill:#960a2c;fill-opacity:1;fill-rule:nonzero;stroke:none"
         transform="matrix(0.13333333,0,0,-0.13333333,0,149.96)" />
      <path
         id="path26"
         d="m 2313.73,227.086 c -36,-58.203 -120.3,-199.4962 -131.69,-224.98444 l -2.4,-1.812497 h -13.51 c -6,0 -11.7,0 -17.7,-0.289063 l -0.89,2.10156 c 8.7,13.18754 38.39,59.08984 45.59,72.28904 -11.4,74.6994 -22.5,148.7894 -23.99,152.3944 l 2.1,2.098 c 11.39,0 19.49,0.597 31.19,1.504 l 2.4,-1.504 c 1.5,-16.504 2.4,-28.203 4.5,-44.395 l 8.7,-70.797 29.1,51.598 c 11.4,20.098 22.8,40.5 33.6,62.09 l 2.4,1.809 c 3.3,-0.305 6.6,-0.305 9.89,-0.305 7.21,0 12.31,0.305 19.2,0.597 l 1.51,-2.394"
         style="fill:#960a2c;fill-opacity:1;fill-rule:nonzero;stroke:none"
         transform="matrix(0.13333333,0,0,-0.13333333,0,149.96)" />
      <path
         id="path27"
         d="m 1474.9,437.898 c 5.7,-0.304 9.9,-0.304 15.6,-0.304 h 7.2 c 8.1,0 16.5,0 21.9,0.304 -1.5,59.094 -2.4,85.497 -2.4,85.497 z m 100.2,-92.394 c -18.9,0 -32.4,-0.301 -51.3,-1.199 l -1.8,2.097 c 0,12.004 0,20.696 -1.5,55.196 h -6.6 c -6,0 -19.5,0.304 -30.9,0.304 h -25.49 c -15.91,-33.3 -20.4,-42.004 -26.11,-54.601 l -2.1,-1.797 h -11.99 c -13.5,0 -22.8,-0.301 -36,-0.899 l -1.2,3.293 c 30.3,53.399 83.39,153.895 111.29,207.598 l 2.41,1.496 c 23.99,0.301 41.09,0.602 65.09,1.203 l 1.5,-1.8 c 5.1,-75 9.6,-133.497 16.5,-209.395 l -1.8,-1.496"
         style="fill:#960a2c;fill-opacity:1;fill-rule:nonzero;stroke:none"
         transform="matrix(0.13333333,0,0,-0.13333333,0,149.96)" />
      <path
         id="path28-1"
         d="m 1737.11,345.504 c -17.41,0 -29.7,-0.606 -46.8,-1.199 l -1.5,2.097 3.6,15 c -7.8,-8.398 -27.31,-19.5 -46.8,-19.5 -11.4,0 -42,4.2 -42,40.196 0,11.406 4.2,29.707 7.2,42.597 l 6.9,29.707 c 3.9,17.098 6.9,29.09 9.6,46.493 l 2.1,1.8 c 17.7,0.602 30,1.2 47.39,2.399 l 1.81,-2.399 c -11.1,-47.699 -23.11,-91.8 -23.11,-105.597 0,-6.301 2.1,-17.395 17.71,-17.395 11.7,0 21.6,7.5 25.5,10.5 l 12.6,58.192 c 3.6,17.101 7.19,34.804 10.49,52.5 l 2.41,1.8 c 17.69,0.602 30.3,1.2 48.3,2.399 l 1.49,-2.399 c -7.2,-28.8 -12.29,-50.101 -18.9,-79.797 l -6.6,-30 c -3.59,-16.796 -6.3,-28.496 -9.29,-45.597 l -2.1,-1.797"
         style="fill:#960a2c;fill-opacity:1;fill-rule:nonzero;stroke:none"
         transform="matrix(0.13333333,0,0,-0.13333333,0,149.96)" />
      <path
         id="path29"
         d="m 1858.6,345.504 c -12.6,-2.996 -23.4,-3.301 -27.6,-3.301 -34.2,0 -45,14.699 -45,35.098 0,11.398 3.3,25.5 9.9,51.894 l 10.2,41.399 h -3.3 c -6.6,0 -11.4,-0.293 -17.7,-0.598 l -1.8,2.102 c 3.3,11.101 5.4,19.199 8.41,30.297 l 2.1,1.8 h 20.09 c 3.3,14.098 5.7,24 8.4,38.399 l 2.1,2.101 c 18.3,4.2 31.2,7.5 49.2,12.899 l 1.8,-2.098 c -2.41,-8.402 -3.9,-15.898 -13.21,-52.199 11.41,0.297 19.51,0.297 30.9,0.898 l 1.2,-2.402 c -3.89,-10.793 -6.59,-18.594 -9.29,-30 l -2.7,-1.797 c -10.2,0.305 -17.4,0.305 -27.61,0.305 l -12.59,-52.5 c -3,-12.598 -5.7,-24.004 -5.7,-28.496 0,-5.403 3.3,-12.305 15,-12.305 7.8,0 13.2,2.402 16.5,3.602 l 1.79,-1.504 c -3.59,-11.7 -5.69,-19.793 -8.99,-31.2 l -2.1,-2.394"
         style="fill:#960a2c;fill-opacity:1;fill-rule:nonzero;stroke:none"
         transform="matrix(0.13333333,0,0,-0.13333333,0,149.96)" />
      <path
         id="path30"
         d="m 1961.8,373.406 c 31.8,0 41.1,54.891 41.1,76.492 0,10.196 -3,26.094 -22.5,26.094 -36,0 -41.1,-66.59 -41.1,-75.887 0,-20.402 11.1,-26.699 22.5,-26.699 z m 22.2,134.391 c 18.9,0 68.69,-7.801 68.69,-64.5 0,-59.695 -33.29,-101.699 -91.8,-101.699 -60.29,0 -71.68,37.5 -71.68,65.402 0,19.793 8.09,100.797 94.79,100.797"
         style="fill:#960a2c;fill-opacity:1;fill-rule:nonzero;stroke:none"
         transform="matrix(0.13333333,0,0,-0.13333333,0,149.96)" />
      <path
         id="path31-8"
         d="m 2292.09,345.504 c -16.5,0 -32.7,-0.606 -48.9,-1.199 l -1.5,2.097 c 3.9,17.696 23.39,93 23.39,107.09 0,4.211 -1.49,15.91 -15.29,15.91 -5.4,0 -14.4,-1.504 -24.3,-9.902 -1.2,-19.504 -17.7,-84.602 -22.2,-112.199 l -2.1,-1.797 c -16.19,-0.301 -32.39,-0.606 -48.29,-1.199 l -1.51,2.402 c 2.41,12.898 22.5,90.293 22.5,107.09 0,9.004 -4.5,15.605 -15,15.605 -5.09,0 -13.49,-1.808 -22.19,-9.601 l -10.21,-45 c -4.79,-21.602 -10.19,-46.199 -14.09,-67.5 l -1.81,-1.797 c -16.49,0 -33,-0.606 -49.2,-1.199 l -1.49,2.097 c 11.09,41.7 30.9,131.399 32.39,151.496 l 2.11,1.797 c 16.19,2.403 33.9,5.102 50.39,8.403 l 1.81,-2.106 -3.91,-17.695 c 13.51,11.398 31.2,19.5 48.9,19.5 10.8,0 24.6,-3.602 32.1,-21.598 21.3,17.098 40.2,21.297 52.2,21.297 10.2,0 42.3,-2.402 42.3,-38.398 0,-4.805 -1.2,-13.203 -4.8,-29.696 l -6.3,-28.8 c -4.51,-21.004 -8.7,-42.305 -12.9,-63.301 l -2.1,-1.797"
         style="fill:#960a2c;fill-opacity:1;fill-rule:nonzero;stroke:none"
         transform="matrix(0.13333333,0,0,-0.13333333,0,149.96)" />
      <path
         id="path32"
         d="m 2453.19,471.199 c -2.7,0.301 -4.5,0.301 -9.3,0.301 -41.39,0 -55.5,-42 -55.5,-65.098 0,-22.5 11.1,-30 23.71,-30 2.09,0 13.19,0.899 21.59,9.297 7.8,29.102 12.61,56.094 19.5,85.5 z m 20.7,-125.695 c -16.8,-0.301 -28.5,-0.301 -45.3,-1.199 l -1.49,2.097 2.09,13.203 c -7.5,-7.8 -22.8,-17.402 -43.2,-17.402 -35.69,0 -49.79,28.801 -49.79,57.598 0,27.597 10.19,48.594 16.79,59.094 27.9,43.8 71.1,45.597 103.5,45.597 h 51 l 1.8,-2.394 c -22.5,-93.899 -28.2,-118.496 -33.3,-154.797 l -2.1,-1.797"
         style="fill:#960a2c;fill-opacity:1;fill-rule:nonzero;stroke:none"
         transform="matrix(0.13333333,0,0,-0.13333333,0,149.96)" />
      <path
         id="path33"
         d="m 2594.18,345.504 c -12.59,-2.996 -23.39,-3.301 -27.59,-3.301 -34.2,0 -45,14.699 -45,35.098 0,11.398 3.3,25.5 9.9,51.894 l 10.2,41.399 h -3.3 c -6.61,0 -11.4,-0.293 -17.7,-0.598 l -1.81,2.102 c 3.3,11.101 5.4,19.199 8.41,30.297 l 2.1,1.8 h 20.1 c 3.3,14.098 5.69,24 8.4,38.399 l 2.1,2.101 c 18.3,4.2 31.2,7.5 49.19,12.899 l 1.8,-2.098 c -2.4,-8.402 -3.89,-15.898 -13.2,-52.199 11.4,0.297 19.5,0.297 30.9,0.898 l 1.2,-2.402 c -3.9,-10.793 -6.59,-18.594 -9.3,-30 l -2.69,-1.797 c -10.21,0.305 -17.41,0.305 -27.61,0.305 l -12.6,-52.5 c -3,-12.598 -5.69,-24.004 -5.69,-28.496 0,-5.403 3.3,-12.305 15,-12.305 7.79,0 13.19,2.402 16.49,3.602 l 1.8,-1.504 c -3.6,-11.7 -5.69,-19.793 -8.99,-31.2 l -2.11,-2.394"
         style="fill:#960a2c;fill-opacity:1;fill-rule:nonzero;stroke:none"
         transform="matrix(0.13333333,0,0,-0.13333333,0,149.96)" />
      <path
         id="path34-7"
         d="m 2722.89,576.492 c -2.71,-13.496 -6.31,-26.699 -9.6,-39.898 l -2.4,-2.399 c -16.21,-2.097 -32.41,-4.5 -48.9,-6.898 l -1.81,2.398 c 3.01,13.196 6.01,26.7 8.7,40.2 l 2.71,2.097 c 16.19,2.102 34.79,4.801 49.49,6.598 z m -34.81,-154.797 -4.79,-22.195 c -3.61,-17.402 -6.61,-34.797 -9.6,-52.5 l -2.1,-1.496 c -17.41,0 -34.81,-0.301 -51.91,-1.199 l -1.49,2.097 c 6.89,26.399 13.49,53.399 19.49,80.391 l 3.3,14.707 c 4.2,18.594 8.11,37.5 10.21,56.094 l 2.1,2.101 c 17.69,2.403 35.4,5.102 52.79,8.403 l 1.81,-2.403 c -6.91,-26.996 -13.8,-55.797 -19.81,-84"
         style="fill:#960a2c;fill-opacity:1;fill-rule:nonzero;stroke:none"
         transform="matrix(0.13333333,0,0,-0.13333333,0,149.96)" />
      <path
         id="path35"
         d="m 2787.98,373.406 c 31.8,0 41.1,54.891 41.1,76.492 0,10.196 -3,26.094 -22.5,26.094 -36,0 -41.1,-66.59 -41.1,-75.887 0,-20.402 11.1,-26.699 22.5,-26.699 z m 22.2,134.391 c 18.9,0 68.69,-7.801 68.69,-64.5 0,-59.695 -33.29,-101.699 -91.79,-101.699 -60.3,0 -71.69,37.5 -71.69,65.402 0,19.793 8.09,100.797 94.79,100.797"
         style="fill:#960a2c;fill-opacity:1;fill-rule:nonzero;stroke:none"
         transform="matrix(0.13333333,0,0,-0.13333333,0,149.96)" />
      <path
         id="path36"
         d="m 2973.98,506.297 -3.9,-16.504 c 5.4,4.203 24,18.004 47.4,18.004 11.7,0 40.2,-4.5 40.2,-39.598 0,-18.301 -21.3,-107.097 -22.8,-121.199 l -2.1,-1.496 c -16.5,-0.301 -32.7,-0.606 -48.9,-1.199 l -1.2,2.097 c 6.9,32.102 21.9,89.7 21.9,105.899 0,9.894 -6,17.101 -16.5,17.101 -8.7,0 -16.79,-4.504 -23.4,-9.308 -8.39,-37.5 -19.8,-90.899 -23.7,-112.793 l -2.1,-1.797 c -16.49,0 -32.99,-0.606 -49.5,-1.199 l -1.19,2.097 c 5.39,23.399 29.39,120.598 31.19,151.192 l 2.4,2.402 c 18,2.399 33.9,5.098 50.4,8.399 l 1.8,-2.098"
         style="fill:#960a2c;fill-opacity:1;fill-rule:nonzero;stroke:none"
         transform="matrix(0.13333333,0,0,-0.13333333,0,149.96)" />
    </g>
  </g>
</svg>
