<?xml version="1.0" encoding="UTF-8" standalone="no"?>
<!-- Created with Inkscape (http://www.inkscape.org/) -->

<svg
   width="100"
   height="100"
   viewBox="0 0 26.458332 26.458333"
   version="1.1"
   id="svg1"
   xmlns="http://www.w3.org/2000/svg"
   xmlns:svg="http://www.w3.org/2000/svg">
  <defs
     id="defs1" />
  <g
     id="layer1">
    <g
       id="group-R5"
       transform="matrix(0.04134968,0,0,0.04134968,-1.5237241e-6,7.3584492)">
      <path
         id="path2"
         d="m 2661.5,2030.28 c -43.89,26.34 -81.9,47.78 -156.01,47.78 -108.19,0 -154.02,-60.45 -154.02,-123.81 0,-71.18 52.62,-96.54 117.96,-123.82 l 80.9,-34.12 c 78,-33.16 150.18,-83.86 150.18,-188.18 0,-95.54 -70.23,-195.95 -227.19,-195.95 -27.29,0 -105.29,2.9 -176.44,49.73 l -3.92,10.72 c 1.94,19.51 2.92,43.85 3.92,58.51 l 9.73,1.94 c 9.74,-10.72 63.38,-68.27 166.71,-68.27 96.51,0 163.79,57.55 163.79,141.37 0,83.85 -75.06,117.98 -126.74,139.43 l -78.95,33.15 c -79.95,34.12 -142.35,89.68 -142.35,172.55 0,31.2 13.64,178.43 218.37,178.43 82.89,0 132.61,-22.44 163.79,-39 l 5.88,-7.81 -5.88,-47.78 -9.73,-4.87"
         style="fill:#bd4220;fill-opacity:1;fill-rule:nonzero;stroke:none"
         transform="matrix(0.13333333,0,0,-0.13333333,0,283.96)" />
      <path
         id="path3"
         d="m 2892.41,1426.8 c -20.45,0 -40.91,0 -60.41,-0.99 l -5.88,5.88 c 0.99,47.77 1.94,95.51 1.94,143.29 0,57.54 -1.94,447.5 -8.77,535.26 l 5.88,4.87 c 20.45,0 40.95,0 60.44,1.94 l 5.85,-6.81 c 0,0 -1,-63.36 -1,-136.49 V 1749.5 c 0,-61.42 6.83,-249.58 7.83,-316.86 l -5.88,-5.84"
         style="fill:#bd4220;fill-opacity:1;fill-rule:nonzero;stroke:none"
         transform="matrix(0.13333333,0,0,-0.13333333,0,283.96)" />
      <path
         id="path4-7"
         d="m 3575.82,1756.33 c -3.93,-54.61 -4.88,-146.23 -4.88,-185.24 0,-47.78 0,-96.51 0.95,-115.06 l -4.84,-8.78 c -96.52,-32.17 -152.13,-35.07 -198.91,-35.07 -51.67,0 -207.64,3.9 -298.32,146.25 -22.43,36.06 -56.56,103.34 -56.56,207.66 0,39.95 5.84,91.62 19.5,131.6 25.35,77.03 105.3,232.05 328.55,232.05 65.33,0 128.68,-13.67 187.18,-45.83 l 4.89,-7.81 c -2.94,-17.53 -5.83,-35.09 -7.78,-51.67 l -6.83,-3.9 c -36.07,30.23 -83.85,54.6 -175.52,54.6 -32.17,0 -137.46,-2.92 -209.58,-83.84 -31.22,-35.1 -74.12,-104.33 -74.12,-219.36 0,-132.61 69.23,-307.12 292.48,-307.12 45.84,0 95.56,6.83 135.52,23.39 v 142.37 c 0,41.92 -0.95,82.87 -4.85,124.79 l 5.84,5.84 c 20.45,0 40.95,0 61.4,0.98 l 5.88,-5.85"
         style="fill:#bd4220;fill-opacity:1;fill-rule:nonzero;stroke:none"
         transform="matrix(0.13333333,0,0,-0.13333333,0,283.96)" />
      <path
         id="path5"
         d="m 4166.49,1430.69 c 0.95,35.11 0.95,78.96 0.95,117.01 v 226.17 c -45.79,0.97 -91.63,1.97 -136.46,1.97 -80.95,0 -163.8,-1 -244.75,-2.95 0,-30.22 1.99,-316.86 5.88,-341.2 l -5.88,-4.89 c -20.45,0 -44.84,-1.94 -58.46,-1.94 l -5.88,5.83 v 396.82 c 0,94.57 -1.95,188.17 -6.79,282.73 l 5.84,4.87 c 14.61,0.96 39.95,0.96 59.46,1.94 l 5.83,-5.84 c -0.95,-42.89 -0.95,-133.57 -0.95,-163.79 v -119.91 c 62.4,-0.99 158.91,-0.99 196.92,-0.99 27.33,0 104.34,0.99 184.29,3.91 -0.99,57.51 -0.99,117.96 -2.94,176.46 -0.95,34.12 -3.89,78.96 -3.89,103.35 l 5.84,4.87 c 19.5,0 39.99,0.96 59.5,1.94 l 5.83,-6.81 c -1,-53.62 -1,-159.9 -1,-159.9 0,-149.17 4.89,-444.59 8.78,-517.7 l -5.83,-5.84 c -20.5,0 -39.96,-0.99 -59.46,-1.94 l -6.83,5.83"
         style="fill:#bd4220;fill-opacity:1;fill-rule:nonzero;stroke:none"
         transform="matrix(0.13333333,0,0,-0.13333333,0,283.96)" />
      <path
         id="path6"
         d="m 4799.01,2113.16 c -1.94,-16.59 -2.89,-32.17 -3.89,-48.76 l -5.83,-4.86 c -67.29,3.89 -133.57,4.86 -200.86,4.86 0,-57.51 0,-204.72 0.99,-308.07 0.96,-90.67 4.89,-239.85 6.84,-322.7 l -5.88,-6.83 c -20.46,0 -38.97,0 -58.47,-0.99 l -6.83,5.88 c 1.95,76.01 1.95,152.07 1.95,228.11 v 151.12 c 0,83.85 0,168.67 -1.95,252.51 -27.33,0 -207.68,-3.89 -207.68,-3.89 l -5.84,5.84 3.89,47.78 6.83,4.86 c 33.17,-1.95 95.57,-2.91 129.68,-2.91 h 184.25 c 47.79,0 110.18,1.94 156.97,2.91 l 5.83,-4.86"
         style="fill:#bd4220;fill-opacity:1;fill-rule:nonzero;stroke:none"
         transform="matrix(0.13333333,0,0,-0.13333333,0,283.96)" />
      <path
         id="path7-7"
         d="M 4754.73,1097.78 H 0 v 17.58 h 4754.73 v -17.58"
         style="fill:#27579e;fill-opacity:1;fill-rule:nonzero;stroke:none"
         transform="matrix(0.13333333,0,0,-0.13333333,0,283.96)" />
      <path
         id="path8"
         d="m 123.504,592.219 c 1.168,13.531 1.988,23.133 2.769,36.672 l 4.411,1.589 c 14.742,-11.152 35.066,-23.121 69.351,-23.121 41.863,0 58.985,21.141 58.985,45.051 0,17.949 -7.563,31.09 -41.079,45.059 l -28.277,11.929 c -29.883,12.762 -66.16,31.09 -66.16,78.961 0,39.039 28.281,76.93 96.039,76.93 15.949,0 37.102,-0.391 71.781,-13.187 l 2.375,-2.774 c -1.601,-13.148 -2.375,-22.308 -3.203,-35.066 L 286.91,812.27 C 263.824,824.59 245.488,831 221.969,831 c -34.684,0 -54.617,-15.961 -54.617,-39.102 0,-16.726 7.953,-27.058 41.859,-41.847 l 29.488,-12.719 c 26.68,-11.594 67.367,-28.32 67.367,-80.953 0,-45.828 -35.89,-84.481 -103.257,-84.481 -35.457,0 -64.172,9.942 -78.137,17.512 l -1.168,2.809"
         style="fill:#bd4220;fill-opacity:1;fill-rule:nonzero;stroke:none"
         transform="matrix(0.13333333,0,0,-0.13333333,0,283.96)" />
      <path
         id="path9"
         d="m 410.016,607.359 c 51.847,0 83.324,31.911 83.324,82.93 0,48.602 -29.102,66.152 -54.219,66.152 -21.539,0 -37.445,-10.761 -46.23,-16.73 0,-11.981 -0.387,-42.242 -0.387,-63.781 0,-22.309 0.387,-44.668 0.781,-67.371 5.574,-0.379 11.586,-1.2 16.731,-1.2 z M 394.492,480.621 c -11.976,-0.441 -26.332,-1.223 -41.855,-1.223 l -1.989,2.391 c 1.598,33.5 1.598,56.602 1.598,90.109 0,35.461 -0.82,90.071 -0.82,103.641 0,37.84 -1.168,64.172 -4.754,101.621 l 1.551,2.809 c 15.961,2.383 26.726,4.371 42.293,7.953 l 2.769,-2.371 -0.781,-16.731 c 11.547,8.77 29.484,21.532 57.379,21.532 56.601,0 86.914,-47.051 86.914,-95.692 0,-31.09 -8.777,-51.808 -17.168,-64.988 -26.676,-42.25 -73.719,-51.813 -108.016,-51.813 -6.742,0 -11.543,0 -17.945,0.782 0.437,-35.45 1.215,-60.192 3.203,-95.653 l -2.379,-2.367"
         style="fill:#bd4220;fill-opacity:1;fill-rule:nonzero;stroke:none"
         transform="matrix(0.13333333,0,0,-0.13333333,0,283.96)" />
      <path
         id="path10-1"
         d="m 654.324,706.629 c 22.317,0 47.047,0.391 59.805,0.391 0,25.128 -13.149,54.621 -47.047,54.621 -31.09,0 -50.242,-26.731 -52.234,-55.012 z m 87.699,-118.391 c -13.539,-6.398 -33.085,-15.179 -63.398,-15.179 -69.746,0 -106.805,41.472 -106.805,106.851 0,84.93 56.602,110 96.039,110.442 5.579,0 29.539,0 50.637,-13.973 32.297,-21.527 37.055,-61.789 37.055,-87.688 v -9.992 l -2.766,-2.379 c -15.953,0 -49.816,0.391 -74.933,0.391 -20.758,0 -41.86,0 -63.004,-0.391 0,-58.98 39.476,-71.351 65.379,-71.351 31.086,0 51.023,12.371 64.168,23.531 l 3.207,-1.988 c -1.606,-13.192 -2.383,-22.75 -3.598,-35.5 l -1.981,-2.774"
         style="fill:#bd4220;fill-opacity:1;fill-rule:nonzero;stroke:none"
         transform="matrix(0.13333333,0,0,-0.13333333,0,283.96)" />
      <path
         id="path11"
         d="m 942.051,587.031 c -11.16,-5.582 -27.5,-13.972 -54.18,-13.972 -65.812,0 -100.062,47.871 -100.062,106.851 0,55.391 32.687,110.442 99.629,110.442 10.761,0 28.71,-0.821 54.613,-13.192 l 1.984,-2.762 c -1.597,-11.546 -1.984,-19.546 -2.765,-31.097 l -3.2,-1.602 c -19.547,13.539 -35.886,15.531 -43.066,15.531 -46.613,0 -63.344,-41.429 -63.344,-76.539 0,-56.992 33.078,-73.73 61.785,-73.73 24.692,0 41.039,11.551 51.414,19.551 l 3.2,-1.602 c -1.598,-11.16 -2.032,-22.308 -3.59,-35.5 l -2.418,-2.379"
         style="fill:#bd4220;fill-opacity:1;fill-rule:nonzero;stroke:none"
         transform="matrix(0.13333333,0,0,-0.13333333,0,283.96)" />
      <path
         id="path12"
         d="m 978.285,842.539 c 0.391,5.191 0.391,10.77 0.391,15.949 0,7.961 -0.391,13.543 -0.781,21.543 l 2.378,2.379 c 16.739,1.211 28.327,2.379 44.667,3.981 l 2.38,-2.391 c -0.39,-5.969 -0.39,-11.539 -0.39,-17.551 0,-6.738 0,-13.527 0.39,-20.32 l -2.38,-2.77 c -16.34,-0.82 -27.928,-1.597 -44.276,-3.199 z m 0.778,-263.078 c 1.601,31.09 2.421,52.629 2.421,83.719 0,59.371 -0.39,83.711 -3.976,113.98 l 1.988,2.809 c 15.91,2.769 27.504,4.371 43.024,7.953 l 3.98,-2.371 c -1.99,-34.68 -2.38,-58.981 -2.38,-93.66 0,-41.082 0,-71.782 2.38,-111.219 l -1.99,-2.422 c -16.35,-0.391 -27.498,-0.781 -43.416,-1.602 l -2.031,2.813"
         style="fill:#bd4220;fill-opacity:1;fill-rule:nonzero;stroke:none"
         transform="matrix(0.13333333,0,0,-0.13333333,0,283.96)" />
      <path
         id="path13-1"
         d="m 1191.5,689.859 -3.15,-0.398 c -43.85,-5.961 -77.75,-14.352 -77.75,-45.441 0,-9.95 3.98,-38.27 36.67,-38.27 15.56,0 31.09,4.41 44.23,17.559 z m 41.47,-111.609 c -14.74,-0.391 -25.51,-0.781 -40.25,-1.602 l -1.6,2.813 v 13.969 c -10.38,-9.168 -28.72,-20.371 -52.63,-20.371 -40.65,0 -70.52,24.351 -70.52,66.98 0,64.992 72.51,73.34 116.35,78.531 l 6.8,0.821 c 0,15.91 0,39.437 -36.67,39.437 -28.72,0 -48.22,-9.949 -60.58,-15.137 l -3.2,1.989 c 1.2,19.539 1.2,24.3 1.2,29.109 l 2.39,2.371 c 20.71,8 48.21,13.192 68.57,13.192 29.89,0 69.76,-9.993 69.76,-63.012 v -66.981 c 0,-29.879 0.38,-50.589 2.37,-80.121 l -1.99,-1.988"
         style="fill:#bd4220;fill-opacity:1;fill-rule:nonzero;stroke:none"
         transform="matrix(0.13333333,0,0,-0.13333333,0,283.96)" />
      <path
         id="path14"
         d="m 1287.11,579.461 c 1.99,50.211 1.99,85.711 1.99,135.91 0,36.277 -0.39,61.399 -0.78,97.68 -0.43,26.73 -1.21,45.437 -3.2,72.168 l 1.99,2.383 c 16.34,2.796 27.5,4.796 43.46,8.386 l 2.38,-2.816 c -1.99,-45.442 -2.82,-106.41 -2.82,-157.051 0,-54.609 0,-99.281 3.21,-155.449 l -2.38,-2.422 c -15.57,-0.391 -26.34,-0.781 -41.86,-1.602 l -1.99,2.813"
         style="fill:#bd4220;fill-opacity:1;fill-rule:nonzero;stroke:none"
         transform="matrix(0.13333333,0,0,-0.13333333,0,283.96)" />
      <path
         id="path15"
         d="m 1552.52,577.859 c -16.35,0 -27.89,-0.39 -44.24,-1.211 l -2.42,2.813 c 1.99,35.891 1.99,61.41 1.99,97.25 0,66.59 0,113.199 -3.15,179.789 l 2.37,2.77 c 16.34,0.441 27.89,0.441 44.24,1.609 l 2.42,-3.16 c -0.82,-46.66 -1.99,-79.739 -1.99,-126.789 0,-55.391 0.39,-94.481 3.59,-150.258 l -2.81,-2.813"
         style="fill:#bd4220;fill-opacity:1;fill-rule:nonzero;stroke:none"
         transform="matrix(0.13333333,0,0,-0.13333333,0,283.96)" />
      <path
         id="path16-5"
         d="m 1745.81,579.461 c 0.38,27.898 0.38,47.828 0.38,75.719 v 37.879 c 0,26.332 -2.37,62.179 -37.05,62.179 -25.51,0 -44.67,-15.136 -53.83,-22.316 v -26.293 c 0,-46.649 0,-79.34 3.19,-125.957 l -2.38,-2.422 c -15.56,-0.391 -26.33,-0.781 -41.85,-1.602 l -1.99,2.813 c 0.39,27.109 1.16,45.84 1.16,73.34 0,45.84 -1.16,78.519 -4.75,124.359 l 2.38,2.809 c 15.52,2.769 26.72,4.801 42.24,7.953 l 2.81,-3.152 c 0,-8 -0.43,-20.372 -0.43,-20.372 13.19,8.782 37.1,24.743 69.36,24.743 36.28,0 53.44,-19.942 59.03,-39.481 2.76,-9.949 3.97,-28.672 3.97,-42.64 v -46.661 c 0,-29.488 0.78,-50.199 2.38,-79.687 l -2.38,-2.422 c -14.74,-0.391 -25.12,-0.781 -39.87,-1.602 l -2.37,2.813"
         style="fill:#bd4220;fill-opacity:1;fill-rule:nonzero;stroke:none"
         transform="matrix(0.13333333,0,0,-0.13333333,0,283.96)" />
      <path
         id="path17-9"
         d="m 1931.87,579.461 c -7.18,-1.992 -15.91,-3.59 -29.1,-3.59 -46.62,0 -55.4,23.527 -55.4,58.981 0,14.359 0.79,52.628 1.22,118.007 -7.57,0 -17.95,-0.781 -28.71,-1.211 l -1.6,2.422 c 0.82,10.77 0.82,18.328 0.82,28.668 l 2.38,2.422 c 2.77,0 9.16,-0.39 13.96,-0.39 4.37,0 10.73,0.39 13.15,0.39 0,17.942 -0.82,30.27 -1.6,48.211 l 1.99,2.809 c 15.13,3.601 25.51,6.359 40.64,11.16 l 2.81,-1.988 c -1.2,-22.313 -1.6,-38.274 -1.6,-60.582 16.35,0.39 32.69,1.171 44.24,1.171 l 1.99,-2.382 c -0.78,-10.379 -1.16,-17.95 -1.16,-28.321 l -2.43,-2.379 c -15.91,0.391 -27.11,0.782 -43.02,0.782 0,0 -0.83,-77.711 -0.83,-86.09 0,-48.61 0.83,-59.813 23.92,-59.813 8.38,0 17.16,2.813 19.15,3.59 l 2.77,-1.988 c -1.17,-9.942 -1.17,-17.121 -1.56,-27.5 l -2.03,-2.379"
         style="fill:#bd4220;fill-opacity:1;fill-rule:nonzero;stroke:none"
         transform="matrix(0.13333333,0,0,-0.13333333,0,283.96)" />
      <path
         id="path18"
         d="m 2041.09,706.629 c 22.32,0 47.05,0.391 59.8,0.391 0,25.128 -13.18,54.621 -47.04,54.621 -31.09,0 -50.25,-26.731 -52.24,-55.012 z m 87.7,-118.391 c -13.54,-6.398 -33.08,-15.179 -63.39,-15.179 -69.75,0 -106.81,41.472 -106.81,106.851 0,84.93 56.61,110 96.04,110.442 5.58,0 29.53,0 50.64,-13.973 32.3,-21.527 37.05,-61.789 37.05,-87.688 v -9.992 l -2.77,-2.379 c -15.95,0 -49.81,0.391 -74.93,0.391 -20.76,0 -41.86,0 -63.01,-0.391 0,-58.98 39.48,-71.351 65.39,-71.351 31.09,0 51.02,12.371 64.16,23.531 l 3.21,-1.988 c -1.6,-13.192 -2.38,-22.75 -3.6,-35.5 l -1.98,-2.774"
         style="fill:#bd4220;fill-opacity:1;fill-rule:nonzero;stroke:none"
         transform="matrix(0.13333333,0,0,-0.13333333,0,283.96)" />
      <path
         id="path19-7"
         d="m 2229.58,578.25 c -15.96,-0.391 -26.72,-0.781 -42.24,-1.602 l -1.99,2.813 v 17.129 c 0,5.57 0.77,63.39 0.77,77.351 0,30.27 0,73.34 -3.58,103.219 l 2.37,2.809 c 15.18,3.203 25.95,5.191 41.47,7.953 l 2.38,-2.371 -1.99,-33.903 c 5.19,13.571 15.57,38.262 48.26,38.262 6.74,0 9.94,-0.769 11.54,-1.16 l 1.6,-2.422 c -3.2,-14.746 -5.19,-25.508 -7.56,-40.648 l -2.82,-1.989 c -7.95,3.2 -12.36,3.59 -15.91,3.59 -10.37,0 -33.12,-6.402 -33.12,-45.84 V 671.52 c 0,-33.469 0.82,-56.989 2.81,-90.848 l -1.99,-2.422"
         style="fill:#bd4220;fill-opacity:1;fill-rule:nonzero;stroke:none"
         transform="matrix(0.13333333,0,0,-0.13333333,0,283.96)" />
      <path
         id="path20"
         d="m 2389.79,706.629 c 22.31,0 47.04,0.391 59.8,0.391 0,25.128 -13.19,54.621 -47.05,54.621 -31.09,0 -50.24,-26.731 -52.23,-55.012 z m 87.69,-118.391 c -13.54,-6.398 -33.08,-15.179 -63.39,-15.179 -69.75,0 -106.81,41.472 -106.81,106.851 0,84.93 56.6,110 96.04,110.442 5.58,0 29.53,0 50.64,-13.973 32.3,-21.527 37.06,-61.789 37.06,-87.688 v -9.992 l -2.77,-2.379 c -15.96,0 -49.82,0.391 -74.94,0.391 -20.76,0 -41.86,0 -63,-0.391 0,-58.98 39.48,-71.351 65.38,-71.351 31.09,0 51.02,12.371 64.17,23.531 l 3.2,-1.988 c -1.6,-13.192 -2.38,-22.75 -3.59,-35.5 l -1.99,-2.774"
         style="fill:#bd4220;fill-opacity:1;fill-rule:nonzero;stroke:none"
         transform="matrix(0.13333333,0,0,-0.13333333,0,283.96)" />
      <path
         id="path21"
         d="m 2520.85,589.02 c 1.6,12.371 1.99,21.14 2.81,33.468 l 3.59,1.211 c 11.16,-7.961 29.1,-19.109 56.22,-19.109 26.67,0 42.63,13.922 42.63,29.879 0,19.152 -20.71,25.511 -39.05,31.472 l -17.16,5.579 c -16.74,5.582 -50.64,17.562 -50.64,57.808 0,32.313 25.95,61.024 80.95,61.024 27.11,0 46.61,-7.18 57.38,-11.59 l 1.99,-2.383 c -1.17,-11.539 -1.99,-19.938 -2.77,-31.481 l -3.59,-1.597 c -18.33,11.551 -33.47,15.961 -51.8,15.961 -23.96,0 -39.09,-10.383 -39.09,-25.953 0,-19.93 28.32,-25.899 41.08,-29.868 l 14.31,-4.421 c 13.19,-3.981 52.24,-16.731 52.24,-58.981 0,-41.457 -34.68,-66.98 -84.5,-66.98 -32.69,0 -48.64,6.793 -62.18,12.371 l -2.42,3.59"
         style="fill:#bd4220;fill-opacity:1;fill-rule:nonzero;stroke:none"
         transform="matrix(0.13333333,0,0,-0.13333333,0,283.96)" />
      <path
         id="path22-7"
         d="m 2795.43,579.461 c -7.14,-1.992 -15.91,-3.59 -29.1,-3.59 -46.62,0 -55.39,23.527 -55.39,58.981 0,14.359 0.81,52.628 1.21,118.007 -7.57,0 -17.95,-0.781 -28.72,-1.211 l -1.6,2.422 c 0.83,10.77 0.83,18.328 0.83,28.668 l 2.37,2.422 c 2.77,0 9.17,-0.39 13.93,-0.39 4.41,0 10.76,0.39 13.19,0.39 0,17.942 -0.82,30.27 -1.6,48.211 l 1.99,2.809 c 15.13,3.601 25.51,6.359 40.65,11.16 l 2.81,-1.988 c -1.22,-22.313 -1.61,-38.274 -1.61,-60.582 16.35,0.39 32.69,1.171 44.24,1.171 l 1.99,-2.382 c -0.78,-10.379 -1.17,-17.95 -1.17,-28.321 l -2.42,-2.379 c -15.92,0.391 -27.11,0.782 -43.03,0.782 0,0 -0.81,-77.711 -0.81,-86.09 0,-48.61 0.81,-59.813 23.9,-59.813 8.39,0 17.17,2.813 19.16,3.59 l 2.77,-1.988 c -1.17,-9.942 -1.17,-17.121 -1.56,-27.5 l -2.03,-2.379"
         style="fill:#bd4220;fill-opacity:1;fill-rule:nonzero;stroke:none"
         transform="matrix(0.13333333,0,0,-0.13333333,0,283.96)" />
      <path
         id="path23-6"
         d="m 3171.67,588.238 c -17.17,-6.398 -43.46,-16.34 -84.93,-16.34 -128.34,0 -146.67,96.864 -146.67,143.473 0,23.52 3.98,41.07 6.35,49.848 12.76,43.461 47.83,100.07 135.52,100.07 39.09,0 64.21,-9.598 80.95,-17.168 l 1.99,-2.383 c -1.99,-14.359 -2.81,-24.726 -4.41,-38.66 l -3.16,-1.207 c -24.35,16.738 -47.87,24.309 -72.56,24.309 -72.56,0 -96.47,-59.379 -96.47,-115.59 0,-56.988 27.11,-108.02 98.46,-108.02 19.94,0 32.3,3.981 41.08,6.75 0.39,11.2 0.39,19.16 0.39,30.309 0,25.512 -1.21,43.461 -2.43,68.973 l 2.43,3.199 c 16.34,0 27.89,0 44.62,0.781 l 1.99,-2.773 c -1.6,-32.297 -1.6,-55.039 -1.6,-87.297 0,-13.192 0,-22.364 0.44,-35.5 l -1.99,-2.774"
         style="fill:#bd4220;fill-opacity:1;fill-rule:nonzero;stroke:none"
         transform="matrix(0.13333333,0,0,-0.13333333,0,283.96)" />
      <path
         id="path24"
         d="m 3267.66,578.25 c -15.96,-0.391 -26.73,-0.781 -42.25,-1.602 l -1.99,2.813 v 17.129 c 0,5.57 0.78,63.39 0.78,77.351 0,30.27 0,73.34 -3.59,103.219 l 2.38,2.809 c 15.18,3.203 25.95,5.191 41.47,7.953 l 2.38,-2.371 -1.99,-33.903 c 5.19,13.571 15.57,38.262 48.26,38.262 6.74,0 9.94,-0.769 11.54,-1.16 l 1.6,-2.422 c -3.2,-14.746 -5.19,-25.508 -7.57,-40.648 l -2.81,-1.989 c -7.95,3.2 -12.32,3.59 -15.91,3.59 -10.38,0 -33.12,-6.402 -33.12,-45.84 V 671.52 c 0,-33.469 0.82,-56.989 2.81,-90.848 l -1.99,-2.422"
         style="fill:#bd4220;fill-opacity:1;fill-rule:nonzero;stroke:none"
         transform="matrix(0.13333333,0,0,-0.13333333,0,283.96)" />
      <path
         id="path25-7"
         d="m 3444.99,760.039 c -41.42,0 -55.78,-33.469 -55.78,-78.141 0,-59.796 26.29,-78.918 54.61,-78.918 39.44,0 55.78,28.719 55.78,76.93 0,25.899 -4.36,80.129 -54.61,80.129 z m -0.78,-186.98 c -41.86,0 -98.85,19.55 -98.85,108.839 0,90.114 61.36,108.454 100.84,108.454 41.47,0 96.47,-17.954 96.47,-109.661 0,-88.472 -56.99,-107.632 -98.46,-107.632"
         style="fill:#bd4220;fill-opacity:1;fill-rule:nonzero;stroke:none"
         transform="matrix(0.13333333,0,0,-0.13333333,0,283.96)" />
      <path
         id="path26"
         d="m 3764.24,578.25 c -15.14,-0.391 -25.52,-0.781 -40.26,-1.602 l -2.82,2.813 0.83,16.348 c -13.97,-9.559 -32.3,-22.75 -63.01,-22.75 -67.36,0 -71.34,57.812 -71.34,94.101 v 29.879 c 0,31.52 -0.39,53.832 -1.99,84.922 l 1.99,2.809 c 15.13,0.39 25.9,0.781 41.08,1.992 l 2.38,-2.813 c 0,0 -1.6,-105.25 -1.6,-121.16 0,-32.687 7.56,-56.598 41.46,-56.598 23.53,0 40.65,13.137 50.2,20.707 v 62.961 c 0,34.289 0,58.629 -2.76,92.879 l 2.38,2.422 c 15.57,0.391 29.92,1.602 41.47,1.602 l 1.99,-2.813 c -0.39,-33.469 -1.22,-56.988 -1.22,-90.89 0,-41.469 1.6,-71.348 2.81,-112.387 l -1.59,-2.422"
         style="fill:#bd4220;fill-opacity:1;fill-rule:nonzero;stroke:none"
         transform="matrix(0.13333333,0,0,-0.13333333,0,283.96)" />
      <path
         id="path27"
         d="m 3880.55,607.359 c 51.85,0 83.33,31.911 83.33,82.93 0,48.602 -29.11,66.152 -54.23,66.152 -21.49,0 -37.45,-10.761 -46.22,-16.73 0,-11.981 -0.39,-42.242 -0.39,-63.781 0,-22.309 0.39,-44.668 0.78,-67.371 5.58,-0.379 11.54,-1.2 16.73,-1.2 z m -15.52,-126.738 c -11.98,-0.441 -26.34,-1.223 -41.86,-1.223 l -1.99,2.391 c 1.6,33.5 1.6,56.602 1.6,90.109 0,35.461 -0.82,90.071 -0.82,103.641 0,37.84 -1.17,64.172 -4.76,101.621 l 1.56,2.809 c 15.96,2.383 26.72,4.371 42.29,7.953 l 2.77,-2.371 -0.78,-16.731 c 11.54,8.77 29.49,21.532 57.38,21.532 56.6,0 86.91,-47.051 86.91,-95.692 0,-31.09 -8.77,-51.808 -17.12,-64.988 -26.72,-42.25 -73.77,-51.813 -108.06,-51.813 -6.79,0 -11.55,0 -17.94,0.782 0.43,-35.45 1.21,-60.192 3.19,-95.653 l -2.37,-2.367"
         style="fill:#bd4220;fill-opacity:1;fill-rule:nonzero;stroke:none"
         transform="matrix(0.13333333,0,0,-0.13333333,0,283.96)" />
      <path
         id="path28-3"
         d="m 4258.34,760.039 c -41.42,0 -55.78,-33.469 -55.78,-78.141 0,-59.796 26.29,-78.918 54.62,-78.918 39.43,0 55.77,28.719 55.77,76.93 0,25.899 -4.36,80.129 -54.61,80.129 z m -0.77,-186.98 c -41.86,0 -98.85,19.55 -98.85,108.839 0,90.114 61.36,108.454 100.84,108.454 41.46,0 96.46,-17.954 96.46,-109.661 0,-88.472 -56.99,-107.632 -98.45,-107.632"
         style="fill:#bd4220;fill-opacity:1;fill-rule:nonzero;stroke:none"
         transform="matrix(0.13333333,0,0,-0.13333333,0,283.96)" />
      <path
         id="path29"
         d="m 4535.34,579.461 c 0.4,27.898 0.4,47.828 0.4,75.719 v 37.879 c 0,26.332 -2.38,62.179 -37.06,62.179 -25.52,0 -44.67,-15.136 -53.84,-22.316 v -26.293 c 0,-46.649 0,-79.34 3.2,-125.957 l -2.38,-2.422 c -15.57,-0.391 -26.33,-0.781 -41.85,-1.602 l -1.99,2.813 c 0.39,27.109 1.16,45.84 1.16,73.34 0,45.84 -1.16,78.519 -4.75,124.359 l 2.38,2.809 c 15.52,2.769 26.72,4.801 42.24,7.953 l 2.81,-3.152 c 0,-8 -0.43,-20.372 -0.43,-20.372 13.19,8.782 37.1,24.743 69.36,24.743 36.28,0 53.45,-19.942 59.02,-39.481 2.77,-9.949 3.98,-28.672 3.98,-42.64 v -46.661 c 0,-29.488 0.78,-50.199 2.38,-79.687 l -2.38,-2.422 c -14.75,-0.391 -25.13,-0.781 -39.87,-1.602 l -2.38,2.813"
         style="fill:#bd4220;fill-opacity:1;fill-rule:nonzero;stroke:none"
         transform="matrix(0.13333333,0,0,-0.13333333,0,283.96)" />
      <path
         id="path30-6"
         d="m 345.5,99.6602 c -16.73,0 -28.281,-0.3789 -45.012,-1.211 l -2.418,2.8128 c 1.207,40.648 1.985,68.968 1.985,109.617 v 23.91 c -13.922,0.82 -23.52,0.82 -37.45,0.82 -34.285,0 -58.585,0 -92.878,-1.211 V 204.91 c 0,-37.871 1.171,-64.601 3.199,-102.43 l -2.418,-2.8198 c -16.738,0 -28.281,-0.3789 -45.059,-1.211 l -2.375,2.8128 c 1.989,38.269 2.375,69.75 2.375,102.047 0,64.992 0,129.16 -2.765,174.992 l 2.379,2.781 c 16.339,0.43 31.91,1.207 44.664,1.207 l 1.992,-2.769 c -0.821,-36.711 -1.598,-62.231 -1.598,-98.891 v -11.938 c 21.145,-0.82 36.274,-0.82 66.152,-0.82 23.528,0 40.262,0.43 64.215,0.82 -1.601,40.649 -0.433,69.36 -3.199,109.61 l 2.371,2.781 c 15.961,0.43 27.508,0.43 43.856,1.207 l 2.375,-2.769 c -1.172,-47.051 -1.989,-80.129 -1.989,-127.168 0,-51.411 0.426,-100.883 4.02,-149.872 L 345.5,99.6602"
         style="fill:#bd4220;fill-opacity:1;fill-rule:nonzero;stroke:none"
         transform="matrix(0.13333333,0,0,-0.13333333,0,283.96)" />
      <path
         id="path31-5"
         d="m 579.82,100.051 c -15.132,-0.3908 -25.507,-0.7697 -40.257,-1.6018 l -2.809,2.8128 0.824,16.347 c -13.969,-9.55 -32.305,-22.7379 -63.004,-22.7379 -67.363,0 -71.344,57.8089 -71.344,94.0899 v 29.879 c 0,31.519 -0.39,53.832 -1.992,84.922 l 1.992,2.808 c 15.129,0.391 25.903,0.782 41.075,1.989 l 2.383,-2.809 c 0,0 -1.602,-105.25 -1.602,-121.16 0,-32.692 7.566,-56.602 41.465,-56.602 23.523,0 40.644,13.141 50.203,20.711 v 62.961 c 0,34.289 0,58.629 -2.77,92.879 l 2.375,2.422 c 15.571,0.391 29.926,1.598 41.477,1.598 l 1.984,-2.809 c -0.386,-33.469 -1.211,-56.988 -1.211,-90.891 0,-41.468 1.602,-71.347 2.817,-112.379 l -1.606,-2.429"
         style="fill:#bd4220;fill-opacity:1;fill-rule:nonzero;stroke:none"
         transform="matrix(0.13333333,0,0,-0.13333333,0,283.96)" />
      <path
         id="path32"
         d="m 893.488,101.262 c 0.782,43.066 1.168,71.359 1.168,119.179 0,24.34 -3.59,56.207 -36.277,56.207 -24.301,0 -43.414,-13.148 -52.191,-20.32 0.781,-6.398 1.988,-35.887 1.988,-41.859 v -50.25 c 0,-23.09 1.168,-39.039 1.988,-61.739 l -1.988,-2.429 c -15.18,0 -25.899,-0.7697 -41.469,-1.6018 l -2.379,2.8128 c 1.992,26.726 1.992,47.437 1.992,70.957 v 47.051 c 0,23.91 -3.203,57.769 -36.277,57.769 -7.957,0 -27.5,-1.988 -49.816,-20.328 v -21.922 c 0,-9.937 -0.43,-39.867 -0.43,-58.59 0,-23.129 0.82,-46.66 2.812,-73.719 l -1.992,-2.429 c -15.566,-0.3908 -26.336,-0.7697 -41.469,-1.6018 l -2.378,2.8128 c 0.777,29.488 1.164,50.207 1.164,79.738 0,65.379 -0.387,80.91 -4.364,117.961 l 1.993,2.809 c 15.953,2.769 27.109,4.8 42.675,7.96 l 2.379,-2.378 -0.82,-20.321 c 11.156,7.949 35.109,25.117 65.379,25.117 18.765,0 39.867,-4.796 53.012,-28.707 13.187,9.547 39.867,28.707 74.546,28.707 63.004,0 64.168,-54.218 64.168,-74.976 0,-8.352 -0.386,-35.461 -0.386,-61.363 0,-27.11 0.82,-46.27 2.418,-73.329 l -2.418,-2.429 c -15.133,-0.3908 -25.903,-0.7697 -40.649,-1.6018 l -2.379,2.8128"
         style="fill:#bd4220;fill-opacity:1;fill-rule:nonzero;stroke:none"
         transform="matrix(0.13333333,0,0,-0.13333333,0,283.96)" />
      <path
         id="path33-6"
         d="m 1104.2,211.66 -3.15,-0.39 c -43.85,-5.969 -77.75,-14.36 -77.75,-45.442 0,-9.949 3.98,-38.269 36.66,-38.269 15.57,0 31.1,4.41 44.24,17.55 z m 41.47,-111.609 c -14.75,-0.3908 -25.51,-0.7697 -40.26,-1.6018 l -1.6,2.8128 v 13.968 c -10.38,-9.21 -28.71,-20.3589 -52.62,-20.3589 -40.65,0 -70.526,24.3399 -70.526,66.9809 0,64.976 72.506,73.328 116.366,78.519 l 6.78,0.82 c 0,15.911 0,39.438 -36.66,39.438 -28.72,0 -48.22,-9.949 -60.58,-15.141 l -3.21,1.992 c 1.22,19.551 1.22,24.301 1.22,29.11 l 2.38,2.371 c 20.7,8 48.2,13.187 68.57,13.187 29.88,0 69.75,-9.988 69.75,-63 v -66.976 c 0,-29.883 0.39,-50.641 2.38,-80.121 l -1.99,-2"
         style="fill:#bd4220;fill-opacity:1;fill-rule:nonzero;stroke:none"
         transform="matrix(0.13333333,0,0,-0.13333333,0,283.96)" />
      <path
         id="path34-3"
         d="m 1334.59,101.262 c 0.39,27.898 0.39,47.828 0.39,75.718 v 37.879 c 0,26.332 -2.38,62.18 -37.06,62.18 -25.51,0 -44.67,-15.129 -53.84,-22.32 V 228.43 c 0,-46.649 0,-79.34 3.2,-125.95 l -2.38,-2.429 c -15.56,-0.3908 -26.33,-0.7697 -41.85,-1.6018 l -1.99,2.8128 c 0.39,27.117 1.16,45.84 1.16,73.34 0,45.839 -1.16,78.527 -4.75,124.359 l 2.38,2.809 c 15.52,2.769 26.72,4.8 42.24,7.96 l 2.81,-3.16 c 0,-8 -0.43,-20.359 -0.43,-20.359 13.19,8.769 37.1,24.73 69.36,24.73 36.28,0 53.45,-19.941 59.03,-39.48 2.76,-9.941 3.97,-28.672 3.97,-42.641 v -46.648 c 0,-29.492 0.79,-50.203 2.38,-79.692 l -2.38,-2.429 c -14.74,-0.3908 -25.12,-0.7697 -39.86,-1.6018 l -2.38,2.8128"
         style="fill:#bd4220;fill-opacity:1;fill-rule:nonzero;stroke:none"
         transform="matrix(0.13333333,0,0,-0.13333333,0,283.96)" />
      <path
         id="path35-9"
         d="m 1430.58,364.34 c 0.39,5.191 0.39,10.769 0.39,15.949 0,7.961 -0.39,13.539 -0.77,21.539 l 2.37,2.383 c 16.73,1.211 28.32,2.379 44.67,3.98 l 2.38,-2.382 c -0.39,-5.969 -0.39,-11.547 -0.39,-17.559 0,-6.738 0,-13.531 0.39,-20.32 l -2.38,-2.77 c -16.35,-0.82 -27.94,-1.601 -44.28,-3.199 z m 0.78,-263.078 c 1.6,31.097 2.42,52.629 2.42,83.718 0,59.372 -0.39,83.711 -3.98,113.981 l 1.99,2.809 c 15.91,2.769 27.51,4.371 43.03,7.96 l 3.97,-2.378 c -1.99,-34.68 -2.37,-58.981 -2.37,-93.661 0,-41.07 0,-71.781 2.37,-111.211 l -1.99,-2.429 c -16.34,-0.3908 -27.5,-0.7697 -43.41,-1.6018 l -2.03,2.8128"
         style="fill:#bd4220;fill-opacity:1;fill-rule:nonzero;stroke:none"
         transform="matrix(0.13333333,0,0,-0.13333333,0,283.96)" />
      <path
         id="path36"
         d="m 1620.28,101.262 c -7.18,-1.9807 -15.91,-3.5823 -29.1,-3.5823 -46.62,0 -55.39,23.5193 -55.39,58.9683 0,14.364 0.77,52.633 1.21,118.012 -7.57,0 -17.95,-0.781 -28.72,-1.211 l -1.59,2.422 c 0.82,10.77 0.82,18.34 0.82,28.668 l 2.38,2.422 c 2.76,0 9.16,-0.391 13.97,-0.391 4.36,0 10.72,0.391 13.14,0.391 0,17.949 -0.83,30.269 -1.6,48.211 l 1.99,2.808 c 15.13,3.602 25.51,6.36 40.64,11.161 l 2.81,-1.993 c -1.21,-22.308 -1.6,-38.269 -1.6,-60.578 16.35,0.391 32.69,1.168 44.24,1.168 l 1.98,-2.379 c -0.78,-10.379 -1.16,-17.937 -1.16,-28.32 l -2.42,-2.379 c -15.92,0.391 -27.11,0.781 -43.03,0.781 0,0 -0.82,-77.711 -0.82,-86.089 0,-48.602 0.82,-59.813 23.92,-59.813 8.38,0 17.16,2.82 19.15,3.59 l 2.77,-1.981 c -1.17,-9.949 -1.17,-17.128 -1.56,-27.507 l -2.03,-2.379"
         style="fill:#bd4220;fill-opacity:1;fill-rule:nonzero;stroke:none"
         transform="matrix(0.13333333,0,0,-0.13333333,0,283.96)" />
      <path
         id="path37-4"
         d="m 1768.55,211.66 -3.16,-0.39 c -43.84,-5.969 -77.74,-14.36 -77.74,-45.442 0,-9.949 3.98,-38.269 36.67,-38.269 15.56,0 31.09,4.41 44.23,17.55 z m 41.47,-111.609 c -14.75,-0.3908 -25.51,-0.7697 -40.26,-1.6018 l -1.6,2.8128 v 13.968 c -10.38,-9.21 -28.72,-20.3589 -52.62,-20.3589 -40.65,0 -70.53,24.3399 -70.53,66.9809 0,64.976 72.52,73.328 116.37,78.519 l 6.78,0.82 c 0,15.911 0,39.438 -36.67,39.438 -28.71,0 -48.21,-9.949 -60.58,-15.141 l -3.2,1.992 c 1.22,19.551 1.22,24.301 1.22,29.11 l 2.37,2.371 c 20.72,8 48.21,13.187 68.58,13.187 29.88,0 69.75,-9.988 69.75,-63 v -66.976 c 0,-29.883 0.39,-50.641 2.38,-80.121 l -1.99,-2"
         style="fill:#bd4220;fill-opacity:1;fill-rule:nonzero;stroke:none"
         transform="matrix(0.13333333,0,0,-0.13333333,0,283.96)" />
      <path
         id="path38"
         d="m 1909.64,100.051 c -15.95,-0.3908 -26.72,-0.7697 -42.24,-1.6018 l -1.99,2.8128 v 17.129 c 0,5.578 0.77,63.39 0.77,77.347 0,30.274 0,73.344 -3.58,103.223 l 2.38,2.809 c 15.18,3.199 25.94,5.191 41.47,7.96 l 2.37,-2.378 -1.99,-33.903 c 5.19,13.582 15.57,38.27 48.26,38.27 6.75,0 9.95,-0.778 11.55,-1.168 l 1.59,-2.422 c -3.19,-14.738 -5.18,-25.508 -7.56,-40.649 l -2.81,-1.992 c -7.96,3.203 -12.33,3.594 -15.92,3.594 -10.37,0 -33.12,-6.402 -33.12,-45.832 v -29.922 c 0,-33.469 0.82,-57 2.81,-90.848 l -1.99,-2.429"
         style="fill:#bd4220;fill-opacity:1;fill-rule:nonzero;stroke:none"
         transform="matrix(0.13333333,0,0,-0.13333333,0,283.96)" />
      <path
         id="path39-8"
         d="m 1995.3,364.34 c 0.39,5.191 0.39,10.769 0.39,15.949 0,7.961 -0.39,13.539 -0.77,21.539 l 2.37,2.383 c 16.74,1.211 28.33,2.379 44.67,3.98 l 2.38,-2.382 c -0.39,-5.969 -0.39,-11.547 -0.39,-17.559 0,-6.738 0,-13.531 0.39,-20.32 l -2.38,-2.77 c -16.34,-0.82 -27.93,-1.601 -44.28,-3.199 z m 0.78,-263.078 c 1.6,31.097 2.42,52.629 2.42,83.718 0,59.372 -0.39,83.711 -3.98,113.981 l 1.99,2.809 c 15.92,2.769 27.51,4.371 43.03,7.96 l 3.97,-2.378 c -1.98,-34.68 -2.37,-58.981 -2.37,-93.661 0,-41.07 0,-71.781 2.37,-111.211 l -1.98,-2.429 c -16.35,-0.3908 -27.5,-0.7697 -43.42,-1.6018 l -2.03,2.8128"
         style="fill:#bd4220;fill-opacity:1;fill-rule:nonzero;stroke:none"
         transform="matrix(0.13333333,0,0,-0.13333333,0,283.96)" />
      <path
         id="path40-1"
         d="m 2208.53,211.66 -3.16,-0.39 c -43.85,-5.969 -77.75,-14.36 -77.75,-45.442 0,-9.949 3.98,-38.269 36.67,-38.269 15.56,0 31.09,4.41 44.24,17.55 z m 41.46,-111.609 c -14.75,-0.3908 -25.52,-0.7697 -40.26,-1.6018 l -1.59,2.8128 v 13.968 c -10.39,-9.21 -28.72,-20.3589 -52.63,-20.3589 -40.64,0 -70.52,24.3399 -70.52,66.9809 0,64.976 72.51,73.328 116.36,78.519 l 6.79,0.82 c 0,15.911 0,39.438 -36.67,39.438 -28.72,0 -48.22,-9.949 -60.58,-15.141 l -3.2,1.992 c 1.21,19.551 1.21,24.301 1.21,29.11 l 2.37,2.371 c 20.72,8 48.22,13.187 68.58,13.187 29.88,0 69.75,-9.988 69.75,-63 v -66.976 c 0,-29.883 0.39,-50.641 2.38,-80.121 l -1.99,-2"
         style="fill:#bd4220;fill-opacity:1;fill-rule:nonzero;stroke:none"
         transform="matrix(0.13333333,0,0,-0.13333333,0,283.96)" />
      <path
         id="path41-2"
         d="m 2438.87,101.262 c 0.39,27.898 0.39,47.828 0.39,75.718 v 37.879 c 0,26.332 -2.38,62.18 -37.06,62.18 -25.52,0 -44.67,-15.129 -53.84,-22.32 V 228.43 c 0,-46.649 0,-79.34 3.21,-125.95 l -2.38,-2.429 c -15.57,-0.3908 -26.34,-0.7697 -41.87,-1.6018 l -1.98,2.8128 c 0.39,27.117 1.17,45.84 1.17,73.34 0,45.839 -1.17,78.527 -4.76,124.359 l 2.38,2.809 c 15.52,2.769 26.72,4.8 42.25,7.96 l 2.81,-3.16 c 0,-8 -0.44,-20.359 -0.44,-20.359 13.19,8.769 37.11,24.73 69.36,24.73 36.28,0 53.44,-19.941 59.02,-39.48 2.77,-9.941 3.98,-28.672 3.98,-42.641 v -46.648 c 0,-29.492 0.78,-50.203 2.38,-79.692 l -2.38,-2.429 c -14.74,-0.3908 -25.12,-0.7697 -39.86,-1.6018 l -2.38,2.8128"
         style="fill:#bd4220;fill-opacity:1;fill-rule:nonzero;stroke:none"
         transform="matrix(0.13333333,0,0,-0.13333333,0,283.96)" />
      <path
         id="path42"
         d="m 2748.08,99.6602 c -16.74,0 -29.1,-0.3789 -45.83,-1.211 l -1.99,2.8128 c 1.59,19.937 2.37,146.289 2.37,167.429 0,29.5 -0.38,49.821 -1.16,79.309 -23.52,-0.398 -46.66,-1.172 -74.16,-1.988 l -2.38,2.808 c 0.78,10.77 1.17,18.719 1.17,29.481 l 2.42,2.781 c 72.12,0 123.15,0 195.32,1.207 l 1.99,-2.769 c -1.21,-10.77 -1.61,-18.77 -1.99,-29.918 l -1.99,-2.774 c -27.11,0.774 -46.27,0.774 -73.38,0.774 -0.78,-39.473 -0.78,-70.133 -0.78,-116.012 0,-43.852 0.39,-80.508 2.77,-129.11 l -2.38,-2.8198"
         style="fill:#bd4220;fill-opacity:1;fill-rule:nonzero;stroke:none"
         transform="matrix(0.13333333,0,0,-0.13333333,0,283.96)" />
      <path
         id="path43-9"
         d="m 2892.33,228.43 c 22.31,0 47.05,0.39 59.8,0.39 0,25.129 -13.19,54.621 -47.04,54.621 -31.09,0 -50.25,-26.73 -52.24,-55.011 z m 87.69,-118.391 c -13.53,-6.398 -33.08,-15.1679 -63.39,-15.1679 -69.75,0 -106.8,41.4569 -106.8,106.8399 0,84.93 56.6,110.008 96.03,110.437 5.58,0 29.54,0 50.64,-13.957 32.3,-21.543 37.06,-61.8 37.06,-87.703 V 200.5 l -2.77,-2.371 c -15.96,0 -49.81,0.383 -74.94,0.383 -20.75,0 -41.85,0 -63,-0.383 0,-58.988 39.48,-71.348 65.38,-71.348 31.09,0 51.03,12.36 64.17,23.52 l 3.2,-1.992 c -1.6,-13.188 -2.38,-22.739 -3.59,-35.5 l -1.99,-2.77"
         style="fill:#bd4220;fill-opacity:1;fill-rule:nonzero;stroke:none"
         transform="matrix(0.13333333,0,0,-0.13333333,0,283.96)" />
      <path
         id="path44"
         d="m 3180.05,108.828 c -11.16,-5.578 -27.5,-13.9569 -54.17,-13.9569 -65.82,0 -100.07,47.8589 -100.07,106.8399 0,55.391 32.7,110.437 99.63,110.437 10.77,0 28.71,-0.82 54.61,-13.187 l 1.99,-2.762 c -1.56,-11.59 -1.99,-19.551 -2.77,-31.097 l -3.2,-1.602 c -19.54,13.539 -35.89,15.531 -43.06,15.531 -46.62,0 -63.35,-41.429 -63.35,-76.543 0,-56.988 33.08,-73.726 61.79,-73.726 24.69,0 41.04,11.547 51.41,19.547 l 3.2,-1.598 c -1.6,-11.16 -2.03,-22.313 -3.59,-35.5 l -2.42,-2.383"
         style="fill:#bd4220;fill-opacity:1;fill-rule:nonzero;stroke:none"
         transform="matrix(0.13333333,0,0,-0.13333333,0,283.96)" />
      <path
         id="path45-3"
         d="m 3352.63,101.262 c 0.39,35.886 0.39,69.359 0.39,105.636 0,18.731 -0.39,33.864 -2.38,41.043 -6.01,22.348 -21.15,29.098 -36.29,29.098 -23.9,0 -44.22,-15.91 -52.62,-22.32 V 228.43 c 0,-46.649 0,-79.34 2.77,-125.95 l -1.99,-2.429 c -15.91,-0.3908 -26.68,-0.7697 -42.63,-1.6018 l -1.99,2.8128 c 1.99,50.207 1.99,85.707 1.99,135.91 0,36.277 -0.39,61.398 -0.78,97.68 -0.43,26.73 -1.21,45.437 -3.2,72.168 l 1.99,2.378 c 16.34,2.774 27.5,4.801 43.45,8.391 l 2.38,-2.809 c -1.21,-40.652 -2.38,-69.371 -2.38,-110.441 v -18.328 c 13.15,8.391 37.89,24.73 71.74,24.73 34.29,0 51.03,-19.16 57.42,-38.269 3.59,-10.383 4.37,-24.301 4.37,-50.641 v -39.859 c 0,-29.492 0.78,-50.203 2.38,-79.692 l -2.38,-2.429 c -14.74,-0.3908 -25.12,-0.7697 -39.86,-1.6018 l -2.38,2.8128"
         style="fill:#bd4220;fill-opacity:1;fill-rule:nonzero;stroke:none"
         transform="matrix(0.13333333,0,0,-0.13333333,0,283.96)" />
      <path
         id="path46-9"
         d="m 3584.96,101.262 c 0.39,27.898 0.39,47.828 0.39,75.718 v 37.879 c 0,26.332 -2.38,62.18 -37.06,62.18 -25.52,0 -44.67,-15.129 -53.83,-22.32 V 228.43 c 0,-46.649 0,-79.34 3.2,-125.95 l -2.39,-2.429 c -15.56,-0.3908 -26.32,-0.7697 -41.85,-1.6018 l -1.99,2.8128 c 0.39,27.117 1.17,45.84 1.17,73.34 0,45.839 -1.17,78.527 -4.76,124.359 l 2.38,2.809 c 15.52,2.769 26.72,4.8 42.25,7.96 l 2.8,-3.16 c 0,-8 -0.42,-20.359 -0.42,-20.359 13.18,8.769 37.1,24.73 69.36,24.73 36.27,0 53.44,-19.941 59.02,-39.48 2.76,-9.941 3.97,-28.672 3.97,-42.641 v -46.648 c 0,-29.492 0.78,-50.203 2.38,-79.692 l -2.38,-2.429 c -14.74,-0.3908 -25.12,-0.7697 -39.87,-1.6018 l -2.37,2.8128"
         style="fill:#bd4220;fill-opacity:1;fill-rule:nonzero;stroke:none"
         transform="matrix(0.13333333,0,0,-0.13333333,0,283.96)" />
      <path
         id="path47-0"
         d="m 3772.62,281.84 c -41.42,0 -55.78,-33.469 -55.78,-78.141 0,-59.801 26.29,-78.91 54.62,-78.91 39.43,0 55.78,28.711 55.78,76.922 0,25.91 -4.37,80.129 -54.62,80.129 z m -0.78,-186.9689 c -41.85,0 -98.85,19.5389 -98.85,108.8279 0,90.11 61.37,108.449 100.85,108.449 41.46,0 96.46,-17.937 96.46,-109.66 0,-88.468 -56.98,-107.6169 -98.46,-107.6169"
         style="fill:#bd4220;fill-opacity:1;fill-rule:nonzero;stroke:none"
         transform="matrix(0.13333333,0,0,-0.13333333,0,283.96)" />
      <path
         id="path48"
         d="m 3914.89,101.262 c 1.98,50.207 1.98,85.707 1.98,135.91 0,36.277 -0.39,61.398 -0.78,97.68 -0.43,26.73 -1.2,45.437 -3.19,72.168 l 1.99,2.378 c 16.34,2.774 27.49,4.801 43.45,8.391 l 2.38,-2.809 c -1.99,-45.449 -2.77,-106.421 -2.77,-157.05 0,-54.621 0,-99.289 3.16,-155.45 l -2.38,-2.429 c -15.56,-0.3908 -26.29,-0.7697 -41.86,-1.6018 l -1.98,2.8128"
         style="fill:#bd4220;fill-opacity:1;fill-rule:nonzero;stroke:none"
         transform="matrix(0.13333333,0,0,-0.13333333,0,283.96)" />
      <path
         id="path49-8"
         d="m 4104.58,281.84 c -41.43,0 -55.78,-33.469 -55.78,-78.141 0,-59.801 26.29,-78.91 54.61,-78.91 39.44,0 55.79,28.711 55.79,76.922 0,25.91 -4.38,80.129 -54.62,80.129 z M 4103.8,94.8711 c -41.85,0 -98.85,19.5389 -98.85,108.8279 0,90.11 61.36,108.449 100.84,108.449 41.47,0 96.47,-17.937 96.47,-109.66 0,-88.468 -56.99,-107.6169 -98.46,-107.6169"
         style="fill:#bd4220;fill-opacity:1;fill-rule:nonzero;stroke:none"
         transform="matrix(0.13333333,0,0,-0.13333333,0,283.96)" />
      <path
         id="path50"
         d="m 4321.39,281.059 c -28.33,0 -43.07,-20.758 -43.07,-45.45 0,-11.968 5.58,-44.269 42.68,-44.269 38.26,0 40.65,34.289 40.65,44.269 0,22.711 -11.55,45.45 -40.26,45.45 z m -25.51,-171.02 c -8.4,-9.988 -23.14,-21.1406 -23.14,-42.6796 0,-20.3203 15.96,-40.6406 52.24,-40.6406 32.69,0 48.21,17.5507 48.21,36.2812 0,25.8984 -25.51,32.6914 -43.84,37.879 z m -46.66,23.531 c 9.99,14.739 17.17,25.512 26.72,40.641 -29.1,11.551 -38.27,38.269 -38.27,59.809 0,22.308 7.96,37.441 14.75,45.832 20.32,25.898 51.41,28.277 74.16,28.277 8.34,0 20.32,0 33.08,-0.777 38.27,0 47.43,0.386 60.19,0.386 l 1.6,-2.769 c -0.82,-9.598 -1.21,-16.34 -1.6,-26.328 l -2.81,-1.993 -33.47,1.993 c 8.34,-6.75 18.72,-21.539 18.72,-44.243 0,-36.668 -27.5,-69.347 -77.7,-69.347 -6.79,0 -11.2,0.777 -17.95,1.199 l -11.59,-17.941 c 47.87,-14.348 77.36,-14.348 98.46,-31.09 21.93,-17.168 22.36,-39.8596 22.36,-44.6604 C 4415.87,38.2617 4388.76,0 4324.16,0 c -60.2,0 -90.9,27.5 -90.9,62.1797 0,30.3086 20.37,46.2613 35.12,58.1993 -5.58,2.812 -11.98,5.191 -18.77,8.383 l -0.39,4.808"
         style="fill:#bd4220;fill-opacity:1;fill-rule:nonzero;stroke:none"
         transform="matrix(0.13333333,0,0,-0.13333333,0,283.96)" />
      <path
         id="path51-8"
         d="m 4513.9,2.42188 c -15.57,-0.4336 -26.34,-0.4336 -42.25,-1.22266 l -1.6,2.76953 c 14.35,31.14065 26.29,57.82035 39.43,91.33205 -9.16,29.0972 -47.43,133.5192 -76.53,206.4692 l 1.21,3.589 c 15.57,1.211 28.32,1.993 44.67,3.981 l 2.37,-2.77 c 8.79,-28.711 15.53,-49.468 49.81,-154.281 32.31,100.441 39.48,121.981 47.44,153.07 l 2.81,2.379 h 38.66 l 1.21,-3.199 C 4599.6,248.762 4543.39,108.828 4517.49,5.58203 l -3.59,-3.16015"
         style="fill:#bd4220;fill-opacity:1;fill-rule:nonzero;stroke:none"
         transform="matrix(0.13333333,0,0,-0.13333333,0,283.96)" />
      <path
         id="path52-5"
         d="m 226.578,1426.8 h -79.953 c -18.504,0 -93.5898,-2.94 -93.5898,-2.94 l -4.8633,5.88 c 2.914,90.63 4.8633,180.36 4.8633,271.01 v 68.26 c 0,113.1 -0.9766,227.16 -8.7618,340.26 l 4.8711,5.84 h 67.2775 c 32.176,0 88.711,1.94 109.183,2.91 l 3.887,-5.84 c -2.914,-133.57 -4.855,-268.11 -4.855,-402.65 0,-92.62 1.941,-185.23 6.832,-276.89 l -4.891,-5.84"
         style="fill:#27579e;fill-opacity:1;fill-rule:nonzero;stroke:none"
         transform="matrix(0.13333333,0,0,-0.13333333,0,283.96)" />
      <path
         id="path53-0"
         d="m 822.18,1551.59 c -2.922,-39.95 -4.867,-81.89 -6.836,-118.95 l -7.785,-5.84 c -142.34,0 -285.668,-0.99 -428.993,-1.94 l -4.855,6.83 c 3.887,89.68 4.855,179.38 4.855,270.03 v 201.83 c 0,69.2 -0.968,137.46 -6.808,205.72 l 5.84,5.84 c 106.285,0 363.652,1.94 428.015,1.94 l 4.864,-5.84 c -2.918,-39.98 -5.86,-75.07 -6.829,-113.1 l -5.839,-5.85 c -83.844,1.97 -166.715,2.94 -249.586,2.94 0,-18.53 -0.973,-44.86 -0.973,-72.15 0,-31.2 0,-62.4 0.973,-82.87 78.961,0 156.961,0.97 234.949,3.89 l 5.859,-6.83 c -2.918,-37.03 -4.883,-73.12 -6.832,-110.15 l -5.836,-5.87 c -143.32,0.98 -228.14,0.98 -228.14,0.98 0,-57.51 0.972,-114.07 1.949,-170.61 89.703,0 178.41,1.94 267.141,6.84 l 4.867,-6.84"
         style="fill:#27579e;fill-opacity:1;fill-rule:nonzero;stroke:none"
         transform="matrix(0.13333333,0,0,-0.13333333,0,283.96)" />
      <path
         id="path54"
         d="m 1369.97,1551.59 c -2.92,-39.95 -4.86,-81.89 -6.83,-118.95 l -7.79,-5.84 c -142.35,0 -285.67,-0.99 -428.987,-1.94 l -4.867,6.83 c 3.891,89.68 4.867,179.38 4.867,270.03 v 201.83 c 0,69.2 -0.976,137.46 -6.812,205.72 l 5.836,5.84 c 106.293,0 363.653,1.94 428.023,1.94 l 4.86,-5.84 c -2.92,-39.98 -5.86,-75.07 -6.83,-113.1 l -5.83,-5.85 c -83.85,1.97 -166.72,2.94 -249.59,2.94 0,-18.53 -0.97,-44.86 -0.97,-72.15 0,-31.2 0,-62.4 0.97,-82.87 78.95,0 156.96,0.97 234.95,3.89 l 5.85,-6.83 c -2.91,-37.03 -4.88,-73.12 -6.83,-110.15 l -5.83,-5.87 c -143.33,0.98 -228.14,0.98 -228.14,0.98 0,-57.51 0.97,-114.07 1.94,-170.61 89.71,0 178.41,1.94 267.15,6.84 l 4.86,-6.84"
         style="fill:#27579e;fill-opacity:1;fill-rule:nonzero;stroke:none"
         transform="matrix(0.13333333,0,0,-0.13333333,0,283.96)" />
      <path
         id="path55-9"
         d="m 1917.76,1551.59 c -2.92,-39.95 -4.86,-81.89 -6.83,-118.95 l -7.78,-5.84 c -142.35,0 -285.67,-0.99 -428.99,-1.94 l -4.86,6.83 c 3.89,89.68 4.86,179.38 4.86,270.03 v 201.83 c 0,69.2 -0.97,137.46 -6.81,205.72 l 5.84,5.84 c 106.28,0 363.65,1.94 428.01,1.94 l 4.86,-5.84 c -2.91,-39.98 -5.85,-75.07 -6.82,-113.1 l -5.84,-5.85 c -83.85,1.97 -166.72,2.94 -249.59,2.94 0,-18.53 -0.97,-44.86 -0.97,-72.15 0,-31.2 0,-62.4 0.97,-82.87 78.96,0 156.97,0.97 234.95,3.89 l 5.86,-6.83 c -2.92,-37.03 -4.88,-73.12 -6.83,-110.15 l -5.84,-5.87 c -143.32,0.98 -228.14,0.98 -228.14,0.98 0,-57.51 0.97,-114.07 1.95,-170.61 89.7,0 178.41,1.94 267.14,6.84 l 4.86,-6.84"
         style="fill:#27579e;fill-opacity:1;fill-rule:nonzero;stroke:none"
         transform="matrix(0.13333333,0,0,-0.13333333,0,283.96)" />
    </g>
  </g>
</svg>
