<?xml version="1.0" encoding="UTF-8" standalone="no"?>
<!-- Created with Inkscape (http://www.inkscape.org/) -->

<svg
   width="100"
   height="100"
   viewBox="0 0 26.458332 26.458333"
   version="1.1"
   id="svg1"
   xmlns="http://www.w3.org/2000/svg"
   xmlns:svg="http://www.w3.org/2000/svg">
  <defs
     id="defs1">
    <linearGradient
       x1="0"
       y1="0"
       x2="1"
       y2="0"
       gradientUnits="userSpaceOnUse"
       gradientTransform="matrix(8.6200942,0,0,8.6200942,14.230782,10.939085)"
       spreadMethod="pad"
       id="linearGradient95">
      <stop
         style="stop-opacity:1;stop-color:#78be20"
         offset="0"
         id="stop92" />
      <stop
         style="stop-opacity:1;stop-color:#00629b"
         offset="0.28522062"
         id="stop93" />
      <stop
         style="stop-opacity:1;stop-color:#00629b"
         offset="0.587255"
         id="stop94" />
      <stop
         style="stop-opacity:1;stop-color:#00629b"
         offset="1"
         id="stop95" />
    </linearGradient>
    <linearGradient
       x1="0"
       y1="0"
       x2="1"
       y2="0"
       gradientUnits="userSpaceOnUse"
       gradientTransform="matrix(8.6200942,0,0,8.6200942,14.230782,10.351104)"
       spreadMethod="pad"
       id="linearGradient91">
      <stop
         style="stop-opacity:1;stop-color:#78be20"
         offset="0"
         id="stop88-0" />
      <stop
         style="stop-opacity:1;stop-color:#00629b"
         offset="0.28522062"
         id="stop89" />
      <stop
         style="stop-opacity:1;stop-color:#00629b"
         offset="0.587255"
         id="stop90" />
      <stop
         style="stop-opacity:1;stop-color:#00629b"
         offset="1"
         id="stop91" />
    </linearGradient>
    <linearGradient
       x1="0"
       y1="0"
       x2="1"
       y2="0"
       gradientUnits="userSpaceOnUse"
       gradientTransform="matrix(8.6200942,0,0,8.6200942,14.230782,11.035043)"
       spreadMethod="pad"
       id="linearGradient87">
      <stop
         style="stop-opacity:1;stop-color:#78be20"
         offset="0"
         id="stop84" />
      <stop
         style="stop-opacity:1;stop-color:#00629b"
         offset="0.28522062"
         id="stop85" />
      <stop
         style="stop-opacity:1;stop-color:#00629b"
         offset="0.587255"
         id="stop86-2" />
      <stop
         style="stop-opacity:1;stop-color:#00629b"
         offset="1"
         id="stop87-3" />
    </linearGradient>
    <linearGradient
       x1="0"
       y1="0"
       x2="1"
       y2="0"
       gradientUnits="userSpaceOnUse"
       gradientTransform="matrix(8.6200942,0,0,8.6200942,14.230782,9.9507125)"
       spreadMethod="pad"
       id="linearGradient83">
      <stop
         style="stop-opacity:1;stop-color:#78be20"
         offset="0"
         id="stop80" />
      <stop
         style="stop-opacity:1;stop-color:#00629b"
         offset="0.28522062"
         id="stop81" />
      <stop
         style="stop-opacity:1;stop-color:#00629b"
         offset="0.587255"
         id="stop82" />
      <stop
         style="stop-opacity:1;stop-color:#00629b"
         offset="1"
         id="stop83" />
    </linearGradient>
    <linearGradient
       x1="0"
       y1="0"
       x2="1"
       y2="0"
       gradientUnits="userSpaceOnUse"
       gradientTransform="matrix(8.6200942,0,0,8.6200942,14.230782,10.576017)"
       spreadMethod="pad"
       id="linearGradient79-7">
      <stop
         style="stop-opacity:1;stop-color:#78be20"
         offset="0"
         id="stop76" />
      <stop
         style="stop-opacity:1;stop-color:#00629b"
         offset="0.28522062"
         id="stop77-5" />
      <stop
         style="stop-opacity:1;stop-color:#00629b"
         offset="0.587255"
         id="stop78-9" />
      <stop
         style="stop-opacity:1;stop-color:#00629b"
         offset="1"
         id="stop79-2" />
    </linearGradient>
    <linearGradient
       x1="0"
       y1="0"
       x2="1"
       y2="0"
       gradientUnits="userSpaceOnUse"
       gradientTransform="matrix(0.156766,-1.8208975,1.8208975,0.156766,19.662533,12.880936)"
       spreadMethod="pad"
       id="linearGradient73">
      <stop
         style="stop-opacity:1;stop-color:#509f48"
         offset="0"
         id="stop70-2" />
      <stop
         style="stop-opacity:1;stop-color:#78be20"
         offset="0.41567482"
         id="stop71" />
      <stop
         style="stop-opacity:1;stop-color:#78be20"
         offset="0.998135"
         id="stop72" />
      <stop
         style="stop-opacity:1;stop-color:#78be20"
         offset="1"
         id="stop73" />
    </linearGradient>
    <linearGradient
       x1="0"
       y1="0"
       x2="1"
       y2="0"
       gradientUnits="userSpaceOnUse"
       gradientTransform="matrix(0.156766,-1.8208975,1.8208975,0.156766,17.872497,12.726827)"
       spreadMethod="pad"
       id="linearGradient69">
      <stop
         style="stop-opacity:1;stop-color:#509f48"
         offset="0"
         id="stop66" />
      <stop
         style="stop-opacity:1;stop-color:#78be20"
         offset="0.41567482"
         id="stop67" />
      <stop
         style="stop-opacity:1;stop-color:#78be20"
         offset="0.998135"
         id="stop68-8" />
      <stop
         style="stop-opacity:1;stop-color:#78be20"
         offset="1"
         id="stop69-9" />
    </linearGradient>
    <clipPath
       clipPathUnits="userSpaceOnUse"
       id="clipPath66">
      <path
         d="M 0,312.114 H 410.052 V 0 H 0 Z"
         transform="translate(-237.2575,-224.06211)"
         id="path66" />
    </clipPath>
    <linearGradient
       x1="0"
       y1="0"
       x2="1"
       y2="0"
       gradientUnits="userSpaceOnUse"
       gradientTransform="matrix(7.2094916,1.4158803,1.0867343,7.7177846,12.158317,6.8611392)"
       spreadMethod="pad"
       id="linearGradient64-7">
      <stop
         style="stop-opacity:1;stop-color:#00629b"
         offset="0"
         id="stop61" />
      <stop
         style="stop-opacity:1;stop-color:#00629b"
         offset="0.389563"
         id="stop62-3" />
      <stop
         style="stop-opacity:1;stop-color:#c8c9ca"
         offset="0.843"
         id="stop63-6" />
      <stop
         style="stop-opacity:1;stop-color:#c8c9ca"
         offset="1"
         id="stop64-1" />
    </linearGradient>
    <clipPath
       clipPathUnits="userSpaceOnUse"
       id="clipPath61-2">
      <path
         d="M 0,312.114 H 410.052 V 0 H 0 Z"
         transform="translate(-307.22141,-212.36001)"
         id="path61-9" />
    </clipPath>
    <clipPath
       clipPathUnits="userSpaceOnUse"
       id="clipPath59">
      <path
         d="m 288.509,215.518 c -18.653,-15.886 -27.883,-39.701 -27.435,-70.785 v 0 c 0.005,-0.301 0.25,-0.542 0.551,-0.542 v 0 h 0.009 c 0.302,0.004 0.545,0.254 0.54,0.558 v 0 c -0.443,30.737 8.657,54.264 27.045,69.927 v 0 c 36.548,31.13 98.147,20.725 98.767,20.616 v 0 c 0.295,-0.051 0.585,0.146 0.637,0.447 v 0 c 0.053,0.299 -0.147,0.585 -0.447,0.638 v 0 c -0.25,0.044 -10.434,1.768 -24.932,1.767 v 0 c -21.557,-0.001 -52.645,-3.813 -74.735,-22.626"
         transform="matrix(1.3333333,0,0,-1.3333333,0,416.152)"
         id="path59" />
    </clipPath>
    <mask
       maskUnits="userSpaceOnUse"
       x="0"
       y="0"
       width="1"
       height="1"
       id="mask55">
      <path
         id="path56"
         d="M -32768,32767 H 32767 V -32768 H -32768 Z"
         style="fill:url(#linearGradient56);stroke:none" />
    </mask>
    <linearGradient
       x1="0"
       y1="0"
       x2="1"
       y2="0"
       gradientUnits="userSpaceOnUse"
       gradientTransform="matrix(127.57262,0,0,-127.57262,261.05878,191.1673)"
       spreadMethod="pad"
       id="linearGradient56">
      <stop
         style="stop-opacity:1;stop-color:#ffffff"
         offset="0"
         id="stop55" />
      <stop
         style="stop-opacity:0.09999237;stop-color:#ffffff"
         offset="1"
         id="stop56-3" />
    </linearGradient>
    <linearGradient
       x1="0"
       y1="0"
       x2="1"
       y2="0"
       gradientUnits="userSpaceOnUse"
       gradientTransform="matrix(127.57262,0,0,-127.57262,261.05878,191.1673)"
       spreadMethod="pad"
       id="linearGradient58-1">
      <stop
         style="stop-opacity:1;stop-color:#78be20"
         offset="0"
         id="stop57-9" />
      <stop
         style="stop-opacity:1;stop-color:#ddddde"
         offset="1"
         id="stop58-4" />
    </linearGradient>
    <clipPath
       clipPathUnits="userSpaceOnUse"
       id="clipPath55-7">
      <path
         d="M 0,312.114 H 410.052 V 0 H 0 Z"
         transform="translate(-359.97821,-230.107)"
         id="path55-8" />
    </clipPath>
    <clipPath
       clipPathUnits="userSpaceOnUse"
       id="clipPath53">
      <path
         d="M 0,312.114 H 410.052 V 0 H 0 Z"
         transform="translate(-356.29751,-183.9508)"
         id="path53" />
    </clipPath>
    <clipPath
       clipPathUnits="userSpaceOnUse"
       id="clipPath51">
      <path
         d="m 206.931,189.778 c -0.103,-0.288 0.052,-0.601 0.346,-0.701 v 0 c 0.004,-0.001 0.756,-0.258 2.112,-0.758 v 0 c 0.064,-0.025 0.132,-0.036 0.198,-0.036 v 0 c 0.228,0 0.442,0.135 0.527,0.355 v 0 c 0.111,0.285 -0.037,0.603 -0.328,0.71 v 0 c -1.377,0.509 -2.139,0.768 -2.139,0.768 v 0 c -0.061,0.021 -0.123,0.031 -0.185,0.031 v 0 c -0.232,0 -0.45,-0.143 -0.531,-0.369 m 4.239,-1.538 c -0.115,-0.282 0.028,-0.602 0.318,-0.713 v 0 c 0.636,-0.243 1.334,-0.516 2.091,-0.816 v 0 c 0.068,-0.027 0.139,-0.04 0.211,-0.04 v 0 c 0.223,0 0.433,0.13 0.522,0.344 v 0 c 0.117,0.282 -0.023,0.603 -0.31,0.717 v 0 c -0.761,0.301 -1.464,0.575 -2.103,0.82 v 0 c -0.068,0.025 -0.137,0.038 -0.205,0.038 v 0 c -0.225,0 -0.437,-0.132 -0.524,-0.35 m 4.187,-1.644 c -0.12,-0.281 0.017,-0.603 0.303,-0.72 v 0 c 0.661,-0.269 1.352,-0.554 2.074,-0.856 v 0 c 0.072,-0.03 0.148,-0.045 0.221,-0.045 v 0 c 0.218,0 0.426,0.126 0.517,0.335 v 0 c 0.124,0.28 -0.01,0.603 -0.296,0.722 v 0 c -0.724,0.303 -1.418,0.59 -2.082,0.86 v 0 c -0.071,0.03 -0.145,0.044 -0.217,0.044 v 0 c -0.22,0 -0.43,-0.129 -0.52,-0.34 m 143.526,-0.537 c -0.304,0 -0.554,-0.237 -0.562,-0.536 v 0 c -0.008,-0.271 -0.018,-0.541 -0.03,-0.81 v 0 c -0.015,-0.304 0.225,-0.561 0.535,-0.575 v 0 c 0.009,-0.001 0.018,-0.001 0.027,-0.001 v 0 c 0.299,0 0.549,0.23 0.563,0.525 v 0 c 0.013,0.275 0.022,0.553 0.03,0.832 v 0 c 0.009,0.303 -0.236,0.557 -0.548,0.565 v 0 z m -139.375,-1.188 c -0.125,-0.278 0.005,-0.603 0.289,-0.726 v 0 c 0.667,-0.286 1.352,-0.584 2.057,-0.893 v 0 c 0.074,-0.033 0.153,-0.049 0.23,-0.049 v 0 c 0.214,0 0.419,0.121 0.514,0.325 v 0 c 0.128,0.277 0.002,0.603 -0.283,0.727 v 0 c -0.707,0.312 -1.396,0.61 -2.065,0.898 v 0 c -0.074,0.032 -0.15,0.048 -0.226,0.048 v 0 c -0.216,0 -0.423,-0.124 -0.516,-0.33 m 4.118,-1.8 c -0.131,-0.277 -0.008,-0.603 0.275,-0.731 v 0 c 0.666,-0.3 1.346,-0.61 2.038,-0.929 v 0 c 0.078,-0.037 0.16,-0.054 0.242,-0.054 v 0 c 0.21,0 0.411,0.117 0.508,0.316 v 0 c 0.133,0.275 0.013,0.602 -0.267,0.733 v 0 c -0.697,0.321 -1.38,0.632 -2.05,0.935 v 0 c -0.077,0.034 -0.157,0.05 -0.236,0.05 v 0 c -0.213,0 -0.417,-0.118 -0.51,-0.32 m 134.498,-0.52 c -0.076,-0.725 -0.175,-1.441 -0.293,-2.149 v 0 c -0.051,-0.3 0.157,-0.583 0.464,-0.632 v 0 c 0.031,-0.005 0.062,-0.008 0.092,-0.008 v 0 c 0.272,0 0.51,0.193 0.556,0.462 v 0 c 0.121,0.729 0.222,1.466 0.3,2.213 v 0 c 0.032,0.303 -0.192,0.573 -0.501,0.605 v 0 c -0.02,0.002 -0.039,0.003 -0.058,0.003 v 0 c -0.296,0 -0.531,-0.211 -0.56,-0.494 m -130.418,-1.354 c -0.135,-0.274 -0.018,-0.603 0.262,-0.735 v 0 c 0.664,-0.314 1.338,-0.637 2.02,-0.967 v 0 c 0.08,-0.039 0.165,-0.058 0.25,-0.058 v 0 c 0.206,0 0.406,0.113 0.504,0.306 v 0 c 0.139,0.273 0.024,0.603 -0.255,0.738 v 0 c -0.685,0.333 -1.362,0.657 -2.028,0.972 v 0 c -0.079,0.037 -0.163,0.055 -0.245,0.055 v 0 c -0.209,0 -0.411,-0.114 -0.508,-0.311 m 4.044,-1.947 c -0.14,-0.271 -0.029,-0.603 0.247,-0.74 v 0 c 0.662,-0.328 1.328,-0.663 1.999,-1.005 v 0 c 0.084,-0.042 0.172,-0.063 0.261,-0.063 v 0 c 0.204,0 0.399,0.108 0.5,0.296 v 0 c 0.143,0.27 0.037,0.603 -0.239,0.743 v 0 c -0.676,0.345 -1.348,0.681 -2.01,1.011 v 0 c -0.082,0.04 -0.169,0.059 -0.254,0.059 v 0 c -0.206,0 -0.404,-0.11 -0.504,-0.301 m 125.658,-0.975 c -0.162,-0.709 -0.347,-1.407 -0.552,-2.097 v 0 c -0.088,-0.292 0.084,-0.597 0.382,-0.683 v 0 c 0.053,-0.014 0.106,-0.021 0.158,-0.021 v 0 c 0.244,0 0.469,0.156 0.54,0.397 v 0 c 0.212,0.711 0.403,1.432 0.572,2.163 v 0 c 0.068,0.297 -0.124,0.591 -0.428,0.658 v 0 c -0.041,0.01 -0.082,0.014 -0.123,0.014 v 0 c -0.255,0 -0.489,-0.175 -0.549,-0.431 m -121.652,-1.05 c -0.146,-0.267 -0.042,-0.601 0.232,-0.744 v 0 c 0.654,-0.341 1.314,-0.689 1.977,-1.044 v 0 c 0.087,-0.045 0.18,-0.068 0.271,-0.068 v 0 c 0.199,0 0.393,0.105 0.494,0.288 v 0 c 0.149,0.266 0.048,0.601 -0.224,0.747 v 0 c -0.667,0.356 -1.33,0.705 -1.989,1.049 v 0 c -0.084,0.044 -0.175,0.065 -0.264,0.065 v 0 c -0.201,0 -0.396,-0.106 -0.497,-0.293 m 3.96,-2.102 c -0.151,-0.266 -0.055,-0.601 0.216,-0.749 v 0 c 0.65,-0.356 1.302,-0.718 1.955,-1.086 v 0 c 0.088,-0.05 0.184,-0.073 0.28,-0.073 v 0 c 0.195,0 0.384,0.099 0.488,0.275 v 0 c 0.155,0.264 0.063,0.601 -0.207,0.752 v 0 c -0.658,0.37 -1.312,0.733 -1.965,1.091 v 0 c -0.088,0.049 -0.183,0.072 -0.277,0.072 v 0 c -0.196,0 -0.386,-0.101 -0.49,-0.282 m 116.455,-1.005 c -0.247,-0.684 -0.518,-1.356 -0.807,-2.017 v 0 c -0.122,-0.28 0.011,-0.604 0.296,-0.723 v 0 c 0.072,-0.031 0.146,-0.045 0.222,-0.045 v 0 c 0.217,0 0.426,0.126 0.517,0.335 v 0 c 0.298,0.682 0.576,1.376 0.834,2.08 v 0 c 0.105,0.286 -0.049,0.601 -0.342,0.703 v 0 c -0.062,0.022 -0.126,0.032 -0.188,0.032 v 0 c -0.232,0 -0.449,-0.14 -0.532,-0.365 m -112.543,-1.182 c -0.156,-0.263 -0.069,-0.599 0.2,-0.754 v 0 c 0.642,-0.371 1.284,-0.747 1.926,-1.129 v 0 c 0.092,-0.055 0.192,-0.081 0.292,-0.081 v 0 c 0.189,0 0.376,0.095 0.481,0.265 v 0 c 0.162,0.26 0.078,0.598 -0.187,0.757 v 0 c -0.647,0.384 -1.294,0.763 -1.94,1.136 v 0 c -0.088,0.051 -0.186,0.076 -0.284,0.076 v 0 c -0.193,0 -0.382,-0.096 -0.488,-0.27 m 3.862,-2.275 c -0.166,-0.259 -0.085,-0.598 0.178,-0.759 v 0 c 0.633,-0.387 1.268,-0.778 1.898,-1.175 v 0 c 0.094,-0.06 0.199,-0.087 0.305,-0.087 v 0 c 0.184,0 0.366,0.088 0.472,0.252 v 0 c 0.169,0.256 0.093,0.596 -0.167,0.762 v 0 c -0.637,0.398 -1.273,0.793 -1.911,1.181 v 0 c -0.092,0.057 -0.196,0.084 -0.298,0.084 v 0 c -0.187,0 -0.37,-0.091 -0.477,-0.258 m 106.941,-0.527 c -0.331,-0.647 -0.681,-1.282 -1.049,-1.907 v 0 c -0.154,-0.263 -0.062,-0.6 0.208,-0.751 v 0 c 0.088,-0.051 0.185,-0.074 0.281,-0.074 v 0 c 0.194,0 0.383,0.099 0.488,0.275 v 0 c 0.379,0.645 0.74,1.299 1.078,1.965 v 0 c 0.14,0.273 0.027,0.602 -0.252,0.739 v 0 c -0.081,0.039 -0.166,0.057 -0.25,0.057 v 0 c -0.207,0 -0.406,-0.111 -0.504,-0.304 m -103.147,-1.84 c -0.171,-0.254 -0.1,-0.595 0.158,-0.763 v 0 c 0.622,-0.403 1.242,-0.811 1.86,-1.223 v 0 c 0.098,-0.065 0.207,-0.095 0.318,-0.095 v 0 c 0.179,0 0.355,0.084 0.464,0.239 v 0 c 0.177,0.251 0.111,0.594 -0.147,0.765 v 0 c -0.622,0.416 -1.246,0.827 -1.873,1.232 v 0 c -0.096,0.061 -0.203,0.091 -0.31,0.091 v 0 c -0.182,0 -0.361,-0.086 -0.47,-0.246 m 100.939,-1.914 c -0.406,-0.605 -0.828,-1.198 -1.267,-1.781 v 0 c -0.185,-0.245 -0.132,-0.589 0.117,-0.77 v 0 c 0.102,-0.072 0.219,-0.107 0.335,-0.107 v 0 c 0.172,0 0.343,0.076 0.453,0.223 v 0 c 0.452,0.598 0.888,1.209 1.304,1.831 v 0 c 0.171,0.255 0.099,0.596 -0.162,0.764 v 0 c -0.093,0.059 -0.2,0.088 -0.306,0.088 v 0 c -0.184,0 -0.365,-0.086 -0.474,-0.248 m -97.214,-0.554 c -0.18,-0.249 -0.119,-0.592 0.136,-0.767 v 0 c 0.611,-0.421 1.218,-0.847 1.822,-1.277 v 0 c 0.101,-0.071 0.217,-0.106 0.332,-0.106 v 0 c 0.173,0 0.345,0.078 0.456,0.226 v 0 c 0.183,0.245 0.127,0.59 -0.124,0.769 v 0 c -0.609,0.435 -1.223,0.864 -1.838,1.288 v 0 c -0.099,0.068 -0.213,0.101 -0.325,0.101 v 0 c -0.177,0 -0.351,-0.081 -0.459,-0.234 m 3.654,-2.58 c -0.187,-0.244 -0.139,-0.589 0.11,-0.772 v 0 c 0.599,-0.441 1.193,-0.887 1.782,-1.338 v 0 c 0.103,-0.079 0.225,-0.117 0.347,-0.117 v 0 c 0.166,0 0.333,0.072 0.444,0.211 v 0 c 0.192,0.239 0.148,0.585 -0.098,0.773 v 0 c -0.593,0.455 -1.194,0.905 -1.796,1.35 v 0 c -0.101,0.075 -0.221,0.111 -0.339,0.111 v 0 c -0.171,0 -0.34,-0.075 -0.45,-0.218 m 90.92,-0.36 c -0.471,-0.558 -0.959,-1.104 -1.462,-1.638 v 0 c -0.21,-0.224 -0.195,-0.572 0.033,-0.778 v 0 c 0.108,-0.097 0.245,-0.145 0.382,-0.145 v 0 c 0.152,0 0.303,0.059 0.414,0.177 v 0 c 0.516,0.549 1.019,1.111 1.502,1.683 v 0 c 0.198,0.234 0.164,0.582 -0.076,0.775 v 0 c -0.104,0.084 -0.231,0.125 -0.358,0.125 v 0 c -0.162,0 -0.324,-0.067 -0.435,-0.199 M 262.23,160.54 c -0.196,-0.236 -0.159,-0.582 0.083,-0.774 v 0 c 0.582,-0.462 1.157,-0.927 1.725,-1.398 v 0 c 0.107,-0.088 0.236,-0.131 0.364,-0.131 v 0 c 0.16,0 0.318,0.067 0.429,0.195 v 0 c 0.202,0.232 0.172,0.579 -0.065,0.775 v 0 c -0.575,0.477 -1.157,0.948 -1.745,1.413 v 0 c -0.103,0.083 -0.228,0.124 -0.353,0.124 v 0 c -0.163,0 -0.326,-0.069 -0.438,-0.204 m 84.342,-0.856 c -0.527,-0.506 -1.069,-1 -1.625,-1.483 v 0 c -0.233,-0.202 -0.254,-0.55 -0.048,-0.778 v 0 c 0.111,-0.122 0.265,-0.184 0.422,-0.184 v 0 c 0.133,0 0.266,0.045 0.373,0.139 v 0 c 0.57,0.495 1.126,1.001 1.666,1.52 v 0 c 0.223,0.213 0.225,0.561 0.008,0.779 v 0 c -0.111,0.11 -0.257,0.165 -0.403,0.165 v 0 c -0.142,0 -0.284,-0.053 -0.393,-0.158 m -80.881,-1.965 c -0.196,-0.236 -0.16,-0.584 0.081,-0.775 v 0 c 0.591,-0.469 1.19,-0.927 1.793,-1.37 v 0 c 0.101,-0.075 0.221,-0.11 0.338,-0.11 v 0 c 0.171,0 0.34,0.076 0.451,0.22 v 0 c 0.187,0.243 0.136,0.588 -0.112,0.771 v 0 c -0.594,0.435 -1.179,0.882 -1.759,1.344 v 0 c -0.104,0.082 -0.229,0.123 -0.354,0.123 v 0 c -0.163,0 -0.326,-0.07 -0.438,-0.203 m 77.556,-0.923 c -0.576,-0.454 -1.164,-0.896 -1.764,-1.326 v 0 c -0.25,-0.18 -0.304,-0.525 -0.12,-0.77 v 0 c 0.11,-0.148 0.281,-0.225 0.453,-0.225 v 0 c 0.116,0 0.233,0.034 0.333,0.107 v 0 c 0.614,0.44 1.216,0.893 1.805,1.357 v 0 c 0.242,0.191 0.28,0.539 0.085,0.775 v 0 c -0.11,0.135 -0.274,0.205 -0.438,0.205 v 0 c -0.125,0 -0.25,-0.04 -0.354,-0.123 m -73.981,-1.758 c -0.177,-0.251 -0.114,-0.594 0.142,-0.766 v 0 c 0.626,-0.424 1.257,-0.835 1.895,-1.232 v 0 c 0.094,-0.059 0.198,-0.086 0.303,-0.086 v 0 c 0.186,0 0.366,0.089 0.475,0.254 v 0 c 0.165,0.257 0.09,0.597 -0.173,0.76 v 0 c -0.625,0.39 -1.246,0.792 -1.859,1.208 v 0 c -0.098,0.066 -0.209,0.098 -0.32,0.098 v 0 c -0.178,0 -0.353,-0.082 -0.463,-0.236 m 70.393,-0.817 c -0.616,-0.401 -1.242,-0.791 -1.88,-1.17 v 0 c -0.266,-0.157 -0.349,-0.496 -0.187,-0.756 v 0 c 0.105,-0.171 0.29,-0.265 0.48,-0.265 v 0 c 0.1,0 0.201,0.026 0.293,0.081 v 0 c 0.651,0.386 1.29,0.784 1.918,1.194 v 0 c 0.26,0.169 0.329,0.511 0.156,0.764 v 0 c -0.108,0.159 -0.286,0.245 -0.468,0.245 v 0 c -0.108,0 -0.216,-0.03 -0.312,-0.093 m -66.616,-1.588 c -0.158,-0.263 -0.068,-0.6 0.201,-0.753 v 0 c 0.656,-0.376 1.318,-0.738 1.984,-1.087 v 0 c 0.086,-0.044 0.176,-0.066 0.266,-0.066 v 0 c 0.2,0 0.395,0.107 0.496,0.292 v 0 c 0.147,0.267 0.044,0.601 -0.23,0.744 v 0 c -0.654,0.343 -1.303,0.699 -1.948,1.067 v 0 c -0.089,0.051 -0.187,0.076 -0.284,0.076 v 0 c -0.193,0 -0.381,-0.098 -0.485,-0.273 m 62.807,-0.672 c -0.649,-0.35 -1.306,-0.687 -1.972,-1.014 v 0 c -0.28,-0.136 -0.392,-0.466 -0.253,-0.739 v 0 c 0.099,-0.192 0.297,-0.304 0.504,-0.304 v 0 c 0.085,0 0.171,0.019 0.252,0.058 v 0 c 0.68,0.333 1.352,0.678 2.013,1.035 v 0 c 0.273,0.147 0.372,0.482 0.221,0.747 v 0 c -0.103,0.183 -0.296,0.285 -0.494,0.285 v 0 c -0.092,0 -0.185,-0.022 -0.271,-0.068 m -58.856,-1.445 c -0.138,-0.274 -0.021,-0.602 0.257,-0.736 v 0 c 0.683,-0.325 1.371,-0.638 2.063,-0.938 v 0 c 0.075,-0.031 0.151,-0.047 0.228,-0.047 v 0 c 0.217,0 0.422,0.123 0.515,0.328 v 0 c 0.126,0.278 -0.002,0.603 -0.287,0.726 v 0 c -0.679,0.294 -1.353,0.6 -2.023,0.921 v 0 c -0.08,0.038 -0.164,0.056 -0.247,0.056 v 0 c -0.209,0 -0.409,-0.114 -0.506,-0.31 m 54.869,-0.505 c -0.676,-0.299 -1.359,-0.585 -2.05,-0.859 v 0 c -0.288,-0.116 -0.426,-0.437 -0.31,-0.718 v 0 c 0.089,-0.214 0.299,-0.344 0.522,-0.344 v 0 c 0.071,0 0.143,0.014 0.212,0.041 v 0 c 0.704,0.28 1.402,0.572 2.09,0.877 v 0 c 0.283,0.126 0.41,0.451 0.281,0.729 v 0 c -0.095,0.203 -0.299,0.324 -0.513,0.324 v 0 c -0.078,0 -0.156,-0.016 -0.232,-0.05 m -50.767,-1.316 c -0.115,-0.282 0.027,-0.603 0.315,-0.715 v 0 c 0.706,-0.276 1.414,-0.537 2.127,-0.787 v 0 c 0.062,-0.021 0.127,-0.031 0.189,-0.031 v 0 c 0.232,0 0.449,0.14 0.531,0.365 v 0 c 0.104,0.286 -0.05,0.601 -0.342,0.704 v 0 c -0.7,0.244 -1.396,0.501 -2.088,0.771 v 0 c -0.069,0.027 -0.139,0.04 -0.209,0.04 v 0 c -0.223,0 -0.435,-0.132 -0.523,-0.347 m 46.635,-0.327 c -0.697,-0.249 -1.4,-0.485 -2.11,-0.71 v 0 c -0.296,-0.092 -0.458,-0.403 -0.364,-0.693 v 0 c 0.078,-0.233 0.299,-0.381 0.537,-0.381 v 0 c 0.057,0 0.115,0.01 0.172,0.027 v 0 c 0.723,0.229 1.44,0.469 2.149,0.722 v 0 c 0.293,0.103 0.444,0.42 0.336,0.705 v 0 c -0.082,0.224 -0.298,0.363 -0.528,0.363 v 0 c -0.063,0 -0.128,-0.011 -0.192,-0.033 m -42.407,-1.193 c -0.094,-0.29 0.071,-0.599 0.366,-0.691 v 0 c 0.724,-0.224 1.45,-0.435 2.179,-0.634 v 0 c 0.051,-0.013 0.101,-0.019 0.151,-0.019 v 0 c 0.247,0 0.473,0.16 0.542,0.403 v 0 c 0.083,0.292 -0.091,0.596 -0.39,0.677 v 0 c -0.717,0.195 -1.43,0.402 -2.142,0.622 v 0 c -0.056,0.018 -0.113,0.026 -0.169,0.026 v 0 c -0.239,0 -0.46,-0.15 -0.537,-0.384 m 38.16,-0.15 c -0.713,-0.198 -1.433,-0.384 -2.156,-0.559 v 0 c -0.303,-0.072 -0.488,-0.371 -0.412,-0.666 v 0 c 0.062,-0.251 0.291,-0.419 0.546,-0.419 v 0 c 0.044,0 0.089,0.005 0.133,0.016 v 0 c 0.74,0.177 1.472,0.367 2.198,0.569 v 0 c 0.299,0.083 0.473,0.388 0.386,0.68 v 0 c -0.069,0.242 -0.294,0.4 -0.54,0.4 v 0 c -0.051,0 -0.103,-0.007 -0.155,-0.021 m -33.832,-1.069 c -0.073,-0.296 0.113,-0.593 0.416,-0.664 v 0 c 0.738,-0.172 1.478,-0.334 2.219,-0.481 v 0 c 0.037,-0.007 0.076,-0.011 0.113,-0.011 v 0 c 0.262,0 0.496,0.179 0.552,0.441 v 0 c 0.061,0.298 -0.136,0.588 -0.44,0.649 v 0 c -0.728,0.145 -1.456,0.302 -2.18,0.473 v 0 c -0.043,0.009 -0.086,0.013 -0.128,0.013 v 0 c -0.257,0 -0.488,-0.167 -0.552,-0.42 m 29.499,0.025 c -0.727,-0.15 -1.458,-0.287 -2.193,-0.412 v 0 c -0.307,-0.053 -0.512,-0.338 -0.458,-0.637 v 0 c 0.047,-0.268 0.286,-0.456 0.554,-0.456 v 0 c 0.031,0 0.064,0.003 0.096,0.008 v 0 c 0.748,0.127 1.492,0.267 2.232,0.42 v 0 c 0.305,0.062 0.5,0.353 0.436,0.651 v 0 c -0.057,0.261 -0.295,0.437 -0.554,0.437 v 0 c -0.038,0 -0.075,-0.003 -0.113,-0.011 m -25.093,-0.942 c -0.051,-0.299 0.156,-0.583 0.463,-0.633 v 0 c 0.747,-0.123 1.496,-0.232 2.246,-0.33 v 0 c 0.026,-0.003 0.051,-0.005 0.075,-0.005 v 0 c 0.278,0 0.52,0.202 0.558,0.478 v 0 c 0.041,0.301 -0.176,0.578 -0.485,0.618 v 0 c -0.736,0.097 -1.474,0.205 -2.208,0.324 v 0 c -0.033,0.006 -0.065,0.009 -0.096,0.009 v 0 c -0.266,0 -0.506,-0.192 -0.553,-0.461 m 20.694,0.192 c -0.738,-0.101 -1.48,-0.19 -2.224,-0.265 v 0 c -0.309,-0.033 -0.532,-0.304 -0.5,-0.605 v 0 c 0.03,-0.284 0.275,-0.493 0.558,-0.493 v 0 c 0.021,0 0.041,0.001 0.061,0.002 v 0 c 0.755,0.079 1.509,0.168 2.26,0.271 v 0 c 0.307,0.043 0.522,0.32 0.479,0.622 v 0 c -0.038,0.274 -0.282,0.474 -0.552,0.474 v 0 c -0.027,0 -0.055,-0.002 -0.082,-0.006 m -16.233,-0.808 c -0.03,-0.302 0.196,-0.571 0.506,-0.601 v 0 c 0.755,-0.073 1.51,-0.133 2.264,-0.179 v 0 c 0.013,-0.001 0.025,-0.001 0.038,-0.001 v 0 c 0.294,0 0.542,0.223 0.56,0.515 v 0 c 0.02,0.303 -0.215,0.566 -0.526,0.585 v 0 c -0.742,0.045 -1.485,0.104 -2.226,0.175 v 0 c -0.02,0.002 -0.04,0.003 -0.06,0.003 v 0 c -0.28,0 -0.526,-0.215 -0.556,-0.497 m 11.779,0.351 c -0.743,-0.051 -1.488,-0.091 -2.235,-0.119 v 0 c -0.311,-0.011 -0.554,-0.267 -0.542,-0.57 v 0 c 0.012,-0.297 0.262,-0.531 0.562,-0.531 v 0 h 0.021 c 0.76,0.029 1.518,0.069 2.274,0.121 v 0 c 0.31,0.022 0.543,0.285 0.522,0.589 v 0 c -0.021,0.288 -0.272,0.512 -0.555,0.512 v 0 c -0.016,0 -0.031,-0.001 -0.047,-0.002 m -7.286,-0.669 c -0.009,-0.304 0.236,-0.558 0.545,-0.567 v 0 c 0.678,-0.019 1.353,-0.029 2.026,-0.029 v 0 h 0.248 c 0.31,0.002 0.561,0.251 0.56,0.555 v 0 c -0.004,0.302 -0.254,0.546 -0.564,0.546 v 0 h -0.003 l -0.241,-0.001 c -0.662,0 -1.326,0.011 -1.991,0.03 v 0 c -0.353,-0.009 -0.572,-0.23 -0.58,-0.534"
         transform="matrix(1.3333333,0,0,-1.3333333,0,416.152)"
         id="path51" />
    </clipPath>
    <mask
       maskUnits="userSpaceOnUse"
       x="0"
       y="0"
       width="1"
       height="1"
       id="mask45">
      <path
         id="path47"
         d="M -32768,32767 H 32767 V -32768 H -32768 Z"
         style="fill:url(#linearGradient47);stroke:none" />
    </mask>
    <linearGradient
       x1="0"
       y1="0"
       x2="1"
       y2="0"
       gradientUnits="userSpaceOnUse"
       gradientTransform="matrix(152.54768,0,0,-152.54768,206.89876,166.82841)"
       spreadMethod="pad"
       id="linearGradient47">
      <stop
         style="stop-opacity:0;stop-color:#ffffff"
         offset="0"
         id="stop45" />
      <stop
         style="stop-opacity:0;stop-color:#ffffff"
         offset="0.21605519"
         id="stop46" />
      <stop
         style="stop-opacity:1;stop-color:#ffffff"
         offset="1"
         id="stop47-4" />
    </linearGradient>
    <linearGradient
       x1="0"
       y1="0"
       x2="1"
       y2="0"
       gradientUnits="userSpaceOnUse"
       gradientTransform="matrix(152.54768,0,0,-152.54768,206.89876,166.82841)"
       spreadMethod="pad"
       id="linearGradient50">
      <stop
         style="stop-opacity:1;stop-color:#00629b"
         offset="0"
         id="stop48-5" />
      <stop
         style="stop-opacity:1;stop-color:#00629b"
         offset="0.21605519"
         id="stop49-0" />
      <stop
         style="stop-opacity:1;stop-color:#00629b"
         offset="1"
         id="stop50-3" />
    </linearGradient>
    <clipPath
       clipPathUnits="userSpaceOnUse"
       id="clipPath45">
      <path
         d="M 0,312.114 H 410.052 V 0 H 0 Z"
         transform="translate(-288.9343,-159.14271)"
         id="path45" />
    </clipPath>
    <clipPath
       clipPathUnits="userSpaceOnUse"
       id="clipPath43-6">
      <path
         d="M 0,312.114 H 410.052 V 0 H 0 Z"
         transform="translate(-275.68821,-243.35361)"
         id="path43-1" />
    </clipPath>
    <clipPath
       clipPathUnits="userSpaceOnUse"
       id="clipPath41">
      <path
         d="M 0,312.114 H 410.052 V 0 H 0 Z"
         transform="translate(-290.989,-188.2462)"
         id="path41" />
    </clipPath>
    <clipPath
       clipPathUnits="userSpaceOnUse"
       id="clipPath39">
      <path
         d="M 0,312.114 H 410.052 V 0 H 0 Z"
         transform="translate(-312.95481,-247.56461)"
         id="path39" />
    </clipPath>
    <clipPath
       clipPathUnits="userSpaceOnUse"
       id="clipPath37-0">
      <path
         d="M 0,312.114 H 410.052 V 0 H 0 Z"
         transform="translate(-261.14911,-194.55921)"
         id="path37-6" />
    </clipPath>
    <clipPath
       clipPathUnits="userSpaceOnUse"
       id="clipPath35">
      <path
         d="M 0,312.114 H 410.052 V 0 H 0 Z"
         transform="translate(-338.90401,-200.026)"
         id="path35" />
    </clipPath>
    <clipPath
       clipPathUnits="userSpaceOnUse"
       id="clipPath33">
      <path
         d="M 0,312.114 H 410.052 V 0 H 0 Z"
         transform="translate(-265.05541,-206.76381)"
         id="path33" />
    </clipPath>
    <linearGradient
       x1="0"
       y1="0"
       x2="1"
       y2="0"
       gradientUnits="userSpaceOnUse"
       gradientTransform="matrix(6.9132824,0,0,6.9132824,16.542398,8.1132928)"
       spreadMethod="pad"
       id="linearGradient31-3">
      <stop
         style="stop-opacity:1;stop-color:#00629b"
         offset="0"
         id="stop30-2" />
      <stop
         style="stop-opacity:1;stop-color:#78be20"
         offset="1"
         id="stop31-0" />
    </linearGradient>
    <clipPath
       clipPathUnits="userSpaceOnUse"
       id="clipPath30">
      <path
         d="M 0,312.114 H 410.052 V 0 H 0 Z"
         transform="matrix(1.3333333,0,0,-1.3333333,0,416.152)"
         id="path30" />
    </clipPath>
    <clipPath
       clipPathUnits="userSpaceOnUse"
       id="clipPath28-6">
      <path
         d="m 405.69,133.755 c 0,-6.531 -47.289,-11.825 -105.622,-11.825 -58.334,0 -105.623,5.294 -105.623,11.825 0,6.53 47.289,11.824 105.623,11.824 58.333,0 105.622,-5.294 105.622,-11.824"
         transform="matrix(1.3333333,0,0,-1.3333333,0,416.152)"
         id="path28-1" />
    </clipPath>
    <mask
       maskUnits="userSpaceOnUse"
       x="0"
       y="0"
       width="1"
       height="1"
       id="mask18">
      <path
         id="path23"
         d="M -32768,32767 H 32767 V -32768 H -32768 Z"
         style="fill:url(#radialGradient23);stroke:none" />
    </mask>
    <radialGradient
       fx="0"
       fy="0"
       cx="0"
       cy="0"
       r="1"
       gradientUnits="userSpaceOnUse"
       gradientTransform="matrix(105.62349,0,0,-11.824312,300.06738,133.75433)"
       spreadMethod="pad"
       id="radialGradient23">
      <stop
         style="stop-opacity:1;stop-color:#ffffff"
         offset="0"
         id="stop19" />
      <stop
         style="stop-opacity:1;stop-color:#ffffff"
         offset="0.00383398"
         id="stop20-5" />
      <stop
         style="stop-opacity:1;stop-color:#ffffff"
         offset="0.142145"
         id="stop21-5" />
      <stop
         style="stop-opacity:0;stop-color:#ffffff"
         offset="0.64482289"
         id="stop22-4" />
      <stop
         style="stop-opacity:0;stop-color:#ffffff"
         offset="1"
         id="stop23-7" />
    </radialGradient>
    <radialGradient
       fx="0"
       fy="0"
       cx="0"
       cy="0"
       r="1"
       gradientUnits="userSpaceOnUse"
       gradientTransform="matrix(105.62349,0,0,-11.824312,300.06738,133.75433)"
       spreadMethod="pad"
       id="radialGradient28">
      <stop
         style="stop-opacity:1;stop-color:#181818"
         offset="0"
         id="stop24-6" />
      <stop
         style="stop-opacity:1;stop-color:#181818"
         offset="0.00383398"
         id="stop25-5" />
      <stop
         style="stop-opacity:1;stop-color:#717171"
         offset="0.142145"
         id="stop26" />
      <stop
         style="stop-opacity:1;stop-color:#ffffff"
         offset="0.64482289"
         id="stop27" />
      <stop
         style="stop-opacity:1;stop-color:#ffffff"
         offset="1"
         id="stop28" />
    </radialGradient>
    <linearGradient
       x1="0"
       y1="0"
       x2="1"
       y2="0"
       gradientUnits="userSpaceOnUse"
       gradientTransform="matrix(7.8213967,0,0,7.8213967,14.950659,9.5859122)"
       spreadMethod="pad"
       id="linearGradient18">
      <stop
         style="stop-opacity:1;stop-color:#00629b"
         offset="0"
         id="stop17" />
      <stop
         style="stop-opacity:1;stop-color:#78be20"
         offset="1"
         id="stop18" />
    </linearGradient>
    <clipPath
       clipPathUnits="userSpaceOnUse"
       id="clipPath17">
      <path
         d="m 276.007,253.74 c -21.371,-9.967 -29.7,-30.782 -32.924,-46.489 v 0 c -4.251,-20.712 -13.857,-34.877 -27.777,-40.963 v 0 c -10.521,-4.602 -19.911,-3.007 -20.007,-2.99 v 0 c -0.295,0.053 -0.585,-0.146 -0.638,-0.446 v 0 c -0.053,-0.299 0.147,-0.585 0.445,-0.638 v 0 c 0.076,-0.013 1.653,-0.271 4.213,-0.271 v 0 c 10.287,0 36.443,4.167 44.843,45.087 v 0 c 5.744,27.982 20.714,40.291 32.263,45.69 v 0 c 12.529,5.858 23.858,5.089 23.974,5.081 v 0 c 0.304,-0.028 0.566,0.205 0.59,0.508 v 0 c 0.022,0.303 -0.205,0.567 -0.508,0.59 v 0 c -0.024,0.002 -0.57,0.04 -1.541,0.04 v 0 c -3.572,0 -12.879,-0.511 -22.933,-5.199"
         transform="matrix(1.3333333,0,0,-1.3333333,0,416.152)"
         id="path17" />
    </clipPath>
    <mask
       maskUnits="userSpaceOnUse"
       x="0"
       y="0"
       width="1"
       height="1"
       id="mask4">
      <path
         id="path10-6"
         d="M -32768,32767 H 32767 V -32768 H -32768 Z"
         style="fill:url(#linearGradient10-9);stroke:none" />
    </mask>
    <linearGradient
       x1="0"
       y1="0"
       x2="1"
       y2="0"
       gradientUnits="userSpaceOnUse"
       gradientTransform="matrix(106.33808,0,0,-106.33808,194.65251,210.44067)"
       spreadMethod="pad"
       id="linearGradient10-9">
      <stop
         style="stop-opacity:0;stop-color:#ffffff"
         offset="0"
         id="stop5-3" />
      <stop
         style="stop-opacity:0;stop-color:#ffffff"
         offset="0.17008"
         id="stop6-7" />
      <stop
         style="stop-opacity:0.8;stop-color:#ffffff"
         offset="0.36607857"
         id="stop7-4" />
      <stop
         style="stop-opacity:0.8;stop-color:#ffffff"
         offset="0.520596"
         id="stop8-5" />
      <stop
         style="stop-opacity:1;stop-color:#ffffff"
         offset="0.78866507"
         id="stop9-2" />
      <stop
         style="stop-opacity:1;stop-color:#ffffff"
         offset="1"
         id="stop10-5" />
    </linearGradient>
    <linearGradient
       x1="0"
       y1="0"
       x2="1"
       y2="0"
       gradientUnits="userSpaceOnUse"
       gradientTransform="matrix(106.33808,0,0,-106.33808,194.65251,210.44067)"
       spreadMethod="pad"
       id="linearGradient16-4">
      <stop
         style="stop-opacity:1;stop-color:#00629b"
         offset="0"
         id="stop11" />
      <stop
         style="stop-opacity:1;stop-color:#00629b"
         offset="0.17008"
         id="stop12" />
      <stop
         style="stop-opacity:1;stop-color:#00629b"
         offset="0.36607857"
         id="stop13" />
      <stop
         style="stop-opacity:1;stop-color:#00629b"
         offset="0.520596"
         id="stop14-7" />
      <stop
         style="stop-opacity:1;stop-color:#00629b"
         offset="0.78866507"
         id="stop15-4" />
      <stop
         style="stop-opacity:1;stop-color:#00629b"
         offset="1"
         id="stop16-4" />
    </linearGradient>
    <linearGradient
       x1="0"
       y1="0"
       x2="1"
       y2="0"
       gradientUnits="userSpaceOnUse"
       gradientTransform="matrix(8.6200942,0,0,8.6200942,14.230782,9.4497948)"
       spreadMethod="pad"
       id="linearGradient4-3">
      <stop
         style="stop-opacity:1;stop-color:#78be20"
         offset="0"
         id="stop1" />
      <stop
         style="stop-opacity:1;stop-color:#00629b"
         offset="0.28522062"
         id="stop2-0" />
      <stop
         style="stop-opacity:1;stop-color:#00629b"
         offset="0.587255"
         id="stop3-7" />
      <stop
         style="stop-opacity:1;stop-color:#00629b"
         offset="1"
         id="stop4-8" />
    </linearGradient>
  </defs>
  <g
     id="layer1">
    <g
       opacity="0.5"
       id="g30"
       clip-path="url(#clipPath30)"
       transform="matrix(0.05439445,0,0,0.05439445,-2.9647099,1.880625)">
      <g
         mask="url(#mask18)"
         clip-path="url(#clipPath28-6)"
         id="g29">
        <path
           d="m 405.69,133.755 c 0,-6.531 -47.289,-11.825 -105.622,-11.825 -58.334,0 -105.623,5.294 -105.623,11.825 0,6.53 47.289,11.824 105.623,11.824 58.333,0 105.622,-5.294 105.622,-11.824"
           transform="matrix(1.3333333,0,0,-1.3333333,0,416.152)"
           style="fill:url(#radialGradient28);stroke:none"
           id="path29" />
      </g>
    </g>
    <g
       mask="url(#mask55)"
       id="g58"
       clip-path="url(#clipPath59)"
       transform="matrix(0.05439445,0,0,0.05439445,-2.9647099,1.880625)">
      <path
         d="m 288.509,215.518 c -18.653,-15.886 -27.883,-39.701 -27.435,-70.785 v 0 c 0.005,-0.301 0.25,-0.542 0.551,-0.542 v 0 h 0.009 c 0.302,0.004 0.545,0.254 0.54,0.558 v 0 c -0.443,30.737 8.657,54.264 27.045,69.927 v 0 c 36.548,31.13 98.147,20.725 98.767,20.616 v 0 c 0.295,-0.051 0.585,0.146 0.637,0.447 v 0 c 0.053,0.299 -0.147,0.585 -0.447,0.638 v 0 c -0.25,0.044 -10.434,1.768 -24.932,1.767 v 0 c -21.557,-0.001 -52.645,-3.813 -74.735,-22.626"
         transform="matrix(1.3333333,0,0,-1.3333333,0,416.152)"
         style="fill:url(#linearGradient58-1);stroke:none"
         id="path58-9" />
    </g>
    <g
       id="g44"
       transform="matrix(1.1169303,0,0,1.1169303,-3.1857563e-7,-1.5468885)">
      <path
         id="path4-8"
         d="m 19.391624,8.8952608 c -0.0026,0.04997 0.03583,0.092616 0.0858,0.095227 v 0 c 1.456973,0.075645 2.705652,0.5445971 3.078218,1.0998552 v 0 c 0.01153,-0.08435 0.02009,-0.1695652 0.02589,-0.2555809 v 0 C 22.075301,9.2941534 20.903282,8.8829314 19.486778,8.8093901 v 0 c -0.0017,-7.25e-5 -0.0035,-1.45e-4 -0.0052,-1.45e-4 v 0 c -0.04707,0 -0.08747,0.037859 -0.08993,0.086016"
         style="fill:url(#linearGradient4-3);stroke:none;stroke-width:0.072526" />
      <g
         mask="url(#mask4)"
         id="g16"
         clip-path="url(#clipPath17)"
         transform="matrix(0.05439445,0,0,0.05439445,-2.9647099,1.880625)">
        <path
           d="m 276.007,253.74 c -21.371,-9.967 -29.7,-30.782 -32.924,-46.489 v 0 c -4.251,-20.712 -13.857,-34.877 -27.777,-40.963 v 0 c -10.521,-4.602 -19.911,-3.007 -20.007,-2.99 v 0 c -0.295,0.053 -0.585,-0.146 -0.638,-0.446 v 0 c -0.053,-0.299 0.147,-0.585 0.445,-0.638 v 0 c 0.076,-0.013 1.653,-0.271 4.213,-0.271 v 0 c 10.287,0 36.443,4.167 44.843,45.087 v 0 c 5.744,27.982 20.714,40.291 32.263,45.69 v 0 c 12.529,5.858 23.858,5.089 23.974,5.081 v 0 c 0.304,-0.028 0.566,0.205 0.59,0.508 v 0 c 0.022,0.303 -0.205,0.567 -0.508,0.59 v 0 c -0.024,0.002 -0.57,0.04 -1.541,0.04 v 0 c -3.572,0 -12.879,-0.511 -22.933,-5.199"
           transform="matrix(1.3333333,0,0,-1.3333333,0,416.152)"
           style="fill:url(#linearGradient16-4);stroke:none"
           id="path16-8" />
      </g>
      <path
         id="path18"
         d="m 14.950644,9.5859252 c 0,2.1563408 1.754402,3.9106708 3.910743,3.9106708 v 0 c 2.156341,0 3.91067,-1.75433 3.91067,-3.9106708 v 0 c 0,-2.1564133 -1.754329,-3.9107428 -3.91067,-3.9107428 v 0 c -2.156341,0 -3.910743,1.7543295 -3.910743,3.9107428 m 0.181315,0 c 0,-2.0564001 1.672955,-3.7294281 3.729428,-3.7294281 v 0 c 2.0564,0 3.729356,1.673028 3.729356,3.7294281 v 0 c 0,2.0563998 -1.672956,3.7294278 -3.729356,3.7294278 v 0 c -2.056473,0 -3.729428,-1.673028 -3.729428,-3.7294278"
         style="fill:url(#linearGradient18);stroke:none;stroke-width:0.072526" />
      <path
         id="path31-4"
         d="m 18.860009,6.9855807 c -1.033784,0.3521134 -1.81264,1.1598346 -2.314737,2.4007532 v 0 c -0.0083,0.020525 0.0017,0.043733 0.02212,0.052074 v 0 c 0.0049,0.00196 0.0099,0.0029 0.01494,0.0029 v 0 c 0.01574,0 0.03068,-0.00936 0.03699,-0.024949 v 0 c 0.492959,-1.218363 1.255424,-2.0107087 2.266146,-2.3550619 v 0 c 2.059011,-0.7011805 4.485873,0.6979896 4.510097,0.7121321 v 0 c 0.019,0.011096 0.04351,0.00464 0.05468,-0.01436 v 0 c 0.0111,-0.018929 0.0047,-0.04337 -0.01429,-0.05454 v 0 C 23.416225,7.6929971 21.842198,6.7851178 20.142045,6.785263 v 0 c -0.426815,0 -0.86197,0.057295 -1.282041,0.2003166"
         style="fill:url(#linearGradient31-3);stroke:none;stroke-width:0.072526" />
      <path
         id="path32"
         d="M 0,0 3.111,6.725 9.138,3.937 6.027,-2.788 Z"
         style="fill:#00629b;fill-opacity:1;fill-rule:nonzero;stroke:none"
         transform="matrix(0.07252593,0,0,-0.07252593,16.258679,9.5212458)"
         clip-path="url(#clipPath33)" />
      <path
         id="path34-3"
         d="M 0,0 1.642,3.489 4.769,2.017 3.127,-1.471 Z"
         style="fill:#414042;fill-opacity:1;fill-rule:nonzero;stroke:none"
         transform="matrix(0.07252593,0,0,-0.07252593,21.614617,10.009911)"
         clip-path="url(#clipPath35)" />
      <path
         id="path36"
         d="M 0,0 1.642,3.488 4.769,2.017 3.126,-1.472 Z"
         style="fill:#414042;fill-opacity:1;fill-rule:nonzero;stroke:none"
         transform="matrix(0.07252593,0,0,-0.07252593,15.975371,10.406396)"
         clip-path="url(#clipPath37-0)" />
      <path
         id="path38"
         d="M 0,0 -1.565,3.231 1.331,4.635 2.896,1.403 Z"
         style="fill:#414042;fill-opacity:1;fill-rule:nonzero;stroke:none"
         transform="matrix(0.07252593,0,0,-0.07252593,19.732627,6.5621302)"
         clip-path="url(#clipPath39)" />
      <path
         id="path40-1"
         d="M 0,0 -2.546,7.664 4.321,9.945 6.868,2.282 Z"
         style="fill:#78be20;fill-opacity:1;fill-rule:nonzero;stroke:none"
         transform="matrix(0.07252593,0,0,-0.07252593,18.139537,10.864252)"
         clip-path="url(#clipPath41)" />
      <path
         id="path42"
         d="m 0,0 -5.765,-6.924 -2.801,2.333 5.764,6.924 z"
         style="fill:#78be20;fill-opacity:1;fill-rule:nonzero;stroke:none"
         transform="matrix(0.07252593,0,0,-0.07252593,17.029833,6.8675369)"
         clip-path="url(#clipPath43-6)" />
      <path
         id="path44"
         d="m 0,0 -8.32,3.456 1.565,3.77 8.32,-3.455 z"
         style="fill:#00629b;fill-opacity:1;fill-rule:nonzero;stroke:none"
         transform="matrix(0.07252593,0,0,-0.07252593,17.990518,12.97501)"
         clip-path="url(#clipPath45)" />
      <g
         mask="url(#mask45)"
         id="g50"
         clip-path="url(#clipPath51)"
         transform="matrix(0.05439445,0,0,0.05439445,-2.9647099,1.880625)">
        <path
           d="m 206.931,189.778 c -0.103,-0.288 0.052,-0.601 0.346,-0.701 v 0 c 0.004,-0.001 0.756,-0.258 2.112,-0.758 v 0 c 0.064,-0.025 0.132,-0.036 0.198,-0.036 v 0 c 0.228,0 0.442,0.135 0.527,0.355 v 0 c 0.111,0.285 -0.037,0.603 -0.328,0.71 v 0 c -1.377,0.509 -2.139,0.768 -2.139,0.768 v 0 c -0.061,0.021 -0.123,0.031 -0.185,0.031 v 0 c -0.232,0 -0.45,-0.143 -0.531,-0.369 m 4.239,-1.538 c -0.115,-0.282 0.028,-0.602 0.318,-0.713 v 0 c 0.636,-0.243 1.334,-0.516 2.091,-0.816 v 0 c 0.068,-0.027 0.139,-0.04 0.211,-0.04 v 0 c 0.223,0 0.433,0.13 0.522,0.344 v 0 c 0.117,0.282 -0.023,0.603 -0.31,0.717 v 0 c -0.761,0.301 -1.464,0.575 -2.103,0.82 v 0 c -0.068,0.025 -0.137,0.038 -0.205,0.038 v 0 c -0.225,0 -0.437,-0.132 -0.524,-0.35 m 4.187,-1.644 c -0.12,-0.281 0.017,-0.603 0.303,-0.72 v 0 c 0.661,-0.269 1.352,-0.554 2.074,-0.856 v 0 c 0.072,-0.03 0.148,-0.045 0.221,-0.045 v 0 c 0.218,0 0.426,0.126 0.517,0.335 v 0 c 0.124,0.28 -0.01,0.603 -0.296,0.722 v 0 c -0.724,0.303 -1.418,0.59 -2.082,0.86 v 0 c -0.071,0.03 -0.145,0.044 -0.217,0.044 v 0 c -0.22,0 -0.43,-0.129 -0.52,-0.34 m 143.526,-0.537 c -0.304,0 -0.554,-0.237 -0.562,-0.536 v 0 c -0.008,-0.271 -0.018,-0.541 -0.03,-0.81 v 0 c -0.015,-0.304 0.225,-0.561 0.535,-0.575 v 0 c 0.009,-0.001 0.018,-0.001 0.027,-0.001 v 0 c 0.299,0 0.549,0.23 0.563,0.525 v 0 c 0.013,0.275 0.022,0.553 0.03,0.832 v 0 c 0.009,0.303 -0.236,0.557 -0.548,0.565 v 0 z m -139.375,-1.188 c -0.125,-0.278 0.005,-0.603 0.289,-0.726 v 0 c 0.667,-0.286 1.352,-0.584 2.057,-0.893 v 0 c 0.074,-0.033 0.153,-0.049 0.23,-0.049 v 0 c 0.214,0 0.419,0.121 0.514,0.325 v 0 c 0.128,0.277 0.002,0.603 -0.283,0.727 v 0 c -0.707,0.312 -1.396,0.61 -2.065,0.898 v 0 c -0.074,0.032 -0.15,0.048 -0.226,0.048 v 0 c -0.216,0 -0.423,-0.124 -0.516,-0.33 m 4.118,-1.8 c -0.131,-0.277 -0.008,-0.603 0.275,-0.731 v 0 c 0.666,-0.3 1.346,-0.61 2.038,-0.929 v 0 c 0.078,-0.037 0.16,-0.054 0.242,-0.054 v 0 c 0.21,0 0.411,0.117 0.508,0.316 v 0 c 0.133,0.275 0.013,0.602 -0.267,0.733 v 0 c -0.697,0.321 -1.38,0.632 -2.05,0.935 v 0 c -0.077,0.034 -0.157,0.05 -0.236,0.05 v 0 c -0.213,0 -0.417,-0.118 -0.51,-0.32 m 134.498,-0.52 c -0.076,-0.725 -0.175,-1.441 -0.293,-2.149 v 0 c -0.051,-0.3 0.157,-0.583 0.464,-0.632 v 0 c 0.031,-0.005 0.062,-0.008 0.092,-0.008 v 0 c 0.272,0 0.51,0.193 0.556,0.462 v 0 c 0.121,0.729 0.222,1.466 0.3,2.213 v 0 c 0.032,0.303 -0.192,0.573 -0.501,0.605 v 0 c -0.02,0.002 -0.039,0.003 -0.058,0.003 v 0 c -0.296,0 -0.531,-0.211 -0.56,-0.494 m -130.418,-1.354 c -0.135,-0.274 -0.018,-0.603 0.262,-0.735 v 0 c 0.664,-0.314 1.338,-0.637 2.02,-0.967 v 0 c 0.08,-0.039 0.165,-0.058 0.25,-0.058 v 0 c 0.206,0 0.406,0.113 0.504,0.306 v 0 c 0.139,0.273 0.024,0.603 -0.255,0.738 v 0 c -0.685,0.333 -1.362,0.657 -2.028,0.972 v 0 c -0.079,0.037 -0.163,0.055 -0.245,0.055 v 0 c -0.209,0 -0.411,-0.114 -0.508,-0.311 m 4.044,-1.947 c -0.14,-0.271 -0.029,-0.603 0.247,-0.74 v 0 c 0.662,-0.328 1.328,-0.663 1.999,-1.005 v 0 c 0.084,-0.042 0.172,-0.063 0.261,-0.063 v 0 c 0.204,0 0.399,0.108 0.5,0.296 v 0 c 0.143,0.27 0.037,0.603 -0.239,0.743 v 0 c -0.676,0.345 -1.348,0.681 -2.01,1.011 v 0 c -0.082,0.04 -0.169,0.059 -0.254,0.059 v 0 c -0.206,0 -0.404,-0.11 -0.504,-0.301 m 125.658,-0.975 c -0.162,-0.709 -0.347,-1.407 -0.552,-2.097 v 0 c -0.088,-0.292 0.084,-0.597 0.382,-0.683 v 0 c 0.053,-0.014 0.106,-0.021 0.158,-0.021 v 0 c 0.244,0 0.469,0.156 0.54,0.397 v 0 c 0.212,0.711 0.403,1.432 0.572,2.163 v 0 c 0.068,0.297 -0.124,0.591 -0.428,0.658 v 0 c -0.041,0.01 -0.082,0.014 -0.123,0.014 v 0 c -0.255,0 -0.489,-0.175 -0.549,-0.431 m -121.652,-1.05 c -0.146,-0.267 -0.042,-0.601 0.232,-0.744 v 0 c 0.654,-0.341 1.314,-0.689 1.977,-1.044 v 0 c 0.087,-0.045 0.18,-0.068 0.271,-0.068 v 0 c 0.199,0 0.393,0.105 0.494,0.288 v 0 c 0.149,0.266 0.048,0.601 -0.224,0.747 v 0 c -0.667,0.356 -1.33,0.705 -1.989,1.049 v 0 c -0.084,0.044 -0.175,0.065 -0.264,0.065 v 0 c -0.201,0 -0.396,-0.106 -0.497,-0.293 m 3.96,-2.102 c -0.151,-0.266 -0.055,-0.601 0.216,-0.749 v 0 c 0.65,-0.356 1.302,-0.718 1.955,-1.086 v 0 c 0.088,-0.05 0.184,-0.073 0.28,-0.073 v 0 c 0.195,0 0.384,0.099 0.488,0.275 v 0 c 0.155,0.264 0.063,0.601 -0.207,0.752 v 0 c -0.658,0.37 -1.312,0.733 -1.965,1.091 v 0 c -0.088,0.049 -0.183,0.072 -0.277,0.072 v 0 c -0.196,0 -0.386,-0.101 -0.49,-0.282 m 116.455,-1.005 c -0.247,-0.684 -0.518,-1.356 -0.807,-2.017 v 0 c -0.122,-0.28 0.011,-0.604 0.296,-0.723 v 0 c 0.072,-0.031 0.146,-0.045 0.222,-0.045 v 0 c 0.217,0 0.426,0.126 0.517,0.335 v 0 c 0.298,0.682 0.576,1.376 0.834,2.08 v 0 c 0.105,0.286 -0.049,0.601 -0.342,0.703 v 0 c -0.062,0.022 -0.126,0.032 -0.188,0.032 v 0 c -0.232,0 -0.449,-0.14 -0.532,-0.365 m -112.543,-1.182 c -0.156,-0.263 -0.069,-0.599 0.2,-0.754 v 0 c 0.642,-0.371 1.284,-0.747 1.926,-1.129 v 0 c 0.092,-0.055 0.192,-0.081 0.292,-0.081 v 0 c 0.189,0 0.376,0.095 0.481,0.265 v 0 c 0.162,0.26 0.078,0.598 -0.187,0.757 v 0 c -0.647,0.384 -1.294,0.763 -1.94,1.136 v 0 c -0.088,0.051 -0.186,0.076 -0.284,0.076 v 0 c -0.193,0 -0.382,-0.096 -0.488,-0.27 m 3.862,-2.275 c -0.166,-0.259 -0.085,-0.598 0.178,-0.759 v 0 c 0.633,-0.387 1.268,-0.778 1.898,-1.175 v 0 c 0.094,-0.06 0.199,-0.087 0.305,-0.087 v 0 c 0.184,0 0.366,0.088 0.472,0.252 v 0 c 0.169,0.256 0.093,0.596 -0.167,0.762 v 0 c -0.637,0.398 -1.273,0.793 -1.911,1.181 v 0 c -0.092,0.057 -0.196,0.084 -0.298,0.084 v 0 c -0.187,0 -0.37,-0.091 -0.477,-0.258 m 106.941,-0.527 c -0.331,-0.647 -0.681,-1.282 -1.049,-1.907 v 0 c -0.154,-0.263 -0.062,-0.6 0.208,-0.751 v 0 c 0.088,-0.051 0.185,-0.074 0.281,-0.074 v 0 c 0.194,0 0.383,0.099 0.488,0.275 v 0 c 0.379,0.645 0.74,1.299 1.078,1.965 v 0 c 0.14,0.273 0.027,0.602 -0.252,0.739 v 0 c -0.081,0.039 -0.166,0.057 -0.25,0.057 v 0 c -0.207,0 -0.406,-0.111 -0.504,-0.304 m -103.147,-1.84 c -0.171,-0.254 -0.1,-0.595 0.158,-0.763 v 0 c 0.622,-0.403 1.242,-0.811 1.86,-1.223 v 0 c 0.098,-0.065 0.207,-0.095 0.318,-0.095 v 0 c 0.179,0 0.355,0.084 0.464,0.239 v 0 c 0.177,0.251 0.111,0.594 -0.147,0.765 v 0 c -0.622,0.416 -1.246,0.827 -1.873,1.232 v 0 c -0.096,0.061 -0.203,0.091 -0.31,0.091 v 0 c -0.182,0 -0.361,-0.086 -0.47,-0.246 m 100.939,-1.914 c -0.406,-0.605 -0.828,-1.198 -1.267,-1.781 v 0 c -0.185,-0.245 -0.132,-0.589 0.117,-0.77 v 0 c 0.102,-0.072 0.219,-0.107 0.335,-0.107 v 0 c 0.172,0 0.343,0.076 0.453,0.223 v 0 c 0.452,0.598 0.888,1.209 1.304,1.831 v 0 c 0.171,0.255 0.099,0.596 -0.162,0.764 v 0 c -0.093,0.059 -0.2,0.088 -0.306,0.088 v 0 c -0.184,0 -0.365,-0.086 -0.474,-0.248 m -97.214,-0.554 c -0.18,-0.249 -0.119,-0.592 0.136,-0.767 v 0 c 0.611,-0.421 1.218,-0.847 1.822,-1.277 v 0 c 0.101,-0.071 0.217,-0.106 0.332,-0.106 v 0 c 0.173,0 0.345,0.078 0.456,0.226 v 0 c 0.183,0.245 0.127,0.59 -0.124,0.769 v 0 c -0.609,0.435 -1.223,0.864 -1.838,1.288 v 0 c -0.099,0.068 -0.213,0.101 -0.325,0.101 v 0 c -0.177,0 -0.351,-0.081 -0.459,-0.234 m 3.654,-2.58 c -0.187,-0.244 -0.139,-0.589 0.11,-0.772 v 0 c 0.599,-0.441 1.193,-0.887 1.782,-1.338 v 0 c 0.103,-0.079 0.225,-0.117 0.347,-0.117 v 0 c 0.166,0 0.333,0.072 0.444,0.211 v 0 c 0.192,0.239 0.148,0.585 -0.098,0.773 v 0 c -0.593,0.455 -1.194,0.905 -1.796,1.35 v 0 c -0.101,0.075 -0.221,0.111 -0.339,0.111 v 0 c -0.171,0 -0.34,-0.075 -0.45,-0.218 m 90.92,-0.36 c -0.471,-0.558 -0.959,-1.104 -1.462,-1.638 v 0 c -0.21,-0.224 -0.195,-0.572 0.033,-0.778 v 0 c 0.108,-0.097 0.245,-0.145 0.382,-0.145 v 0 c 0.152,0 0.303,0.059 0.414,0.177 v 0 c 0.516,0.549 1.019,1.111 1.502,1.683 v 0 c 0.198,0.234 0.164,0.582 -0.076,0.775 v 0 c -0.104,0.084 -0.231,0.125 -0.358,0.125 v 0 c -0.162,0 -0.324,-0.067 -0.435,-0.199 M 262.23,160.54 c -0.196,-0.236 -0.159,-0.582 0.083,-0.774 v 0 c 0.582,-0.462 1.157,-0.927 1.725,-1.398 v 0 c 0.107,-0.088 0.236,-0.131 0.364,-0.131 v 0 c 0.16,0 0.318,0.067 0.429,0.195 v 0 c 0.202,0.232 0.172,0.579 -0.065,0.775 v 0 c -0.575,0.477 -1.157,0.948 -1.745,1.413 v 0 c -0.103,0.083 -0.228,0.124 -0.353,0.124 v 0 c -0.163,0 -0.326,-0.069 -0.438,-0.204 m 84.342,-0.856 c -0.527,-0.506 -1.069,-1 -1.625,-1.483 v 0 c -0.233,-0.202 -0.254,-0.55 -0.048,-0.778 v 0 c 0.111,-0.122 0.265,-0.184 0.422,-0.184 v 0 c 0.133,0 0.266,0.045 0.373,0.139 v 0 c 0.57,0.495 1.126,1.001 1.666,1.52 v 0 c 0.223,0.213 0.225,0.561 0.008,0.779 v 0 c -0.111,0.11 -0.257,0.165 -0.403,0.165 v 0 c -0.142,0 -0.284,-0.053 -0.393,-0.158 m -80.881,-1.965 c -0.196,-0.236 -0.16,-0.584 0.081,-0.775 v 0 c 0.591,-0.469 1.19,-0.927 1.793,-1.37 v 0 c 0.101,-0.075 0.221,-0.11 0.338,-0.11 v 0 c 0.171,0 0.34,0.076 0.451,0.22 v 0 c 0.187,0.243 0.136,0.588 -0.112,0.771 v 0 c -0.594,0.435 -1.179,0.882 -1.759,1.344 v 0 c -0.104,0.082 -0.229,0.123 -0.354,0.123 v 0 c -0.163,0 -0.326,-0.07 -0.438,-0.203 m 77.556,-0.923 c -0.576,-0.454 -1.164,-0.896 -1.764,-1.326 v 0 c -0.25,-0.18 -0.304,-0.525 -0.12,-0.77 v 0 c 0.11,-0.148 0.281,-0.225 0.453,-0.225 v 0 c 0.116,0 0.233,0.034 0.333,0.107 v 0 c 0.614,0.44 1.216,0.893 1.805,1.357 v 0 c 0.242,0.191 0.28,0.539 0.085,0.775 v 0 c -0.11,0.135 -0.274,0.205 -0.438,0.205 v 0 c -0.125,0 -0.25,-0.04 -0.354,-0.123 m -73.981,-1.758 c -0.177,-0.251 -0.114,-0.594 0.142,-0.766 v 0 c 0.626,-0.424 1.257,-0.835 1.895,-1.232 v 0 c 0.094,-0.059 0.198,-0.086 0.303,-0.086 v 0 c 0.186,0 0.366,0.089 0.475,0.254 v 0 c 0.165,0.257 0.09,0.597 -0.173,0.76 v 0 c -0.625,0.39 -1.246,0.792 -1.859,1.208 v 0 c -0.098,0.066 -0.209,0.098 -0.32,0.098 v 0 c -0.178,0 -0.353,-0.082 -0.463,-0.236 m 70.393,-0.817 c -0.616,-0.401 -1.242,-0.791 -1.88,-1.17 v 0 c -0.266,-0.157 -0.349,-0.496 -0.187,-0.756 v 0 c 0.105,-0.171 0.29,-0.265 0.48,-0.265 v 0 c 0.1,0 0.201,0.026 0.293,0.081 v 0 c 0.651,0.386 1.29,0.784 1.918,1.194 v 0 c 0.26,0.169 0.329,0.511 0.156,0.764 v 0 c -0.108,0.159 -0.286,0.245 -0.468,0.245 v 0 c -0.108,0 -0.216,-0.03 -0.312,-0.093 m -66.616,-1.588 c -0.158,-0.263 -0.068,-0.6 0.201,-0.753 v 0 c 0.656,-0.376 1.318,-0.738 1.984,-1.087 v 0 c 0.086,-0.044 0.176,-0.066 0.266,-0.066 v 0 c 0.2,0 0.395,0.107 0.496,0.292 v 0 c 0.147,0.267 0.044,0.601 -0.23,0.744 v 0 c -0.654,0.343 -1.303,0.699 -1.948,1.067 v 0 c -0.089,0.051 -0.187,0.076 -0.284,0.076 v 0 c -0.193,0 -0.381,-0.098 -0.485,-0.273 m 62.807,-0.672 c -0.649,-0.35 -1.306,-0.687 -1.972,-1.014 v 0 c -0.28,-0.136 -0.392,-0.466 -0.253,-0.739 v 0 c 0.099,-0.192 0.297,-0.304 0.504,-0.304 v 0 c 0.085,0 0.171,0.019 0.252,0.058 v 0 c 0.68,0.333 1.352,0.678 2.013,1.035 v 0 c 0.273,0.147 0.372,0.482 0.221,0.747 v 0 c -0.103,0.183 -0.296,0.285 -0.494,0.285 v 0 c -0.092,0 -0.185,-0.022 -0.271,-0.068 m -58.856,-1.445 c -0.138,-0.274 -0.021,-0.602 0.257,-0.736 v 0 c 0.683,-0.325 1.371,-0.638 2.063,-0.938 v 0 c 0.075,-0.031 0.151,-0.047 0.228,-0.047 v 0 c 0.217,0 0.422,0.123 0.515,0.328 v 0 c 0.126,0.278 -0.002,0.603 -0.287,0.726 v 0 c -0.679,0.294 -1.353,0.6 -2.023,0.921 v 0 c -0.08,0.038 -0.164,0.056 -0.247,0.056 v 0 c -0.209,0 -0.409,-0.114 -0.506,-0.31 m 54.869,-0.505 c -0.676,-0.299 -1.359,-0.585 -2.05,-0.859 v 0 c -0.288,-0.116 -0.426,-0.437 -0.31,-0.718 v 0 c 0.089,-0.214 0.299,-0.344 0.522,-0.344 v 0 c 0.071,0 0.143,0.014 0.212,0.041 v 0 c 0.704,0.28 1.402,0.572 2.09,0.877 v 0 c 0.283,0.126 0.41,0.451 0.281,0.729 v 0 c -0.095,0.203 -0.299,0.324 -0.513,0.324 v 0 c -0.078,0 -0.156,-0.016 -0.232,-0.05 m -50.767,-1.316 c -0.115,-0.282 0.027,-0.603 0.315,-0.715 v 0 c 0.706,-0.276 1.414,-0.537 2.127,-0.787 v 0 c 0.062,-0.021 0.127,-0.031 0.189,-0.031 v 0 c 0.232,0 0.449,0.14 0.531,0.365 v 0 c 0.104,0.286 -0.05,0.601 -0.342,0.704 v 0 c -0.7,0.244 -1.396,0.501 -2.088,0.771 v 0 c -0.069,0.027 -0.139,0.04 -0.209,0.04 v 0 c -0.223,0 -0.435,-0.132 -0.523,-0.347 m 46.635,-0.327 c -0.697,-0.249 -1.4,-0.485 -2.11,-0.71 v 0 c -0.296,-0.092 -0.458,-0.403 -0.364,-0.693 v 0 c 0.078,-0.233 0.299,-0.381 0.537,-0.381 v 0 c 0.057,0 0.115,0.01 0.172,0.027 v 0 c 0.723,0.229 1.44,0.469 2.149,0.722 v 0 c 0.293,0.103 0.444,0.42 0.336,0.705 v 0 c -0.082,0.224 -0.298,0.363 -0.528,0.363 v 0 c -0.063,0 -0.128,-0.011 -0.192,-0.033 m -42.407,-1.193 c -0.094,-0.29 0.071,-0.599 0.366,-0.691 v 0 c 0.724,-0.224 1.45,-0.435 2.179,-0.634 v 0 c 0.051,-0.013 0.101,-0.019 0.151,-0.019 v 0 c 0.247,0 0.473,0.16 0.542,0.403 v 0 c 0.083,0.292 -0.091,0.596 -0.39,0.677 v 0 c -0.717,0.195 -1.43,0.402 -2.142,0.622 v 0 c -0.056,0.018 -0.113,0.026 -0.169,0.026 v 0 c -0.239,0 -0.46,-0.15 -0.537,-0.384 m 38.16,-0.15 c -0.713,-0.198 -1.433,-0.384 -2.156,-0.559 v 0 c -0.303,-0.072 -0.488,-0.371 -0.412,-0.666 v 0 c 0.062,-0.251 0.291,-0.419 0.546,-0.419 v 0 c 0.044,0 0.089,0.005 0.133,0.016 v 0 c 0.74,0.177 1.472,0.367 2.198,0.569 v 0 c 0.299,0.083 0.473,0.388 0.386,0.68 v 0 c -0.069,0.242 -0.294,0.4 -0.54,0.4 v 0 c -0.051,0 -0.103,-0.007 -0.155,-0.021 m -33.832,-1.069 c -0.073,-0.296 0.113,-0.593 0.416,-0.664 v 0 c 0.738,-0.172 1.478,-0.334 2.219,-0.481 v 0 c 0.037,-0.007 0.076,-0.011 0.113,-0.011 v 0 c 0.262,0 0.496,0.179 0.552,0.441 v 0 c 0.061,0.298 -0.136,0.588 -0.44,0.649 v 0 c -0.728,0.145 -1.456,0.302 -2.18,0.473 v 0 c -0.043,0.009 -0.086,0.013 -0.128,0.013 v 0 c -0.257,0 -0.488,-0.167 -0.552,-0.42 m 29.499,0.025 c -0.727,-0.15 -1.458,-0.287 -2.193,-0.412 v 0 c -0.307,-0.053 -0.512,-0.338 -0.458,-0.637 v 0 c 0.047,-0.268 0.286,-0.456 0.554,-0.456 v 0 c 0.031,0 0.064,0.003 0.096,0.008 v 0 c 0.748,0.127 1.492,0.267 2.232,0.42 v 0 c 0.305,0.062 0.5,0.353 0.436,0.651 v 0 c -0.057,0.261 -0.295,0.437 -0.554,0.437 v 0 c -0.038,0 -0.075,-0.003 -0.113,-0.011 m -25.093,-0.942 c -0.051,-0.299 0.156,-0.583 0.463,-0.633 v 0 c 0.747,-0.123 1.496,-0.232 2.246,-0.33 v 0 c 0.026,-0.003 0.051,-0.005 0.075,-0.005 v 0 c 0.278,0 0.52,0.202 0.558,0.478 v 0 c 0.041,0.301 -0.176,0.578 -0.485,0.618 v 0 c -0.736,0.097 -1.474,0.205 -2.208,0.324 v 0 c -0.033,0.006 -0.065,0.009 -0.096,0.009 v 0 c -0.266,0 -0.506,-0.192 -0.553,-0.461 m 20.694,0.192 c -0.738,-0.101 -1.48,-0.19 -2.224,-0.265 v 0 c -0.309,-0.033 -0.532,-0.304 -0.5,-0.605 v 0 c 0.03,-0.284 0.275,-0.493 0.558,-0.493 v 0 c 0.021,0 0.041,0.001 0.061,0.002 v 0 c 0.755,0.079 1.509,0.168 2.26,0.271 v 0 c 0.307,0.043 0.522,0.32 0.479,0.622 v 0 c -0.038,0.274 -0.282,0.474 -0.552,0.474 v 0 c -0.027,0 -0.055,-0.002 -0.082,-0.006 m -16.233,-0.808 c -0.03,-0.302 0.196,-0.571 0.506,-0.601 v 0 c 0.755,-0.073 1.51,-0.133 2.264,-0.179 v 0 c 0.013,-0.001 0.025,-0.001 0.038,-0.001 v 0 c 0.294,0 0.542,0.223 0.56,0.515 v 0 c 0.02,0.303 -0.215,0.566 -0.526,0.585 v 0 c -0.742,0.045 -1.485,0.104 -2.226,0.175 v 0 c -0.02,0.002 -0.04,0.003 -0.06,0.003 v 0 c -0.28,0 -0.526,-0.215 -0.556,-0.497 m 11.779,0.351 c -0.743,-0.051 -1.488,-0.091 -2.235,-0.119 v 0 c -0.311,-0.011 -0.554,-0.267 -0.542,-0.57 v 0 c 0.012,-0.297 0.262,-0.531 0.562,-0.531 v 0 h 0.021 c 0.76,0.029 1.518,0.069 2.274,0.121 v 0 c 0.31,0.022 0.543,0.285 0.522,0.589 v 0 c -0.021,0.288 -0.272,0.512 -0.555,0.512 v 0 c -0.016,0 -0.031,-0.001 -0.047,-0.002 m -7.286,-0.669 c -0.009,-0.304 0.236,-0.558 0.545,-0.567 v 0 c 0.678,-0.019 1.353,-0.029 2.026,-0.029 v 0 h 0.248 c 0.31,0.002 0.561,0.251 0.56,0.555 v 0 c -0.004,0.302 -0.254,0.546 -0.564,0.546 v 0 h -0.003 l -0.241,-0.001 c -0.662,0 -1.326,0.011 -1.991,0.03 v 0 c -0.353,-0.009 -0.572,-0.23 -0.58,-0.534"
           transform="matrix(1.3333333,0,0,-1.3333333,0,416.152)"
           style="fill:url(#linearGradient50);stroke:none"
           id="path50" />
      </g>
      <path
         id="path52-4"
         d="M 0,0 0.377,5.88 5.646,5.542 5.27,-0.337 Z"
         style="fill:#00629b;fill-opacity:1;fill-rule:nonzero;stroke:none"
         transform="matrix(0.07252593,0,0,-0.07252593,22.876097,11.17578)"
         clip-path="url(#clipPath53)" />
      <path
         id="path54"
         d="M 0,0 2.946,5.103 7.52,2.462 4.573,-2.64 Z"
         style="fill:#78be20;fill-opacity:1;fill-rule:nonzero;stroke:none"
         transform="matrix(0.07252593,0,0,-0.07252593,23.143043,7.8282589)"
         clip-path="url(#clipPath55-7)" />
      <path
         id="path60"
         d="M 0,0 0.405,6.321 6.07,5.958 5.665,-0.363 Z"
         style="fill:#00629b;fill-opacity:1;fill-rule:nonzero;stroke:none"
         transform="matrix(0.07252593,0,0,-0.07252593,19.316807,9.1153762)"
         clip-path="url(#clipPath61-2)" />
      <path
         id="path64-2"
         d="m 18.355664,4.9322266 c -5.14e-4,0.024804 0.01922,0.045474 0.04417,0.045909 v 0 c 0.05802,0.00115 0.117637,0.00435 0.176891,0.0095 v 0 c 0.0013,1.451e-4 0.0027,1.451e-4 0.004,1.451e-4 v 0 c 0.02314,0 0.04272,-0.017697 0.04482,-0.041122 v 0 c 0.0021,-0.024804 -0.01617,-0.046634 -0.04098,-0.04881 v 0 c -0.06128,-0.00537 -0.122859,-0.0087 -0.183055,-0.00979 v 0 c -0.0015,-2.262e-4 -0.003,-2.879e-4 -0.0045,-2.879e-4 v 0 c -0.02219,0 -0.0409,0.021178 -0.04134,0.044459 m -0.137146,-0.04192 c -0.06049,0.00275 -0.121916,0.00769 -0.182548,0.014578 v 0 c -0.02466,0.0029 -0.04236,0.025167 -0.03967,0.04997 v 0 c 0.0027,0.022918 0.02219,0.039889 0.04482,0.039889 v 0 c 0.0017,0 0.0033,0 0.0051,-2.261e-4 v 0 c 0.05853,-0.00675 0.117928,-0.011459 0.176384,-0.014142 v 0 c 0.0248,-0.00109 0.04409,-0.022193 0.04293,-0.047069 v 0 c -0.0011,-0.024804 -0.02292,-0.043008 -0.04671,-0.043008 v 0 c -1.45e-4,0 -2.26e-4,0 -3.7e-4,0 m 0.496368,0.067086 c -0.0036,0.024586 0.01327,0.047577 0.03793,0.051276 v 0 c 0.0573,0.0087 0.116042,0.019436 0.174425,0.032129 v 0 c 0.0033,6.579e-4 0.0064,9.457e-4 0.0096,9.457e-4 v 0 c 0.02082,0 0.03946,-0.014432 0.04395,-0.035538 v 0 c 0.0053,-0.024224 -0.01015,-0.048157 -0.03452,-0.053524 v 0 c -0.06034,-0.012983 -0.120828,-0.024151 -0.180009,-0.033145 v 0 c -0.002,-2.878e-4 -0.0039,-3.7e-4 -0.0058,-3.7e-4 v 0 c -0.02205,0 -0.04207,0.015522 -0.04562,0.038221 m -0.859795,-0.025892 c -0.06005,0.011024 -0.120248,0.023934 -0.178994,0.038584 v 0 c -0.02415,0.00602 -0.03873,0.030533 -0.03278,0.054685 v 0 c 0.0052,0.020452 0.0235,0.034087 0.04381,0.034087 v 0 c 0.0036,0 0.0072,-3.7e-4 0.01088,-0.00132 v 0 c 0.05679,-0.014142 0.115026,-0.026689 0.173192,-0.037351 v 0 c 0.02444,-0.00435 0.04076,-0.027923 0.03619,-0.052291 v 0 c -0.0039,-0.021975 -0.02379,-0.036988 -0.04504,-0.036988 v 0 c -0.0024,0 -0.0049,2.261e-4 -0.0073,5.756e-4 m 1.213287,0.096315 c -0.0067,0.024006 0.0073,0.04881 0.03126,0.055627 v 0 c 0.05628,0.015666 0.112778,0.033072 0.169856,0.052364 v 0 c 0.0048,0.00167 0.0096,0.00247 0.01451,0.00247 v 0 c 0.01871,0 0.03626,-0.011821 0.04265,-0.030606 v 0 C 19.33441,5.084071 19.32191,5.058469 19.2983,5.050491 v 0 C 19.2397,5.030619 19.181533,5.012633 19.12373,4.996532 v 0 c -0.004,-0.00109 -0.008,-0.0016 -0.01189,-0.0016 v 0 c -0.01987,0 -0.038,0.012909 -0.04359,0.032854 m -1.568228,-0.00798 c -0.0578,0.01842 -0.115896,0.038801 -0.172684,0.060632 v 0 c -0.02321,0.00892 -0.03488,0.034957 -0.02589,0.058238 v 0 c 0.0069,0.017915 0.02393,0.028865 0.04199,0.028865 v 0 c 0.0054,0 0.01095,-9.457e-4 0.01617,-0.00297 v 0 c 0.05519,-0.02125 0.111618,-0.04105 0.167753,-0.058746 v 0 c 0.02364,-0.00761 0.03677,-0.032854 0.0293,-0.056643 v 0 c -0.0062,-0.019146 -0.02379,-0.031549 -0.04293,-0.031549 v 0 c -0.0045,0 -0.0091,7.195e-4 -0.01371,0.00218 m 1.911058,0.1190875 c -0.0093,0.023063 0.002,0.049318 0.02509,0.058528 v 0 c 0.05418,0.021685 0.108716,0.045039 0.163618,0.070133 v 0 c 0.0061,0.00276 0.01248,0.00406 0.01886,0.00406 v 0 c 0.01704,0 0.03336,-0.00972 0.04091,-0.026254 v 0 c 0.0103,-0.022701 3.7e-4,-0.04939 -0.02219,-0.059689 v 0 c -0.05628,-0.025819 -0.11227,-0.049753 -0.167752,-0.071946 v 0 c -0.0054,-0.00225 -0.0111,-0.00326 -0.01668,-0.00326 v 0 c -0.01777,0 -0.03474,0.010806 -0.04185,0.02843 m -2.25251,0.012111 c -0.05556,0.025021 -0.110312,0.051711 -0.164489,0.079561 v 0 c -0.02212,0.011459 -0.03075,0.038656 -0.01936,0.060777 v 0 c 0.0081,0.015448 0.02386,0.024369 0.04011,0.024369 v 0 c 0.007,0 0.01407,-0.00167 0.02067,-0.005 v 0 c 0.05265,-0.02727 0.106178,-0.053161 0.160209,-0.077603 v 0 c 0.02263,-0.010226 0.03271,-0.036916 0.02234,-0.059544 v 0 c -0.0074,-0.016681 -0.02386,-0.026617 -0.04098,-0.026617 v 0 c -0.0062,0 -0.01255,0.0013 -0.01849,0.00406 m 2.582068,0.1335203 c -0.01146,0.02212 -0.0027,0.049317 0.01944,0.060704 v 0 c 0.05193,0.026762 0.104147,0.055047 0.156801,0.084928 v 0 c 0.007,0.00413 0.01472,0.00595 0.02227,0.00595 v 0 c 0.01574,0 0.0309,-0.00805 0.03924,-0.022701 v 0 c 0.01233,-0.021613 0.0046,-0.049245 -0.0169,-0.061502 v 0 c -0.05367,-0.030533 -0.107121,-0.059471 -0.16021,-0.086813 v 0 c -0.0066,-0.00334 -0.01356,-0.00493 -0.02053,-0.00493 v 0 c -0.01632,0 -0.03213,0.00885 -0.04011,0.024369 m -2.906477,0.03416 c -0.05251,0.030678 -0.104292,0.062517 -0.155278,0.095734 v 0 c -0.02089,0.013562 -0.02676,0.041485 -0.01327,0.0623 v 0 c 0.0086,0.013344 0.02313,0.020526 0.03786,0.020526 v 0 c 0.0083,0 0.0169,-0.00232 0.02451,-0.00718 v 0 c 0.0499,-0.032347 0.100303,-0.063605 0.151724,-0.093558 v 0 c 0.02147,-0.012547 0.02879,-0.040179 0.0161,-0.061719 v 0 c -0.0083,-0.014216 -0.02321,-0.022265 -0.0388,-0.022265 v 0 c -0.0077,0 -0.01559,0.00195 -0.02285,0.00617 m 3.22298,0.1391047 c -0.01552,0.019436 -0.01226,0.047795 0.0072,0.063243 v 0 c 0.04468,0.035683 0.08986,0.074484 0.134101,0.1153887 v 0 c 0.0087,0.00805 0.01965,0.011967 0.0306,0.011967 v 0 c 0.01211,0 0.02422,-0.00486 0.03315,-0.014506 v 0 c 0.0169,-0.018205 0.01581,-0.046779 -0.0025,-0.063605 v 0 c -0.04598,-0.0425 -0.09269,-0.082825 -0.13925,-0.1196677 v 0 c -0.0083,-0.0066 -0.01813,-0.00979 -0.028,-0.00979 v 0 c -0.0132,0 -0.02633,0.0058 -0.03525,0.016971 m -3.528821,0.059254 c -0.04961,0.035393 -0.09835,0.071656 -0.146285,0.1088615 v 0 c -0.01965,0.015376 -0.02321,0.043661 -0.0079,0.063315 v 0 c 0.0088,0.011387 0.02212,0.017407 0.03568,0.017407 v 0 c 0.0096,0 0.01936,-0.00305 0.02756,-0.0095 v 0 c 0.04692,-0.036408 0.09465,-0.072091 0.143239,-0.1066131 v 0 c 0.02023,-0.014432 0.02502,-0.042645 0.01052,-0.06288 v 0 c -0.0088,-0.012329 -0.02277,-0.01893 -0.03692,-0.01893 v 0 c -0.009,0 -0.01806,0.00268 -0.02589,0.00834 m 3.79811,0.1800819 c -0.01791,0.017261 -0.01849,0.045764 -0.0014,0.063823 v 0 c 0.03974,0.041412 0.07963,0.085435 0.119377,0.1318521 v 0 c 0.0089,0.010372 0.02147,0.015666 0.03416,0.015666 v 0 c 0.01044,0 0.02089,-0.00355 0.02937,-0.010806 v 0 c 0.01886,-0.016245 0.02103,-0.044604 0.0049,-0.063533 v 0 c -0.0409,-0.04765 -0.08195,-0.092906 -0.122714,-0.1355508 v 0 c -0.0088,-0.00921 -0.02067,-0.013924 -0.03256,-0.013924 v 0 c -0.01117,0 -0.02241,0.00413 -0.03119,0.012475 m -4.086256,0.043588 c -0.04663,0.039164 -0.0924,0.079053 -0.137436,0.1197403 v 0 c -0.01849,0.016609 -0.02002,0.045111 -0.0033,0.063605 v 0 c 0.0089,0.00994 0.02118,0.014868 0.03351,0.014868 v 0 c 0.01066,0 0.02154,-0.00377 0.03017,-0.011531 v 0 c 0.04424,-0.039817 0.08935,-0.079199 0.135188,-0.1177098 v 0 c 0.01893,-0.016027 0.02139,-0.044458 0.0054,-0.063605 v 0 c -0.0088,-0.010588 -0.02161,-0.015955 -0.03438,-0.015955 v 0 c -0.0103,0 -0.02067,0.00348 -0.02908,0.01059 m 4.324648,0.2268612 c -0.01973,0.015158 -0.0235,0.043443 -0.0083,0.063243 v 0 c 0.03554,0.046199 0.07071,0.094211 0.105017,0.1438915 v 0 c 0.0088,0.012619 0.02292,0.019364 0.03721,0.019364 v 0 c 0.0088,0 0.01777,-0.00254 0.0256,-0.00798 v 0 c 0.02038,-0.014142 0.02553,-0.042282 0.01131,-0.062735 v 0 c -0.03525,-0.05094 -0.07123,-0.1000396 -0.107561,-0.1474716 v 0 c -0.0089,-0.011603 -0.02234,-0.017697 -0.03583,-0.017697 v 0 c -0.0096,0 -0.01922,0.00305 -0.02742,0.00936 m -4.59488,0.017261 c -0.04373,0.04221 -0.08667,0.085 -0.128733,0.1282984 v 0 c -0.01733,0.017841 -0.01697,0.046344 8.63e-4,0.06375 v 0 c 0.0087,0.00849 0.02016,0.012693 0.03148,0.012693 v 0 c 0.01168,0 0.02343,-0.0045 0.03227,-0.013634 v 0 c 0.04134,-0.0425 0.08369,-0.08471 0.126703,-0.1263402 v 0 c 0.01791,-0.017189 0.01849,-0.045764 0.0012,-0.063605 v 0 c -0.0088,-0.00928 -0.02067,-0.013924 -0.03249,-0.013924 v 0 c -0.01124,0 -0.02248,0.00421 -0.03126,0.012765 m -0.25355,0.2604406 c -0.04127,0.044893 -0.08159,0.090077 -0.120901,0.1354783 v 0 c -0.01639,0.018856 -0.01443,0.047359 0.0044,0.063605 v 0 c 0.0086,0.0074 0.01915,0.011095 0.02959,0.011095 v 0 c 0.01255,0 0.02524,-0.00522 0.03402,-0.015522 v 0 c 0.03895,-0.044821 0.07869,-0.089424 0.119232,-0.1337377 v 0 c 0.0169,-0.018349 0.01567,-0.046852 -0.0027,-0.063533 v 0 c -0.0086,-0.00805 -0.01951,-0.011967 -0.03039,-0.011967 v 0 c -0.01218,0 -0.02437,0.00493 -0.03322,0.014578 m 5.057305,0.016245 c -0.02118,0.013127 -0.0277,0.040905 -0.01472,0.062082 v 0 c 0.03082,0.049825 0.06085,0.1011011 0.08986,0.1538274 v 0 c 0.0082,0.014796 0.02364,0.023208 0.03953,0.023208 v 0 c 0.0073,0 0.01487,-0.00175 0.02169,-0.00558 v 0 c 0.02176,-0.011967 0.02981,-0.039382 0.0177,-0.061139 v 0 c -0.02966,-0.054032 -0.06049,-0.1066133 -0.09196,-0.157744 v 0 c -0.0086,-0.013708 -0.02343,-0.021323 -0.03858,-0.021323 v 0 c -0.008,0 -0.0161,0.00218 -0.0235,0.00667 m -5.29548,0.2579747 c -0.03895,0.047214 -0.07681,0.094501 -0.113721,0.1416431 v 0 c -0.01538,0.01951 -0.01189,0.047867 0.0076,0.063243 v 0 c 0.0083,0.00653 0.01813,0.00957 0.02785,0.00957 v 0 c 0.01334,0 0.02662,-0.00595 0.03547,-0.017333 v 0 c 0.03648,-0.046562 0.0739,-0.093268 0.112271,-0.1398299 v 0 c 0.01588,-0.01922 0.01313,-0.047577 -0.0061,-0.063388 v 0 c -0.0084,-0.00696 -0.01857,-0.010298 -0.02872,-0.010298 v 0 c -0.01298,0 -0.02582,0.00558 -0.03467,0.016391 m 5.473242,0.0557 c -0.02241,0.010806 -0.03184,0.037713 -0.02103,0.060196 v 0 c 0.0256,0.052871 0.0499,0.1070483 0.07296,0.1621679 v 0 c 0.0073,0.017261 0.02401,0.027705 0.04163,0.027705 v 0 c 0.0059,0 0.01175,-0.00109 0.01741,-0.00348 v 0 c 0.02299,-0.00957 0.03373,-0.035973 0.02422,-0.058963 v 0 c -0.02364,-0.056643 -0.04888,-0.1121978 -0.07499,-0.1665922 v 0 c -0.0079,-0.016173 -0.02393,-0.025529 -0.04061,-0.025529 v 0 c -0.0066,0 -0.01327,0.00146 -0.01958,0.0045 m -5.697274,0.2299796 c -0.03684,0.0491 -0.07238,0.098055 -0.107121,0.1465024 v 0 c -0.01443,0.020236 -0.0097,0.048447 0.01051,0.062952 v 0 c 0.008,0.00566 0.01704,0.00834 0.02618,0.00834 v 0 c 0.01407,0 0.02792,-0.00653 0.0367,-0.018856 v 0 c 0.03423,-0.048012 0.06955,-0.096387 0.105888,-0.1450518 v 0 c 0.01494,-0.019872 0.01088,-0.048157 -0.0091,-0.063025 v 0 c -0.0081,-0.00609 -0.01748,-0.00899 -0.02691,-0.00899 v 0 c -0.01371,0 -0.02734,0.00624 -0.03612,0.018133 m 5.840585,0.1007385 c -0.02343,0.00827 -0.03583,0.034015 -0.02756,0.057513 v 0 c 0.0198,0.05628 0.03808,0.1132129 0.05418,0.1690579 v 0 c 0.0057,0.0198 0.02364,0.032637 0.0433,0.032637 v 0 c 0.0041,0 0.0083,-5.757e-4 0.0124,-0.00175 v 0 c 0.02393,-0.00682 0.03771,-0.031766 0.0309,-0.0557 v 0 c -0.01646,-0.057586 -0.03525,-0.1162591 -0.0557,-0.1742798 v 0 c -0.0065,-0.018422 -0.02386,-0.030171 -0.04243,-0.030171 v 0 c -0.005,0 -0.01008,8.634e-4 -0.01508,0.00268 M 15.043353,7.100503 c -0.03481,0.051058 -0.06832,0.1014637 -0.100666,0.1508539 v 0 c -0.01363,0.020815 -0.0078,0.048737 0.01305,0.062445 v 0 c 0.0075,0.00493 0.0161,0.00725 0.02451,0.00725 v 0 c 0.01472,0 0.02908,-0.00711 0.03779,-0.020307 v 0 c 0.03206,-0.048955 0.06527,-0.09878 0.09987,-0.1493308 v 0 c 0.014,-0.020526 0.0087,-0.04852 -0.01189,-0.062662 v 0 c -0.0078,-0.00529 -0.01661,-0.00783 -0.02538,-0.00783 v 0 c -0.01436,0 -0.0285,0.00689 -0.03728,0.019582 m 6.156218,0.1502737 c -0.0243,0.00537 -0.03953,0.029518 -0.03416,0.053742 v 0 c 0.01277,0.057223 0.02386,0.1158964 0.033,0.1742073 v 0 c 0.0034,0.022265 0.02256,0.038076 0.04439,0.038076 v 0 c 0.0022,0 0.0047,-1.451e-4 0.0071,-5.798e-4 v 0 c 0.02451,-0.00377 0.04134,-0.026835 0.0375,-0.051421 v 0 c -0.0095,-0.060269 -0.02089,-0.1206831 -0.03402,-0.1798643 v 0 c -0.0048,-0.02093 -0.0234,-0.03529 -0.04378,-0.03529 v 0 c -0.0033,0 -0.0067,3.618e-4 -0.01001,0.00116 m -6.354721,0.1533198 c -0.03322,0.053089 -0.06491,0.1047274 -0.09494,0.1546978 v 0 c -0.01291,0.021323 -0.006,0.049028 0.0153,0.061865 v 0 c 0.0073,0.00435 0.0153,0.00638 0.02321,0.00638 v 0 c 0.0153,0 0.03024,-0.00776 0.03866,-0.02183 v 0 c 0.02974,-0.049463 0.06107,-0.100666 0.09399,-0.1531023 v 0 c 0.01327,-0.021177 0.007,-0.048955 -0.01421,-0.062155 v 0 c -0.0075,-0.00471 -0.01581,-0.00689 -0.02401,-0.00689 v 0 c -0.01501,0 -0.02959,0.00747 -0.038,0.021032 m 6.415933,0.2017672 c -0.0248,0.00232 -0.04315,0.024151 -0.04083,0.048883 v 0 c 0.0052,0.058746 0.0085,0.1182897 0.0098,0.1768907 v 0 c 5.14e-4,0.024586 0.02053,0.044096 0.04504,0.044096 v 0 h 9.45e-4 c 0.02488,-5.797e-4 0.0446,-0.021178 0.0441,-0.046054 v 0 c -0.0013,-0.060632 -0.0047,-0.1221337 -0.01015,-0.1829104 v 0 c -0.002,-0.023281 -0.02219,-0.041122 -0.04453,-0.041122 v 0 c -0.0015,0 -0.0029,7.25e-5 -0.0044,2.179e-4 m -6.603051,0.1093691 c -0.0322,0.055845 -0.06194,0.1086438 -0.08928,0.1579615 v 0 c -0.01211,0.021758 -0.0044,0.049245 0.01741,0.061284 v 0 c 0.007,0.00392 0.01451,0.00566 0.02183,0.00566 v 0 c 0.01588,0 0.03126,-0.00834 0.03938,-0.023136 v 0 c 0.02727,-0.049028 0.05679,-0.1013187 0.08877,-0.1567285 v 0 c 0.01248,-0.021468 0.005,-0.0491 -0.01654,-0.061574 v 0 c -0.0072,-0.00413 -0.01494,-0.00609 -0.02256,-0.00609 v 0 c -0.01559,0 -0.03068,0.00812 -0.03902,0.022628 m 6.569689,0.2935124 c -0.0028,0.058456 -0.0077,0.1177821 -0.01451,0.1764556 v 0 c -0.0029,0.024659 0.0148,0.047069 0.03953,0.049898 v 0 c 0.0017,2.898e-4 0.0036,3.618e-4 0.0053,3.618e-4 v 0 c 0.02248,0 0.04199,-0.016899 0.04468,-0.039817 v 0 c 0.0071,-0.060704 0.01211,-0.1220612 0.01509,-0.1826203 v 0 c 0.0012,-0.024804 -0.01806,-0.045909 -0.04294,-0.047142 v 0 c -8.01e-4,-7.25e-5 -0.0017,-7.25e-5 -0.0025,-7.25e-5 v 0 c -0.02502,0 -0.04352,0.018929 -0.04468,0.042935 m -6.745563,0.023934 -0.05947,0.1125602 c -0.0116,0.021975 -0.0032,0.049173 0.01886,0.060777 v 0 c 0.0067,0.00363 0.01392,0.00522 0.02089,0.00522 v 0 c 0.01632,0 0.03184,-0.0087 0.03996,-0.024079 v 0 l 0.05925,-0.1120525 c 0.01175,-0.021975 0.0035,-0.049245 -0.01857,-0.060922 v 0 c -0.0067,-0.00363 -0.014,-0.00537 -0.02118,-0.00537 v 0 c -0.0161,0 -0.03162,0.0087 -0.03974,0.023861 m 6.704442,0.3274546 c -0.01081,0.057441 -0.02372,0.1155338 -0.03858,0.1727567 v 0 c -0.0064,0.024079 0.0081,0.048665 0.0322,0.054902 v 0 c 0.0038,0.00102 0.0075,0.00152 0.01131,0.00152 v 0 c 0.02002,0 0.03837,-0.01349 0.04366,-0.033724 v 0 c 0.0153,-0.059181 0.02879,-0.1193777 0.04003,-0.1787764 v 0 c 0.0046,-0.024441 -0.01153,-0.04794 -0.0359,-0.052581 v 0 c -0.0028,-5.078e-4 -0.0055,-7.977e-4 -0.0083,-7.977e-4 v 0 c -0.02111,0 -0.04025,0.015013 -0.04446,0.036698 m -0.08892,0.3426125 c -0.01871,0.056208 -0.03938,0.1121251 -0.06128,0.1663745 v 0 c -0.0093,0.023063 0.0018,0.049245 0.0248,0.058673 v 0 c 0.0055,0.00225 0.01124,0.00326 0.0169,0.00326 v 0 c 0.01784,0 0.03474,-0.010589 0.04178,-0.028067 v 0 c 0.02277,-0.05599 0.04402,-0.1137932 0.06331,-0.1717414 v 0 c 0.0079,-0.023644 -0.0049,-0.049245 -0.0285,-0.057078 v 0 c -0.0046,-0.00152 -0.0094,-0.00225 -0.01414,-0.00225 v 0 c -0.01878,0 -0.03648,0.011967 -0.04286,0.030824 m -0.13294,0.328615 c -0.02495,0.052219 -0.05229,0.1053076 -0.0813,0.1577439 v 0 c -0.01204,0.021758 -0.0041,0.049245 0.01762,0.061284 v 0 c 0.007,0.00384 0.01443,0.00551 0.02176,0.00551 v 0 c 0.01596,0 0.03133,-0.00827 0.03953,-0.023136 v 0 c 0.02988,-0.054032 0.05802,-0.1087889 0.08377,-0.1626031 v 0 c 0.01073,-0.022483 0.0012,-0.049463 -0.02132,-0.060052 v 0 c -0.0062,-0.00297 -0.01277,-0.00442 -0.01929,-0.00442 v 0 c -0.01675,0 -0.033,0.00943 -0.04076,0.025674 m -0.171458,0.310847 c -0.03097,0.049318 -0.06375,0.09878 -0.09834,0.148243 v 0 c -0.01429,0.02038 -0.0094,0.04852 0.0111,0.062735 v 0 c 0.0078,0.00544 0.01683,0.00812 0.02575,0.00812 v 0 c 0.01422,0 0.02821,-0.00667 0.03699,-0.019219 v 0 c 0.03554,-0.050696 0.06912,-0.1013912 0.100811,-0.1518692 v 0 c 0.01327,-0.021178 0.0069,-0.048955 -0.01414,-0.062155 v 0 c -0.0075,-0.00471 -0.01588,-0.00696 -0.02408,-0.00696 v 0 c -0.01501,0 -0.02959,0.00754 -0.03808,0.021105 m -0.20409,0.2912641 c -0.03576,0.046126 -0.07318,0.09218 -0.112342,0.1382344 v 0 c -0.01617,0.018929 -0.01392,0.047432 0.0052,0.063533 v 0 c 0.0085,0.00718 0.01886,0.010734 0.02915,0.010734 v 0 c 0.01269,0 0.02546,-0.00544 0.0343,-0.015883 v 0 c 0.04003,-0.047069 0.07833,-0.094139 0.115026,-0.141353 v 0 c 0.01523,-0.019654 0.0116,-0.04794 -0.008,-0.063243 v 0 c -0.0082,-0.00631 -0.01799,-0.00943 -0.02763,-0.00943 v 0 c -0.01349,0 -0.02676,0.00595 -0.03568,0.017406 m -0.230632,0.2716821 c -0.03967,0.042863 -0.08087,0.085581 -0.123802,0.1285155 v 0 c -0.01762,0.01748 -0.01762,0.04605 0,0.06368 v 0 c 0.0088,0.0088 0.02031,0.0132 0.03184,0.0132 v 0 c 0.01146,0 0.02306,-0.0044 0.03191,-0.0132 v 0 c 0.04366,-0.04359 0.0858,-0.08732 0.126196,-0.1309818 v 0 c 0.01697,-0.018277 0.01574,-0.046779 -0.0025,-0.06375 v 0 c -0.0087,-0.00798 -0.01973,-0.011967 -0.03061,-0.011967 v 0 c -0.01211,0 -0.02422,0.00486 -0.03307,0.014505 m -0.25239,0.2523178 c -0.04286,0.03996 -0.0871,0.07971 -0.132868,0.11945 v 0 c -0.01871,0.01632 -0.02074,0.04475 -0.0044,0.06361 v 0 c 0.0089,0.01023 0.02147,0.01545 0.03402,0.01545 v 0 c 0.01052,0 0.02103,-0.0036 0.02952,-0.01102 v 0 c 0.04649,-0.04032 0.09153,-0.08087 0.135187,-0.121409 v 0 c 0.01821,-0.01697 0.01922,-0.04555 0.0022,-0.06382 v 0 c -0.0089,-0.0094 -0.02096,-0.01422 -0.03307,-0.01422 v 0 c -0.01102,0 -0.02205,0.0039 -0.03061,0.01197 m -0.269652,0.234476 c -0.04547,0.03713 -0.09225,0.07398 -0.140266,0.110892 v 0 c -0.01973,0.01516 -0.0235,0.04337 -0.0084,0.06317 v 0 c 0.0089,0.01153 0.02234,0.01762 0.03583,0.01762 v 0 c 0.0096,0 0.01915,-0.003 0.02741,-0.0093 v 0 c 0.04881,-0.03742 0.09624,-0.07499 0.142367,-0.11256 v 0 c 0.01929,-0.01581 0.02219,-0.04417 0.0065,-0.06346 v 0 c -0.0089,-0.01088 -0.0219,-0.01654 -0.03503,-0.01654 v 0 c -0.01001,0 -0.02009,0.0033 -0.02843,0.01015 m -0.283795,0.218013 c -0.04765,0.03452 -0.09639,0.0689 -0.146284,0.103277 v 0 c -0.02045,0.01407 -0.02567,0.04214 -0.0116,0.06259 v 0 c 0.0088,0.01269 0.02285,0.01958 0.03728,0.01958 v 0 c 0.0088,0 0.01755,-0.0025 0.02546,-0.0079 v 0 c 0.0507,-0.03481 0.09994,-0.06963 0.148098,-0.104655 v 0 c 0.02016,-0.01465 0.02466,-0.04279 0.01001,-0.06295 v 0 c -0.0088,-0.01211 -0.02256,-0.01857 -0.03648,-0.01857 v 0 c -0.0092,0 -0.01849,0.0028 -0.02647,0.0086 m -0.294963,0.202928 c -0.04932,0.03227 -0.09958,0.06426 -0.151072,0.09617 v 0 c -0.0211,0.0132 -0.02763,0.04098 -0.01451,0.06208 v 0 c 0.0086,0.01385 0.02321,0.0214 0.03829,0.0214 v 0 c 0.0082,0 0.01632,-0.0022 0.02372,-0.0068 v 0 c 0.05207,-0.03235 0.102987,-0.06484 0.152885,-0.09747 v 0 c 0.02089,-0.01349 0.02669,-0.04148 0.01305,-0.0623 v 0 c -0.0086,-0.01327 -0.02299,-0.02053 -0.03771,-0.02053 v 0 c -0.0085,0 -0.01704,0.0024 -0.02466,0.0075 m -0.304464,0.189438 c -0.0507,0.0301 -0.102334,0.05998 -0.15506,0.08986 v 0 c -0.02169,0.01226 -0.0293,0.03982 -0.01704,0.0615 v 0 c 0.0083,0.01458 0.02364,0.02285 0.03924,0.02285 v 0 c 0.0075,0 0.01516,-0.0019 0.02219,-0.0059 v 0 c 0.05338,-0.03017 0.105525,-0.06049 0.156728,-0.09102 v 0 c 0.0214,-0.01269 0.02843,-0.0404 0.01559,-0.06172 v 0 c -0.0083,-0.01414 -0.02328,-0.02205 -0.03858,-0.02205 v 0 c -0.0078,0 -0.01581,0.0021 -0.02306,0.0065 m -0.312007,0.176819 c -0.05186,0.02828 -0.104582,0.05628 -0.158396,0.08435 v 0 c -0.02205,0.01139 -0.03068,0.03858 -0.01915,0.06071 v 0 c 0.0081,0.01545 0.02379,0.02422 0.03996,0.02422 v 0 c 0.007,0 0.01422,-0.0016 0.02089,-0.005 v 0 c 0.05418,-0.02829 0.107483,-0.05664 0.159774,-0.08507 v 0 c 0.0219,-0.01189 0.02995,-0.03924 0.01813,-0.06107 v 0 c -0.0082,-0.01509 -0.02372,-0.02357 -0.03974,-0.02357 v 0 c -0.0073,0 -0.01465,0.0017 -0.02147,0.0054"
         style="fill:url(#linearGradient64-7);stroke:none;stroke-width:0.072526" />
      <path
         id="path65"
         d="M 0,0 2.204,4.764 6.474,2.789 4.27,-1.975 Z"
         style="fill:#00629b;fill-opacity:1;fill-rule:nonzero;stroke:none"
         transform="matrix(0.07252593,0,0,-0.07252593,14.24261,8.2666706)"
         clip-path="url(#clipPath66)" />
      <path
         id="path69"
         d="M 18.775516,5.8587454 C 18.631842,5.9701453 18.491432,6.1100477 18.36502,6.2814991 v 0 c -0.459162,0.6231426 -0.868861,1.8181523 -0.212937,3.9720269 v 0 c 0.0073,0.02408 0.03242,0.03764 0.05701,0.03032 v 0 c 0.02415,-0.0073 0.03779,-0.03278 0.03039,-0.05693 v 0 C 17.594722,8.1092974 17.991874,6.9420652 18.438633,6.3357483 v 0 C 18.589632,6.1308626 18.760576,5.9731188 18.93152,5.8576574 v 0 c -0.01596,-2.878e-4 -0.03198,-4.317e-4 -0.04794,-4.317e-4 v 0 c -0.03604,0 -0.07209,7.195e-4 -0.108064,0.00152"
         style="fill:url(#linearGradient69);stroke:none;stroke-width:0.072526" />
      <path
         id="path73-0"
         d="m 19.049664,5.6814196 c 0.06252,0.00305 0.124817,0.0074 0.187045,0.013273 v 0 c 0.133447,-0.052944 0.259207,-0.079343 0.365748,-0.079924 v 0 c 0.707635,3.701e-4 1.06381,0.8217913 1.238017,1.5109326 v 0 c 0.512614,2.0276798 0.09428,5.5542528 -0.710536,5.9894808 v 0 c -0.02219,0.01197 -0.03053,0.03974 -0.01842,0.06194 v 0 c 0.0081,0.0153 0.02386,0.02393 0.04018,0.02393 v 0 c 0.0073,0 0.0148,-0.0017 0.02169,-0.0054 v 0 C 21.022812,12.7362 21.460651,9.2061459 20.929036,7.1033292 v 0 C 20.667791,6.0700135 20.209065,5.5237482 19.60224,5.5233856 v 0 c -0.156728,8.017e-4 -0.351098,0.052219 -0.552575,0.158034"
         style="fill:url(#linearGradient73);stroke:none;stroke-width:0.072526" />
      <path
         id="path74"
         d="m 9.7854758,20.764846 c 0.1912305,0.09519 0.3739622,0.149585 0.5660422,0.149585 0.373962,0 0.658683,-0.215878 0.658683,-0.551593 0,-0.664633 -0.973151,-0.544795 -0.973151,-1.057292 0,-0.218428 0.147035,-0.371413 0.407109,-0.371413 0.152984,0 0.281321,0.03655 0.425806,0.09604 l 0.05949,-0.161484 c -0.161484,-0.06884 -0.317018,-0.107939 -0.4853,-0.107939 -0.281322,0 -0.5932398,0.167433 -0.5932398,0.544795 0,0.671431 0.9740008,0.515897 0.9740008,1.057292 0,0.225227 -0.20058,0.377361 -0.473402,0.377361 -0.176782,0 -0.341665,-0.05694 -0.5124976,-0.137686 z m 2.2038252,0.149585 c 0.434305,0 0.742824,-0.350164 0.742824,-0.77852 0,-0.428357 -0.308519,-0.78192 -0.742824,-0.78192 -0.434306,0 -0.742824,0.353563 -0.742824,0.78192 0,0.428356 0.308518,0.77852 0.742824,0.77852 z m 0,-0.168283 c -0.338266,0 -0.562643,-0.275371 -0.562643,-0.610237 0,-0.335716 0.224377,-0.614488 0.562643,-0.614488 0.341665,0 0.563492,0.278772 0.563492,0.614488 0,0.334866 -0.221827,0.610237 -0.563492,0.610237 z m 2.17769,-0.09859 c -0.147035,0.05694 -0.290671,0.09859 -0.440255,0.09859 -0.380761,0 -0.583891,-0.29322 -0.583891,-0.613637 0,-0.317017 0.20313,-0.611088 0.586441,-0.611088 0.147034,0 0.294069,0.02975 0.443654,0.09009 l 0.05354,-0.155534 c -0.164033,-0.06884 -0.328917,-0.101989 -0.497199,-0.101989 -0.478502,0 -0.760673,0.353563 -0.760673,0.77852 0,0.428356 0.282171,0.78192 0.760673,0.78192 0.168282,0 0.329766,-0.0272 0.494649,-0.105389 z m 0.377574,-1.751672 c 0,0.06884 0.05014,0.122388 0.125787,0.122388 0.06884,0 0.125787,-0.05354 0.125787,-0.122388 0,-0.06884 -0.05694,-0.119837 -0.125787,-0.119837 -0.07564,0 -0.125787,0.05099 -0.125787,0.119837 z m 0.03825,1.979448 h 0.174232 v -1.482248 h -0.174232 z m 1.740622,-0.218427 c -0.147035,0.05694 -0.29067,0.08924 -0.440255,0.08924 -0.359513,0 -0.566042,-0.269422 -0.566042,-0.619586 h 1.17118 c 0,-0.410508 -0.19208,-0.772571 -0.656133,-0.772571 -0.407108,0 -0.689279,0.350164 -0.689279,0.78192 0,0.428356 0.282171,0.77852 0.740274,0.77852 0.161484,0 0.314468,-0.0238 0.472552,-0.09009 z m -0.991849,-0.679931 c 0.05694,-0.308518 0.266873,-0.455554 0.500599,-0.455554 0.251574,0 0.430906,0.141086 0.473402,0.455554 z m 1.575739,0.481901 c 0,0.302569 0.185281,0.455553 0.434306,0.455553 0.07479,0 0.149584,-0.0119 0.224377,-0.03315 l -0.0357,-0.161484 c -0.05694,0.01785 -0.117288,0.02635 -0.174233,0.02635 -0.19123,0 -0.275371,-0.107089 -0.275371,-0.305118 v -0.898359 h 0.368862 v -0.149584 h -0.368862 v -0.455554 l -0.173383,0.07819 v 0.377362 h -0.212478 v 0.149584 h 0.212478 z m 0.808056,0.895808 -0.051,0.158934 c 0.09009,0.04165 0.182732,0.05694 0.275373,0.05694 0.174232,0 0.327216,-0.09944 0.396059,-0.311918 l 0.607688,-1.865559 h -0.182731 l -0.353564,1.092988 c -0.0204,0.06544 -0.051,0.161484 -0.07139,0.245625 -0.02465,-0.08414 -0.05439,-0.182732 -0.07479,-0.245625 L 17.883661,19.393087 H 17.70093 l 0.520997,1.482248 h 0.05949 l -0.09859,0.305119 c -0.051,0.156384 -0.131737,0.221827 -0.243075,0.221827 -0.07479,0 -0.149585,-0.01445 -0.224377,-0.04759 z m 0,0"
         style="fill:#00629b;fill-opacity:1;fill-rule:nonzero;stroke:none;stroke-width:0.072526"
         aria-label="Society" />
      <path
         id="path75"
         d="m 0.93256708,9.9174042 c -0.0212479,-0.3943597 -0.029747,-0.792969 -0.029747,-1.1924282 0,-0.5787909 0.008499,-1.1584317 0.0212479,-1.733823 L 0.90707018,6.966506 C 0.81952908,6.969906 0.57560416,6.978405 0.43706824,6.978405 H 0.14724785 l -0.0212479,0.025498 c 0.0339966,0.4870003 0.0382461,0.9782501 0.0382461,1.4652504 v 0.2940699 c 0,0.3901102 -0.008499,0.7768207 -0.0212479,1.1669308 l 0.0212479,0.025497 c 0,0 0.32296712,-0.012749 0.40285881,-0.012749 H 0.91131984 Z M 3.4559592,9.3760095 c -0.3824608,0.021248 -0.7640718,0.029747 -1.1507825,0.029747 -0.00425,-0.2439251 -0.0085,-0.4870003 -0.0085,-0.7351749 0,0 0.3654627,0 0.9824996,0.00425 l 0.025498,-0.025497 c 0.0085,-0.1589338 0.016998,-0.3144679 0.029747,-0.4742516 L 3.3089233,8.146186 C 2.9732076,8.158085 2.6374919,8.162334 2.2966767,8.162334 c -0.00425,-0.087541 -0.00425,-0.2218274 -0.00425,-0.3561136 0,-0.1181379 0.00425,-0.2311764 0.00425,-0.3110683 0.3569636,0 0.7139271,0.00425 1.0751403,0.012749 L 3.397314,7.4824041 C 3.401564,7.3183709 3.413463,7.1679363 3.426211,6.995404 L 3.4058143,6.969905 c -0.2770719,0 -1.3862085,0.0085 -1.8434619,0.0085 l -0.025497,0.025498 c 0.025497,0.2940699 0.029747,0.5881398 0.029747,0.8856094 v 0.8694613 c 0,0.3901101 -0.00425,0.7768206 -0.021248,1.1626812 l 0.021248,0.029747 c 0.617037,-0.00425 1.234074,-0.0085 1.8468613,-0.0085 l 0.033997,-0.025497 c 0.0085,-0.1589338 0.016998,-0.3399653 0.029747,-0.5116478 z m 2.3595715,0 c -0.3824609,0.021248 -0.764072,0.029747 -1.1507825,0.029747 -0.00425,-0.2439251 -0.0085,-0.4870003 -0.0085,-0.7351749 0,0 0.3654626,0 0.9824998,0.00425 L 5.664245,8.6493346 C 5.672745,8.4904008 5.681243,8.3348667 5.693992,8.175083 L 5.668495,8.146186 C 5.3327791,8.158085 4.9970634,8.162334 4.6562482,8.162334 c -0.00425,-0.087541 -0.00425,-0.2218274 -0.00425,-0.3561136 0,-0.1181379 0.00425,-0.2311764 0.00425,-0.3110683 0.3569635,0 0.7139271,0.00425 1.0751402,0.012749 l 0.025497,-0.025497 C 5.7611354,7.3183709 5.7730344,7.1679363 5.7857824,6.995404 L 5.7653858,6.969905 c -0.2770717,0 -1.3862083,0.0085 -1.8434615,0.0085 l -0.025498,0.025498 c 0.025498,0.2940699 0.029747,0.5881398 0.029747,0.8856094 v 0.8694613 c 0,0.3901101 -0.00425,0.7768206 -0.021248,1.1626812 l 0.021248,0.029747 c 0.617037,-0.00425 1.234074,-0.0085 1.8468615,-0.0085 l 0.033996,-0.025497 c 0.0085,-0.1589338 0.016998,-0.3399653 0.029747,-0.5116478 z m 2.3595719,0 c -0.3824613,0.021248 -0.7640724,0.029747 -1.1507827,0.029747 -0.00425,-0.2439251 -0.0085,-0.4870003 -0.0085,-0.7351749 0,0 0.3654624,0 0.9825,0.00425 l 0.025497,-0.025497 c 0.0085,-0.1589338 0.016998,-0.3144679 0.029747,-0.4742516 L 8.0280659,8.146186 C 7.6923507,8.158085 7.3566346,8.162334 7.0158194,8.162334 c -0.00425,-0.087541 -0.00425,-0.2218274 -0.00425,-0.3561136 0,-0.1181379 0.00425,-0.2311764 0.00425,-0.3110683 0.3569639,0 0.713927,0.00425 1.0751402,0.012749 l 0.025497,-0.025497 C 8.120708,7.3183694 8.1326073,7.1679348 8.1453556,6.9954025 L 8.1249574,6.969905 c -0.2770716,0 -1.3862085,0.0085 -1.8434619,0.0085 l -0.025497,0.025498 c 0.025497,0.2940699 0.029747,0.5881398 0.029747,0.8856094 v 0.8694613 c 0,0.3901101 -0.00425,0.7768206 -0.021248,1.1626812 l 0.021248,0.029747 c 0.617037,-0.00425 1.2340739,-0.0085 1.8468614,-0.0085 l 0.033997,-0.025497 c 0.0085,-0.1589338 0.016998,-0.3399653 0.029747,-0.5116478 z m 0,0"
         style="fill:#00629b;fill-opacity:1;fill-rule:nonzero;stroke:none;stroke-width:0.072526"
         aria-label="IEEE" />
      <path
         id="path76-6"
         d="M -1.6495073e-7,13.839967 C 0.34336472,14.015049 0.67228127,14.09919 1.0207455,14.09919 c 0.6527334,0 1.1660809,-0.383311 1.1660809,-0.971451 0,-1.095538 -1.47969862,-0.996098 -1.47969862,-1.647981 0,-0.264323 0.15978357,-0.448755 0.47850102,-0.448755 0.2439251,0 0.4632026,0.06034 0.7071278,0.159784 L 2.0618893,10.722485 C 1.7635698,10.593298 1.4941472,10.518506 1.1856288,10.518506 c -0.57794099,0 -1.086189,0.353564 -1.086189,0.961252 0,1.125285 1.4796988,0.966351 1.4796988,1.647981 0,0.274522 -0.2141781,0.458953 -0.5583931,0.458953 -0.2983195,0 -0.57709092,-0.08499 -0.86096188,-0.224377 z M 2.5253045,10.747132 c 0,0.189531 0.1393856,0.334016 0.333166,0.334016 0.184431,0 0.3442148,-0.144485 0.3442148,-0.334016 0,-0.18868 -0.1691328,-0.323817 -0.3442148,-0.323817 -0.1784819,0 -0.333166,0.135137 -0.333166,0.323817 z m 0.054394,3.287465 H 3.1380918 V 11.519703 H 2.5796989 Z m 1.2204753,0.936604 c 0.3136179,0.158934 0.607688,0.219278 0.9213059,0.219278 0.7419742,0 1.2604213,-0.4887 1.2604213,-1.185629 v -2.435852 l -0.5082482,-0.0493 -0.029747,0.278772 C 5.2645746,11.584297 5.005351,11.45511 4.6815342,11.45511 c -0.7215762,0 -1.1754299,0.606838 -1.1754299,1.289318 0,0.682481 0.4487541,1.290169 1.1754299,1.290169 0.3144679,0 0.5634925,-0.119838 0.7428242,-0.323817 v 0.234576 c 0,0.437705 -0.2345762,0.751323 -0.7028783,0.751323 -0.2583735,0 -0.5031485,-0.05439 -0.7521731,-0.169133 z m 0.9468034,-1.429554 c -0.4241067,0 -0.6629325,-0.348464 -0.6629325,-0.797219 0,-0.453003 0.2490247,-0.796368 0.6629325,-0.796368 0.3977593,0 0.7122273,0.313618 0.7122273,0.796368 0,0.513348 -0.3391155,0.797219 -0.7122273,0.797219 z m 1.7176745,0.49295 H 7.023045 v -1.160132 c 0,-0.58304 0.2490243,-0.926405 0.6518833,-0.926405 0.2745222,0 0.3884105,0.228626 0.3884105,0.542244 v 1.544293 h 0.5583929 v -1.619085 c 0,-0.59239 -0.3289165,-0.960402 -0.8320652,-0.960402 -0.3433647,0 -0.6178869,0.129187 -0.7972183,0.38841 l -0.049295,-0.323817 -0.4785011,0.0493 z m 4.4924283,0 h 0.483601 v -2.465599 l -0.557543,-0.0493 v 0.263474 c -0.184431,-0.20398 -0.433456,-0.328067 -0.742824,-0.328067 -0.7071278,0 -1.1754306,0.622136 -1.1754306,1.319065 0,0.68758 0.4487541,1.325015 1.1754306,1.325015 0.328916,0 0.58814,-0.139386 0.767472,-0.363763 z M 10.205757,13.60624 c -0.4241065,0 -0.6629322,-0.38841 -0.6629322,-0.832065 0,-0.463202 0.2592236,-0.826115 0.6629322,-0.826115 0.397759,0 0.712228,0.328066 0.712228,0.821866 0,0.527796 -0.339116,0.836314 -0.712228,0.836314 z m 1.712788,-0.144485 c 0,0.478501 0.278771,0.632336 0.702878,0.632336 l 0.05439,-0.482751 c -0.144486,0 -0.19888,-0.06459 -0.19888,-0.219278 V 10.344274 L 11.91854,10.463261 Z M 0.18443103,18.133728 H 0.76237205 V 16.818912 H 1.1805293 c 0.6722814,0 1.1754299,-0.38841 1.1754299,-1.07089 0,-0.682481 -0.4929496,-1.065792 -1.1703304,-1.065792 H 0.18443103 Z M 0.76237205,16.320863 V 15.190479 H 1.1405834 c 0.4479042,0 0.6323354,0.203979 0.6323354,0.557543 0,0.343365 -0.1538343,0.572841 -0.6476338,0.572841 z m 1.93185265,1.812865 h 0.558393 v -1.115936 c 0,-0.572842 0.2787716,-0.970601 0.7870196,-0.970601 v -0.49295 c -0.3892602,0 -0.6425345,0.169133 -0.8074176,0.423257 l -0.059494,-0.358663 -0.4785011,0.04929 z m 2.7445822,0.06459 c 0.7768205,0 1.2952676,-0.607688 1.2952676,-1.319915 0,-0.712227 -0.5286459,-1.324165 -1.2952676,-1.324165 -0.7666219,0 -1.2952676,0.611938 -1.2952676,1.324165 0,0.712227 0.5184469,1.319915 1.2952676,1.319915 z m 0,-0.492949 c -0.3986094,0 -0.7173268,-0.338266 -0.7173268,-0.826966 0,-0.49295 0.323817,-0.831215 0.7173268,-0.831215 0.3935098,0 0.7173266,0.338265 0.7173266,0.831215 0,0.4887 -0.3136179,0.826966 -0.7173266,0.826966 z m 3.5910957,-0.154685 c -0.2337264,0.09519 -0.4581034,0.154685 -0.6918291,0.154685 -0.4887001,0 -0.7674715,-0.383311 -0.7674715,-0.832065 0,-0.442805 0.2787714,-0.826116 0.7674715,-0.826116 0.2337257,0 0.4632027,0.05439 0.6918291,0.144485 L 9.189686,15.742922 C 8.9007157,15.618835 8.6219443,15.554241 8.327874,15.554241 c -0.8371645,0 -1.3352134,0.602589 -1.3352134,1.319066 0,0.717326 0.503149,1.325014 1.3352134,1.325014 0.283871,0 0.5626424,-0.03995 0.8516133,-0.179331 z m 2.4352134,-0.0042 c -0.243925,0.09944 -0.468302,0.158934 -0.736875,0.158934 -0.513347,0 -0.7368745,-0.334016 -0.7717203,-0.736875 h 1.7831173 c 0,-0.816767 -0.38416,-1.414255 -1.155882,-1.414255 -0.7368742,0 -1.1856285,0.606837 -1.1856285,1.324164 0,0.722426 0.4734015,1.319915 1.3148155,1.319915 0.314468,0 0.577941,-0.05439 0.861812,-0.179331 z M 9.9760686,16.585186 c 0.084991,-0.398609 0.3442144,-0.537995 0.6076874,-0.537995 0.269423,0 0.513348,0.104539 0.59239,0.537995 z m 1.9324904,1.414256 c 0.269422,0.139385 0.523546,0.198879 0.787019,0.198879 0.49805,0 0.901758,-0.303419 0.901758,-0.752173 0,-0.796368 -1.036044,-0.761522 -1.036044,-1.155032 0,-0.149585 0.08924,-0.249024 0.29832,-0.249024 0.175082,0 0.328916,0.04504 0.498048,0.118987 l 0.159784,-0.442804 c -0.233726,-0.10454 -0.453003,-0.164034 -0.696929,-0.164034 -0.448754,0 -0.837164,0.278772 -0.837164,0.736875 0,0.826966 1.036044,0.731775 1.036044,1.145683 0,0.158934 -0.134286,0.273672 -0.343365,0.273672 -0.214178,0 -0.413907,-0.07479 -0.633185,-0.174232 z m 1.837937,0 c 0.269423,0.139385 0.523546,0.198879 0.787019,0.198879 0.498049,0 0.901758,-0.303419 0.901758,-0.752173 0,-0.796368 -1.036044,-0.761522 -1.036044,-1.155032 0,-0.149585 0.08924,-0.249024 0.298319,-0.249024 0.175083,0 0.328917,0.04504 0.49805,0.118987 l 0.159784,-0.442804 c -0.233727,-0.10454 -0.453004,-0.164034 -0.696929,-0.164034 -0.448755,0 -0.837165,0.278772 -0.837165,0.736875 0,0.826966 1.036044,0.731775 1.036044,1.145683 0,0.158934 -0.134286,0.273672 -0.343365,0.273672 -0.214178,0 -0.413908,-0.07479 -0.633185,-0.174232 z m 1.957775,-3.153178 c 0,0.18953 0.139386,0.334016 0.333165,0.334016 0.184432,0 0.344216,-0.144486 0.344216,-0.334016 0,-0.188681 -0.169133,-0.323817 -0.344216,-0.323817 -0.178481,0 -0.333165,0.135136 -0.333165,0.323817 z m 0.05439,3.287464 h 0.558393 v -2.514893 h -0.558393 z m 1.036045,0 h 0.558392 v -1.160132 c 0,-0.58304 0.249025,-0.926405 0.651884,-0.926405 0.274522,0 0.38841,0.228627 0.38841,0.542245 v 1.544292 h 0.558393 v -1.619085 c 0,-0.592389 -0.328916,-0.960402 -0.832065,-0.960402 -0.343365,0 -0.617887,0.129187 -0.797219,0.388411 l -0.04929,-0.323817 -0.478501,0.04929 z m 2.794301,0.936604 c 0.313619,0.158934 0.607689,0.219278 0.921306,0.219278 0.741974,0 1.260422,-0.4887 1.260422,-1.185629 V 15.66813 l -0.508248,-0.04929 -0.02975,0.278771 c -0.179331,-0.214178 -0.438554,-0.343365 -0.762372,-0.343365 -0.721576,0 -1.17543,0.606838 -1.17543,1.289319 0,0.68248 0.448755,1.290168 1.17543,1.290168 0.314468,0 0.563493,-0.119838 0.742824,-0.323817 v 0.234576 c 0,0.437705 -0.234575,0.751323 -0.702878,0.751323 -0.258373,0 -0.503148,-0.05439 -0.752173,-0.169132 z m 0.946804,-1.429554 c -0.424107,0 -0.662933,-0.348464 -0.662933,-0.797218 0,-0.453004 0.249025,-0.796369 0.662933,-0.796369 0.397759,0 0.712227,0.313618 0.712227,0.796369 0,0.513347 -0.339115,0.797218 -0.712227,0.797218 z m 0,0"
         style="fill:#78be20;fill-opacity:1;fill-rule:nonzero;stroke:none;stroke-width:0.072526"
         aria-label="Signal &#10;Processing" />
      <path
         id="path79-8"
         d="m 22.663776,10.497213 c -0.0046,0.03155 -0.01247,0.06288 -0.02335,0.09407 v 0 c -0.04663,0.175005 -0.104655,0.345586 -0.174135,0.510219 v 0 c 0.2389,-0.188422 0.371551,-0.405565 0.383662,-0.639388 v 0 c 0.0073,-0.141063 -0.03061,-0.279007 -0.106468,-0.411585 v 0 c -0.01806,0.151725 -0.04482,0.300693 -0.07971,0.446687"
         style="fill:url(#linearGradient79-7);stroke:none;stroke-width:0.072526" />
      <path
         id="path83"
         d="m 14.266289,9.5155751 c -0.03974,0.030533 -0.04729,0.087466 -0.01675,0.1272104 v 0 c 0.219899,0.28655 0.487519,0.5391575 0.787994,0.7617395 v 0 c -0.01864,-0.08718 -0.03423,-0.17544 -0.04692,-0.264719 v 0 C 14.766138,9.9572579 14.564516,9.7553458 14.393282,9.5323285 v 0 c -0.01784,-0.023208 -0.04475,-0.035465 -0.07202,-0.035465 v 0 c -0.01922,0 -0.03858,0.00609 -0.05497,0.018712"
         style="fill:url(#linearGradient83);stroke:none;stroke-width:0.072526" />
      <path
         id="path87"
         d="m 15.262506,10.562342 c 1.174702,0.772111 2.765631,1.127778 4.071242,1.195517 v 0 c 0.144472,0.0075 0.287566,0.01117 0.429064,0.01117 v 0 c 0.746219,0 1.44283,-0.103277 1.995115,-0.29859 v 0 c 0.156221,-0.05526 0.296124,-0.116839 0.420578,-0.18349 v 0 c 0.05041,-0.09784 0.09668,-0.198141 0.138452,-0.300765 v 0 c -0.158614,0.117492 -0.366908,0.22396 -0.619444,0.313312 v 0 c -0.635254,0.224613 -1.471333,0.323248 -2.354336,0.277267 v 0 c -1.34144,-0.06963 -2.988141,-0.447051 -4.141666,-1.275732 v 0 c 0.01726,0.08834 0.03764,0.175368 0.061,0.261311"
         style="fill:url(#linearGradient87);stroke:none;stroke-width:0.072526" />
      <path
         id="path91-9"
         d="m 15.03753,10.404525 c 0.07325,0.05425 0.147953,0.107194 0.224976,0.157817 v 0 c -0.02335,-0.08594 -0.04373,-0.172975 -0.061,-0.261311 v 0 c -0.07231,-0.05193 -0.142658,-0.10567 -0.210905,-0.161225 v 0 c 0.01269,0.08928 0.02829,0.177543 0.04692,0.264719"
         style="fill:url(#linearGradient91);stroke:none;stroke-width:0.072526" />
      <path
         id="path95"
         d="m 22.316957,10.986183 c -0.04177,0.102624 -0.08805,0.202928 -0.138452,0.300765 v 0 c 0.108354,-0.05795 0.204668,-0.119958 0.287783,-0.185449 v 0 c 0.06948,-0.164633 0.127501,-0.335214 0.174135,-0.510219 v 0 c -0.04866,0.139177 -0.158904,0.272987 -0.323466,0.394903"
         style="fill:url(#linearGradient95);stroke:none;stroke-width:0.072526" />
    </g>
  </g>
</svg>
