<svg viewBox="0 0 8.8690004 18" xmlns="http://www.w3.org/2000/svg" xmlns:svg="http://www.w3.org/2000/svg">
    <path
        d="M 0.18606739,17.797011 C 0.12708651,17.732701 0.08029193,17.65627 0.04836308,17.572145 0.01643486,17.488107 2.6743774e-7,17.397878 2.6743774e-7,17.306853 c 0,-0.09102 0.0164345925623,-0.181167 0.0483628125623,-0.265293 0.0319289,-0.08412 0.0787234,-0.160467 0.13770431,-0.224777 L 7.3389916,8.9998164 0.18606739,1.1828671 C 0.06714231,1.0528748 3.3260744e-4,0.8765735 3.3260744e-4,0.6927442 c 0,-0.1838292 0.0668097026,-0.3601305 0.18573478256,-0.490114 0.1189233,-0.12998699 0.28021907,-0.2030127 0.44840324,-0.2030127 0.16818327,0 0.32948254,0.0730257 0.44839977,0.2030127 l 7.6000624,8.307028 c 0.058976,0.064311 0.1057454,0.1407401 0.1376794,0.2248659 0.031934,0.084038 0.048388,0.1742667 0.048388,0.2652923 0,0.091026 -0.016454,0.1811671 -0.048388,0.2652921 -0.031934,0.08412 -0.078703,0.160467 -0.1376794,0.224778 L 1.0828704,17.797011 c -0.058826,0.0644 -0.12871853,0.115617 -0.20566131,0.150471 -0.0769463,0.03494 -0.1594328,0.0529 -0.24273846,0.0529 -0.0833065,0 -0.16579309,-0.01796 -0.24273758,-0.0529 -0.0769445,-0.03485 -0.1468343,-0.08607 -0.20566566,-0.150471 z"
        fill="currentColor" />
</svg>