<svg viewBox="0 0 18 18" xmlns="http://www.w3.org/2000/svg" xmlns:svg="http://www.w3.org/2000/svg">
    <path
        d="M 0,9.0000338 C 0,4.0296738 4.0296623,9e-6 8.9999922,9e-6 13.970317,9e-6 18,4.0296738 18,9.0000338 18,13.970359 13.970317,17.999991 8.9999922,17.999991 4.0296623,17.999991 0,13.970359 0,9.0000338 Z M 9.201218,12.953097 C 9.265748,12.889067 9.3171,12.812946 9.3522,12.729056 9.38735,12.645216 9.4056,12.555209 9.406,12.464298 9.406351,12.373388 9.3888,12.28328 9.3543,12.19914 9.31985,12.115 9.26916,12.03843 9.205073,11.973895 L 6.9412442,9.692315 h 5.7798918 c 0.183626,0 0.35973,-0.07296 0.489551,-0.20278 0.129822,-0.1298218 0.20278,-0.3059258 0.20278,-0.4895012 0,-0.1836255 -0.07296,-0.3597295 -0.20278,-0.4895511 C 13.080872,8.3806612 12.904768,8.3077024 12.721142,8.3077024 H 6.9412502 L 9.205079,6.0261226 c 0.06403,-0.064635 0.114729,-0.1412042 0.149177,-0.2253951 0.03445,-0.084191 0.05195,-0.174349 0.05155,-0.2653093 -4.01e-4,-0.09096 -0.0187,-0.1809679 -0.0539,-0.264858 C 9.316749,5.1866701 9.265352,5.1105522 9.200767,5.046519 9.136182,4.9824857 9.0595627,4.9317906 8.9753718,4.897342 8.8911808,4.8628934 8.8010228,4.8453934 8.7100625,4.8457945 8.5263366,4.8465968 8.3504834,4.9203579 8.2211632,5.0508313 L 4.786032,8.5123882 c -0.1287184,0.1296711 -0.20091,0.3049227 -0.20091,0.4876456 0,0.1826728 0.072192,0.3579244 0.20091,0.4875952 l 3.4351312,3.461557 c 0.064033,0.06469 0.1402013,0.116133 0.2241415,0.151333 0.08399,0.0352 0.1740481,0.0535 0.2650586,0.0539 0.091061,3.51e-4 0.1812688,-0.01725 0.2654598,-0.0518 0.084241,-0.03455 0.1608102,-0.08534 0.2253949,-0.149528 z"
        fill="currentColor" />
</svg>