<svg viewBox="0 0 18 18" xmlns="http://www.w3.org/2000/svg" xmlns:svg="http://www.w3.org/2000/svg">
    <path
        d="m 6.4755,12.366 c -0.1125,0.1125 -0.261,0.1755 -0.4185,0.1755 -0.162,0 -0.3105,-0.063 -0.423,-0.171 -0.1125,-0.1125 -0.1755,-0.2655 -0.1755,-0.423 0,-0.1575 0.063,-0.3105 0.1755,-0.423 L 10.512,6.651 H 7.2135 C 7.056,6.651 6.9075,6.588 6.795,6.4755 6.6825,6.363 6.6195,6.2145 6.6195,6.057 6.6195,5.895 6.6825,5.7465 6.795,5.634 6.9075,5.5215 7.056,5.4585 7.2135,5.4585 h 4.734 c 0.1575,0 0.3105,0.063 0.423,0.1755 0.108,0.1125 0.171,0.261 0.171,0.423 v 4.7295 c 0,0.1575 -0.063,0.3105 -0.171,0.423 -0.1125,0.108 -0.2655,0.171 -0.423,0.171 -0.1575,0 -0.3105,-0.063 -0.423,-0.171 -0.108,-0.1125 -0.171,-0.2655 -0.171,-0.423 v -3.294 l -4.878,4.8735"
        fill="currentColor" />
</svg>