<svg viewBox="0 0 18 14.206" xmlns="http://www.w3.org/2000/svg" xmlns:svg="http://www.w3.org/2000/svg">
   <path
      d="M 2.0677771,3.7132806e-4 C 0,3.7132806e-4 0,2.0681484 0,2.0681484 V 12.138223 C 0,14.206 2.0677771,14.206 2.0677771,14.206 H 15.932223 C 18,14.206 18,12.138223 18,12.138223 V 2.0681484 C 18,3.7132806e-4 15.932223,3.7132806e-4 15.932223,3.7132806e-4 Z M 6.0068926,2.2645873 c 0.062033,-0.010339 0.1344055,0 0.2171166,0.031017 0.1344055,0.051694 0.2584721,0.1550833 0.4445721,0.3411833 0.3928776,0.3928776 0.9304997,1.2510051 1.1269385,1.6748994 0.1344055,0.2894888 0.2274555,0.4755888 0.2274555,0.6927054 0,0.2481332 -0.1240666,0.4342332 -0.2791499,0.6410109 -0.031017,0.041355 -0.051694,0.072372 -0.082711,0.1137277 -0.1654222,0.2171166 -0.2067777,0.2791499 -0.1757611,0.3825388 0.041356,0.2274555 0.4032166,0.8994831 0.9925331,1.4887995 0.5996553,0.5893165 1.2406663,0.9201609 1.4681217,0.9718553 0.1137279,0.020678 0.1757609,-0.010339 0.4032169,-0.1860999 0.03102,-0.020678 0.06203,-0.051694 0.103388,-0.072372 0.227456,-0.1757611 0.403217,-0.2894888 0.65135,-0.2894888 v 0 c 0.206778,0 0.392878,0.09305 0.692706,0.2377943 0.382538,0.1964389 1.271683,0.7237221 1.66456,1.1166001 0.1861,0.196439 0.289489,0.320505 0.341183,0.454911 0.08271,0.2067777 0.01034,0.3618607 -0.04136,0.4755887 0,0.02068 -0.01034,0.04135 -0.02068,0.06203 -0.09305,0.206778 -0.206778,0.413555 -0.330844,0.609994 -0.227456,0.351522 -0.46525,0.609995 -0.858128,0.796094 -0.196439,0.09305 -0.413555,0.144745 -0.630672,0.134406 -0.423894,0 -1.013211,-0.144744 -1.902355,-0.641011 C 8.9327972,10.690779 8.0953475,10.132479 7.0304423,9.0572353 5.9862148,8.0233466 5.4899483,7.3616579 4.7869041,6.0796361 3.9908099,4.6218532 4.1252154,3.8671146 4.2699598,3.5466091 4.4560597,3.1537314 4.7248708,2.926276 5.066054,2.6884816 5.2624928,2.564415 5.4692705,2.4506872 5.6863871,2.3679761 c 0.020678,-0.010339 0.041356,-0.020678 0.062033,-0.031017 0.062033,-0.031017 0.1550833,-0.072372 0.2584725,-0.072372 z"
      fill="currentColor" />
</svg>