<svg viewBox="0 0 18 15.000000000000002">
    <path
        d="m2.3,0.63c-2,0 -2,2 -2,2l0,9.74c0,2 2,2 2,2l13.41,0c2,0 2,-2 2,-2l0,-9.74c0,-2 -2,-2 -2,-2l-13.41,0zm3.81,2.19c0.06,-0.01 0.13,0 0.21,0.03c0.13,0.05 0.25,0.15 0.43,0.33c0.38,0.38 0.9,1.21 1.09,1.62c0.13,0.28 0.22,0.46 0.22,0.67c0,0.24 -0.12,0.42 -0.27,0.62c-0.03,0.04 -0.05,0.07 -0.08,0.11c-0.16,0.21 -0.2,0.27 -0.17,0.37c0.04,0.22 0.39,0.87 0.96,1.44c0.58,0.57 1.2,0.89 1.42,0.94c0.11,0.02 0.17,-0.01 0.39,-0.18c0.03,-0.02 0.06,-0.05 0.1,-0.07c0.22,-0.17 0.39,-0.28 0.63,-0.28l0,0c0.2,0 0.38,0.09 0.67,0.23c0.37,0.19 1.23,0.7 1.61,1.08c0.18,0.19 0.28,0.31 0.33,0.44c0.08,0.2 0.01,0.35 -0.04,0.46c0,0.02 -0.01,0.04 -0.02,0.06c-0.09,0.2 -0.2,0.4 -0.32,0.59c-0.22,0.34 -0.45,0.59 -0.83,0.77c-0.19,0.09 -0.4,0.14 -0.61,0.13c-0.41,0 -0.98,-0.14 -1.84,-0.62c-1.05,-0.59 -1.86,-1.13 -2.89,-2.17c-1.01,-1 -1.49,-1.64 -2.17,-2.88c-0.77,-1.41 -0.64,-2.14 -0.5,-2.45c0.18,-0.38 0.44,-0.6 0.77,-0.83c0.19,-0.12 0.39,-0.23 0.6,-0.31c0.02,-0.01 0.04,-0.02 0.06,-0.03c0.06,-0.03 0.15,-0.07 0.25,-0.07z"
        fill="currentColor"></path>
</svg>