<svg viewBox="0 0 32 32">
    <path
        d="M 5.0566406 0.087890625 C 2.5986789 0.087890625 0.62109375 2.0654757 0.62109375 4.5234375 L 0.62109375 26.476562 C 0.62109375 28.934524 2.5986789 30.912109 5.0566406 30.912109 L 26.943359 30.912109 C 29.401321 30.912109 31.378906 28.934524 31.378906 26.476562 L 31.378906 4.5234375 C 31.378906 2.0654757 29.401321 0.087890625 26.943359 0.087890625 L 5.0566406 0.087890625 z M 12.171875 5.1914062 C 13.246153 5.1885432 14.714765 5.27107 16.275391 5.4941406 L 18.773438 5.9277344 C 21.035914 6.2846473 22.58143 6.7821645 23.519531 7.5214844 C 23.988582 7.8019157 24.292076 8.2349821 24.609375 8.8085938 C 24.912879 9.3057229 25.145743 9.9550669 25.228516 10.681641 C 25.297496 11.178769 25.380859 11.906338 25.380859 12.849609 C 25.449829 13.703651 25.449219 14.862644 25.449219 16.226562 L 25.462891 16.226562 C 25.462891 17.310048 25.463501 18.317115 25.394531 19.107422 C 25.311751 19.974211 25.159563 20.702088 25.007812 21.199219 C 24.773288 21.772828 24.539956 22.28145 24.222656 22.714844 C 23.919156 23.148238 23.449516 23.58213 22.980469 23.798828 C 22.59419 24.015525 22.057215 24.231597 21.339844 24.435547 C 20.650064 24.652245 19.793103 24.86955 18.689453 25.009766 L 16.193359 25.443359 C 13.392854 25.876753 11.282618 25.952926 10.041016 25.519531 C 8.5648793 25.086137 7.5432689 23.926217 7.0742188 22.128906 C 6.9224672 21.491562 6.7564776 20.471749 6.6875 19.248047 C 6.6047262 17.96061 6.5371094 16.367935 6.5371094 14.494141 C 6.5371094 12.97726 6.6060613 11.613708 6.7578125 10.542969 C 6.9233594 9.3957479 7.1574351 8.5165619 7.4609375 7.8027344 C 7.7782367 7.1526432 8.2333323 6.5779258 8.7851562 6.1445312 C 9.3231824 5.7111368 9.94412 5.4175596 10.730469 5.2773438 C 11.025349 5.2247628 11.527308 5.1931241 12.171875 5.1914062 z M 15.818359 9.1582031 C 12.873493 9.2248629 10.412109 11.714588 10.412109 15.15625 C 10.412109 18.610659 12.909241 21.274472 16.496094 20.777344 L 16.951172 20.701172 C 17.033952 20.701172 17.117188 20.624592 17.117188 20.484375 L 17.117188 18.96875 C 17.117188 18.89226 17.034557 18.751643 16.882812 18.828125 L 16.414062 18.892578 C 14.386112 19.109275 12.757812 17.603655 12.757812 15.15625 C 12.757812 13.932547 13.213183 12.84931 13.833984 12.199219 C 14.620335 11.485392 15.24218 11.205796 16.332031 11.269531 L 18.59375 11.408203 C 18.67653 11.408203 18.828125 11.345298 18.828125 11.205078 L 18.828125 9.6113281 C 18.828125 9.5348512 18.758564 9.4710128 18.675781 9.3945312 L 16.414062 9.1777344 C 16.214026 9.1602074 16.014684 9.1537591 15.818359 9.1582031 z M 15.875 12.708984 C 15.79222 12.708984 15.640625 12.773842 15.640625 12.914062 L 15.640625 14.353516 C 15.640625 14.429996 15.709444 14.570313 15.875 14.570312 L 18.759766 14.570312 L 18.759766 22.5625 C 18.759766 22.702716 18.828586 22.779607 18.994141 22.703125 L 20.386719 22.5625 C 20.455689 22.5625 20.539063 22.498361 20.539062 22.421875 L 20.539062 14.494141 L 22.884766 14.494141 C 22.953736 14.494141 23.119141 14.430311 23.119141 14.277344 L 23.119141 13.066406 C 23.188111 13.066406 23.118673 12.990234 22.953125 12.990234 L 15.875 12.708984 z "
        fill="currentColor"></path>
</svg>