<svg viewBox="0 0 18 18" xmlns="http://www.w3.org/2000/svg" xmlns:svg="http://www.w3.org/2000/svg">
   <path
      d="M 15.709896,0 H 2.2901045 C 1.6816226,0 1.0952674,0.24339278 0.66379845,0.67486174 0.24339275,1.1063307 0,1.6816226 0,2.2901045 V 15.720959 c 0,0.608482 0.24339275,1.183774 0.66379845,1.615243 0.43146895,0.431469 1.01782415,0.674861 1.62630605,0.674861 H 8.8617087 V 10.521205 H 7.3681623 V 7.5230486 H 8.8506454 V 6.1622618 c 0,-1.228027 0.5863552,-3.1419791 3.1530426,-3.1419791 l 2.312231,0.011063 v 2.5666872 h -1.681623 c -0.265519,0 -0.652735,0.143823 -0.652735,0.7191149 v 1.2059005 h 2.378611 l -0.276583,2.9981567 h -2.223724 v 7.489858 h 3.850031 c 0.298709,0 0.597418,-0.06638 0.874001,-0.177013 0.287646,-0.110633 0.531038,-0.287646 0.752305,-0.497848 0.210202,-0.210203 0.376152,-0.464659 0.486785,-0.741242 C 17.944683,16.318377 18,16.019668 18,15.720959 V 2.2901045 C 18,1.9913952 17.944683,1.6926859 17.822987,1.4161033 17.712354,1.1395206 17.546404,0.88506457 17.336202,0.67486174 17.114935,0.46465891 16.871543,0.28764601 16.583897,0.17701291 16.307314,0.06637984 16.008605,0 15.709896,0 Z"
      fill="currentColor" />
</svg>