<svg viewBox="0 0 18 18" xmlns="http://www.w3.org/2000/svg" xmlns:svg="http://www.w3.org/2000/svg">
   <path fill="currentColor"
      d="M 4.9356936,0 C 2.2150231,0 0,2.2149898 0,4.9356936 V 13.064307 C 0,15.784933 2.2150231,18 4.9356936,18 H 13.064306 C 15.784933,18 18,15.784933 18,13.064307 V 4.9356936 C 18,2.2149898 15.784933,0 13.064306,0 Z m 9.2969644,2.267341 c 0.827043,0 1.500001,0.6729692 1.500001,1.5000001 0,0.8270308 -0.672958,1.4999999 -1.500001,1.4999999 -0.827042,0 -1.499999,-0.6729691 -1.499999,-1.4999999 0,-0.8270309 0.672957,-1.5 1.499999,-1.5000001 z m -0.02384,1.0643064 c -0.23055,0.011728 -0.414017,0.2023123 -0.414017,0.4356937 0,0.2409097 0.196918,0.4378612 0.437861,0.4378612 0.240943,0 0.435694,-0.1969182 0.435694,-0.4378612 0,-0.2409431 -0.194751,-0.4356937 -0.435694,-0.4356937 -0.0075,0 -0.0164,-3.783e-4 -0.02384,0 z M 9,4.0643064 c 2.722135,0 4.935693,2.2135803 4.935693,4.9356936 0,2.722136 -2.213558,4.935694 -4.935693,4.935694 C 6.2778534,13.935694 4.0643064,11.722136 4.0643064,9 4.0643064,6.2778534 6.2778867,4.0643064 9,4.0643064 Z M 9,5.1264451 C 6.8639744,5.1264451 5.1264452,6.8639744 5.1264451,9 c 0,2.136004 1.7375293,3.873556 3.8735549,3.873556 2.136048,0 3.873554,-1.737474 3.873554,-3.873556 C 12.873554,6.8639744 11.136048,5.1264451 9,5.1264451 Z" />
</svg>