<svg viewBox="0 0 18 18" xmlns="http://www.w3.org/2000/svg" xmlns:svg="http://www.w3.org/2000/svg">
    <path
        d="M 13.477887,0 H 4.5110565 C 2.0233415,0 0,2.034398 0,4.5110565 V 13.5 C 0,15.965602 2.0233415,18 4.5110565,18 H 13.488943 C 15.976658,18 18,15.965602 18,13.488943 V 4.5110565 C 17.988943,2.034398 15.965602,0 13.477887,0 Z M 5.992629,14.572482 H 3.4275184 V 7.1425061 H 5.992629 Z M 4.6990172,6.0036855 c -0.7297297,0 -1.3157248,-0.5859951 -1.3157248,-1.3157248 0,-0.7297297 0.5859951,-1.3157248 1.3157248,-1.3157248 0.7186732,0 1.3046683,0.5859951 1.3046683,1.3157248 C 5.992629,5.4176904 5.4066339,6.0036855 4.6990172,6.0036855 Z m 9.8734648,8.5687965 h -0.01106 -2.144963 v -3.604423 c 0,-0.873464 -0.110565,-1.9791155 -1.293612,-1.9791155 -1.2162161,0 -1.4152333,0.9398034 -1.4152333,1.9238325 v 3.659706 H 7.5626536 V 7.1425061 h 2.0012285 v 0.995086 h 0.055282 c 0.3206388,-0.563882 1.0503689,-1.0061425 2.1891899,-1.0061425 2.355037,0 2.764128,1.3488944 2.764128,3.3722364 z"
        fill="currentColor" />
</svg>