<svg viewBox="0 0 18 18">
    <path
        d="m13.05,0.86l-8.11,0c-2.25,0 -4.08,1.84 -4.08,4.08l0,8.13c0,2.23 1.83,4.07 4.08,4.07l8.12,0c2.25,0 4.08,-1.84 4.08,-4.08l0,-8.12c-0.01,-2.24 -1.84,-4.08 -4.09,-4.08zm-6.77,13.18l-2.32,0l0,-6.72l2.32,0l0,6.72zm-1.17,-7.75c-0.66,0 -1.19,-0.53 -1.19,-1.19c0,-0.66 0.53,-1.19 1.19,-1.19c0.65,0 1.18,0.53 1.18,1.19c-0.01,0.66 -0.54,1.19 -1.18,1.19zm8.93,7.75l-0.01,0l-1.94,0l0,-3.26c0,-0.79 -0.1,-1.79 -1.17,-1.79c-1.1,0 -1.28,0.85 -1.28,1.74l0,3.31l-1.94,0l0,-6.72l1.81,0l0,0.9l0.05,0c0.29,-0.51 0.95,-0.91 1.98,-0.91c2.13,0 2.5,1.22 2.5,3.05l0,3.68z"
        fill="currentColor"></path>
</svg>