<svg viewBox="0 0 18 14.278" xmlns="http://www.w3.org/2000/svg" xmlns:svg="http://www.w3.org/2000/svg">
   <path
      d="m 15.502442,9.734793e-5 c -0.118656,6.98e-4 -0.236324,0.0093000021 -0.354574,0.02713000207 -0.473,0.07136 -0.916495,0.27808603 -1.274916,0.59483203 -0.194042,0.171175 -0.359408,0.372686 -0.492142,0.59483202 v 0.0019 c -0.02093,0.03492 -0.04062,0.07087 -0.06007,0.106566 l -0.0097,0.01744 c -0.01627,0.03064 -0.03172,0.06158 -0.0465,0.093 -0.0047,0.0097 -0.0093,0.01937 -0.01356,0.02906 -0.0128,0.02832 -0.02521,0.05809 -0.03681,0.08719 -0.0051,0.01202 -0.0089,0.02478 -0.01356,0.03681 -0.01052,0.02715 -0.02128,0.05383 -0.031,0.08138 l -0.01356,0.04069 c -0.0085,0.02638 -0.01552,0.05267 -0.02325,0.07944 -0.0047,0.01513 -0.0097,0.02944 -0.01356,0.04456 -0.0074,0.02599 -0.01312,0.05422 -0.01937,0.07944 -0.0039,0.0159 -0.0081,0.0306 -0.01163,0.0465 -0.0055,0.02638 -0.01083,0.05306 -0.01551,0.0775 -0.0031,0.0163 -0.0069,0.03215 -0.0097,0.04844 -0.0043,0.02716 -0.0062,0.05577 -0.0097,0.08331 -0.002,0.0159 -0.0058,0.03214 -0.0077,0.04844 -0.0031,0.02987 -0.0036,0.05887 -0.0059,0.08913 0,0.01397 -0.0031,0.02866 -0.0039,0.04263 -0.0024,0.04423 -0.0039,0.08869 -0.0039,0.133692 0,0.03879 8e-4,0.07785 0.0039,0.114316 v 0.02325 c 0.0021,0.03647 0.0044,0.07398 0.0077,0.110441 l 0.002,0.01744 c 0.0036,0.03297 0.0065,0.06661 0.01163,0.09882 0,0.0066 0.0012,0.01278 0.0039,0.01938 0.0055,0.0353 0.01233,0.07166 0.01937,0.106566 0,0.0085 0.0024,0.01666 0.0039,0.02519 0.007,0.03336 0.01472,0.06584 0.02325,0.09882 v 0.0077 c 0.0089,0.03453 0.01865,0.067 0.02907,0.100754 l 0.0097,0.02713 c 0.01042,0.03297 0.02133,0.06468 0.03294,0.09688 0.0023,0.007 0.0051,0.01433 0.0077,0.02131 0.01052,0.02755 0.01969,0.05615 0.031,0.08332 0.0031,0.0081 0.0062,0.01549 0.0097,0.02325 0.01319,0.03064 0.02824,0.06081 0.04263,0.09107 l 0.01163,0.02519 c 0.01359,0.02715 0.02834,0.05461 0.04263,0.08138 0.202573,0.376346 0.497737,0.6949289 0.858341,0.9242171 0.09474,0.060484 0.19233,0.1140931 0.29451,0.1608178 l 0.01551,0.00775 c 0.06875,0.031031 0.13957,0.058484 0.211195,0.083315 l 0.03681,0.011626 0.05812,0.019375 c 0.01746,0.00543 0.03445,0.010461 0.05231,0.0155 l 0.07556,0.019375 0.06588,0.0155 0.04456,0.00775 0.07169,0.013563 0.03681,0.00581 c 0.03492,0.00504 0.06931,0.00968 0.104628,0.013563 l 0.031,0.00193 c 0.02837,0.00233 0.05659,0.00427 0.08526,0.00581 l 0.03294,0.00193 c 0.03879,0 0.07633,0.00388 0.114317,0.00388 0.04504,0 0.08945,3.7e-6 0.133691,-0.00388 l 0.04069,-0.00388 c 0.03026,-0.00233 0.06121,-0.00272 0.09107,-0.00581 l 0.04844,-0.00775 c 0.02718,-0.00349 0.05429,-0.00543 0.08138,-0.00969 l 0.04844,-0.00969 c 0.02639,-0.00465 0.0531,-0.010064 0.07751,-0.0155 l 0.04844,-0.011626 c 0.02639,-0.0062 0.05271,-0.012005 0.07751,-0.019375 0.01518,-0.00388 0.02938,-0.00696 0.04456,-0.011626 0.02679,-0.00776 0.05305,-0.016657 0.07944,-0.025189 l 0.04263,-0.013563 c 0.02758,-0.0097 0.05419,-0.020525 0.08138,-0.031001 l 0.03488,-0.013563 c 0.02907,-0.011636 0.05882,-0.024016 0.08719,-0.036813 l 0.02907,-0.013563 c 0.03145,-0.014742 0.06235,-0.030212 0.093,-0.046501 l 0.01938,-0.00969 c 0.03571,-0.019394 0.07164,-0.038726 0.106566,-0.060065 h 0.002 c 0.224,-0.1316426 0.425795,-0.2964002 0.598706,-0.4902039 0.400583,-0.453169 0.620715,-1.038222 0.62002,-1.643053 6.78e-4,-0.478319 -0.136161,-0.946494 -0.395279,-1.348535 C 17.34548,0.73535438 16.974936,0.41782538 16.539038,0.22092838 16.212114,0.07325435 15.858411,-0.00204565 15.502442,4.534793e-5 Z M 2.1720082,0.62205538 C 1.5960249,0.62267038 1.0447367,0.85223538 0.63745824,1.2595134 0.23017682,1.6667924 6.1604213e-4,2.2180804 0,2.7940634 v 9.3119286 c 6.1604213e-4,0.575973 0.23017682,1.127221 0.63745824,1.534549 C 1.0447367,14.04777 1.5960249,14.277405 2.1720082,14.278 H 15.207932 c 0.576073,-5.95e-4 1.127222,-0.23023 1.53455,-0.637459 0.40723,-0.407328 0.636764,-0.958576 0.637458,-1.534549 V 5.7120337 C 16.72649,6.0905135 15.974249,6.2603174 15.221495,6.2002996 14.468842,6.1402916 13.750941,5.8540619 13.165741,5.3768353 L 9.0716702,8.5602514 c -0.1089349,0.08468 -0.2437182,0.1317542 -0.3816999,0.1317542 -0.1379816,0 -0.2727649,-0.047074 -0.3816999,-0.1317542 L 2.7222761,4.2162354 c -0.065633,-0.04956 -0.1194004,-0.111072 -0.1608178,-0.182131 -0.041417,-0.07106 -0.068647,-0.150973 -0.07944,-0.232508 -0.010793,-0.08153 -0.00601,-0.164751 0.015501,-0.244133 0.021517,-0.07938 0.058019,-0.152079 0.1085035,-0.217007 0.050485,-0.06493 0.1143715,-0.120402 0.1860061,-0.160818 0.071625,-0.04043 0.1508336,-0.06592 0.2325075,-0.07557 0.081684,-0.0096 0.1631206,-0.0032 0.2421954,0.01938 0.079075,0.02263 0.1527929,0.06098 0.217007,0.112379 L 8.6899707,7.2853349 12.344214,4.4409923 C 11.990555,3.8688384 11.799693,3.2128104 11.790072,2.5402434 c -0.0096,-0.672558 0.162798,-1.336143 0.499891,-1.91818802 z"
      fill="currentColor" />
</svg>