<svg viewBox="0 0 19 16">
    <path
        d="M18.8775 3.20168C18.8782 2.71951 18.7396 2.2474 18.4784 1.84213C18.2171 1.43686 17.8444 1.11567 17.405 0.917191C16.9656 0.718711 16.4782 0.651389 16.0014 0.723321C15.5246 0.795252 15.0788 1.00337 14.7175 1.32266C14.5219 1.49521 14.3542 1.69704 14.2204 1.92097V1.92332C14.1993 1.95852 14.1794 1.99449 14.1598 2.03047L14.1504 2.04963C14.134 2.08052 14.1188 2.11181 14.1039 2.14348C14.0992 2.15326 14.0949 2.16304 14.0906 2.17281C14.0777 2.20136 14.0652 2.2303 14.0535 2.25963C14.0484 2.27175 14.0437 2.28387 14.039 2.296C14.0284 2.32337 14.0183 2.35074 14.0085 2.37851L13.9944 2.41996C13.9858 2.44655 13.9776 2.47353 13.9698 2.50052C13.9651 2.51577 13.9608 2.53063 13.9569 2.54588C13.9494 2.57208 13.9432 2.59867 13.9369 2.62409C13.933 2.64012 13.9291 2.65616 13.9256 2.67219C13.9201 2.69878 13.915 2.72576 13.9103 2.7504C13.9072 2.76683 13.9041 2.78325 13.9013 2.79967C13.897 2.82705 13.8935 2.85481 13.89 2.88258C13.888 2.89861 13.8857 2.91464 13.8837 2.93107C13.8806 2.96118 13.8786 2.99129 13.8763 3.02179C13.8763 3.03587 13.874 3.04995 13.8732 3.06403C13.8708 3.10861 13.8693 3.15319 13.8693 3.19855C13.8693 3.23765 13.8693 3.27676 13.8724 3.31352V3.33855C13.8745 3.37531 13.8772 3.41207 13.8806 3.44882L13.8829 3.4676C13.8865 3.50083 13.8904 3.53368 13.8955 3.56614C13.8955 3.57279 13.8955 3.57983 13.8982 3.58648C13.9037 3.62206 13.9103 3.65726 13.9174 3.69245C13.9174 3.70106 13.9209 3.70927 13.9224 3.71787C13.9295 3.7515 13.9373 3.78513 13.9459 3.81837V3.8258C13.9549 3.86061 13.9647 3.89463 13.9752 3.92865L13.9835 3.95524C13.994 3.98848 14.005 4.02094 14.0167 4.0534C14.019 4.06043 14.0218 4.06747 14.0245 4.07451C14.0351 4.10228 14.046 4.13004 14.0574 4.15742C14.0605 4.16563 14.0636 4.17345 14.0671 4.18127C14.0804 4.21216 14.0941 4.24306 14.1086 4.27356L14.1215 4.29976C14.1352 4.32713 14.1489 4.35451 14.1633 4.38149C14.3675 4.76086 14.6656 5.08146 15.0291 5.31259C15.1246 5.37356 15.2241 5.42778 15.3271 5.47488L15.3424 5.48192C15.4117 5.5132 15.4825 5.54136 15.5547 5.56639L15.5919 5.5789L15.6505 5.59728C15.6681 5.60275 15.6857 5.60745 15.7037 5.61253L15.7788 5.63208L15.8464 5.64773L15.8914 5.65672L15.963 5.66962L15.9997 5.67549C16.0349 5.68057 16.0705 5.68527 16.1061 5.68918L16.1362 5.69191C16.1648 5.69426 16.1937 5.69661 16.2226 5.69817L16.2563 5.70013C16.2954 5.70013 16.3321 5.70326 16.3704 5.70326C16.4158 5.70326 16.4604 5.70325 16.505 5.69934L16.5472 5.69622C16.5777 5.69387 16.6078 5.69191 16.6379 5.68879L16.6868 5.68253C16.7142 5.67901 16.742 5.67549 16.7693 5.67119L16.8186 5.66219C16.8452 5.6575 16.8722 5.65242 16.8968 5.64694L16.9449 5.6356C16.9715 5.62935 16.9981 5.62309 17.0231 5.61566C17.0384 5.61175 17.0532 5.60745 17.0685 5.60275C17.0955 5.59493 17.1224 5.58672 17.149 5.57812L17.1905 5.56404C17.2183 5.55426 17.2456 5.5441 17.273 5.53354L17.3094 5.51907C17.3387 5.50734 17.3676 5.49482 17.3962 5.48192L17.4255 5.46862C17.4572 5.45376 17.4885 5.43851 17.5194 5.42209L17.5385 5.4127C17.5745 5.39315 17.6105 5.3736 17.6457 5.35209H17.648C17.8738 5.21939 18.0775 5.05237 18.2518 4.85701C18.6556 4.4002 18.8782 3.81137 18.8775 3.20168Z"
        fill="currentColor"></path>
    <path
        d="M14.0042 6.11435L9.87625 9.32491C9.76644 9.41027 9.63132 9.45661 9.49223 9.45661C9.35314 9.45661 9.21802 9.41027 9.10821 9.32491L3.47703 4.94509C3.41087 4.89513 3.35529 4.83252 3.31354 4.76089C3.27179 4.68926 3.24469 4.61005 3.23381 4.52786C3.22293 4.44567 3.2285 4.36214 3.25019 4.28212C3.27188 4.2021 3.30925 4.12718 3.36014 4.06173C3.41103 3.99628 3.47442 3.9416 3.54663 3.90086C3.61883 3.86011 3.69842 3.83413 3.78075 3.82441C3.86309 3.81469 3.94653 3.82144 4.02624 3.84425C4.10595 3.86706 4.18033 3.90548 4.24506 3.95729L9.49223 8.03834L13.1767 5.17269C12.8202 4.59594 12.6268 3.93331 12.6171 3.25534C12.6074 2.57738 12.7818 1.90947 13.1216 1.32275H2.92251C2.3419 1.32337 1.78525 1.5543 1.3747 1.96485C0.964147 2.3754 0.733226 2.93205 0.732605 3.51266V12.898C0.733226 13.4786 0.964147 14.0352 1.3747 14.4458C1.78525 14.8563 2.3419 15.0873 2.92251 15.0879H16.0619C16.6426 15.0873 17.1992 14.8563 17.6098 14.4458C18.0203 14.0352 18.2512 13.4786 18.2519 12.898V6.453C17.5932 6.83452 16.834 7.00647 16.0752 6.94597C15.3165 6.88548 14.5941 6.59541 14.0042 6.11435Z"
        fill="currentColor"></path>
</svg>