<svg viewBox="0 0 18 17.999001" xmlns="http://www.w3.org/2000/svg" xmlns:svg="http://www.w3.org/2000/svg">
    <path
        d="M 15.830679,-3.7285342e-5 13.486592,2.3431251 13.142608,4.8564302 15.655913,4.5124461 18,2.1683589 16.417857,1.5821059 Z M 8.3434708,1.311172 c -2.2287206,0 -4.3235714,0.8680125 -5.8995172,2.4439536 C 0.86797464,5.3310571 6e-8,7.4268468 6e-8,9.6555678 c 0,2.2287202 0.86797458,4.3236232 2.44395354,5.8995172 1.5759458,1.575988 3.6707493,2.443953 5.8995172,2.443953 2.2288152,0 4.3245012,-0.868012 5.9004422,-2.443953 1.575988,-1.575894 2.443953,-3.670797 2.443953,-5.8995172 0,-1.4330099 -0.366485,-2.8349284 -1.061543,-4.0751059 l -2.077776,0.2848046 c 0.776962,1.0641521 1.237234,2.3747141 1.237234,3.7903013 0,3.5517972 -2.890371,6.4413852 -6.4423102,6.4413852 -3.5519391,0 -6.4413851,-2.889588 -6.4413851,-6.4413852 0,-3.5518448 2.8894934,-6.4413854 6.4413851,-6.4413854 1.4156341,0 2.7261022,0.4593274 3.7903012,1.2363092 L 12.418576,2.3727152 C 11.178352,1.6776952 9.7765279,1.311172 8.3434708,1.311172 Z m 0,2.9571561 c -2.9703652,0 -5.3863147,2.4169214 -5.3863147,5.3872397 0,2.9703172 2.4159021,5.3863142 5.3863147,5.3863142 2.9703652,0 5.3872392,-2.415997 5.3872392,-5.3863142 0,-1.2956647 -0.460181,-2.4864168 -1.225213,-3.4167271 l -1.354669,1.3546696 c 0.425386,0.5776921 0.677796,1.2912489 0.677796,2.0620575 0,1.9212682 -1.56379,3.4842292 -3.4851532,3.4842292 -1.9213159,0 -3.484229,-1.562961 -3.484229,-3.4842292 0,-1.921269 1.5629131,-3.4842294 3.484229,-3.4842294 0.7708555,0 1.4843181,0.2514866 2.0620572,0.6768727 l 1.35467,-1.3546696 C 10.82984,4.7285089 9.639135,4.2683281 8.3434708,4.2683281 Z m 0,2.9571562 c -1.3397889,0 -2.4291584,1.0903415 -2.4291584,2.4300835 0,1.3397412 1.0893695,2.4291582 2.4291584,2.4291582 1.3397415,0 2.4300832,-1.089417 2.4300832,-2.4291582 0,-0.4793589 -0.140322,-0.926859 -0.380972,-1.3038121 L 8.717045,10.028217 7.9708212,9.2829178 9.6472824,7.6064561 C 9.2703293,7.3658539 8.8228292,7.2254843 8.3434708,7.2254843 Z"
        fill="currentColor" />
</svg>