<svg viewBox="0 0 18 18" xmlns="http://www.w3.org/2000/svg" xmlns:svg="http://www.w3.org/2000/svg">
   <path
      d="m 14.459899,0.16468999 a 0.5624754,0.562493 0 0 0 -0.79534,0 l -1.852794,1.85285191 4.170193,4.1703232 1.852794,-1.851727 a 0.5624754,0.562493 0 0 0 0,-0.7964901 z M 15.186618,6.9832302 11.016425,2.8129071 3.7042449,10.125316 h 0.2328648 a 0.5624754,0.562493 0 0 1 0.5624754,0.562493 v 0.562493 h 0.5624754 a 0.5624754,0.562493 0 0 1 0.5624754,0.562493 v 0.562493 h 0.5624754 a 0.5624754,0.562493 0 0 1 0.5624754,0.562493 v 0.562493 h 0.5624754 a 0.5624754,0.562493 0 0 1 0.5624754,0.562493 v 0.232872 z M 6.7854851,15.384626 A 0.5624754,0.562493 0 0 1 6.7494867,15.187753 V 14.62526 H 6.1870113 A 0.5624754,0.562493 0 0 1 5.6245359,14.062767 V 13.500274 H 5.0620605 A 0.5624754,0.562493 0 0 1 4.4995851,12.937781 V 12.375288 H 3.9371097 A 0.5624754,0.562493 0 0 1 3.3746343,11.812795 V 11.250302 H 2.8121589 a 0.5624754,0.562493 0 0 1 -0.1968664,-0.036 l -0.2013662,0.200247 a 0.5624754,0.562493 0 0 0 -0.1237446,0.188998 l -2.24990166,5.62493 a 0.5624754,0.562493 0 0 0 0.73121803,0.731242 L 6.3962521,15.709747 a 0.5624754,0.562493 0 0 0 0.1889918,-0.123749 z"
      fill="currentColor" />
</svg>