<svg viewBox="0 0 18 16.271999" xmlns="http://www.w3.org/2000/svg" xmlns:svg="http://www.w3.org/2000/svg">
    <path
        d="m 16.200043,16.271997 c 0.477369,0 0.935213,-0.190491 1.272773,-0.529556 C 17.810377,15.403376 18,14.943508 18,14.463997 V 10.048864 C 18,9.5693532 17.810377,9.1094853 17.472816,8.7704204 17.135256,8.4313555 16.677412,8.2408647 16.200043,8.2408647 h -2.498366 c 0,-0.6346221 0.03781,-1.2710378 0.111604,-1.905631 0.111605,-0.6725757 0.298798,-1.2710379 0.557992,-1.7935351 0.260989,-0.5243198 0.595772,-0.93475 1.006173,-1.2348779 0.408608,-0.3362878 0.928791,-0.5044173 1.562372,-0.5044173 V 2.1795654e-6 C 15.89763,2.1795654e-6 14.986861,0.22419378 14.203867,0.67257758 13.4277,1.1164168 12.760361,1.7292677 12.25091,2.4661127 11.739579,3.2784713 11.362705,4.1687011 11.134926,5.1021783 10.905411,6.1323038 10.793084,7.1852825 10.800113,8.2408647 v 6.2231323 c 0,0.479511 0.189652,0.939379 0.527213,1.278444 0.337561,0.339065 0.795375,0.529556 1.272774,0.529556 z m -10.7998297,0 c 0.4773985,0 0.9352128,-0.190491 1.2727735,-0.529556 0.3375606,-0.339065 0.5272125,-0.798933 0.5272125,-1.278444 v -4.415133 c 0,-0.4795108 -0.1896519,-0.9393787 -0.5272125,-1.2784436 C 6.3354261,8.4313555 5.8776118,8.2408647 5.4002133,8.2408647 H 2.9018478 c 0,-0.6346221 0.037809,-1.2710378 0.1116042,-1.905631 C 3.1250561,5.662658 3.3122491,5.0641958 3.5714439,4.5416986 3.8324322,4.0173788 4.1672447,3.6069486 4.577646,3.3068207 4.9862249,2.9705329 5.5064079,2.8024034 6.1400176,2.8024034 V 2.1795654e-6 C 5.097829,2.1795654e-6 4.1870314,0.22419378 3.4040665,0.67257758 2.6278824,1.1164168 1.9605543,1.7292677 1.4510862,2.4661127 0.93976089,3.2784713 0.56288129,4.1687011 0.33510519,5.1021783 0.10558479,6.1323038 -0.00673303,7.1852825 3.1180349e-4,8.2408647 v 6.2231323 c 0,0.479511 0.18963856651,0.939379 0.52719918651,1.278444 0.3375578,0.339065 0.79538951,0.529556 1.27277071,0.529556 z"
        fill="currentColor" />
</svg>