<svg viewBox="0 0 18 18" xmlns="http://www.w3.org/2000/svg" xmlns:svg="http://www.w3.org/2000/svg">
    <path
        d="M 1.9455374,0 C 0.87313927,0 0,0.87313927 0,1.9455374 V 16.054462 C 0,17.12686 0.87313927,18 1.9455374,18 H 16.054462 C 17.12686,18 18,17.12686 18,16.054462 V 1.9455374 C 18,0.87313927 17.12686,0 16.054462,0 Z M 2.8632438,2.7315259 H 6.5232725 L 9.6845009,7.3416507 13.642515,2.7315259 h 1.083973 L 10.161708,8.0391075 15.1238,15.257677 H 11.476727 L 8.1384357,10.392755 3.9472169,15.257677 H 2.8632438 L 7.6504319,9.6974568 Z m 1.4704894,0.796785 3.8586852,5.5278311 0.4880039,0.6952975 3.3037427,4.7202495 h 1.671306 L 9.5959693,8.6804223 9.1101248,7.9829654 6.0028791,3.5283109 Z"
        fill="currentColor" />
</svg>