<svg viewBox="0 0 18 18">
    <path d="m9.54,8.71l3.67,5.24l-1.51,0l-2.99,-4.27l0,0l-0.44,-0.63l-3.49,-5l1.51,0l2.81,4.03l0.44,0.63z"
        fill="currentColor"></path>
    <path
        d="m15.38,0.86l-12.76,0c-0.97,0 -1.76,0.79 -1.76,1.76l0,12.76c0,0.97 0.79,1.76 1.76,1.76l12.76,0c0.97,0 1.76,-0.79 1.76,-1.76l0,-12.76c0,-0.97 -0.79,-1.76 -1.76,-1.76zm-4.14,13.8l-3.02,-4.4l-3.79,4.4l-0.98,0l4.33,-5.03l-4.33,-6.3l3.31,0l2.86,4.17l3.58,-4.17l0.98,0l-4.13,4.8l0,0l4.49,6.53l-3.3,0z"
        fill="currentColor"></path>
</svg>