<svg viewBox="0 0 18 17.73" xmlns="http://www.w3.org/2000/svg" xmlns:svg="http://www.w3.org/2000/svg">
    <path
        d="M 8.4715327,-1.7491888e-4 V 2.3993971 H 9.5268628 V -1.7491888e-4 Z M 5.3480767,0.61376238 4.3489236,0.99897796 5.0254583,3.2685398 6.0246114,2.8833242 Z m 7.3054523,0.005618 -0.675732,2.27036432 0.998351,0.3852155 0.676534,-2.2703643 z m 3.685229,1.87391302 -1.13478,2.0223818 0.889205,0.6452358 1.134781,-2.0223815 z M 1.6596374,2.4948985 0.77043135,3.1409371 1.9052123,5.1633189 2.7944183,4.5180826 Z m 7.3391591,1.7061839 c -2.03295,0 -3.6908469,1.8669289 -3.6908469,4.1972448 0,2.3320408 1.659335,4.1972438 3.6908469,4.1972438 0.8278733,0 1.5939755,-0.310166 2.2109765,-0.834634 l 0.837042,0.951804 c -0.280108,0.668857 -0.177959,1.495038 0.308172,2.048063 l 2.610639,2.96937 2.23746,-2.544831 -2.610638,-2.96937 c -0.298845,-0.339934 -0.696124,-0.527264 -1.11873,-0.527264 -0.240128,0 -0.471815,0.06039 -0.682153,0.174952 l -0.835436,-0.950198 c 0.460943,-0.699468 0.734317,-1.5689243 0.734317,-2.5151358 0,-2.3320417 -1.660137,-4.1972448 -3.6916495,-4.1972448 z M 5.206831,5.1488734 C 4.9590603,5.2711969 4.7109001,5.4053205 4.4628833,5.5509419 2.9119925,6.4618989 1.3885262,7.7832256 2.5e-7,9.5981132 2.2316852,12.522666 5.58429,14.996748 8.9987965,14.996748 c 0.6898123,0 1.3832855,-0.10014 2.0681265,-0.285701 -0.163948,-0.419443 -0.240983,-0.877388 -0.226314,-1.335414 -0.575214,0.274848 -1.1989652,0.419724 -1.8418126,0.419724 -1.2656014,0 -2.4554984,-0.558852 -3.3513755,-1.573766 C 4.7482157,11.202938 4.2526197,9.8451336 4.2526197,8.3983272 c 0,-1.1894212 0.3354014,-2.319144 0.9542113,-3.2494538 z m 7.587142,0.00401 c 0.617207,0.9294884 0.951803,2.0574994 0.951803,3.2454414 0,0.7310664 -0.127207,1.4387536 -0.368362,2.0922022 0.03201,-0.0013 0.06405,-0.0016 0.0963,-0.0016 0.704317,0 1.367038,0.31223 1.865085,0.878774 l 0.528066,0.600294 C 16.66598,11.247895 17.3883,10.438517 18,9.5844702 16.614212,7.7737327 14.792078,6.1350511 12.793973,5.1528858 Z M 8.9987965,6.5982467 c 0.8723733,0 1.5825945,0.8077249 1.5825945,1.8000805 0,0.9923552 -0.7102212,1.7992768 -1.5825945,1.7992768 -0.8723738,0 -1.5817914,-0.8069216 -1.5817914,-1.7992768 0,-0.9923556 0.7094176,-1.8000805 1.5817914,-1.8000805 z m 0,1.199786 c -0.2912431,0 -0.5272638,0.268989 -0.5272638,0.6002945 0,0.3313055 0.2360207,0.5994916 0.5272638,0.5994916 0.2912843,0 0.5280663,-0.2681861 0.5280663,-0.5994916 0,-0.3313055 -0.236782,-0.6002945 -0.5280663,-0.6002945 z"
        fill="currentColor" />
</svg>