<svg xmlns="http://www.w3.org/2000/svg"><symbol id="icon-call" viewBox="0 0 18 15"><path d="M2.3.63c-2 0-2 2-2 2v9.74c0 2 2 2 2 2h13.41c2 0 2-2 2-2V2.63c0-2-2-2-2-2H2.3zm3.81 2.19c.06-.01.13 0 .21.03.13.05.25.15.43.33.38.38.9 1.21 1.09 1.62.13.28.22.46.22.67 0 .24-.12.42-.27.62l-.08.11c-.16.21-.2.27-.17.37.04.22.39.87.96 1.44.58.57 1.2.89 1.42.94.11.02.17-.01.39-.18.03-.02.06-.05.1-.07.22-.17.39-.28.63-.28.2 0 .38.09.67.23.37.19 1.23.7 1.61 1.08.18.19.28.31.33.44.08.2.01.35-.04.46 0 .02-.01.04-.02.06-.09.2-.2.4-.32.59-.22.34-.45.59-.83.77-.19.09-.4.14-.61.13-.41 0-.98-.14-1.84-.62-1.05-.59-1.86-1.13-2.89-2.17-1.01-1-1.49-1.64-2.17-2.88-.77-1.41-.64-2.14-.5-2.45.18-.38.44-.6.77-.83.19-.12.39-.23.6-.31l.06-.03a.57.57 0 0 1 .25-.07z" fill="currentColor"/></symbol><symbol id="icon-collabratec" viewBox="0 0 32 32"><path d="M5.057.088A4.425 4.425 0 0 0 .62 4.523v21.954a4.425 4.425 0 0 0 4.436 4.435h21.886a4.425 4.425 0 0 0 4.436-4.435V4.523A4.425 4.425 0 0 0 26.943.088H5.057zm7.115 5.103c1.074-.002 2.543.08 4.103.303l2.498.434c2.263.357 3.808.854 4.747 1.593.469.28.772.714 1.09 1.288.303.497.536 1.146.619 1.873.068.497.152 1.224.152 2.168.069.854.068 2.013.068 3.377h.014c0 1.083 0 2.09-.068 2.88a11.026 11.026 0 0 1-.387 2.092c-.235.574-.468 1.082-.785 1.516-.304.433-.773.867-1.243 1.084-.386.217-.923.433-1.64.637-.69.216-1.547.434-2.65.574l-2.497.433c-2.8.434-4.91.51-6.152.077-1.476-.434-2.498-1.594-2.967-3.391-.152-.637-.318-1.657-.386-2.881a73.849 73.849 0 0 1-.15-4.754c0-1.517.068-2.88.22-3.951.165-1.147.4-2.026.703-2.74a4.773 4.773 0 0 1 1.324-1.658c.538-.434 1.16-.727 1.945-.868.295-.052.797-.084 1.442-.086zm3.646 3.967c-2.945.067-5.406 2.557-5.406 5.998 0 3.455 2.497 6.118 6.084 5.621l.455-.076c.083 0 .166-.076.166-.217V18.97c0-.077-.082-.217-.234-.14l-.469.064c-2.028.216-3.656-1.29-3.656-3.737 0-1.223.455-2.307 1.076-2.957.786-.714 1.408-.993 2.498-.93l2.262.14c.083 0 .234-.064.234-.204V9.611c0-.076-.07-.14-.152-.216l-2.262-.217c-.2-.018-.4-.024-.596-.02zm.057 3.551c-.083 0-.234.065-.234.205v1.44a.23.23 0 0 0 .234.216h2.885v7.992c0 .14.069.218.234.141l1.393-.14c.069 0 .152-.065.152-.141v-7.928h2.346c.069 0 .234-.064.234-.217v-1.21c.07 0 0-.077-.166-.077l-7.078-.281z" fill="currentColor"/></symbol><symbol id="icon-facebook" viewBox="0 0 18 18"><path d="M15.71 0H2.29A2.3 2.3 0 0 0 .664.675 2.314 2.314 0 0 0 0 2.29v13.431c0 .608.243 1.184.664 1.615a2.303 2.303 0 0 0 1.626.675h6.572v-7.49H7.368V7.523h1.483v-1.36c0-1.229.586-3.143 3.153-3.143l2.312.011v2.567h-1.682c-.265 0-.652.144-.652.72v1.205h2.378l-.276 2.998H11.86v7.49h3.85c.299 0 .597-.066.874-.177a2.29 2.29 0 0 0 .752-.498c.21-.21.376-.464.487-.741.122-.277.177-.575.177-.874V2.291c0-.3-.055-.598-.177-.875a2.213 2.213 0 0 0-.487-.741 2.29 2.29 0 0 0-.752-.498A2.37 2.37 0 0 0 15.71 0Z" fill="currentColor"/></symbol><symbol id="icon-instagram" viewBox="0 0 18 18"><path d="M13.05.86H4.94A4.09 4.09 0 0 0 .86 4.94v8.13c0 2.23 1.83 4.07 4.08 4.07h8.12a4.09 4.09 0 0 0 4.08-4.08V4.94C17.13 2.7 15.3.86 13.05.86zM6.28 14.04H3.96V7.32h2.32v6.72zM5.11 6.29c-.66 0-1.19-.53-1.19-1.19a1.184 1.184 0 1 1 2.37 0c-.01.66-.54 1.19-1.18 1.19zm8.93 7.75h-1.95v-3.26c0-.79-.1-1.79-1.17-1.79-1.1 0-1.28.85-1.28 1.74v3.31H7.7V7.32h1.81v.9h.05c.29-.51.95-.91 1.98-.91 2.13 0 2.5 1.22 2.5 3.05v3.68z" fill="currentColor"/></symbol><symbol id="icon-linkedin" viewBox="0 0 18 18"><path d="M13.05.86H4.94A4.09 4.09 0 0 0 .86 4.94v8.13c0 2.23 1.83 4.07 4.08 4.07h8.12a4.09 4.09 0 0 0 4.08-4.08V4.94C17.13 2.7 15.3.86 13.05.86zM6.28 14.04H3.96V7.32h2.32v6.72zM5.11 6.29c-.66 0-1.19-.53-1.19-1.19a1.184 1.184 0 1 1 2.37 0c-.01.66-.54 1.19-1.18 1.19zm8.93 7.75h-1.95v-3.26c0-.79-.1-1.79-1.17-1.79-1.1 0-1.28.85-1.28 1.74v3.31H7.7V7.32h1.81v.9h.05c.29-.51.95-.91 1.98-.91 2.13 0 2.5 1.22 2.5 3.05v3.68z" fill="currentColor"/></symbol><symbol id="icon-mail" viewBox="0 0 19 16"><path d="M18.878 3.202A2.503 2.503 0 0 0 14.22 1.92v.002a2.99 2.99 0 0 0-.06.107l-.01.02c-.016.03-.031.062-.046.093a2.108 2.108 0 0 0-.095.235l-.015.042a2.682 2.682 0 0 0-.037.126c-.008.026-.014.053-.02.078a2.09 2.09 0 0 0-.011.048l-.016.078-.009.05a2.761 2.761 0 0 0-.011.083l-.006.048-.008.09c0 .015-.002.029-.003.043a2.493 2.493 0 0 0 0 .25v.025c.002.036.004.073.008.11l.002.019c.004.033.007.066.013.098a2.352 2.352 0 0 0 .022.126c0 .01.003.017.004.026.008.034.015.067.024.1v.008c.009.035.019.069.03.103l.007.026.034.098.008.022a2.989 2.989 0 0 0 .084.199l.012.026.042.081a2.517 2.517 0 0 0 1.164 1.094l.015.007c.07.031.14.06.213.084l.037.013.058.018.054.016.075.02.067.015.045.009.072.013.037.005c.035.006.07.01.106.014l.03.003.087.006.033.002c.04 0 .076.003.114.003.046 0 .09 0 .135-.004l.042-.003.09-.007.05-.006.082-.012.05-.009.078-.015.048-.011a1.411 1.411 0 0 0 .123-.033l.081-.025.041-.014.083-.03.036-.015a2.2 2.2 0 0 0 .087-.037l.03-.013c.031-.015.063-.03.093-.047l.02-.01c.035-.019.071-.038.107-.06h.002a2.495 2.495 0 0 0 1.23-2.15Z" fill="currentColor"/><path d="m14.004 6.114-4.128 3.21a.626.626 0 0 1-.768 0L3.477 4.946a.626.626 0 1 1 .768-.988l5.247 4.081 3.685-2.865a3.749 3.749 0 0 1-.055-3.85h-10.2a2.192 2.192 0 0 0-2.19 2.19v9.385a2.192 2.192 0 0 0 2.19 2.19h13.14a2.193 2.193 0 0 0 2.19-2.19V6.453a3.748 3.748 0 0 1-4.248-.339Z" fill="currentColor"/></symbol><symbol id="icon-menu" viewBox="0 0 17 14"><path stroke="currentColor" stroke-linecap="round" stroke-linejoin="round" stroke-width="2" d="M1 1h15M1 7h15M1 13h15"/></symbol><symbol id="icon-twitter" viewBox="0 0 18 18"><path d="m9.54 8.71 3.67 5.24H11.7L8.71 9.68l-.44-.63-3.49-5h1.51L9.1 8.08l.44.63z" fill="currentColor"/><path d="M15.38.86H2.62C1.65.86.86 1.65.86 2.62v12.76c0 .97.79 1.76 1.76 1.76h12.76c.97 0 1.76-.79 1.76-1.76V2.62c0-.97-.79-1.76-1.76-1.76zm-4.14 13.8-3.02-4.4-3.79 4.4h-.98l4.33-5.03-4.33-6.3h3.31L9.62 7.5l3.58-4.17h.98l-4.13 4.8 4.49 6.53h-3.3z" fill="currentColor"/></symbol></svg>