<svg xmlns="http://www.w3.org/2000/svg"><symbol id="icon-arrow-left-fill" viewBox="0 0 18 18"><path d="M0 9a9 9 0 1 1 18 0A9 9 0 0 1 0 9Zm9.201 3.953a.692.692 0 0 0 .004-.98l-2.264-2.28h5.78a.692.692 0 0 0 0-1.385h-5.78l2.264-2.282a.693.693 0 0 0-.984-.975L4.786 8.512a.692.692 0 0 0 0 .976l3.435 3.461a.692.692 0 0 0 .98.004z" fill="currentColor"/></symbol><symbol id="icon-arrow-left" viewBox="0 0 8.869 18"><path d="M8.683.203a.7.7 0 0 1 .138.225.748.748 0 0 1-.138.755L1.53 9l7.153 7.817c.119.13.186.306.186.49s-.067.36-.186.49a.608.608 0 0 1-.448.203.608.608 0 0 1-.449-.203L.186 9.49a.7.7 0 0 1-.138-.224.749.749 0 0 1 .138-.756l7.6-8.307a.633.633 0 0 1 .206-.15.587.587 0 0 1 .485 0 .633.633 0 0 1 .206.15z" fill="currentColor"/></symbol><symbol id="icon-arrow-right" viewBox="0 0 8.869 18"><path d="M.186 17.797a.7.7 0 0 1-.138-.225.748.748 0 0 1 .138-.755L7.34 9 .186 1.183A.727.727 0 0 1 0 .693c0-.184.067-.36.186-.49A.608.608 0 0 1 .634 0c.169 0 .33.073.449.203l7.6 8.307a.7.7 0 0 1 .138.225.748.748 0 0 1-.138.755l-7.6 8.307a.633.633 0 0 1-.206.15.586.586 0 0 1-.485 0 .633.633 0 0 1-.206-.15z" fill="currentColor"/></symbol><symbol id="icon-arrow-up-right" viewBox="0 0 18 18"><path d="M6.476 12.366a.59.59 0 0 1-.419.175.607.607 0 0 1-.423-.17.6.6 0 0 1 0-.847l4.878-4.873H7.213a.59.59 0 0 1-.418-.175.59.59 0 0 1 0-.842.59.59 0 0 1 .418-.176h4.734a.6.6 0 0 1 .424.176.607.607 0 0 1 .17.423v4.73c0 .157-.063.31-.17.422a.615.615 0 0 1-.424.172.615.615 0 0 1-.422-.172.615.615 0 0 1-.172-.422V7.492l-4.877 4.874" fill="currentColor"/></symbol><symbol id="icon-award-star" viewBox="0 0 18 14.934"><path d="M5.653 0c-.02-.003-.052.006-.111.03l-.22.081c-.15.056-.304.113-.454.178-.25.109-.45.274-.593.49a.73.73 0 0 0-.132.504.034.034 0 0 1-.002.007 6.99 6.99 0 0 0-.766.78 2.3 2.3 0 0 0 .337-.91c.057-.351.06-.664.011-.956L3.71.145 3.702.11a.045.045 0 0 0-.03-.032.044.044 0 0 0-.042.01l-.053.048-.012.01c-.043.04-.085.078-.122.12-.363.41-.575.842-.648 1.323-.033.218-.02.403.042.566.02.054.052.102.084.15l.041.067c.01.016.011.02.011.02a5.419 5.419 0 0 1-.026.221.093.093 0 0 1-.008.01l-.004.007a8.375 8.375 0 0 0-.547.868 2.92 2.92 0 0 0 .113-.84 2.231 2.231 0 0 0-.28-1.084c-.007-.013-.02-.021-.039-.022a.044.044 0 0 0-.034.017.626.626 0 0 0-.05.067c-.146.23-.225.483-.277.678a3.541 3.541 0 0 0-.137.94c0 .24.044.425.138.582.029.049.066.092.102.134.02.023.04.046.058.07a.088.088 0 0 1 .02.044 2.72 2.72 0 0 1 0 .171L2 4.294a.063.063 0 0 1-.004.02 8.69 8.69 0 0 0-.308.884c.013-.103.02-.203.022-.3a2.2 2.2 0 0 0-.506-1.473l-.072-.089a.043.043 0 0 0-.034-.015h-.007a.044.044 0 0 0-.034.028l-.02.05-.033.09c-.074.233-.11.487-.118.824v.007c-.005.246-.013.581.088.903.1.317.274.477.308.506l.004.003c.092.082.152.158.164.207.005.02.01.04.017.059.026.087.01.17-.008.26-.01.045-.018.092-.022.14-.012.192-.028.387-.043.576l-.001.017-.012.144a2.357 2.357 0 0 0-.962-1.712l-.03-.019a.785.785 0 0 1-.022-.013.045.045 0 0 0-.042-.002.044.044 0 0 0-.024.035 3.62 3.62 0 0 1-.01.081c-.006.057-.013.11-.013.164a3.451 3.451 0 0 0 .356 1.574c.066.133.154.249.261.343.106.094.22.148.35.168.003 0 .01.005.01.005l.022.043c.025.05.052.101.066.153.01.044.01.091.01.142l.001.055c.012.438.029.59.099.982a1.904 1.904 0 0 0-.165-.346c-.28-.454-.637-.761-1.09-.941-.029-.012-.058-.02-.091-.03L.1 7.815l-.043-.013a.043.043 0 0 0-.04.008.045.045 0 0 0-.017.04c.004.03.006.06.008.09.005.065.009.126.024.186.146.564.388 1.013.74 1.373.15.154.308.242.483.27a.89.89 0 0 0 .19.002l.026-.001h.01c.008 0 .008 0 .013.007l.123.168.005.016.002.006c.128.43.285.846.472 1.24a2.428 2.428 0 0 0-.278-.32c-.47-.456-1.275-.47-1.365-.47H.44l-.007.002a.043.043 0 0 0-.027.054l.019.067c.013.046.026.095.044.141.09.223.234.437.455.675.152.163.324.328.547.433.244.114.464.142.683.086a.4.4 0 0 0 .117-.046c.026-.017.033-.016.06.003.03.023.062.042.094.06l.052.031.01.015c.197.32.413.619.647.89a1.384 1.384 0 0 0-.394-.202 1.915 1.915 0 0 0-1.443.117.044.044 0 0 0-.02.029.044.044 0 0 0 .009.034l.04.053.003.004c.03.04.063.086.1.126.17.181.378.303.578.407a1.948 1.948 0 0 0 .876.23.776.776 0 0 0 .614-.259.033.033 0 0 1 .012-.004 1.7 1.7 0 0 1 .158.02.045.045 0 0 1 .02.01c.258.23.532.43.819.601a1.452 1.452 0 0 0-.134-.033c-.306-.058-.618-.022-.961.115a2.241 2.241 0 0 0-.658.414.043.043 0 0 0-.006.06.668.668 0 0 0 .257.187c.209.097.443.159.719.19a2.383 2.383 0 0 0 .461-.004c.071-.008.142-.02.211-.037.318-.077.533-.236.656-.482a.064.064 0 0 1 .024-.011c.057-.014.108-.024.157-.03a.087.087 0 0 1 .044.008 5.035 5.035 0 0 0 .7.21c.015 0 .03-.009.038-.023a.706.706 0 0 1 .082-.12.044.044 0 0 0-.024-.07 5.095 5.095 0 0 1-.888-.289.044.044 0 0 1-.015-.02.86.86 0 0 1-.031-.32c.06-.711-.364-1.46-1.007-1.781a.57.57 0 0 0-.044-.02l-.016-.006a.044.044 0 0 0-.06.047l.018.109.045.286.004.024c.041.268.084.546.167.813.075.24.19.43.352.576-.34-.2-.657-.442-.945-.719a.063.063 0 0 1-.014-.034l-.008-.19c0-.007 0-.025.004-.034.142-.33.178-.702.111-1.136a2.3 2.3 0 0 0-.532-1.146c-.034-.04-.064-.06-.089-.06a.034.034 0 0 0-.015.003.044.044 0 0 0-.024.034l-.008.067a24.021 24.021 0 0 1-.045.402l-.002.012c-.024.213-.05.433-.063.653-.015.257-.01.558.141.836l.003.004a6.61 6.61 0 0 1-.577-.85c-.015-.026-.016-.05-.013-.084a.772.772 0 0 1 .15-.367c.136-.203.219-.444.267-.78a2.51 2.51 0 0 0-.224-1.439l-.015-.03a.045.045 0 0 0-.041-.024.044.044 0 0 0-.039.028l-.144.364-.031.076a5.466 5.466 0 0 0-.28.858c-.047.217-.05.425-.01.624a7.79 7.79 0 0 1-.388-1.189c0-.004-.002-.016.008-.044a.733.733 0 0 1 .24-.326c.235-.18.369-.432.469-.653.204-.454.259-.936.169-1.474a.114.114 0 0 0-.005-.018l-.002-.005a.043.043 0 0 0-.024-.026.046.046 0 0 0-.035 0 .056.056 0 0 0-.032.021l-.155.206-.008.012c-.131.174-.267.353-.397.532a2.23 2.23 0 0 0-.325.614c-.033.1-.054.196-.064.29a9.08 9.08 0 0 1-.074-1.023.312.312 0 0 1 .066-.22.409.409 0 0 1 .192-.147c.315-.115.517-.359.658-.558.227-.322.361-.696.408-1.145.005-.046.008-.093.01-.143l.002-.011c0-.024.003-.049.004-.075a.044.044 0 0 0-.024-.043.045.045 0 0 0-.048.006l-.037.032a36.644 36.644 0 0 1-.22.176l-.006.005c-.132.105-.27.214-.4.326-.255.217-.418.433-.516.68-.016.04-.03.08-.042.12.04-.392.105-.778.194-1.152.011-.046.017-.06.04-.067a.085.085 0 0 0 .036-.025c.065-.073.15-.085.232-.087.275-.006.494-.144.67-.277.435-.327.734-1.157.734-1.185a.044.044 0 0 0-.06-.04l-.275.114c-.206.085-.42.174-.624.27a1.243 1.243 0 0 0-.485.389c.11-.316.239-.625.383-.922.017-.032.094-.066.206-.066a.44.44 0 0 1 .102.012c.262.063.522.024.81-.12.293-.146.537-.387.745-.735a.362.362 0 0 0 .016-.039.043.043 0 0 0-.005-.04.045.045 0 0 0-.038-.019l-.104.007c-.064.004-.126.008-.188.01l-.066.004c-.197.01-.4.02-.6.068a1.08 1.08 0 0 0-.522.263 7.95 7.95 0 0 1 .484-.717.101.101 0 0 1 .045-.018.398.398 0 0 1 .086-.01c.058 0 .108.013.151.036.273.134.58.144.913.03a1.493 1.493 0 0 0 .726-.558.037.037 0 0 0 .001-.035c-.016-.033-.084-.048-.112-.053a6.062 6.062 0 0 0-.229-.037l-.108-.016-.005-.001a3.962 3.962 0 0 0-.378-.043 1.04 1.04 0 0 0-.611.141c.114-.121.23-.237.349-.345.037-.034.08-.069.138-.112a.061.061 0 0 1 .03-.009c.41-.016.75-.196 1.041-.552.16-.195.282-.439.374-.749l.003-.01c.01-.033.015-.051-.008-.072A.031.031 0 0 0 5.653 0zm6.694 0a.032.032 0 0 0-.016.01c-.023.02-.018.038-.008.07l.003.011c.092.31.214.554.373.747.291.356.632.537 1.041.553.014 0 .026.005.03.008.058.043.1.078.138.112.118.108.235.224.35.345a1.04 1.04 0 0 0-.612-.141c-.128.006-.255.025-.378.043l-.005.001-.108.016a6.12 6.12 0 0 0-.229.037c-.029.005-.097.02-.112.053a.038.038 0 0 0 .001.035 1.493 1.493 0 0 0 .725.557c.334.115.64.106.915-.029a.308.308 0 0 1 .15-.035c.044 0 .077.007.087.01.017.002.04.011.044.017.17.225.333.465.484.718a1.08 1.08 0 0 0-.522-.264c-.2-.047-.403-.057-.6-.067l-.066-.004a15.582 15.582 0 0 1-.188-.01l-.106-.008a.044.044 0 0 0-.04.06.365.365 0 0 0 .015.039c.208.347.452.588.746.735.288.143.547.181.81.119a.442.442 0 0 1 .101-.011c.112 0 .19.034.206.065.144.298.273.607.384.922-.117-.16-.28-.29-.486-.388-.205-.097-.418-.185-.627-.272l-.271-.113a.044.044 0 0 0-.061.04c0 .028.299.858.733 1.185.177.134.396.271.671.278.083.001.168.013.232.086.01.012.023.02.037.025.022.008.028.021.039.067.089.374.154.76.194 1.152a1.545 1.545 0 0 0-.042-.12c-.098-.247-.261-.463-.515-.68-.131-.112-.269-.22-.401-.325l-.007-.005a36.365 36.365 0 0 1-.219-.176l-.037-.033a.045.045 0 0 0-.048-.006.044.044 0 0 0-.024.043l.005.075v.011c.004.05.006.097.011.143.047.449.18.824.408 1.146.141.199.343.442.659.557a.411.411 0 0 1 .192.148.311.311 0 0 1 .065.219c-.005.345-.03.688-.073 1.023a1.41 1.41 0 0 0-.065-.29 2.222 2.222 0 0 0-.325-.614c-.13-.178-.266-.358-.397-.532l-.008-.011a79.142 79.142 0 0 1-.154-.206c-.01-.013-.024-.018-.032-.021a.043.043 0 0 0-.06.026l-.002.004a.109.109 0 0 0-.005.018c-.09.538-.035 1.02.17 1.474.1.222.233.473.468.654a.733.733 0 0 1 .24.326c.01.027.01.039.008.043-.1.414-.23.812-.388 1.19.04-.2.037-.408-.01-.625a5.472 5.472 0 0 0-.28-.858l-.03-.076-.145-.364a.045.045 0 0 0-.042-.028c-.016 0-.03.01-.038.024l-.016.03a2.521 2.521 0 0 0-.224 1.44c.05.336.132.576.268.78a.764.764 0 0 1 .15.366c.003.034.002.058-.013.084a6.612 6.612 0 0 1-.574.846c.152-.278.156-.578.14-.835-.013-.22-.038-.44-.062-.654l-.002-.012a24.06 24.06 0 0 1-.045-.402l-.008-.066a.044.044 0 0 0-.023-.035c-.024-.012-.063.007-.105.057a2.298 2.298 0 0 0-.532 1.145c-.067.435-.03.807.112 1.137.003.01.003.027.003.033l-.007.19a.063.063 0 0 1-.015.035 5.092 5.092 0 0 1-.945.72c.161-.146.277-.337.352-.577.083-.267.126-.544.167-.813l.004-.025.045-.285.018-.109a.044.044 0 0 0-.016-.041.045.045 0 0 0-.044-.006l-.016.006-.044.02c-.643.32-1.066 1.07-1.006 1.781a.859.859 0 0 1-.032.32.044.044 0 0 1-.015.02 5.093 5.093 0 0 1-.888.288.044.044 0 0 0-.032.029.044.044 0 0 0 .008.042c.032.038.06.078.082.12.01.018.032.027.049.022.238-.054.47-.124.689-.209a.084.084 0 0 1 .044-.008c.049.006.1.016.157.03.012.003.022.009.022.008.125.25.34.409.657.486.07.017.14.029.212.036.075.008.158.012.248.012.124 0 .212-.008.213-.008.275-.03.51-.092.718-.189a.67.67 0 0 0 .258-.188.044.044 0 0 0-.006-.06 2.241 2.241 0 0 0-.658-.414c-.343-.136-.655-.173-.961-.114-.046.009-.09.02-.134.033.286-.172.56-.373.82-.602a.044.044 0 0 1 .019-.01 2.11 2.11 0 0 1 .156-.02c.005 0 .012.003.013.004a.78.78 0 0 0 .615.259l.039-.001a1.95 1.95 0 0 0 .837-.229c.2-.104.408-.225.577-.406.038-.04.071-.086.1-.126l.004-.004.04-.054a.043.043 0 0 0 .008-.034.045.045 0 0 0-.02-.03 1.915 1.915 0 0 0-1.442-.116c-.138.044-.268.11-.394.203.234-.272.45-.57.647-.89l.01-.015.052-.031c.03-.019.064-.038.094-.06.026-.02.033-.02.06-.004a.4.4 0 0 0 .117.046c.219.056.439.029.683-.086.223-.105.394-.27.546-.433.221-.237.366-.452.455-.674.019-.047.032-.095.046-.146l.018-.063a.043.043 0 0 0-.027-.054l-.019-.001c-.09 0-.894.013-1.365.47a2.426 2.426 0 0 0-.278.32c.187-.394.344-.81.472-1.241l.001-.006a.083.083 0 0 1 .006-.016l.123-.169c.004-.006.005-.007.012-.007h.011l.026.002a.887.887 0 0 0 .19-.002.854.854 0 0 0 .483-.27c.351-.36.593-.809.74-1.373.015-.06.02-.12.024-.186L18 7.85a.045.045 0 0 0-.016-.04.044.044 0 0 0-.04-.007l-.044.013-.007.002c-.033.01-.062.018-.091.03-.453.18-.809.488-1.09.942a1.932 1.932 0 0 0-.165.344c.07-.39.086-.543.099-.98v-.056c0-.051 0-.099.011-.142a.759.759 0 0 1 .066-.154l.02-.04a.03.03 0 0 1 .012-.007.672.672 0 0 0 .35-.168c.107-.094.195-.21.261-.344a3.449 3.449 0 0 0 .356-1.573c0-.054-.007-.108-.014-.165l-.01-.08a.044.044 0 0 0-.024-.035.044.044 0 0 0-.042.003.764.764 0 0 1-.021.012c-.012.008-.022.013-.03.02a2.358 2.358 0 0 0-.962 1.712l-.012-.145-.001-.017a42.53 42.53 0 0 1-.043-.576c-.003-.049-.013-.097-.022-.142a.516.516 0 0 1-.007-.258l.015-.06c.013-.048.073-.124.166-.206l.003-.003c.034-.029.209-.189.308-.506.1-.321.093-.658.088-.903v-.006a2.844 2.844 0 0 0-.119-.825c-.01-.03-.02-.06-.032-.09l-.02-.05a.044.044 0 0 0-.033-.028h-.008a.043.043 0 0 0-.034.015l-.072.089a2.194 2.194 0 0 0-.505 1.472c.001.098.008.198.021.301a8.568 8.568 0 0 0-.308-.883.068.068 0 0 1-.004-.021l-.001-.039a2.728 2.728 0 0 1 0-.172c0-.01.006-.026.02-.043a.905.905 0 0 1 .058-.071.97.97 0 0 0 .101-.133c.094-.157.138-.342.138-.583a3.54 3.54 0 0 0-.137-.94 2.41 2.41 0 0 0-.277-.676.666.666 0 0 0-.05-.068.046.046 0 0 0-.038-.018.045.045 0 0 0-.035.023 2.229 2.229 0 0 0-.28 1.083 2.92 2.92 0 0 0 .113.841 8.37 8.37 0 0 0-.547-.869l-.005-.006c-.004-.006-.006-.01-.006-.007a5.259 5.259 0 0 1-.027-.223s.001-.006.01-.022l.043-.067c.031-.047.063-.095.083-.149.062-.163.075-.348.042-.565-.073-.481-.285-.914-.648-1.324-.037-.043-.079-.08-.122-.119l-.012-.01-.053-.049a.044.044 0 0 0-.043-.01.044.044 0 0 0-.03.032l-.007.035a.601.601 0 0 0-.013.06c-.05.291-.046.604.01.956.057.348.168.648.339.91a6.966 6.966 0 0 0-.766-.78.024.024 0 0 1-.003-.007.732.732 0 0 0-.132-.505 1.337 1.337 0 0 0-.593-.49 9.803 9.803 0 0 0-.457-.178 19.176 19.176 0 0 1-.22-.083c-.056-.022-.089-.031-.108-.027ZM9 3.633a.226.226 0 0 0-.202.126l-1.12 2.27-2.506.364a.225.225 0 0 0-.125.384L6.86 8.543l-.428 2.496a.225.225 0 0 0 .328.237L9 10.098l2.24 1.178a.224.224 0 0 0 .238-.017.225.225 0 0 0 .09-.22l-.428-2.496 1.813-1.767a.225.225 0 0 0-.125-.384l-2.505-.364-1.12-2.27A.226.226 0 0 0 9 3.632z" fill="currentColor"/></symbol><symbol id="icon-call" viewBox="0 0 18 14.206"><path d="M2.068 0C0 0 0 2.068 0 2.068v10.07c0 2.068 2.068 2.068 2.068 2.068h13.864C18 14.206 18 12.138 18 12.138V2.068C18 0 15.932 0 15.932 0Zm3.939 2.265c.062-.01.134 0 .217.03.134.052.258.156.445.342.392.393.93 1.25 1.127 1.675.134.29.227.475.227.692 0 .249-.124.435-.28.641-.03.042-.05.073-.082.114-.165.217-.207.28-.176.383.042.227.404.9.993 1.488.6.59 1.24.92 1.468.972.114.021.176-.01.403-.186.031-.02.062-.051.104-.072.227-.176.403-.29.651-.29.207 0 .393.093.693.238.382.197 1.271.724 1.664 1.117.186.196.29.32.341.455.083.206.01.362-.04.475a.14.14 0 0 1-.022.062 4.992 4.992 0 0 1-.33.61c-.228.352-.466.61-.859.796a1.334 1.334 0 0 1-.63.135c-.424 0-1.013-.145-1.903-.641-1.085-.61-1.923-1.169-2.988-2.244C5.986 8.023 5.49 7.362 4.787 6.08c-.796-1.458-.662-2.213-.517-2.533.186-.393.455-.62.796-.859.196-.124.403-.237.62-.32l.062-.031a.589.589 0 0 1 .259-.072z" fill="currentColor"/></symbol><symbol id="icon-collabratec" viewBox="0 0 32 32"><path d="M5.057.088A4.425 4.425 0 0 0 .62 4.523v21.954a4.425 4.425 0 0 0 4.436 4.435h21.886a4.425 4.425 0 0 0 4.436-4.435V4.523A4.425 4.425 0 0 0 26.943.088H5.057zm7.115 5.103c1.074-.002 2.543.08 4.103.303l2.498.434c2.263.357 3.808.854 4.747 1.593.469.28.772.714 1.09 1.288.303.497.536 1.146.619 1.873.068.497.152 1.224.152 2.168.069.854.068 2.013.068 3.377h.014c0 1.083 0 2.09-.068 2.88a11.026 11.026 0 0 1-.387 2.092c-.235.574-.468 1.082-.785 1.516-.304.433-.773.867-1.243 1.084-.386.217-.923.433-1.64.637-.69.216-1.547.434-2.65.574l-2.497.433c-2.8.434-4.91.51-6.152.077-1.476-.434-2.498-1.594-2.967-3.391-.152-.637-.318-1.657-.386-2.881a73.849 73.849 0 0 1-.15-4.754c0-1.517.068-2.88.22-3.951.165-1.147.4-2.026.703-2.74a4.773 4.773 0 0 1 1.324-1.658c.538-.434 1.16-.727 1.945-.868.295-.052.797-.084 1.442-.086zm3.646 3.967c-2.945.067-5.406 2.557-5.406 5.998 0 3.455 2.497 6.118 6.084 5.621l.455-.076c.083 0 .166-.076.166-.217V18.97c0-.077-.082-.217-.234-.14l-.469.064c-2.028.216-3.656-1.29-3.656-3.737 0-1.223.455-2.307 1.076-2.957.786-.714 1.408-.993 2.498-.93l2.262.14c.083 0 .234-.064.234-.204V9.611c0-.076-.07-.14-.152-.216l-2.262-.217c-.2-.018-.4-.024-.596-.02zm.057 3.551c-.083 0-.234.065-.234.205v1.44a.23.23 0 0 0 .234.216h2.885v7.992c0 .14.069.218.234.141l1.393-.14c.069 0 .152-.065.152-.141v-7.928h2.346c.069 0 .234-.064.234-.217v-1.21c.07 0 0-.077-.166-.077l-7.078-.281z" fill="currentColor"/></symbol><symbol id="icon-facebook" viewBox="0 0 18 18"><path d="M15.71 0H2.29A2.3 2.3 0 0 0 .664.675 2.314 2.314 0 0 0 0 2.29v13.431c0 .608.243 1.184.664 1.615a2.303 2.303 0 0 0 1.626.675h6.572v-7.49H7.368V7.523h1.483v-1.36c0-1.229.586-3.143 3.153-3.143l2.312.011v2.567h-1.682c-.265 0-.652.144-.652.72v1.205h2.378l-.276 2.998H11.86v7.49h3.85c.299 0 .597-.066.874-.177a2.29 2.29 0 0 0 .752-.498c.21-.21.376-.464.487-.741.122-.277.177-.575.177-.874V2.291c0-.3-.055-.598-.177-.875a2.213 2.213 0 0 0-.487-.741 2.29 2.29 0 0 0-.752-.498A2.37 2.37 0 0 0 15.71 0Z" fill="currentColor"/></symbol><symbol id="icon-instagram" viewBox="0 0 18 18"><path fill="currentColor" d="M4.936 0A4.942 4.942 0 0 0 0 4.936v8.128A4.942 4.942 0 0 0 4.936 18h8.128A4.942 4.942 0 0 0 18 13.064V4.936A4.942 4.942 0 0 0 13.064 0Zm9.297 2.267c.827 0 1.5.673 1.5 1.5s-.673 1.5-1.5 1.5-1.5-.673-1.5-1.5.673-1.5 1.5-1.5zm-.024 1.065a.436.436 0 1 0 .024 0h-.024zM9 4.064A4.94 4.94 0 0 1 13.936 9 4.94 4.94 0 0 1 9 13.936 4.94 4.94 0 0 1 4.064 9 4.94 4.94 0 0 1 9 4.064Zm0 1.062A3.878 3.878 0 0 0 5.126 9 3.878 3.878 0 0 0 9 12.874 3.878 3.878 0 0 0 12.874 9 3.878 3.878 0 0 0 9 5.126Z"/></symbol><symbol id="icon-linkedin" viewBox="0 0 18 18"><path d="M13.478 0H4.51A4.523 4.523 0 0 0 0 4.511V13.5C0 15.966 2.023 18 4.511 18h8.978A4.523 4.523 0 0 0 18 13.489V4.51C17.989 2.034 15.966 0 13.478 0ZM5.993 14.572H3.428v-7.43h2.565ZM4.699 6.004c-.73 0-1.316-.586-1.316-1.316a1.31 1.31 0 1 1 2.62 0c-.01.73-.596 1.316-1.304 1.316Zm9.873 8.568h-2.156v-3.604c0-.873-.11-1.98-1.293-1.98-1.216 0-1.415.94-1.415 1.925v3.66H7.563v-7.43h2v.995h.056c.32-.564 1.05-1.007 2.19-1.007 2.354 0 2.763 1.35 2.763 3.373z" fill="currentColor"/></symbol><symbol id="icon-logo" viewBox="0 0 313.4 119.67"><path d="M64.77 7.44h11.78v42.53H64.77Zm18 42.53V7.44h32.45v8.23H94.58v8.79h19v8.26h-19v9h20.64v8.23Zm39 0V7.44h32.38v8.23h-20.61v8.79h19v8.26h-19v9h20.61v8.23Zm39 0V7.44h32.39v8.23h-20.61v8.79h19v8.26h-19v9h20.61v8.23ZM26.98 7.91c1.88-1.48 4.24-.25 5.81 1.1a52.28 52.28 0 0 1 4.9 4.18l.28.15A82.17 82.17 0 0 1 49.28 26.1a3.42 3.42 0 0 1 .65 2.76c-1.06 2.67-3.23 4.81-5.11 7.13a86.6 86.6 0 0 1-13.29 12.09c-1 .69-2.32 1.32-3.49.79-3.55-1.89-6.59-4.93-9.67-7.73a66.55 66.55 0 0 1-10-11.34 3.34 3.34 0 0 1-.53-2 10.9 10.9 0 0 1 2.26-3.77 92.31 92.31 0 0 1 11.18-11.62l.44-.34a64.43 64.43 0 0 1 5.21-4.12m5.5-4.3-2.07-3c-.29-.15-.6-.37-.88-.5a1.88 1.88 0 0 0-1.82.47l-3.84 5A103.46 103.46 0 0 1 2.31 25.84c-.63.5-1.57 1-1.76 1.79a1.81 1.81 0 0 0 .63 1.79A105 105 0 0 1 19.08 45c1 1 1.76 2 2.7 3 1.6 2.11 3.46 4.25 4.93 6.51.48.5.54 1.25 1.26 1.5a2.19 2.19 0 0 0 1.79 0l.53-.53a106.5 106.5 0 0 1 24.35-24.56c.94-.85 2.73-1.13 2.76-2.7a2.41 2.41 0 0 0-1.1-1.82h-.16a94.39 94.39 0 0 1-13.52-11.3l-4.65-4.83c-1.89-2.11-3.74-4.43-5.5-6.66m-4.8 5.46c1.91-1.32 3.64.51 5.12 1.57A77.4 77.4 0 0 1 48.11 26.6a2.9 2.9 0 0 1 .32 2.82 43 43 0 0 1-3.9 5.09v.09a103.19 103.19 0 0 1-11 10.46c-1.88 1.16-3.64 3.7-6.09 2.13A88.91 88.91 0 0 1 11.99 32.6c-.75-1.23-1.94-2.2-2.51-3.55-.72-1.82.94-3.14 1.89-4.56A80.55 80.55 0 0 1 27.67 9.1m1.22 3.77-.53 1.64-2.61 7.5c.63.06 1.48 0 2.1.06v.07l-.37 8.48.06.06a11.33 11.33 0 0 0 2.73 0v-.16l-.34-8.19.06-.29h2.29c-1.16-3-2.26-6.09-3.33-9.17ZM20 24.52c-1.47.76-3.61 1.89-3.39 3.87a4.23 4.23 0 0 0 2.45 2.21c5.18 2.29 12.09 2.35 17.59.66 1.32-.54 3.14-1.26 3.39-3 0-1.35-1.44-2.2-2.51-2.74v-.06a3.14 3.14 0 0 1 1.16-.31v-.07c-1.82-.31-3.61-.78-5.37-1.25.31.78.57 1.57.85 2.42a7.65 7.65 0 0 1 1.66-.38c.94.34 2.3.88 2.42 2s-1.1 1.63-1.85 2.07a21.5 21.5 0 0 1-12.75.51c-1.13-.38-2.83-.85-3-2.33.82-1.91 3-2.32 4.71-2.82-.91-.57-1.82-1.1-2.73-1.76a8.15 8.15 0 0 0-2.67.84m7.42 8.45c-.16 3-.19 5.78-.41 8.8a16.94 16.94 0 0 0 3.77 0l-.35-8.39-.06-.41a20.86 20.86 0 0 1-3 0M38.5 50.15a1.92 1.92 0 0 0-2 2 1.92 1.92 0 0 0 2 2 1.87 1.87 0 0 0 2-1.78v-.2a1.89 1.89 0 0 0-1.78-2h-.2m0 3.49a1.42 1.42 0 0 1-1.41-1.51 1.41 1.41 0 0 1 1.41-1.5 1.43 1.43 0 0 1 1.42 1.5 1.42 1.42 0 0 1-1.44 1.45m.88-1.91c0-.51-.31-.63-.85-.63h-.76v2.1h.47v-.91h.22l.47.91h.53l-.53-.94c.31 0 .5-.16.5-.53m-.78.22h-.41v-.54h.31c.16 0 .41 0 .41.25s-.13.29-.31.29M.138 82.069h4.004V92.8h2.214V82.069h4.021v-1.912H.138ZM11.847 92.8h2.214v-4.246l1.798-1.79L20.01 92.8h2.759l-5.396-7.601 5.041-5.042H19.69l-5.63 5.751v-5.75h-2.213zm12.098 0h2.101v-9.754h.035l3.51 9.754h1.825l3.502-9.754h.035V92.8h2.11V80.157h-3.078l-3.408 9.902h-.034l-3.485-9.902h-3.113zm31.45-8.622q-.233-2.058-1.703-3.19-1.47-1.133-3.666-1.133-2.854.034-4.445 1.945-1.609 1.877-1.609 4.679 0 2.776 1.609 4.66 1.59 1.912 4.445 1.964 2.36-.018 3.787-1.436 1.436-1.4 1.6-3.684H53.25q-.121 1.401-.925 2.335-.813.96-2.3.977-1.998-.034-2.923-1.504-.934-1.436-.917-3.312-.017-1.911.917-3.33.925-1.452 2.923-1.487 1.383.017 2.144.71.761.691 1.012 1.806zm5.95 7.273q-1.34-.017-1.963-1.038-.64-.96-.64-2.196 0-1.263.64-2.214.623-.977 1.963-1.012 1.35.035 1.989 1.012.614.951.614 2.214 0 1.236-.614 2.196-.64 1.02-1.989 1.038zm0 1.6q2.231-.018 3.433-1.384 1.193-1.314 1.193-3.45 0-2.145-1.193-3.476-1.202-1.323-3.433-1.34-2.214.017-3.398 1.34-1.22 1.331-1.22 3.476 0 2.136 1.22 3.45 1.184 1.366 3.398 1.384zm6.356-.251h2.015V80.157H67.7zm4.272 0h2.015V80.157h-2.015zm12.521-4.056q.234-2.162-.934-3.718-1.167-1.591-3.38-1.626-2.059.035-3.226 1.427-1.202 1.384-1.202 3.407 0 2.136 1.167 3.45 1.15 1.332 3.312 1.367 1.54-.018 2.672-.822 1.116-.813 1.47-2.3h-1.91q-.502 1.522-2.232 1.522-1.245-.017-1.86-.83-.604-.778-.604-1.877zm-6.727-1.331q.069-1.055.709-1.73.657-.674 1.703-.692 1.038.018 1.643.727.606.709.657 1.695zm12.262 3.796q-1.246-.017-1.825-.96-.588-.9-.588-2.067-.017-1.21.554-2.179.544-.977 1.859-1.012 1.323.018 1.894.9.562.89.562 2.127 0 1.22-.545 2.18-.57.994-1.911 1.01zm4.48-7.567h-2.024v1.263h-.035q-.39-.778-1.098-1.15-.727-.355-1.609-.355-1.945.035-3.026 1.358-1.116 1.314-1.116 3.225-.017 2.015.969 3.382.977 1.418 3.139 1.435 1.807-.017 2.741-1.608h.035v1.392q.017 2.326-2.353 2.343-.778 0-1.383-.25-.597-.269-.813-1.099h-2.015q.19 1.574 1.427 2.214 1.21.64 2.663.64 4.445 0 4.497-4.108zm10.333 5.102q.233-2.162-.934-3.718-1.168-1.591-3.381-1.626-2.058.035-3.226 1.427-1.202 1.384-1.202 3.407 0 2.136 1.168 3.45 1.15 1.332 3.312 1.367 1.539-.018 2.672-.822 1.115-.813 1.47-2.3h-1.911q-.502 1.522-2.231 1.522-1.246-.017-1.86-.83-.605-.778-.605-1.877zm-6.728-1.331q.07-1.055.71-1.73.656-.674 1.703-.692 1.037.018 1.643.727.605.709.657 1.695zm17.39 4.038q-1.34-.017-1.963-1.038-.64-.96-.64-2.196 0-1.263.64-2.214.623-.977 1.963-1.012 1.35.035 1.989 1.012.614.951.614 2.214 0 1.236-.614 2.196-.64 1.02-1.989 1.038zm0 1.6q2.231-.018 3.433-1.384 1.194-1.314 1.194-3.45 0-2.145-1.194-3.476-1.202-1.323-3.433-1.34-2.214.017-3.398 1.34-1.22 1.331-1.22 3.476 0 2.136 1.22 3.45 1.184 1.366 3.398 1.384zm5.396-7.904h1.505V92.8h2.023v-7.653h1.721v-1.505h-1.72v-.934q0-.588.302-.778.285-.181.692-.181.58 0 .934.103v-1.574q-.459-.12-1.418-.12-.476 0-.917.086-.458.104-.813.389-.355.285-.57.813-.234.553-.234 1.435v.761H120.9zm11.692 7.653h9.226v-1.911h-7.013v-3.701h6.373V85.38h-6.373v-3.31h6.884v-1.912h-9.097zm10.87 0h2.014v-5.405q0-1.02.623-1.712.57-.674 1.591-.692 1.755-.017 1.79 2.05V92.8h2.024v-6.287q-.078-3.095-3.243-3.113-1.877.035-2.854 1.626l-.035-.035v-1.349h-1.91zm14.147-1.591q-1.246-.017-1.825-.96-.588-.9-.588-2.067-.017-1.21.553-2.179.545-.977 1.86-1.012 1.323.018 1.893.9.562.89.562 2.127 0 1.22-.544 2.18-.571.994-1.911 1.01zm4.479-7.567h-2.024v1.263h-.034q-.39-.778-1.098-1.15-.727-.355-1.609-.355-1.945.035-3.026 1.358-1.116 1.314-1.116 3.225-.017 2.015.969 3.382.977 1.418 3.139 1.435 1.807-.017 2.74-1.608h.035v1.392q.018 2.326-2.352 2.343-.778 0-1.383-.25-.597-.269-.813-1.099H153.5q.19 1.574 1.427 2.214 1.21.64 2.663.64 4.445 0 4.497-4.108zm2.084 9.158h2.015v-9.158h-2.015zm0-10.731h2.015v-1.912h-2.015zm4.22 10.731h2.015v-5.405q0-1.02.622-1.712.571-.674 1.592-.692 1.755-.017 1.79 2.05V92.8h2.023v-6.287q-.078-3.095-3.243-3.113-1.876.035-2.853 1.626l-.035-.035v-1.349h-1.911zm18.462-4.056q.234-2.162-.934-3.718-1.167-1.591-3.38-1.626-2.059.035-3.226 1.427-1.202 1.384-1.202 3.407 0 2.136 1.167 3.45 1.15 1.332 3.312 1.367 1.54-.018 2.672-.822 1.116-.813 1.47-2.3h-1.91q-.502 1.522-2.232 1.522-1.245-.017-1.86-.83-.604-.778-.604-1.877zm-6.727-1.331q.069-1.055.709-1.73.657-.674 1.703-.692 1.038.018 1.643.727.606.709.657 1.695zm16.577 1.331q.233-2.162-.934-3.718-1.168-1.591-3.381-1.626-2.058.035-3.226 1.427-1.202 1.384-1.202 3.407 0 2.136 1.168 3.45 1.15 1.332 3.312 1.367 1.539-.018 2.672-.822 1.115-.813 1.47-2.3h-1.911q-.502 1.522-2.231 1.522-1.246-.017-1.86-.83-.605-.778-.605-1.877zm-6.728-1.331q.07-1.055.71-1.73.656-.674 1.703-.692 1.037.018 1.643.727.605.709.657 1.695zm8.276 5.387h2.015v-4.358q.017-1.522.726-2.335.692-.796 1.755-.796.234 0 .441.018.217.034.424.069v-1.946q-.156-.034-.76-.052-.952.018-1.696.614-.76.623-.977 1.401h-.035v-1.773h-1.893zm6.286 0h2.015v-9.158h-2.015zm0-10.731h2.015v-1.912h-2.015zm4.22 10.731h2.015v-5.405q0-1.02.623-1.712.57-.674 1.591-.692 1.755-.017 1.79 2.05V92.8h2.023v-6.287q-.077-3.095-3.242-3.113-1.877.035-2.854 1.626l-.035-.035v-1.349h-1.91zm14.148-1.591q-1.246-.017-1.825-.96-.588-.9-.588-2.067-.017-1.21.553-2.179.545-.977 1.86-1.012 1.323.018 1.893.9.562.89.562 2.127 0 1.22-.544 2.18-.571.994-1.911 1.01zm4.479-7.567h-2.024v1.263h-.034q-.39-.778-1.098-1.15-.727-.355-1.609-.355-1.945.035-3.026 1.358-1.116 1.314-1.116 3.225-.017 2.015.969 3.382.977 1.418 3.139 1.435 1.807-.017 2.74-1.608h.035v1.392q.018 2.326-2.352 2.343-.778 0-1.383-.25-.597-.269-.813-1.099h-2.015q.19 1.574 1.427 2.214 1.21.64 2.663.64 4.445 0 4.497-4.108zM1.349 115.53h2.214v-12.643H1.349Zm4.92 0h9.227v-1.911H8.483v-3.701h6.373v-1.808H8.483v-3.31h6.884v-1.912H6.269Zm11.156 0h9.226v-1.911h-7.013v-3.701h6.374v-1.808h-6.374v-3.31h6.884v-1.912h-9.097zm11.155 0h9.227v-1.911h-7.013v-3.701h6.373v-1.808h-6.373v-3.31h6.883v-1.912H28.58zm15.315-4.211q.103 2.335 1.59 3.415 1.47 1.099 3.684 1.099 1.963 0 3.468-.926 1.522-.934 1.557-3.044 0-1.029-.597-1.928-.605-.89-1.86-1.297-2.161-.597-3.648-.969-.675-.198-1.081-.588-.424-.389-.424-1.046 0-.476.225-.813.216-.32.57-.493.355-.199.744-.268.407-.069.778-.069 1.168 0 1.894.493.744.519.83 1.738h2.214q-.035-1.997-1.41-3.026-1.383-1.012-3.441-1.012-1.764 0-3.148.882-1.435.925-1.47 2.836-.017 1.012.597 1.86.605.864 2.196 1.348 2.534.614 3.78 1.047.423.12.726.475.294.355.31 1.081 0 .744-.596 1.306-.622.588-2.075.605-1.358.018-2.249-.64-.933-.614-.95-2.066zm11.025-3.442h1.522v5.405q-.017 1.15.502 1.738.51.58 2.032.596.657-.017 1.314-.103v-1.557q-.424.087-.847.07-.64 0-.822-.32-.173-.32-.156-.935v-4.894h1.825v-1.505h-1.825v-2.74h-2.023v2.74H54.92Zm14.865-1.505h-2.023v5.319q0 1.08-.476 1.764-.519.709-1.773.726-.813 0-1.271-.51-.484-.493-.484-1.686v-5.613h-2.015v5.811q-.052 3.598 3.416 3.598.795-.018 1.504-.424.71-.415 1.099-1.098h.034v1.271h1.989zm3.692 4.679q-.017-1.298.588-2.3.597-.995 1.98-1.03 2.483.052 2.534 3.226 0 1.236-.588 2.196-.63 1.02-1.98 1.038-1.297-.017-1.91-.986-.624-.925-.624-2.144zm7.048-8.164H78.51v4.67h-.034q-.485-.76-1.315-1.098-.83-.329-1.738-.329-1.54 0-2.724 1.133-1.202 1.15-1.236 3.623 0 2.093 1.08 3.46 1.056 1.4 3.2 1.435.908 0 1.67-.372.76-.355 1.166-1.116h.035v1.237h1.911zm10.498 8.587q.234-2.162-.934-3.718-1.167-1.591-3.38-1.626-2.059.035-3.226 1.427-1.202 1.384-1.202 3.407 0 2.136 1.167 3.45 1.15 1.332 3.312 1.367 1.54-.018 2.672-.822 1.116-.813 1.47-2.3h-1.911q-.502 1.522-2.231 1.522-1.245-.017-1.86-.83-.605-.778-.605-1.877zm-6.728-1.331q.07-1.055.71-1.73.657-.674 1.703-.692 1.038.018 1.643.727t.657 1.695zm8.276 5.387h2.015v-5.405q0-1.02.623-1.712.57-.674 1.59-.692 1.756-.017 1.79 2.05v5.759h2.024v-6.287q-.078-3.095-3.243-3.113-1.876.035-2.853 1.626l-.035-.035v-1.349h-1.91zm9.236-7.653h1.521v5.405q-.017 1.15.502 1.738.51.58 2.032.596.657-.017 1.315-.103v-1.557q-.424.087-.848.07-.64 0-.821-.32-.173-.32-.156-.935v-4.894h1.825v-1.505h-1.825v-2.74h-2.023v2.74h-1.522zm14.242 1.894h3.909q2.092.017 2.127 1.954-.035 1.98-2.127 1.998h-3.91zm-2.214 5.759h5.803q2.464-.017 3.58-1.029 1.08-.986 1.08-2.5-.017-2.671-2.369-3.25v-.035q1.782-.761 1.799-2.698-.017-1.591-1.02-2.37-1.012-.76-2.733-.76h-6.14zm2.214-10.835h3.606q1.842-.035 1.86 1.73-.018.855-.511 1.296-.528.459-1.35.459h-3.605zm9.97 10.835h2.015v-4.358q.018-1.522.727-2.335.691-.796 1.755-.796.234 0 .441.018.216.034.424.069v-1.946q-.156-.034-.761-.052-.951.018-1.695.614-.761.623-.977 1.401h-.035v-1.773h-1.894zm11.882-4.583v1.505q0 .475-.207.795-.234.32-.589.528-.354.198-.726.302-.389.104-.744.104-.588.017-1.184-.26-.657-.25-.675-.907 0-.779.51-1.116.485-.32 1.133-.406.692-.104 1.367-.19.657-.096 1.115-.355zm2.024-2.162q-.044-1.453-1.16-2.075-1.089-.58-2.507-.58-1.565-.017-2.767.614-.58.337-.951.925-.372.597-.45 1.505h2.023q.087-.744.64-1.115.51-.338 1.375-.338.658-.017 1.263.208.614.25.631 1.029-.017.813-.813.977-.372.087-.864.138-.493.07-1.064.182-.64.052-1.254.173-.623.164-1.133.441-.519.285-.821.822-.312.544-.312 1.41.018 1.33.952 2.005.925.675 2.179.675.847 0 1.72-.286.848-.268 1.453-.83.139.597.545.865.407.25 1.012.25.674-.017 1.271-.233v-1.4q-.32.034-.493.034-.493.017-.475-.692zm2.179 6.745h2.015v-5.405q0-1.02.622-1.712.57-.674 1.591-.692 1.756-.017 1.79 2.05v5.759h2.024v-6.287q-.078-3.095-3.243-3.113-1.876.035-2.854 1.626l-.034-.035v-1.349h-1.911zm18.358-6.088q-.173-1.703-1.331-2.516-1.15-.796-2.794-.796-2.248.018-3.363 1.41-1.15 1.383-1.15 3.51 0 2.05 1.167 3.364 1.115 1.332 3.277 1.367 3.589-.035 4.194-3.684h-2.015q-.354 2.05-2.179 2.084-1.297-.017-1.859-1.003-.57-.943-.57-2.127 0-1.064.267-1.721.251-.657.623-1.003.39-.372.813-.502.44-.104.813-.104 1.772.018 2.092 1.721zm1.652 6.088h2.015v-5.405q0-1.02.622-1.712.571-.674 1.592-.692 1.755-.017 1.79 2.05v5.759h2.023v-6.287q-.078-3.095-3.243-3.113-.908 0-1.634.39-.726.406-1.116 1.063h-.034v-4.696h-2.015z" fill="currentColor"/><path fill="currentColor" d="M286.93 67.02H.32v-.93h286.2l26.17-28.85.71.67-26.47 29.11z"/></symbol><symbol id="icon-mail" viewBox="0 0 18 14.278"><path d="M15.502 0a2.466 2.466 0 0 0-1.629.622 2.49 2.49 0 0 0-.492.595v.002c-.021.035-.04.07-.06.106l-.01.018a2.143 2.143 0 0 0-.097.209l-.013.037c-.01.027-.022.054-.031.081l-.014.04-.023.08-.014.045-.02.08-.01.046-.016.077-.01.049-.01.083-.007.049-.006.089c0 .014-.003.028-.004.042a2.463 2.463 0 0 0 0 .248v.024c.002.036.004.074.008.11l.002.017c.003.033.006.067.011.1a2.467 2.467 0 0 0 .023.126c0 .008.003.016.004.024.007.034.015.066.024.1v.007c.008.034.018.067.029.1l.01.028c.01.033.02.064.032.097l.008.021.031.083a.423.423 0 0 0 .01.024l.042.09.012.026.043.081a2.497 2.497 0 0 0 1.152 1.085l.016.008c.069.031.14.058.211.083l.037.012.058.02.052.015.076.02.066.015.044.007.072.014.037.006c.035.005.07.01.105.013l.03.002c.029.003.057.005.086.006l.033.002c.038 0 .076.004.114.004.045 0 .09 0 .134-.004l.04-.004c.03-.002.062-.003.091-.006l.049-.007.081-.01.049-.01c.026-.004.053-.01.077-.015l.049-.012c.026-.006.052-.012.077-.02l.045-.01.08-.026.042-.014.081-.03.035-.014a1.75 1.75 0 0 0 .087-.037l.03-.014a2.07 2.07 0 0 0 .092-.046l.02-.01c.035-.02.071-.039.106-.06h.002c.224-.131.426-.296.599-.49.4-.453.62-1.038.62-1.643A2.482 2.482 0 0 0 15.502 0ZM2.172.622A2.173 2.173 0 0 0 0 2.794v9.312a2.173 2.173 0 0 0 2.172 2.172h13.036a2.173 2.173 0 0 0 2.172-2.172V5.712a3.72 3.72 0 0 1-4.214-.335L9.072 8.56a.624.624 0 0 1-.764 0L2.722 4.216a.614.614 0 0 1-.24-.414.622.622 0 0 1 .124-.462.629.629 0 0 1 .419-.236.616.616 0 0 1 .459.132l5.206 4.05 3.654-2.845A3.723 3.723 0 0 1 12.29.622z" fill="currentColor"/></symbol><symbol id="icon-menu" viewBox="0 0 17 14"><path stroke="currentColor" stroke-linecap="round" stroke-linejoin="round" stroke-width="2" d="M1 1h15M1 7h15M1 13h15"/></symbol><symbol id="icon-mission" viewBox="0 0 18 17.999"><path d="m15.83 0-2.343 2.343-.344 2.513 2.513-.344L18 2.168l-1.582-.586ZM8.344 1.311a8.288 8.288 0 0 0-5.899 2.444A8.29 8.29 0 0 0 0 9.655c0 2.23.868 4.324 2.444 5.9A8.288 8.288 0 0 0 8.344 18a8.29 8.29 0 0 0 5.9-2.444 8.288 8.288 0 0 0 2.444-5.9 8.331 8.331 0 0 0-1.062-4.075l-2.077.285a6.408 6.408 0 0 1 1.237 3.79 6.45 6.45 0 0 1-6.443 6.442 6.449 6.449 0 0 1-6.44-6.441 6.449 6.449 0 0 1 6.44-6.442 6.41 6.41 0 0 1 3.79 1.236l.286-2.077A8.332 8.332 0 0 0 8.343 1.31Zm0 2.957a5.393 5.393 0 0 0-5.386 5.388 5.392 5.392 0 0 0 5.386 5.386 5.393 5.393 0 0 0 5.388-5.386c0-1.296-.46-2.487-1.226-3.417l-1.354 1.355c.425.577.678 1.29.678 2.062a3.489 3.489 0 0 1-3.486 3.484A3.488 3.488 0 0 1 4.86 9.656 3.488 3.488 0 0 1 8.343 6.17c.771 0 1.485.252 2.063.677l1.354-1.354a5.364 5.364 0 0 0-3.417-1.226Zm0 2.957c-1.34 0-2.429 1.09-2.429 2.43s1.09 2.43 2.43 2.43 2.43-1.09 2.43-2.43c0-.479-.14-.926-.381-1.303l-1.676 1.676-.746-.745 1.676-1.677a2.417 2.417 0 0 0-1.304-.38Z" fill="currentColor"/></symbol><symbol id="icon-pencil-fill" viewBox="0 0 18 18"><path d="M14.46.165a.562.562 0 0 0-.795 0l-1.853 1.853 4.17 4.17 1.853-1.852a.562.562 0 0 0 0-.796zm.727 6.818-4.17-4.17-7.313 7.312h.233a.562.562 0 0 1 .563.563v.562h.562a.562.562 0 0 1 .563.563v.562h.562a.562.562 0 0 1 .562.563v.562h.563a.562.562 0 0 1 .562.563v.233zm-8.402 8.402a.562.562 0 0 1-.036-.197v-.563h-.562a.562.562 0 0 1-.562-.562V13.5h-.563a.562.562 0 0 1-.562-.562v-.563h-.563a.562.562 0 0 1-.562-.562v-.563h-.563a.562.562 0 0 1-.197-.036l-.201.2a.562.562 0 0 0-.124.19L.04 17.228a.562.562 0 0 0 .731.732l5.625-2.25a.562.562 0 0 0 .19-.124z" fill="currentColor"/></symbol><symbol id="icon-quote" viewBox="0 0 18 16.272"><path d="M16.2 16.272c.477 0 .935-.19 1.273-.53.337-.339.527-.798.527-1.278v-4.415c0-.48-.19-.94-.527-1.279a1.796 1.796 0 0 0-1.273-.53h-2.498c0-.634.037-1.27.111-1.905a6.364 6.364 0 0 1 .558-1.793c.261-.525.596-.935 1.006-1.235.41-.336.93-.505 1.563-.505V0c-1.042 0-1.953.224-2.736.673a5.99 5.99 0 0 0-1.953 1.793 8.916 8.916 0 0 0-1.116 2.636 14.004 14.004 0 0 0-.335 3.139v6.223c0 .48.19.94.527 1.278.338.34.796.53 1.273.53zm-10.8 0a1.808 1.808 0 0 0 1.8-1.808v-4.415c0-.48-.19-.94-.527-1.279A1.796 1.796 0 0 0 5.4 8.24H2.902c0-.634.038-1.27.111-1.905a6.364 6.364 0 0 1 .558-1.793c.261-.525.596-.935 1.007-1.235.408-.336.928-.505 1.562-.505V0C5.098 0 4.187.224 3.404.673a5.99 5.99 0 0 0-1.953 1.793A8.916 8.916 0 0 0 .335 5.102 14.003 14.003 0 0 0 0 8.241v6.223a1.807 1.807 0 0 0 1.8 1.808z" fill="currentColor"/></symbol><symbol id="icon-twitter" viewBox="0 0 18 18"><path d="M1.946 0A1.948 1.948 0 0 0 0 1.946v14.108C0 17.127.873 18 1.946 18h14.108A1.948 1.948 0 0 0 18 16.054V1.946A1.948 1.948 0 0 0 16.054 0Zm.917 2.732h3.66l3.162 4.61 3.958-4.61h1.083l-4.564 5.307 4.962 7.219h-3.647l-3.339-4.865-4.19 4.865H2.862l4.787-5.56Zm1.47.796 3.86 5.528.487.695 3.304 4.72h1.671l-4.059-5.79-.486-.698-3.107-4.455Z" fill="currentColor"/></symbol><symbol id="icon-vision" viewBox="0 0 18 17.73"><path d="M8.472 0v2.4h1.055V0ZM5.348.614l-1 .385.677 2.27 1-.386Zm7.306.005-.676 2.27.998.386.677-2.27zm3.685 1.874-1.135 2.023.89.645 1.134-2.022zm-14.68.002L.77 3.14l1.135 2.022.89-.645ZM9 4.2c-2.033 0-3.691 1.867-3.691 4.197 0 2.332 1.66 4.198 3.69 4.198a3.4 3.4 0 0 0 2.212-.835l.837.952c-.28.669-.178 1.495.308 2.048l2.61 2.97 2.238-2.546-2.61-2.969a1.482 1.482 0 0 0-1.12-.527c-.24 0-.471.06-.681.175l-.836-.95c.461-.7.734-1.57.734-2.516C12.691 6.065 11.031 4.2 9 4.2zm-3.792.948a11.7 11.7 0 0 0-.744.402C2.912 6.46 1.389 7.783 0 9.598c2.232 2.925 5.584 5.399 8.999 5.399.69 0 1.383-.1 2.068-.286a3.384 3.384 0 0 1-.226-1.335 4.256 4.256 0 0 1-1.842.42c-1.266 0-2.456-.56-3.352-1.574-.899-1.02-1.394-2.377-1.394-3.824 0-1.19.335-2.319.954-3.25zm7.587.004c.617.93.952 2.057.952 3.245a6.04 6.04 0 0 1-.369 2.093c.032-.002.064-.002.097-.002.704 0 1.367.312 1.865.879l.528.6c.799-.72 1.521-1.53 2.133-2.384-1.386-1.81-3.208-3.449-5.206-4.431ZM8.999 6.598c.872 0 1.582.808 1.582 1.8 0 .993-.71 1.8-1.582 1.8-.873 0-1.582-.807-1.582-1.8 0-.992.71-1.8 1.582-1.8zm0 1.2c-.291 0-.527.269-.527.6 0 .332.236.6.527.6.291 0 .528-.268.528-.6 0-.331-.237-.6-.528-.6z" fill="currentColor"/></symbol></svg>