<svg xmlns="http://www.w3.org/2000/svg"><symbol fill="none" id="icon-call" viewBox="0 0 19 16"><path d="M18.878 3.202A2.503 2.503 0 0 0 14.22 1.92v.002a2.99 2.99 0 0 0-.06.107l-.01.02c-.016.03-.031.062-.046.093a2.108 2.108 0 0 0-.095.235l-.015.042a2.682 2.682 0 0 0-.037.126c-.008.026-.014.053-.02.078a2.09 2.09 0 0 0-.011.048l-.016.078-.009.05a2.761 2.761 0 0 0-.011.083l-.006.048-.008.09c0 .015-.002.029-.003.043a2.493 2.493 0 0 0 0 .25v.025c.002.036.004.073.008.11l.002.019c.004.033.007.066.013.098a2.352 2.352 0 0 0 .022.126c0 .01.003.017.004.026.008.034.015.067.024.1v.008c.009.035.019.069.03.103l.007.026.034.098.008.022a2.989 2.989 0 0 0 .084.199l.012.026.042.081a2.517 2.517 0 0 0 1.164 1.094l.015.007c.07.031.14.06.213.084l.037.013.058.018.054.016.075.02.067.015.045.009.072.013.037.005c.035.006.07.01.106.014l.03.003.087.006.033.002c.04 0 .076.003.114.003.046 0 .09 0 .135-.004l.042-.003.09-.007.05-.006.082-.012.05-.009.078-.015.048-.011a1.411 1.411 0 0 0 .123-.033l.081-.025.041-.014.083-.03.036-.015a2.2 2.2 0 0 0 .087-.037l.03-.013c.031-.015.063-.03.093-.047l.02-.01c.035-.019.071-.038.107-.06h.002a2.495 2.495 0 0 0 1.23-2.15Z" fill="#E0E0E0"/><path d="m14.004 6.114-4.128 3.21a.626.626 0 0 1-.768 0L3.477 4.946a.626.626 0 1 1 .768-.988l5.247 4.081 3.685-2.865a3.749 3.749 0 0 1-.055-3.85h-10.2a2.192 2.192 0 0 0-2.19 2.19v9.385a2.192 2.192 0 0 0 2.19 2.19h13.14a2.193 2.193 0 0 0 2.19-2.19V6.453a3.748 3.748 0 0 1-4.248-.339Z" fill="#E0E0E0"/></symbol><symbol id="icon-folder-music" viewBox="0 0 20 20"><path d="M18.405 2.799c-.112-.44-.656-.799-1.21-.799H2.805c-.555 0-1.099.359-1.21.799L1.394 4h17.211l-.2-1.201zM19.412 5H.587a.58.58 0 0 0-.577.635l.923 11.669a.77.77 0 0 0 .766.696H18.3a.77.77 0 0 0 .766-.696l.923-11.669A.58.58 0 0 0 19.412 5zm-7.47 7.521c-.128.265-.258.279-.202 0 .146-.721.047-2.269-1.043-2.441v3.294c0 .674-.311 1.262-1.136 1.528-.802.256-1.699-.011-1.908-.586-.21-.576.261-1.276 1.052-1.564.442-.161.954-.203 1.299-.07V8h.694c-.001 1.633 2.818 1.275 1.244 4.521z"/></symbol></svg>